<svg xmlns="http://www.w3.org/2000/svg" viewBox="0 0 214.02 62.17"><defs><style>.cls-1{fill:#020202;}</style></defs><g id="Layer_2" data-name="Layer 2"><g id="Layer_1-2" data-name="Layer 1"><path class="cls-1" d="M109.73,22.58c-.23-6.91-.44-13.82-.73-20.73,0-1.32.18-1.88,1.7-1.83,3.5.12,7,.11,10.53,0,1.41,0,1.64.46,1.62,1.71-.06,5.57,0,11.13,0,16.7-.6,2.62-.15,5.25.14,8q1.37-4.38,2.72-8.76c1.77-5.37,3.57-10.72,5.27-16.1A1.81,1.81,0,0,1,133,0c2.92.09,5.85.12,8.78,0,1.5-.06,1.77.51,1.73,1.84-.08,3.05,0,6.11,0,9.16,0,3.85-.06,7.69-.06,11.54,0,.44-.29,1.13.42,1.23s.71-.54.88-1q2.29-6.52,4.6-13c1-2.79,2.11-5.56,3-8.38.32-1,.74-1.35,1.77-1.34C158.1.09,162,.11,166,0c1.53,0,1.38.58,1,1.63-.71,1.69-1.33,3.42-2,5.14a124.07,124.07,0,0,0-4.65,11.92c-4,10.3-8.07,20.58-12,30.9-.47,1.22-1,1.76-2.38,1.71-3.3-.11-6.6-.16-9.89,0-1.82.09-2-.61-2-2.15.07-7.07,0-14.14,0-21.2,0-.5.39-1.3-.35-1.48-.92-.22-.85.68-1.05,1.26-2.55,7.29-5.15,14.56-7.63,21.88a2,2,0,0,1-2.39,1.67c-3.36-.11-6.74-.11-10.1,0-1.47.05-1.73-.45-1.75-1.79-.09-4.91-.32-9.83-.5-14.74C110.42,30.71,109.84,26.65,109.73,22.58Z"/><path class="cls-1" d="M71.18,32q1.48-9.9,3-19.79c.55-3.66,1.11-7.32,1.64-11C75.91.54,76,0,76.91.05c6.79.16,13.62-.5,20.35.8a14.68,14.68,0,0,1,8.36,4.43,9.46,9.46,0,0,1,2.28,9.46,17.81,17.81,0,0,1-7,10c-.29.68-1.29.07-1.59,1,4.65,1.74,7.49,4.85,7.22,10.1C105.59,44,97.78,51,89.2,51.23c-6.43.16-12.87,0-19.3.09-1.44,0-1.45-.61-1.29-1.64.29-2,.54-3.93.81-5.9A68.82,68.82,0,0,0,71.18,32Zm16.6,8.07c3.57.62,5.64-3.23,4.69-6.36-.58-1.92-2.2-2.09-4-2s-1.84,1.09-1.88,2.41a16.7,16.7,0,0,1-.46,4C85.65,39.9,86.31,40.32,87.78,40.08Zm3-28.72c-1.81-.58-2.28.68-2.42,2.34A21.09,21.09,0,0,1,88,17.08c-.46,1.83.24,2.46,2,2.27.42-.05.86,0,1.28-.1,1.92-.37,3.4-2.83,3.12-5.18C94.16,12.12,93.17,11.3,90.81,11.36Z"/><path class="cls-1" d="M32.64,33.35q6-15.92,11.92-31.84A1.67,1.67,0,0,1,46.42.27c5,0,10-.08,15-.24,1.47,0,1.87.36,2,1.87.63,10.32,1.39,20.63,2.1,30.94a70.47,70.47,0,0,0,.72,11.33c.12,2.06.16,4.13.37,6.17.09.86-.21,1-.89,1-4.43,0-8.87,0-13.3,0-.84,0-1.16-.25-1.08-1.09s0-1.57.08-2.35c.17-3,.17-3-3-3-1.86,0-4.06-.57-5.48.22s-1.4,3.24-2,5a1.6,1.6,0,0,1-1.79,1.34c-4-.06-8-.05-12,0-1.12,0-1.34-.24-.88-1.32.71-1.69,1.24-3.45,1.85-5.18A114.15,114.15,0,0,0,32.64,33.35Zm14.18-.05c1.24,0,2.24,0,3.23,0,.49,0,1,.09,1-.7,0-4,0-8,0-12l-.52-.08Z"/><path class="cls-1" d="M190.38,15.32q.75,11.74,1.49,23.49c.24,3.78.38,7.56.68,11.32.08,1-.19,1.19-1.1,1.18q-6.55,0-13.13,0c-.94,0-1.24-.25-1.07-1.23.31-1.67.95-3.88,0-4.89-.77-.83-3.1-.28-4.73-.29-3.78,0-3.95,0-5,3.65-.62,2.28-1.67,3-4,2.81-3.79-.23-7.59-.06-11.68-.06,1.6-4.26,3.15-8.35,4.67-12.45q3.79-10.26,7.58-20.53l-.06,0,.37-.31c1.48-3.86,3.12-7.67,4.3-11.64a18.07,18.07,0,0,0,1.31-3.34c.4-2.34,1.68-3,3.95-2.91,4.34.12,8.7.08,13-.13,2.07-.1,2.65.63,2.43,2.49a8.86,8.86,0,0,0,.09,1.7A98.46,98.46,0,0,0,190.38,15.32Zm-13.27,5.25-.55-.05c-1.09,3.76-2.19,7.52-3.25,11.29-.16.55-.79,1.63.54,1.42,1.09-.16,3.05,1.12,3.19-1C177.28,28.37,177.11,24.46,177.11,20.57Z"/><path d="M6.69,62.06H5.23l-.59-1.52H2l-.55,1.52H0l2.6-6.67H4ZM4.21,59.42l-.92-2.48-.9,2.48Z"/><path d="M7.39,62.06V55.39h2l1.21,4.55,1.2-4.55h2v6.67H12.58V56.81l-1.33,5.25H10L8.64,56.81v5.25Z"/><path d="M15.16,62.06V55.39h4.95v1.13h-3.6V58h3.35v1.13H16.51v1.81h3.72v1.13Z"/><path d="M21.38,62.06V55.39h2.83a4.89,4.89,0,0,1,1.56.18,1.5,1.5,0,0,1,.77.64,1.84,1.84,0,0,1,.29,1,1.76,1.76,0,0,1-.44,1.24,2.1,2.1,0,0,1-1.32.61,3.27,3.27,0,0,1,.72.56,8.32,8.32,0,0,1,.77,1.08l.82,1.31H25.76l-1-1.46a9.68,9.68,0,0,0-.71-1,1,1,0,0,0-.4-.27,2.19,2.19,0,0,0-.68-.08h-.27v2.79Zm1.35-3.85h1a5.44,5.44,0,0,0,1.21-.08.74.74,0,0,0,.38-.29.87.87,0,0,0,.14-.5.8.8,0,0,0-.18-.54.79.79,0,0,0-.51-.26c-.11,0-.44,0-1,0H22.73Z"/><path d="M28.06,62.06V55.39h1.35v6.67Z"/><path d="M35,59.6l1.3.42a2.88,2.88,0,0,1-1,1.62,3.13,3.13,0,0,1-3.95-.38,3.46,3.46,0,0,1-.86-2.48,3.68,3.68,0,0,1,.86-2.59,3,3,0,0,1,2.26-.92,2.79,2.79,0,0,1,2,.73,2.61,2.61,0,0,1,.68,1.22l-1.33.32a1.37,1.37,0,0,0-1.4-1.12A1.52,1.52,0,0,0,32.3,57a2.64,2.64,0,0,0-.46,1.72,2.76,2.76,0,0,0,.46,1.8,1.46,1.46,0,0,0,1.18.54,1.38,1.38,0,0,0,.92-.34A2,2,0,0,0,35,59.6Z"/><path d="M43.43,62.06H42l-.59-1.52H38.72l-.55,1.52H36.74l2.6-6.67h1.42ZM41,59.42,40,56.94l-.9,2.48Z"/><path d="M44.16,62.06V55.39h1.31l2.73,4.45V55.39h1.25v6.67H48.1l-2.69-4.35v4.35Z"/><path d="M53.46,55.39h2.67a8.43,8.43,0,0,1,1.18.06,1.76,1.76,0,0,1,.69.28,1.65,1.65,0,0,1,.52.56,1.57,1.57,0,0,1-.74,2.22,1.74,1.74,0,0,1,.94.61,1.58,1.58,0,0,1,.33,1,2,2,0,0,1-.21.89,1.83,1.83,0,0,1-.58.68,2,2,0,0,1-.9.32c-.23,0-.77,0-1.63.05H53.46Zm1.35,1.11V58h.88c.53,0,.85,0,1,0a.9.9,0,0,0,.54-.24.72.72,0,0,0,.2-.52.77.77,0,0,0-.17-.51.81.81,0,0,0-.51-.23c-.13,0-.51,0-1.15,0Zm0,2.65v1.78h1.25a5.76,5.76,0,0,0,.92,0,.83.83,0,0,0,.49-.27.84.84,0,0,0,.19-.56.85.85,0,0,0-.15-.51.89.89,0,0,0-.42-.31,4.8,4.8,0,0,0-1.19-.09Z"/><path d="M60.18,55.39h1.34V59a8,8,0,0,0,0,1.11,1.09,1.09,0,0,0,.41.66,1.42,1.42,0,0,0,.89.25,1.37,1.37,0,0,0,.87-.24.91.91,0,0,0,.35-.57,7.45,7.45,0,0,0,.06-1.13V55.39h1.34v3.5a8.44,8.44,0,0,1-.11,1.7,1.75,1.75,0,0,1-.4.83,2.07,2.07,0,0,1-.78.55,4.54,4.54,0,0,1-2.73,0,2,2,0,0,1-.78-.58,1.71,1.71,0,0,1-.38-.73,8.09,8.09,0,0,1-.13-1.7Z"/><path d="M66.57,59.89l1.31-.13a1.62,1.62,0,0,0,.48,1,1.49,1.49,0,0,0,1,.31,1.53,1.53,0,0,0,1-.28.82.82,0,0,0,.33-.64.61.61,0,0,0-.14-.4,1.08,1.08,0,0,0-.49-.29,9.28,9.28,0,0,0-1.08-.29,3.64,3.64,0,0,1-1.51-.66,1.76,1.76,0,0,1-.62-1.35,1.74,1.74,0,0,1,.29-1,1.8,1.8,0,0,1,.83-.67,3.26,3.26,0,0,1,1.31-.24,2.84,2.84,0,0,1,1.89.55,1.93,1.93,0,0,1,.67,1.47l-1.35.06a1.12,1.12,0,0,0-.37-.74,1.35,1.35,0,0,0-.85-.22,1.55,1.55,0,0,0-.92.24.48.48,0,0,0-.21.41.53.53,0,0,0,.2.41,3.51,3.51,0,0,0,1.24.44,7.12,7.12,0,0,1,1.45.48,1.94,1.94,0,0,1,.74.68A2.06,2.06,0,0,1,72,60.11a1.94,1.94,0,0,1-.32,1.08,1.89,1.89,0,0,1-.9.74,3.82,3.82,0,0,1-1.45.24,2.88,2.88,0,0,1-1.94-.58A2.57,2.57,0,0,1,66.57,59.89Z"/><path d="M73.08,62.06V55.39h1.35v6.67Z"/><path d="M75.73,62.06V55.39H77l2.72,4.45V55.39H81v6.67H79.66L77,57.71v4.35Z"/><path d="M82.44,62.06V55.39h4.94v1.13H83.79V58h3.34v1.13H83.79v1.81h3.72v1.13Z"/><path d="M88.31,59.89l1.31-.13a1.62,1.62,0,0,0,.48,1,1.49,1.49,0,0,0,1,.31,1.53,1.53,0,0,0,1-.28.82.82,0,0,0,.33-.64.61.61,0,0,0-.14-.4,1.08,1.08,0,0,0-.49-.29,9.28,9.28,0,0,0-1.08-.29,3.64,3.64,0,0,1-1.51-.66,1.76,1.76,0,0,1-.62-1.35,1.74,1.74,0,0,1,.29-1,1.8,1.8,0,0,1,.83-.67A3.28,3.28,0,0,1,91,55.27a2.83,2.83,0,0,1,1.88.55,1.93,1.93,0,0,1,.67,1.47l-1.35.06a1.12,1.12,0,0,0-.37-.74,1.35,1.35,0,0,0-.85-.22,1.55,1.55,0,0,0-.92.24.48.48,0,0,0-.21.41.53.53,0,0,0,.2.41,3.51,3.51,0,0,0,1.24.44,7.12,7.12,0,0,1,1.45.48,1.94,1.94,0,0,1,.74.68,2.06,2.06,0,0,1,.26,1.06,1.94,1.94,0,0,1-.32,1.08,1.89,1.89,0,0,1-.9.74,3.79,3.79,0,0,1-1.45.24,2.88,2.88,0,0,1-1.94-.58A2.57,2.57,0,0,1,88.31,59.89Z"/><path d="M94.52,59.89l1.31-.13a1.62,1.62,0,0,0,.48,1,1.49,1.49,0,0,0,1,.31,1.53,1.53,0,0,0,1-.28.82.82,0,0,0,.33-.64.61.61,0,0,0-.14-.4,1,1,0,0,0-.48-.29,10.7,10.7,0,0,0-1.08-.29,3.69,3.69,0,0,1-1.52-.66,1.76,1.76,0,0,1-.62-1.35,1.74,1.74,0,0,1,.29-1,1.82,1.82,0,0,1,.84-.67,3.23,3.23,0,0,1,1.31-.24,2.88,2.88,0,0,1,1.89.55,2,2,0,0,1,.66,1.47l-1.34.06a1.16,1.16,0,0,0-.37-.74,1.38,1.38,0,0,0-.86-.22,1.51,1.51,0,0,0-.91.24.47.47,0,0,0-.22.41.53.53,0,0,0,.2.41,3.51,3.51,0,0,0,1.24.44,7.12,7.12,0,0,1,1.45.48,1.87,1.87,0,0,1,.74.68,2,2,0,0,1,.26,1.06,2,2,0,0,1-.31,1.08,2,2,0,0,1-.9.74,3.86,3.86,0,0,1-1.45.24,2.89,2.89,0,0,1-2-.58A2.57,2.57,0,0,1,94.52,59.89Z"/><path d="M104.61,62.06,103,55.39h1.38l1,4.58,1.22-4.58h1.6L109.39,60l1-4.65h1.36l-1.62,6.67h-1.43l-1.33-5-1.32,5Z"/><path d="M112.18,58.76a4.28,4.28,0,0,1,.31-1.71,3.13,3.13,0,0,1,.62-.91,2.58,2.58,0,0,1,.86-.6,3.63,3.63,0,0,1,1.44-.27,3.14,3.14,0,0,1,2.36.92,4.09,4.09,0,0,1,0,5.07,3.11,3.11,0,0,1-2.34.91,3.14,3.14,0,0,1-2.37-.91A3.46,3.46,0,0,1,112.18,58.76Zm1.39,0a2.53,2.53,0,0,0,.52,1.71,1.72,1.72,0,0,0,1.33.59,1.67,1.67,0,0,0,1.32-.58,3.17,3.17,0,0,0,0-3.45,1.86,1.86,0,0,0-2.68,0A2.55,2.55,0,0,0,113.57,58.72Z"/><path d="M119.68,62.06V55.39h2l1.21,4.55,1.19-4.55h2v6.67h-1.25V56.81l-1.32,5.25h-1.3l-1.32-5.25v5.25Z"/><path d="M127.46,62.06V55.39h4.94v1.13h-3.59V58h3.34v1.13h-3.34v1.81h3.72v1.13Z"/><path d="M133.69,62.06V55.39H135l2.73,4.45V55.39H139v6.67h-1.35l-2.69-4.35v4.35Z"/><path d="M140.36,55.41h1.28v.91a3,3,0,0,1-.1.88,1.26,1.26,0,0,1-.36.57,1.89,1.89,0,0,1-.68.4l-.24-.53a1,1,0,0,0,.54-.35,1.05,1.05,0,0,0,.18-.61h-.62Z"/><path d="M142.65,59.89l1.31-.13a1.62,1.62,0,0,0,.48,1,1.46,1.46,0,0,0,1,.31,1.51,1.51,0,0,0,1-.28.82.82,0,0,0,.33-.64.56.56,0,0,0-.14-.4,1,1,0,0,0-.48-.29,10.7,10.7,0,0,0-1.08-.29,3.69,3.69,0,0,1-1.52-.66,1.75,1.75,0,0,1-.61-1.35,1.66,1.66,0,0,1,.29-1,1.8,1.8,0,0,1,.83-.67,3.23,3.23,0,0,1,1.31-.24,2.84,2.84,0,0,1,1.89.55,2,2,0,0,1,.67,1.47l-1.35.06a1.16,1.16,0,0,0-.37-.74,1.35,1.35,0,0,0-.85-.22,1.55,1.55,0,0,0-.92.24.48.48,0,0,0-.21.41.5.5,0,0,0,.2.41,3.51,3.51,0,0,0,1.23.44,7.25,7.25,0,0,1,1.46.48,1.84,1.84,0,0,1,.73.68,2,2,0,0,1,.27,1.06,2,2,0,0,1-.32,1.08,1.89,1.89,0,0,1-.9.74,3.82,3.82,0,0,1-1.45.24,2.88,2.88,0,0,1-1.94-.58A2.57,2.57,0,0,1,142.65,59.89Z"/><path d="M157.46,62.06H156l-.58-1.52h-2.67l-.55,1.52h-1.42l2.59-6.67h1.43ZM155,59.42l-.92-2.48-.9,2.48Z"/><path d="M157.83,59.89l1.31-.13a1.62,1.62,0,0,0,.48,1,1.46,1.46,0,0,0,1,.31,1.51,1.51,0,0,0,1-.28.82.82,0,0,0,.33-.64.6.6,0,0,0-.13-.4,1.08,1.08,0,0,0-.49-.29,10.7,10.7,0,0,0-1.08-.29,3.69,3.69,0,0,1-1.52-.66,1.76,1.76,0,0,1-.32-2.3,1.8,1.8,0,0,1,.83-.67,3.23,3.23,0,0,1,1.31-.24,2.84,2.84,0,0,1,1.89.55,1.93,1.93,0,0,1,.67,1.47l-1.35.06a1.16,1.16,0,0,0-.37-.74,1.35,1.35,0,0,0-.85-.22,1.55,1.55,0,0,0-.92.24.48.48,0,0,0-.21.41.5.5,0,0,0,.2.41,3.51,3.51,0,0,0,1.23.44,7.25,7.25,0,0,1,1.46.48,1.84,1.84,0,0,1,.73.68,2,2,0,0,1,.27,1.06,2,2,0,0,1-.32,1.08,1.89,1.89,0,0,1-.9.74,3.82,3.82,0,0,1-1.45.24,2.88,2.88,0,0,1-1.94-.58A2.57,2.57,0,0,1,157.83,59.89Z"/><path d="M164,59.89l1.31-.13a1.62,1.62,0,0,0,.48,1,1.49,1.49,0,0,0,1,.31,1.53,1.53,0,0,0,1-.28.82.82,0,0,0,.33-.64.61.61,0,0,0-.14-.4,1.08,1.08,0,0,0-.49-.29,9.52,9.52,0,0,0-1.07-.29,3.63,3.63,0,0,1-1.52-.66,1.76,1.76,0,0,1-.62-1.35,1.74,1.74,0,0,1,.29-1,1.8,1.8,0,0,1,.83-.67,3.28,3.28,0,0,1,1.32-.24,2.88,2.88,0,0,1,1.89.55,2,2,0,0,1,.66,1.47l-1.34.06a1.17,1.17,0,0,0-.38-.74,1.33,1.33,0,0,0-.85-.22,1.55,1.55,0,0,0-.92.24.48.48,0,0,0-.21.41.53.53,0,0,0,.2.41,3.51,3.51,0,0,0,1.24.44,7.12,7.12,0,0,1,1.45.48,1.94,1.94,0,0,1,.74.68,2.06,2.06,0,0,1,.26,1.06,1.94,1.94,0,0,1-.32,1.08,1.89,1.89,0,0,1-.9.74,3.79,3.79,0,0,1-1.45.24,2.88,2.88,0,0,1-1.94-.58A2.57,2.57,0,0,1,164,59.89Z"/><path d="M170.32,58.76a4.12,4.12,0,0,1,.31-1.71,3.13,3.13,0,0,1,.62-.91,2.58,2.58,0,0,1,.86-.6,3.59,3.59,0,0,1,1.44-.27,3.14,3.14,0,0,1,2.36.92,3.55,3.55,0,0,1,.88,2.54,3.48,3.48,0,0,1-.88,2.53,3.5,3.5,0,0,1-4.71,0A3.46,3.46,0,0,1,170.32,58.76Zm1.39,0a2.48,2.48,0,0,0,.52,1.71,1.71,1.71,0,0,0,1.33.59,1.67,1.67,0,0,0,1.32-.58,3.17,3.17,0,0,0,0-3.45,1.86,1.86,0,0,0-2.68,0A2.55,2.55,0,0,0,171.71,58.72Z"/><path d="M182.11,59.6l1.3.42a2.88,2.88,0,0,1-1,1.62,3.13,3.13,0,0,1-3.95-.38,3.46,3.46,0,0,1-.86-2.48,3.68,3.68,0,0,1,.86-2.59,3,3,0,0,1,2.26-.92,2.79,2.79,0,0,1,2,.73,2.61,2.61,0,0,1,.68,1.22l-1.33.32a1.37,1.37,0,0,0-1.4-1.12,1.52,1.52,0,0,0-1.21.54,2.58,2.58,0,0,0-.46,1.72,2.76,2.76,0,0,0,.46,1.8,1.46,1.46,0,0,0,1.18.54,1.38,1.38,0,0,0,.92-.34A2,2,0,0,0,182.11,59.6Z"/><path d="M184.53,62.06V55.39h1.34v6.67Z"/><path d="M193.17,62.06H191.7l-.58-1.52h-2.66l-.55,1.52h-1.43l2.59-6.67h1.43Zm-2.48-2.64-.92-2.48-.9,2.48Z"/><path d="M194.69,62.06V56.52h-2V55.39H198v1.13h-2v5.54Z"/><path d="M198.84,62.06V55.39h1.35v6.67Z"/><path d="M201.19,58.76a4.28,4.28,0,0,1,.31-1.71,3.13,3.13,0,0,1,.62-.91,2.58,2.58,0,0,1,.86-.6,3.63,3.63,0,0,1,1.44-.27,3.14,3.14,0,0,1,2.36.92,4.09,4.09,0,0,1,0,5.07,3.11,3.11,0,0,1-2.34.91,3.14,3.14,0,0,1-2.37-.91A3.46,3.46,0,0,1,201.19,58.76Zm1.39,0a2.53,2.53,0,0,0,.52,1.71,1.72,1.72,0,0,0,1.33.59,1.67,1.67,0,0,0,1.32-.58,3.17,3.17,0,0,0,0-3.45,1.86,1.86,0,0,0-2.68,0A2.55,2.55,0,0,0,202.58,58.72Z"/><path d="M208.73,62.06V55.39H210l2.73,4.45V55.39H214v6.67h-1.36L210,57.71v4.35Z"/></g></g></svg>