<svg xmlns="http://www.w3.org/2000/svg" viewBox="0 0 243.81 94.12"><g id="Layer_2" data-name="Layer 2"><g id="Layer_1-2" data-name="Layer 1"><path d="M48.29,22.92c0-.77.15-1.43,1-.82,3.28,2.29,7,3.55,10.67,5.06A7.31,7.31,0,0,1,64.27,31a11.72,11.72,0,0,0,5.83,5.92,31.81,31.81,0,0,1,8.11,5.69,4.51,4.51,0,0,0,5.81.79c2-1.1,1-2.94.74-4.38A41,41,0,0,0,53.05,5.9,41.37,41.37,0,0,0,3.27,38.45C3,39.63,3,40.84,2.86,42.15c1.35-.08,1.67-1.37,2.62-1.72.57.32.49.87.49,1.4A17.33,17.33,0,0,0,3,50.7c0,1.31.29,1.85,1.65,1.21s2.9-1.08,4.21-1.86a10.82,10.82,0,0,1,6-1.7,10.77,10.77,0,0,0,5.57-1.48,4.79,4.79,0,0,1,3.07-1c-.83,1.73-2.39,2.7-3.42,4.09-.5.66-1.61,1.24-1.05,2.19s1.49.34,2.26.18a2.93,2.93,0,0,1,3.49,1.25,73.37,73.37,0,0,0-10.24,3c-2.75.94-5.44,0-8.12-.68-.74-.18-1.61-.94-2.22-.29s.13,1.52.32,2.28c.13.55.29,1.09.44,1.63-.19.81.63,2-.91,2.29C-2.14,47.78-1.22,34,6.67,20.94,16,5.43,33.41-2.29,51.48.6c16.86,2.69,31,15.92,35.14,33a42,42,0,0,1-2.71,28.24c-1.49-.34-.68-1.54-.88-2.36,0-1.29,1-2.37.82-3.76-.92-.07-1.43.68-2.14,1-.89.33-2,1.31-1.95-.88,0-1.41-1.19-1-1.62-.41C75.51,59.22,71.31,58,67.73,59c-.12-1.31.78-1.84,1.41-2.51A5.47,5.47,0,0,0,70.24,50c-.6-1.16-1.62-2.09-2.9-1.74-1.54.42.26,1.61-.25,2.39-5.51-.53-8.31-3-9.64-8.53-.6-2.53-2.6-4.48-2.74-7.2s-3.09-3.79-4.32-6.16c1.76-.52,3.2,0,4.73.69C53.26,26.79,49.43,26.24,48.29,22.92Z"/><path d="M33.87,68.71c-1.06,7.7-2.14,15.4-3.19,23.11-.16,1.23-.76,1.45-1.83,1A6.89,6.89,0,0,0,27,92.2c-2-.23-2.23-1.3-1.9-3,.87-4.59.82-4.62-3.33-6.6a25.35,25.35,0,0,1-5.34-3.34c-.93-.78-1.6-.93-2.44,0a12.89,12.89,0,0,1-1.47,1.27c-3.12,2.69-3.9,2.59-6.65-.61-.59-.69-.47-1,.15-1.53,6.05-5,11.92-10.24,18.21-15a5.45,5.45,0,0,1,6.38-.34A6.07,6.07,0,0,1,33.87,68.71Zm-5.51.7c0-.57.08-1.19-.56-1.47s-.94.12-1.3.43c-2.1,1.79-4.16,3.61-6.27,5.39-.82.69-.54,1.18.15,1.73a17.71,17.71,0,0,0,5.07,2.84c.73.27,1.41.35,1.58-.77C27.44,74.84,27.91,72.13,28.36,69.41Z"/><path d="M53.58,69.39A6,6,0,0,1,57,62.94c2.6-1.33,4.89-.67,7,1.06,5.68,4.7,11.32,9.47,17,14.14,1.1.9.91,1.35,0,2.19-3.21,2.87-3.28,3-6.45-.06-1.68-1.61-2.85-2-4.74-.27a16.79,16.79,0,0,1-6.61,3.53c-1.5.44-1.94,1.24-1.55,2.66.12.47.21,1,.29,1.43.65,4,0,4.84-4,5.37-.85.11-1.16-.13-1.28-.95Q55.16,80.7,53.58,69.39Zm5.5.18c.18,1.21.39,2.49.55,3.77.77,6,1.72,6.35,6.64,2.71.2-.14.38-.31.58-.44,1.06-.66,1-1.27,0-2-2-1.65-3.91-3.38-5.87-5.06-.41-.35-.84-.88-1.48-.53S59.11,69,59.08,69.57Z"/><path d="M44.25,30.71c-.91,2.25-1.41,3.72-2.84,4.76-2.07,1.5-2.21,2.87-.7,5a17,17,0,0,0,4.78,4.08,10.28,10.28,0,0,1,4.42,5.31,5.17,5.17,0,0,0,5.15,3.72c1.11,0,2.3-.05,3.36,1.5-3.12.24-5.69,2.08-8.79,1.23a3.26,3.26,0,0,0-2.79.46c-4.08,2.76-8.15.74-12.26.17,1.11-1.51,2.75-1.63,4.14-1.65,3.39-.05,5.08-2.64,7.28-4.42,1-.77.31-1.7-.72-2-.8-.21-1.62-.19-1.91-1.17-1.16-4-4.93-5.87-7.45-8.75-1.1-1.26-3.13-.66-5.3-2.15C36,36.15,39.22,32.32,44.25,30.71Z"/><path d="M40.87,79.68c0-4.13.08-8.26,0-12.39,0-1.72.49-2.36,2.18-2.13a10.68,10.68,0,0,0,2.19,0c1.12-.07,1.58.34,1.58,1.52q-.06,12.89,0,25.75c0,1.31-.49,1.6-1.71,1.64-4.2.13-4.2.18-4.2-4Z"/><path d="M155.19,24.29a.53.53,0,0,0,.35-.65c.07-.21.15-.43.23-.64,3.81-.8,7.77-.37,11.57-1.3a.91.91,0,0,1,1.19.56,1,1,0,0,1-.82,1.26,18.12,18.12,0,0,1-3.1.54c-1.42.1-1.66.89-1.62,2.13,0,1.4,1,1.23,1.87,1.25s1.95,0,2.92,0c.73,0,1.6,0,1.54,1.05,0,.88-.8.89-1.46.9-1.06,0-2.11,0-3.17,0s-1.71.14-1.7,1.43c0,1.13.44,1.53,1.56,1.63,4,.36,4,.4,4,4.49,0,6,0,6.12-6.17,6-1.92,0-4.07.88-5.75-.89q0-4.43,0-8.85c.94-1.1,2.24-.67,3.41-.76a1.19,1.19,0,0,0,1.26-1.4c0-.75,0-1.61-1-1.58-1.88.07-3.78-.47-5.63.25l0,0c.94-.47-.41-1.5.48-2,1.6,0,3.21.08,4.82,0,1.19-.07,1.49-.91,1.5-2,0-1.32-.72-1.42-1.72-1.34-1.26.1-2.54.18-3.81.27a.23.23,0,0,0-.11.29l-.69,1.39c-1.76-.27-2.47-2-3.78-2.83a.9.9,0,0,1,0-1.32c.4-.45.91-.28,1.31,0,.71.52,1.36,1.12,2,1.68C154.74,24.15,154.84,24.39,155.19,24.29ZM162.3,41c5.22-.13,4.42,1,4.5-4.72v-.24c.14-1.21-.34-1.82-1.62-1.8-1.94,0-3.89,0-5.84,0a1.28,1.28,0,0,0-1.47,1.22C157,40.14,157.72,41,162.3,41Z"/><path d="M138.43,43.13h-7.56c-.73,0-1.64,0-1.64-1s1-.92,1.66-.94c1.62,0,3.26-.11,4.87,0,1.76.13,2.34-.61,2.16-2.26a11.45,11.45,0,0,1,0-2.19c.09-1.23-.36-1.8-1.66-1.72-1.13.07-2.27,0-3.41,0-.79,0-1.87.13-1.82-1s1.16-.85,1.93-.9c.4,0,.81,0,1.21,0,3.84,0,4.49-.84,3.73-4.73-.1-.5-.2-.87-.77-1.07a4.37,4.37,0,0,0-5.31,2.18c-.53.94-.79,3-2.28,2.13-1.27-.71.3-2,.72-2.88a18.75,18.75,0,0,0,1.63-5.58c.06-.63.13-1.47,1-1.44,1.1,0,.91,1,.78,1.68-.32,1.5.12,2.06,1.7,1.95,1.4-.1,2.91.21,2.58-2a4.92,4.92,0,0,1,0-1.21c.06-.53.31-1,.9-1a.82.82,0,0,1,.72,1.07c-.78,3.73,1.84,3,3.92,3.13,1.13.09,3.21-.91,3.2.92s-2.1.66-3.22,1a1,1,0,0,1-.25,0c-3.43,0-4.65,1.77-3.6,5.06.28.9.91.77,1.53.78,1.3,0,2.6,0,3.9,0,.59,0,1.21.09,1.26.83.07.89-.59,1-1.28,1.08-.41,0-.81,0-1.22,0-4.5,0-4.44,0-4.24,4.47.06,1.27.49,1.72,1.73,1.68,1.7-.06,3.41,0,5.11,0,.65,0,1.42,0,1.43.92s-.71,1-1.38,1c-2.68,0-5.36,0-8,0Z"/><path d="M122.92,25.9c1.23,2.54.58,5.24.54,7.85,0,2.1.17,3.66,2.53,4.12-2.2,1.4-4.65.26-6.95.67H108.49c.39-1.31,1.53-.68,1.8-1.47,0-2.66,0-5.33,0-8,0-3.29,0-3.32,3.4-3.51a5.13,5.13,0,0,0,1-.11c.13,0,.23-.18.46-.38-.6-.73-1.43-.46-2.13-.5s-1.47.06-2.19,0c-.87-.11-2.31.5-2.37-.89s1.41-.82,2.25-1c1.89-.41,4.28,1.09,5.64-1.44a.75.75,0,0,1,.62,0c1.53,2.67,4.07,1,6.11,1.42,1,.2,2.32-.12,1.75,1.66l-.38-.05c-2.43-.46-4.86-.79-7.25.19a1.48,1.48,0,0,0,0,.47c0,1.07.81.78,1.39.82C120,25.8,121.47,25.84,122.92,25.9Zm-10.65,1.38-.07.5c0,.45.09.85.57.86,2.79,0,5.58.05,8.37,0,.55,0,.88-.34.48-.95l-.62-.5A18.41,18.41,0,0,0,112.27,27.28Zm-.06,3.41v.52c3,1,6,.31,9,.4.79,0,.68-.74.66-1.3a18.83,18.83,0,0,0-9.66-.13Zm0,5.86V37c3,1,6,.29,9,.4.78,0,.73-.69.7-1.26a18.27,18.27,0,0,0-9.65-.14Zm0-2.42c3,1,6,.31,9,.4.8,0,.69-.73.67-1.3a18.94,18.94,0,0,0-9.66-.13l-.05.51Z"/><path d="M182,22.92a4.6,4.6,0,0,1,2.38-.27c2-.09,4.16.56,5.56-1.58,1.27,2.16,3.38,1.52,5.27,1.57.65,0,1.31,0,1.95,0,1.06.11,1.47.61.86,1.63l-.08-.18c-2.56-.11-5.16-.92-7.63.43-.17,1.2.62,1.26,1.48,1.25,1.28,0,2.55,0,3.83,0,1.25.47,1.23,1.56,1.24,2.61,0,2.18.15,4.37,0,6.53-.16,1.76.57,2.47,2.15,2.66-1.29,2-3.27.43-4.85,1h-6.83c-.88-.2-1.37.37-1.88.93-.95-.92-2.13-.3-3.19-.44-.61-.09-1.2-.3-1.3-.84-.14-.79.6-.87,1.14-.85,1.41.07,1.51-.79,1.49-1.86,0-2.25,0-4.49,0-6.74a3.66,3.66,0,0,1,.84-2.91l2.91,0c.92,0,1.64-.22,1.4-1.4,0-.07.09-.14.09-.21a.24.24,0,0,0-.1-.18C186.51,23.33,184,24.92,182,22.92Zm3.39,13.17v.49c.06.23.11.64.2.65a42.16,42.16,0,0,0,9.26,0c.09,0,.14-.42.2-.65v-.49A18.83,18.83,0,0,0,185.39,36.09Zm0-2.93v.5c1.21,1.29,8.48,1.29,9.68,0v-.5A19.13,19.13,0,0,0,185.38,33.16ZM195,27.39a17.06,17.06,0,0,0-9.63,0,1.19,1.19,0,0,0,0,.46c1.18,1.28,8.45,1.29,9.62,0A2.06,2.06,0,0,0,195,27.39Zm0,2.85a19,19,0,0,0-9.69,0v.49c1.21,1.3,8.48,1.3,9.68,0Z"/><path d="M211.16,39.46c-1.66.68-1.62-1.23-2.79-1.69-.44,1.33-.07,2.76-.21,4.13-.06.63,0,1.45-.94,1.41s-.86-.83-.88-1.48c0-1.12,0-2.25,0-3.88-1,1-1.63,1.8-2.33,2.51-.41.43-.95.75-1.47.23s-.25-1,.14-1.51c.77-.94,1.53-1.89,2.23-2.88s.6-1.5-.72-1.53c-.69,0-1.68.18-1.69-.87s1-1,1.82-1.06,1.43.16,2.07-.64c-1-.9-2.94-.13-3.2-1.79a24.43,24.43,0,0,1,0-7.49,1.24,1.24,0,0,1,1.17-1.09c2.14,0,4.33-.68,6.4.41,0,2.82-.48,5.66.29,8.46-.36,1-1.2.94-2,1-.43,0-.85.11-.8.66s.48.59.89.62.82,0,1.22,0c.57,0,1.24,0,1.29.79.06,1-.73.87-1.36.92l-1.18.12C209.43,36.64,211.5,37.52,211.16,39.46Zm-1.42-14.68c0-.59,0-1.18-.83-1.16-.61,0-.75.48-.76,1s0,1.15.85,1.15S209.74,25.29,209.74,24.78Zm-3.39.14c0-.54.12-1.18-.68-1.3-.61-.09-.86.32-.86.86s-.18,1.18.65,1.28C206.07,25.83,206.32,25.49,206.35,24.92Z"/><path d="M211.7,25.73c.85-.06,1.22-.76,1.64-1.32a6.12,6.12,0,0,1,6.74-2.48c1.47.38,1.3,1.48,1.07,2.52a11.36,11.36,0,0,1-3.94,6.42c.23.66.69.53,1,.54,3.6.16,4,.79,3,4.2-1.17,3.81-3.89,6-7.39,7.54-.77.32-1.76.54-2.11-.41s.75-1,1.33-1.37a6.47,6.47,0,0,0,1.09-.53c.64-.54,2.4-.53,1.67-1.73-.64-1-1.41-3.2-3.54-1.67-.78-.73-.89-1.38.08-2.11a3.48,3.48,0,0,0,1.81-2.6l.18-.27-.27.17c-.64-.16-1.61.37-1.86-.64s.79-1.19,1.47-1.55,2.08-.5,2.09-1.38c0-.66-.95-1.47-1.64-2s-1.58.58-2.46.34C211.69,26.87,211.69,26.3,211.7,25.73Zm6.77,7.72c-2.45-.6-3.49.79-3.42,2.13a3.48,3.48,0,0,0,2.64,2.26c1.7-.17,1.89-2.17,2.13-3.57S218.64,33.52,218.47,33.45Zm-.74-9.57c-1.46-.27-2.45,0-2.82,1.37-.11.42,2.27,2.53,2.66,2.32a3.65,3.65,0,0,0,1.71-3C219.42,23.21,218.12,24.08,217.73,23.88Z"/><path d="M236.05,21c1-.08,1.29.49,1.33,1.32s0,1.45,0,2.18c0,1.45-.4,3.19.25,4.28.77,1.3,2.68.36,4.07.55.77.1,1.58.18,1.5,1.16s-.86.82-1.52.82a17.61,17.61,0,0,1-2.18,0c-1.5-.15-2.16.3-2.18,2s.74,2,2.19,2a24,24,0,0,1,3.39.09.88.88,0,0,1,.88,1,.83.83,0,0,1-.95.87c-4.23-.72-6.33.71-5.57,5.28.1.58-.51,1-1.18.94-.12-.22-.36-.44-.34-.63.51-4.28-.83-6.65-5.63-5.64a.79.79,0,0,1-1-.8.87.87,0,0,1,.88-1c1-.07,2.09-.11,3.14-.09,1.35,0,2.46.15,2.49-1.89s-.95-2.24-2.51-2.11a17.78,17.78,0,0,1-2.42,0c-.52,0-1-.26-1-.86a.92.92,0,0,1,.93-.93c1.12-.12,2.25-.14,3.37-.2l1,0c1-.58.44-1.56.54-2.35C235.83,24.89,235.14,22.87,236.05,21Z"/><path d="M144.9,58c1.39-.49,1.08-1.86,1.36-2.86.51-1.78.82-3.62,1.22-5.44.24-1.09.64-2,2-2,1.2.06,1.57.84,1.81,1.91.62,2.89,1.34,5.77,2,8.65l.62,0c0-2.84,0-5.68,0-8.51,0-.77-.45-2,1-2s1,1.18,1.06,2c0,1.78.09,3.56,0,5.34-.09,1.55.2,2.53,2.05,2.28.66-.09,1.38,0,1.3,1-.06.78-.73.68-1.29.76-2,.28-3.92-.54-5.9-.06-.39.1-.68-.25-.92-.63-1.33-2.16-2.64-2.26-3.72-.16-.8,1.57-1.76.45-2.67.42Zm4.72-7.2c-.92,1.08-.77,2.13-1.11,3s-.11,1.22.84,1.22,1.09-.46.93-1.22C150.09,52.91,149.87,52,149.62,50.83Z"/><path d="M13.33,36.28C20.17,41,20.16,41,26.77,35.79A9.51,9.51,0,0,1,30,33.66c.64,0,1.24,0,1.56.71-3.37,2.89-6.62,5.92-10.15,8.64-2.69,2.07-5.95,2.44-8.84,3.82a1.07,1.07,0,0,1-.91,0c-.42-.33-.1-.73.12-1,.3-.48.64-.93,1-1.38,2-2.71,2.06-3.74.07-6.33C13,37.44,12.66,36.71,13.33,36.28Z"/><path d="M230.06,53.46c0,1.45,0,2.91,0,4.36,0,.75-.2,1.28-1.06,1.29s-1.09-.52-1.09-1.26c0-2.92,0-5.84,0-8.77,0-.56,0-1.18.75-1.32a1.46,1.46,0,0,1,1.82.81l2.32,5.1c.69-1.84.36-3.19.45-4.48.05-.79.15-1.49,1.19-1.43s1,.73,1,1.4q0,4.26,0,8.52c0,.67,0,1.32-.91,1.43a1.47,1.47,0,0,1-1.75-.94c-.69-1.61-1.44-3.2-2.16-4.8Z"/><path d="M138.09,59c-1.27.34-2.09.1-1.94-1.46,0-.57,0-1.14,0-1.7a1.33,1.33,0,0,0-1.47-1.52c-1.14,0-1,.82-1,1.52s0,1.46,0,2.19-.26,1.06-1,1.09-1.09-.24-1.08-1c0-3.16,0-6.32,0-9.48a.8.8,0,0,1,.89-.9c1.67.08,3.41-.42,5,.54C138.08,51.83,137.92,55.4,138.09,59Zm-4.47-7.89c0,.7-.15,1.52,1,1.52s1.55-.61,1.53-1.68-.44-1.51-1.45-1.54C133.39,49.34,133.69,50.33,133.62,51.08Z"/><path d="M114.72,53.17c0-1.3,0-2.6,0-3.9,0-.76,0-1.53,1.09-1.51s.9.74.92,1.4,0,1.3,0,2c0,1,.61,1.17,1.44,1.16s1.15-.44,1.14-1.21,0-1.46,0-2.2.24-1.09,1-1.11a.94.94,0,0,1,1.07,1c0,3.09,0,6.17,0,9.26a.93.93,0,0,1-1,1.05.9.9,0,0,1-1-1c0-.82,0-1.63,0-2.44s-.09-1.56-1.28-1.55-1.4.5-1.35,1.48c0,.73,0,1.46,0,2.2s0,1.32-1,1.32-1-.55-1-1.28C114.73,56.25,114.72,54.71,114.72,53.17Z"/><path d="M201.29,57.82A3.47,3.47,0,0,1,197,59.27c-1.8-.56-2.14-2-2.11-3.69,0-1.46,0-2.92,0-4.38,0-1.79.46-3.24,2.39-3.72a3.3,3.3,0,0,1,4,1.84Zm-1.8-4.36h0c0-1,0-1.93,0-2.89s-.43-1.4-1.36-1.32-1.09.62-1.09,1.33c0,1.93,0,3.86,0,5.78a1.14,1.14,0,0,0,1.22,1.21,1.16,1.16,0,0,0,1.22-1.23C199.52,55.38,199.49,54.42,199.49,53.46Z"/><path d="M208.77,54.15c-.19,1.38-1,2.6-.93,4,0,.44-.12.79-.63.81s-.9,0-.88-.54c0-1.4-1.07-2.45-1.07-3.81a5,5,0,0,0-.81-3.42c-1.25,2.49-.24,5.15-.6,7.71-1.41.22-1.1-.84-1.11-1.56,0-2.49,0-5,0-7.48,0-.93-.08-1.78,1.31-1.72,1.15.06,1.91.41,1.87,1.65A6.6,6.6,0,0,0,207,53.77c.93-.49.57-1.48.95-2.16,1.08-.78.74-1.9.73-3,.28-1.58,1.49-.81,2.3-.83s.67.76.67,1.3c0,3,0,6.09,0,9.13a.64.64,0,0,1-.52.69c-1.13-.55-.92-1.59-.92-2.55,0-1.77,0-3.55,0-5.83A3.93,3.93,0,0,0,208.77,54.15Z"/><path d="M220.39,59.09c-1,.07-1-.56-.88-1.27.67-2.92,1.34-5.85,2-8.76a1.58,1.58,0,0,1,1.55-1.31A1.61,1.61,0,0,1,225,49c.75,3,1.45,6,2.17,9,.12.51.13,1-.54,1.1a1.2,1.2,0,0,1-1.4-.61c-1.46-2.3-2.14-2.26-3.81.11A1.2,1.2,0,0,1,220.39,59.09ZM223,50.87c-.24,1.15-.47,2.14-.66,3.13s.38,1.1,1.14,1.07.93-.6.71-1.18C223.87,53,224.12,51.78,223,50.87Z"/><path d="M187.42,53.53a29.47,29.47,0,0,1,0-3.39,3,3,0,0,1,2.92-2.76,3.16,3.16,0,0,1,3.52,2c.24.57.55,1.35-.2,1.72s-1.41.28-1.65-.75a1.24,1.24,0,0,0-1.63-1c-.72.21-.9.91-.91,1.57,0,1.7,0,3.39,0,5.09,0,.65.18,1.33.95,1.52a1.17,1.17,0,0,0,1.52-.85c.28-1,.94-1.45,1.75-.89s.35,1.49-.06,2.18a3.2,3.2,0,0,1-3.56,1.48,2.87,2.87,0,0,1-2.61-2.5,25.39,25.39,0,0,1,0-3.38Z"/><path d="M144.9,58v.67c-1.9.81-3.85.4-5.79.22q0-5.33-.1-10.67l.55-.55c1.35,0,2.7.1,4,0,1.09,0,1.38.52,1.31,1.46a4.41,4.41,0,0,1-2.38.3c-1,0-1.44.42-1.45,1.45s.41,1.24,1.31,1.29,2.06-.5,2,1c-.07,1.24-1.23.81-1.93.79-1.36-.05-1.33.76-1.35,1.72s.17,1.69,1.44,1.69C143.32,57.44,144.34,56.94,144.9,58Z"/><path d="M125.06,59.11c-2.19.56-3-.51-2.72-3a37.86,37.86,0,0,0,0-6.3c-.11-1.75.58-2.34,2.23-2.12.4.05.83-.07,1.21,0,.84.2,2.31-.63,2.38.79s-1.41.91-2.25.95-1.47.3-1.48,1.39.45,1.37,1.44,1.38c.72,0,1.85-.38,1.86.88s-1.13.95-1.84.9c-1.5-.11-1.43.79-1.46,1.83s.36,1.66,1.53,1.55a8.15,8.15,0,0,1,1.21,0c.59,0,1.17.07,1.14.88s-.68.78-1.23.81S126,59.11,125.06,59.11Z"/><path d="M180.4,50.18c-.33,1.36-.08,2.22,1.6,2,.72-.08,1.56-.12,1.49,1-.05,1-.82.89-1.44.82-1.38-.15-1.82.41-1.79,1.78s.74,1.53,1.85,1.55c.77,0,2.08-.46,2,1-.07,1.17-1.25.75-2,.74-1.19,0-2.41.29-3.58-.21,0-1.77,0-3.54,0-5.32,0-5.38,0-5.38,5.31-5.3.23,1.38-.82,1-1.53,1.14S180.63,48.92,180.4,50.18Z"/><path d="M229.47,21.11a5.44,5.44,0,0,1,.11,1.91c-1.76,5.62-1.08,11.4-1.23,17.13,0,1-.17,2.09-.27,3.13-.31,0-.68.1-.86-.3a36.68,36.68,0,0,0,0-4.06c-.19-2,.62-4-.43-5.86-.64-.18-1.34.91-1.92-.06-.34-.56,0-1.07.26-1.58a24,24,0,0,0,2.77-8.75C228,21.84,228.07,20.75,229.47,21.11Z"/><path d="M217.53,47.85c3,.94,1.71,3.45,1.77,5.32.06,1.68-1.38,2-2.8,1.87-1.7-.18-1.51,1-1.53,2s.34,2.55-1.68,1.85c.68-2,.26-4,.3-6,.07-4.08,0-4.08,3.74-4.93C217.41,48,217.46,47.9,217.53,47.85Zm-2.61,3.39c.19.75-.42,1.93,1.09,2,1.28,0,1.37-.84,1.38-1.8s-.14-2-1.49-2S215.07,50.52,214.92,51.24Z"/><path d="M240.15,51.33c.65-1.15,1.19-2.15,1.78-3.12a1.1,1.1,0,0,1,1.51-.36c.6.3.23.84,0,1.25-1.52,2.79-3,5.57-2.48,8.93.1.66-.21,1.06-1,1.07s-1.18-.47-1.06-1.23c.48-3.17-.76-5.85-2.25-8.5-.25-.46-1-1.12,0-1.55.68-.3,1.22.07,1.61.71C238.85,49.4,239,50.5,240.15,51.33Z"/><path d="M176.86,54c-2.81-.47-3.65.86-3.24,3.46.12.74.24,1.7-1.06,1.65s-.9-.93-.9-1.59c0-3.21.06-6.42.1-9.63,1.45,0,2.89-.06,4.34-.07.57,0,1.22,0,1.3.75s-.64.78-1.17.84a6.28,6.28,0,0,1-1,0c-1-.07-1.67.13-1.67,1.4s.42,1.59,1.55,1.5S177.33,52.33,176.86,54Z"/><path d="M113.19,38.54h1a5.58,5.58,0,0,0,4.82,0c2.3-.41,4.75.73,6.95-.67.55,1.29-.4,1.32-1.21,1.38s-1.7,0-2.83,0c1,1.32,2.24,1.27,3.12,1.94.54.42,1.09.8.76,1.55s-1.13.58-1.6.2c-1.67-1.37-4.25-1-5.57-3.35-.52-1-2.84-.47-4.33-.06-.38,1.42-1.31.39-2,.45-1-1.54-2.61-.23-3.78-.91C110.08,38.68,111.74,39.51,113.19,38.54Z"/><path d="M156.61,33.21q0,4.42,0,8.85c-1.21-2,0-4.35-1-7a30,30,0,0,1-2.88,6.79c-.45.68-.8,2-1.89,1.37s-.2-1.55.25-2.2c1.88-2.68,2.32-6,3.7-8.84h0C155.13,33.05,155.92,33.05,156.61,33.21Z"/><path d="M167.81,58.23c1-.42.79-1.31.81-2.08,0-1.78-.12-3.57.06-5.33.1-1-.89-2.93.92-3,2.05,0,.92,2,1,3.07a43.18,43.18,0,0,1,.05,5.09c0,3.44,0,3.44-2.91,2.33Z"/><path d="M167.81,58.23l0,.13c-1.36,1.56-3.18.79-4.64.54s-.62-1.92-.67-2.93c-.12-2.26,0-4.53,0-6.79,0-.79.11-1.48,1.15-1.42s.9.77.9,1.42c0,1.85.1,3.72,0,5.57s.11,3,2.37,2.7A.77.77,0,0,1,167.81,58.23Z"/><path d="M109.85,50.19c-.27-1.24-2.59-.21-2.17-1.53.34-1,2-.3,3.07-.45a5.26,5.26,0,0,1,1.68,0c.55.1,1.46-.49,1.58.49.08.71-.7.75-1.26.79-1.08.06-1,.84-1,1.56,0,2.26,0,4.51,0,6.76,0,1.61-.82,1.63-1.86.67A16.66,16.66,0,0,0,109.85,50.19Z"/><path d="M83,59.52c.2.82-.61,2,.88,2.36a30.9,30.9,0,0,1-4.49,7.95c-.35.48-.64,1.27-1.48.67s-.31-1.11.07-1.64A58.31,58.31,0,0,0,83,59.52Z"/><path d="M4.07,61.88c1.54-.27.72-1.48.91-2.29a55.7,55.7,0,0,0,4.94,9.19c.35.48.62,1,0,1.47-.84.7-1.17-.09-1.5-.57A30.18,30.18,0,0,1,4.07,61.88Z"/><path d="M192.18,38.52h1.94c1.54.88,3.21.22,4.8.45-1,.68-2.22-.07-3.26.59.65,1.11,2,1,2.83,1.73.54.46,1,.9.56,1.6s-1,.34-1.48.11c-1.47-.64-2.91-1.36-4.42-1.87a1.3,1.3,0,0,1-1-1.61Z"/><path d="M185.41,39.46c.51-.56,1-1.13,1.88-.93a1.1,1.1,0,0,0,.57,1c-.39,1.61-4.59,4.17-6.21,3.83a.88.88,0,0,1-.8-.76c-.09-.67.33-1,.91-1.2C183,40.84,184.65,41,185.41,39.46Z"/><path d="M112.34,40c.68-.06,1.61,1,2-.45a1,1,0,0,1-.42,1.61c-1.59.78-3.21,1.5-4.86,2.14a1,1,0,0,1-1.52-.72c-.13-.68.36-1,1-1.17C109.78,41,111.06,40.46,112.34,40Z"/><path d="M31.51,34.37c-.32-.68-.92-.73-1.56-.71,2.3-1.17,3.7-3.35,5.62-4.93.56-.45,1.29-2,2.23-.26v.08c-.72.38-1.62.58-1.59,1.67C34.76,31.75,33.68,33.67,31.51,34.37Z"/><path d="M241.68,22a.93.93,0,0,1,.87,1.24,17,17,0,0,1-2.05,4.83.86.86,0,0,1-1,.48.74.74,0,0,1-.55-.94c.68-1.78,1.43-3.53,2.19-5.28C241.22,22.16,241.52,22.09,241.68,22Z"/><path d="M234,28.08c-.27.16-.66.53-.79.46-1.82-1.06-1.54-3.28-2.59-4.79-.58-.84.11-1.28.76-1.65C233,23.74,233.55,25.88,234,28.08Z"/><path d="M154.87,32.17h0c-1.95-.16-2.55-2.09-3.93-3a.85.85,0,0,1-.06-1.29.94.94,0,0,1,1.32,0c.84.6,1.65,1.25,2.47,1.87l0,0C154.81,30.53,155.37,31.3,154.87,32.17Z"/><path d="M178.16,58.88c0-3,.09-6-.06-8.92-.1-1.89.65-2.5,2.37-2.21,1.12.2,2.39-.56,3.37.52-5.31-.08-5.31-.08-5.31,5.3,0,1.78,0,3.55,0,5.32h-.19Z"/><path d="M217.53,47.85c-.07,0-.12.13-.2.15-3.72.85-3.67.85-3.74,4.93,0,2,.38,4-.3,6-.81-3.32-.19-6.7-.35-10,0-.81.42-1.15,1.21-1.12Z"/><path d="M208.77,54.15a3.93,3.93,0,0,1,1.45-3.58c0,2.28,0,4.06,0,5.83,0,1-.21,2,.92,2.55-2,.45-1.06-1.17-1.39-1.94C209.36,56.07,210.83,54.49,208.77,54.15Z"/><path d="M6,41.83c0-.53.08-1.08-.49-1.4A16,16,0,0,1,9.39,37c.16.17.32.33.47.5Z"/><path d="M113.19,38.54c-1.45,1-3.11.14-4.63.54-.69.1-1.06-.24-1-.9s.45-.79.94-.87,1.23-.16,1.84-.24c-.27.79-1.41.16-1.8,1.47Z"/><path d="M226.81,33.06c1.05,1.88.24,3.91.43,5.86a36.68,36.68,0,0,1,0,4.06C226.2,39.71,226.94,36.36,226.81,33.06Z"/><path d="M187.86,39.52a1.1,1.1,0,0,1-.57-1h4.89l0,1Z"/><path d="M188.69,24.39l-6.73,0c-.33-.49-1-1,0-1.44,2,2,4.51.41,6.68,1.08a.24.24,0,0,1,.1.18C188.78,24.25,188.72,24.32,188.69,24.39Z"/><path d="M109.85,50.19a16.66,16.66,0,0,1,0,8.3Z"/><path d="M211.35,30.26l-.28.44c-.77-2.8-.26-5.64-.29-8.46l.52.6C211.32,25.31,211.33,27.79,211.35,30.26Z"/><path d="M204.45,51.23q-.06,3.85-.14,7.69l-.46,0C204.21,56.38,203.2,53.72,204.45,51.23Z"/><path d="M198.92,39c-1.59-.23-3.26.43-4.8-.45,1.58-.52,3.56,1,4.85-1C199.8,38.07,199.72,38.53,198.92,39Z"/><path d="M208.71,48.66c0,1.05.35,2.17-.73,3A6.6,6.6,0,0,1,208.71,48.66Z"/><path d="M121.92,30.31l-9.66-.13A18.83,18.83,0,0,1,121.92,30.31Z"/><path d="M121.92,36.18,112.27,36A18.27,18.27,0,0,1,121.92,36.18Z"/><path d="M121.92,33.23l-9.66-.13A18.94,18.94,0,0,1,121.92,33.23Z"/><path d="M121,27.21l-8.73.07A18.41,18.41,0,0,1,121,27.21Z"/><path d="M124.43,24.24l-7.25.19C119.57,23.45,122,23.78,124.43,24.24Z"/><path d="M119,38.54a5.58,5.58,0,0,1-4.82,0Z"/><path d="M195,27.39l-9.63,0A17.06,17.06,0,0,1,195,27.39Z"/><path d="M185.38,33.16a19.13,19.13,0,0,1,9.68,0Z"/><path d="M195.07,30.24h-9.69A19,19,0,0,1,195.07,30.24Z"/><path d="M195.05,36.09h-9.66A18.83,18.83,0,0,1,195.05,36.09Z"/><path d="M197.94,24.12c-2.52.63-5.11-.11-7.63.43C192.78,23.2,195.38,24,197.94,24.12Z"/></g></g></svg>