<?xml version="1.0" encoding="utf-8"?>
<!-- Generator: Adobe Illustrator 22.1.0, SVG Export Plug-In . SVG Version: 6.00 Build 0)  -->
<svg version="1.1" id="Layer_1" xmlns="http://www.w3.org/2000/svg" xmlns:xlink="http://www.w3.org/1999/xlink" x="0px" y="0px"
	 viewBox="0 0 136 179" style="enable-background:new 0 0 136 179;" xml:space="preserve">
<title>aia</title>
<g id="Layer_2_1_">
	<g id="Layer_1-2">
		<polygon points="63.5,100.7 72.4,100.7 72.4,144.7 63.5,144.7 63.5,100.7 		"/>
		<path d="M47.5,97.2c-1.5-0.8-6-3.1-11.3,1.5L8,122.5l7.1,5.7l8.8-7.8c2.3,2.3,4.9,4.2,7.8,5.7c2.8,1.6,5.8,2.8,9,3.4l-1.9,11.6
			l8.6,3l4.8-36.6C53.3,100.6,49,98,47.5,97.2z M35.5,119.2c-2.1-1.1-4-2.4-5.6-4.1l11.5-10.3c0.7-0.7,1.8-0.6,2.5,0.1
			c0.4,0.4,0.6,1,0.5,1.5l-2.5,15.3C39.6,121.2,37.4,120.4,35.5,119.2L35.5,119.2z"/>
		<path d="M83.5,107.5l4.8,36.6l8.6-3l-1.8-11.6c3.2-0.7,6.2-1.8,9-3.4c2.9-1.5,5.5-3.4,7.8-5.7l8.8,7.8l7.1-5.7L99.6,98.7
			c-5.2-4.6-9.8-2.3-11.3-1.5S82.4,100.6,83.5,107.5z M93.9,121.7l-2.4-15.3c-0.1-0.7,0.2-1.5,0.9-1.9c0.7-0.4,1.5-0.3,2.1,0.3
			l11.6,10.3c-1.6,1.7-3.5,3-5.6,4.1C98.3,120.4,96.1,121.2,93.9,121.7z"/>
		<path d="M53.9,58.7c-1.6-0.4-3.3-0.8-5-1c-1.2-0.2,0.6-1,1.2-1.1c2.3-0.6,4.6-1.4,6.7-2.6c1.6-1.1,6.9-4.1,7.7-5.2
			s3.3-0.5,3.7-0.5c0,0,0.2,0.4-0.5,1.1c-0.5,0.7-0.8,1.4-0.9,2.2c-0.3,0.9-0.9,1.6-1.7,2.1c-0.9,0.6-4.1,2.5-3.7,5.2
			c0.6,2.7,2.3,5.1,4.6,6.7c3,2,5.9,4.2,8.7,6.5c1.4,1.3,2.3,3.8,3.2,6.6c0.9,2.4,3.2,4,5.8,4.1c2,0,5.2-0.1,6.4,1.8
			c-0.3,0.2-0.8,0.3-1.2,0.2c-1.7,0.2-3.3,0.7-4.8,1.4c-0.8,0.4-3.9,0.6-6.5,0.3s-4.4-0.2-5.4,0.8c-0.9,1.2-2.2,1.9-3.7,2
			c-1.8,0.2-11.9-0.4-14-1.6c-2.4-1.3,2.2-1.4,2.9-1.7s6-1.1,7.5-1.8c1.2-0.6,4.6-4.8,6.2-5.2s1.4-3.1-0.1-3.9s-2.2,0.6-3.3-1
			s-0.1-2.2-1.2-3.8S61.7,66,60,63.7S55.7,59.2,53.9,58.7z"/>
		<path d="M68,0C30.4,0,0,30.5,0,68c0,15,5,29.6,14.1,41.5l2.2-1.7c-5.1-6.6-8.9-14.1-11-22.2c0-0.9,1.9-0.5,3-0.2s8.9,2.8,11.9,2.2
			c3.5-0.7,6.9-1.8,10.1-3.2c2.6-1.1,5.3-1.6,8.1-1.5c1.2,0.1-0.6-1.4-1.8-1.9s-4.1,0-7.2,0s5.8-9,6.5-9.5s1.5-1,0.5-1
			s-6.9,3.2-8.9,3.9s-6.2,0.5-8.5,0.6s-7.8,3.8-9.4,4.5c-1.7,0.7-3.5,1.3-5.3,1.7c0,0,0.8-10.9,4.4-16s8.6-10.3,10.5-9.4
			s0,2.6,0.9,3.5s2.1,0.8,2.1,2.8s0.5,3-2.1,5.9s-3.5,4.9-1,4s8.5-2.8,10.1-3.2s5-4.1,6.9-5.1S46.6,54,48.4,53.2s4.9-3.2,5.8-4.6
			s3-4.2,4.9-5.2s7.9-4.6,9-6.4s2.6-4.8,3.4-4.6c1.5,0.5,2.9,1.3,4,2.4c1,1.1,0.8,2.4,1.4,3.4c0.9,1.4,2.3,2.5,3.9,3.1
			c1.9,0.6,7,4.6,5.9,5.1c-0.9,0.4-4.4-2.1-5.9-2.2s-2.5,0-2.1,0.9s4.8,4.6,5.8,6s1,4.6,1.9,7.2s2.9,2.9,3.1,7s3.9,8,5.4,9.2
			s3.6,3.1,4.9,3.2s1-0.8,3,0s1.6,0,0.8-1.6c-0.4-0.6-0.2-1.5,0.4-1.9c0.1-0.1,0.3-0.2,0.5-0.2c4.4-0.2,6.1,4.5,6,8.5
			s-2.9,3-4.4,6.1s0,2.2,0.8,1.6s6-0.5,8.6-0.8s4.9-3.6,5.9-4.5c0.7-0.8,1.9-0.9,2.8-0.4c0.9,0.5-0.1,3.2,0.4,3.6s3.2-1.6,4.3-2.4
			c0.7-0.5,1.5-0.7,2.4-0.8V85c-2.1,8.4-5.9,16.2-11.3,23l2.2,1.7c23-29.7,17.6-72.4-12.1-95.4C97.7,5,83,0,68,0z M122.6,66.9
			c-1.6-1.2-5.9-6.2-8-6.9s-8.2-4.8-10.1-5.6c-2.1-1.3-3.6-3.2-4.5-5.4c-0.4-1.5-3.9-6.2-5.8-6.6s-10.4-4.1-11.6-4.6
			c-2.6-1.4-5.1-3-7.5-4.8c-1.2-1.1-2.8-1.6-4.4-1.4c-0.6,0.2-2.6,3.7-3.3,4.9s-8,5.6-8.9,5.9c-1.6,0.7-3.2,1.7-4.5,2.9
			c-1.6,1.4-2,3.4-4,4.6s-10.4,7-11.9,8s-3.9,4.4-5.6,4.2s-7.9-2.8-9.2-4.2c-1.2-1.2-2.6-2.2-4.1-2.9c-2.8,0-11.8,8.5-15.6,12.2
			C5.1,33.9,33.3,7.4,68,7.4c33.8,0,61.5,25.2,64.4,57.4C129.8,69.1,124.2,68.1,122.6,66.9z"/>
	</g>
</g>
<g>
	<path d="M25.5,161.1l3.5-6.9c0-0.1,0.1-0.1,0.2-0.1c0.1,0,0.2,0,0.2,0.1l3.5,6.9c0,0.1,0,0.1,0,0.2c0,0.1-0.1,0.1-0.2,0.1h-0.9
		c-0.1,0-0.2,0-0.3-0.1c-0.1-0.1-0.1-0.1-0.2-0.2l-0.3-0.6c0-0.1-0.1-0.1-0.2-0.2c-0.1-0.1-0.2-0.1-0.3-0.1h-2.8
		c-0.1,0-0.2,0-0.3,0.1c-0.1,0.1-0.1,0.1-0.2,0.2L27,161c0,0.1-0.1,0.1-0.2,0.2c-0.1,0.1-0.2,0.1-0.3,0.1h-0.9c-0.1,0-0.1,0-0.2-0.1
		C25.5,161.2,25.5,161.1,25.5,161.1z M28.4,159h1.5c0.1,0,0.1,0,0.2-0.1c0-0.1,0-0.1,0-0.2l-0.8-1.6c0-0.1-0.1-0.1-0.1-0.1
		c-0.1,0-0.1,0-0.1,0.1l-0.8,1.6c0,0.1,0,0.1,0,0.2C28.3,158.9,28.4,159,28.4,159z"/>
	<path d="M33.3,160.1l0.4-0.6c0-0.1,0.1-0.1,0.2-0.1s0.2,0,0.2,0c0.3,0.2,0.6,0.3,0.9,0.5c0.4,0.2,0.8,0.3,1.2,0.3
		c0.2,0,0.4,0,0.6-0.1c0.2,0,0.3-0.1,0.4-0.2c0.1-0.1,0.2-0.2,0.3-0.3c0.1-0.1,0.1-0.2,0.1-0.3c0-0.1,0-0.3-0.1-0.4
		c-0.1-0.1-0.2-0.2-0.4-0.2c-0.1,0-0.2-0.1-0.2-0.1c-0.1,0-0.2-0.1-0.3-0.1c-0.1,0-0.2,0-0.3-0.1c-0.1,0-0.2,0-0.3-0.1
		c-0.1,0-0.2,0-0.2,0c-0.1,0-0.2,0-0.3-0.1c-0.2,0-0.4-0.1-0.6-0.2c-0.2-0.1-0.4-0.1-0.6-0.2c-0.2-0.1-0.4-0.2-0.5-0.4
		c-0.2-0.1-0.3-0.3-0.4-0.6c-0.1-0.2-0.1-0.5-0.1-0.8c0-0.4,0.1-0.8,0.3-1.1c0.2-0.3,0.4-0.5,0.7-0.7c0.3-0.2,0.6-0.3,0.9-0.3
		c0.3-0.1,0.6-0.1,1-0.1c0.3,0,0.6,0,0.8,0.1c0.1,0,0.2,0,0.3,0.1s0.2,0.1,0.3,0.1c0.1,0,0.2,0.1,0.3,0.1c0.1,0.1,0.2,0.1,0.3,0.2
		c0.1,0,0.1,0.1,0.2,0.1s0.1,0.1,0.2,0.1c0.1,0.1,0.1,0.1,0.1,0.2c0,0.1,0,0.2-0.1,0.2l-0.4,0.6c-0.1,0.1-0.1,0.1-0.2,0.1
		c-0.1,0-0.2,0-0.2,0c-0.3-0.2-0.5-0.3-0.7-0.4c-0.3-0.1-0.6-0.2-1-0.2c-0.1,0-0.1,0-0.2,0s-0.1,0-0.2,0c-0.2,0-0.3,0.1-0.4,0.1
		c-0.1,0-0.1,0.1-0.2,0.1s-0.1,0.1-0.2,0.1c-0.1,0.1-0.1,0.2-0.1,0.4c0,0.1,0.1,0.3,0.2,0.4c0.1,0.1,0.2,0.2,0.4,0.2
		c0.1,0,0.2,0.1,0.3,0.1c0.1,0,0.2,0.1,0.3,0.1c0.1,0,0.2,0,0.3,0.1c0.1,0,0.2,0,0.3,0.1c0.1,0,0.1,0,0.2,0c0.1,0,0.2,0,0.3,0
		c0.1,0,0.2,0,0.3,0.1s0.2,0.1,0.3,0.1c0.1,0,0.1,0,0.2,0c0.1,0,0.1,0,0.2,0.1c0.1,0,0.2,0.1,0.3,0.1c0.1,0.1,0.2,0.1,0.3,0.2
		c0.1,0,0.1,0.1,0.1,0.1c0,0,0.1,0.1,0.1,0.1c0.2,0.2,0.3,0.4,0.4,0.6c0.1,0.2,0.2,0.5,0.2,0.8c0,0.4-0.1,0.7-0.2,1
		c-0.1,0.3-0.3,0.5-0.6,0.7c-0.3,0.2-0.5,0.3-0.9,0.4c-0.4,0.1-0.7,0.1-1.1,0.1c-0.4,0-0.7,0-1-0.1c-0.3,0-0.5-0.1-0.8-0.2
		c-0.1,0-0.2-0.1-0.4-0.2s-0.2-0.1-0.3-0.2c-0.1,0-0.1-0.1-0.2-0.1c-0.1,0-0.1-0.1-0.2-0.1c-0.1,0-0.1-0.1-0.1-0.2
		C33.2,160.3,33.2,160.2,33.3,160.1z"/>
	<path d="M41.5,161.3h-0.8c-0.1,0-0.2,0-0.2-0.1c-0.1-0.1-0.1-0.1-0.1-0.2v-6.7c0-0.1,0-0.2,0.1-0.2c0.1-0.1,0.1-0.1,0.2-0.1h0.8
		c0.1,0,0.2,0,0.2,0.1c0.1,0.1,0.1,0.1,0.1,0.2v6.7c0,0.1,0,0.2-0.1,0.2C41.6,161.3,41.6,161.3,41.5,161.3z"/>
	<path d="M43,161.1l3.5-6.9c0-0.1,0.1-0.1,0.2-0.1c0.1,0,0.2,0,0.2,0.1l3.5,6.9c0,0.1,0,0.1,0,0.2c0,0.1-0.1,0.1-0.2,0.1h-0.9
		c-0.1,0-0.2,0-0.3-0.1c-0.1-0.1-0.1-0.1-0.2-0.2l-0.3-0.6c0-0.1-0.1-0.1-0.2-0.2c-0.1-0.1-0.2-0.1-0.3-0.1h-2.8
		c-0.1,0-0.2,0-0.3,0.1c-0.1,0.1-0.1,0.1-0.2,0.2l-0.3,0.6c0,0.1-0.1,0.1-0.2,0.2c-0.1,0.1-0.2,0.1-0.3,0.1h-0.9
		c-0.1,0-0.1,0-0.2-0.1C43,161.2,43,161.1,43,161.1z M45.9,159h1.5c0.1,0,0.1,0,0.2-0.1c0-0.1,0-0.1,0-0.2l-0.8-1.6
		c0-0.1-0.1-0.1-0.1-0.1c-0.1,0-0.1,0-0.1,0.1l-0.8,1.6c0,0.1,0,0.1,0,0.2C45.8,158.9,45.8,159,45.9,159z"/>
	<path d="M52,155.1c0,0.1,0,0.2-0.1,0.3c0,0.1-0.1,0.2-0.1,0.3c-0.1,0.2-0.2,0.4-0.4,0.5c-0.1,0-0.1,0.1-0.2,0.1
		c-0.1,0-0.1,0.1-0.2,0.1c-0.1,0-0.1,0.1-0.2,0.1c-0.1,0-0.1,0-0.2-0.1c0-0.1,0-0.1,0-0.2s0.1-0.1,0.2-0.2c0,0,0.1-0.1,0.2-0.2
		c0.1-0.1,0.1-0.2,0.2-0.2c0-0.1,0-0.1,0-0.2s-0.1-0.1-0.2-0.1c-0.1,0-0.2-0.1-0.2-0.2c-0.1-0.1-0.2-0.3-0.2-0.5
		c0-0.2,0-0.4,0.2-0.5c0.1-0.1,0.3-0.2,0.5-0.2c0.2,0,0.3,0,0.5,0.2c0.2,0.1,0.3,0.3,0.3,0.5C52.1,154.7,52.1,154.9,52,155.1z"/>
	<path d="M52.9,160.1l0.4-0.6c0-0.1,0.1-0.1,0.2-0.1s0.2,0,0.2,0c0.3,0.2,0.6,0.3,0.9,0.5c0.4,0.2,0.8,0.3,1.2,0.3
		c0.2,0,0.4,0,0.6-0.1c0.2,0,0.3-0.1,0.4-0.2c0.1-0.1,0.2-0.2,0.3-0.3c0.1-0.1,0.1-0.2,0.1-0.3c0-0.1,0-0.3-0.1-0.4
		c-0.1-0.1-0.2-0.2-0.4-0.2c-0.1,0-0.2-0.1-0.2-0.1c-0.1,0-0.2-0.1-0.3-0.1c-0.1,0-0.2,0-0.3-0.1c-0.1,0-0.2,0-0.3-0.1
		c-0.1,0-0.2,0-0.2,0c-0.1,0-0.2,0-0.3-0.1c-0.2,0-0.4-0.1-0.6-0.2c-0.2-0.1-0.4-0.1-0.6-0.2c-0.2-0.1-0.4-0.2-0.5-0.4
		c-0.2-0.1-0.3-0.3-0.4-0.6c-0.1-0.2-0.1-0.5-0.1-0.8c0-0.4,0.1-0.8,0.3-1.1c0.2-0.3,0.4-0.5,0.7-0.7c0.3-0.2,0.6-0.3,0.9-0.3
		c0.3-0.1,0.6-0.1,1-0.1c0.3,0,0.6,0,0.8,0.1c0.1,0,0.2,0,0.3,0.1s0.2,0.1,0.3,0.1c0.1,0,0.2,0.1,0.3,0.1c0.1,0.1,0.2,0.1,0.3,0.2
		c0.1,0,0.1,0.1,0.2,0.1s0.1,0.1,0.2,0.1c0.1,0.1,0.1,0.1,0.1,0.2c0,0.1,0,0.2-0.1,0.2l-0.4,0.6c-0.1,0.1-0.1,0.1-0.2,0.1
		c-0.1,0-0.2,0-0.2,0c-0.3-0.2-0.5-0.3-0.7-0.4c-0.3-0.1-0.6-0.2-1-0.2c-0.1,0-0.1,0-0.2,0s-0.1,0-0.2,0c-0.2,0-0.3,0.1-0.4,0.1
		c-0.1,0-0.1,0.1-0.2,0.1s-0.1,0.1-0.2,0.1c-0.1,0.1-0.1,0.2-0.1,0.4c0,0.1,0.1,0.3,0.2,0.4c0.1,0.1,0.2,0.2,0.4,0.2
		c0.1,0,0.2,0.1,0.3,0.1c0.1,0,0.2,0.1,0.3,0.1c0.1,0,0.2,0,0.3,0.1c0.1,0,0.2,0,0.3,0.1c0.1,0,0.1,0,0.2,0c0.1,0,0.2,0,0.3,0
		c0.1,0,0.2,0,0.3,0.1s0.2,0.1,0.3,0.1c0.1,0,0.1,0,0.2,0c0.1,0,0.1,0,0.2,0.1c0.1,0,0.2,0.1,0.3,0.1c0.1,0.1,0.2,0.1,0.3,0.2
		c0.1,0,0.1,0.1,0.1,0.1c0,0,0.1,0.1,0.1,0.1c0.2,0.2,0.3,0.4,0.4,0.6c0.1,0.2,0.2,0.5,0.2,0.8c0,0.4-0.1,0.7-0.2,1
		c-0.1,0.3-0.3,0.5-0.6,0.7c-0.3,0.2-0.5,0.3-0.9,0.4c-0.4,0.1-0.7,0.1-1.1,0.1c-0.4,0-0.7,0-1-0.1c-0.3,0-0.5-0.1-0.8-0.2
		c-0.1,0-0.2-0.1-0.4-0.2s-0.2-0.1-0.3-0.2c-0.1,0-0.1-0.1-0.2-0.1c-0.1,0-0.1-0.1-0.2-0.1c-0.1,0-0.1-0.1-0.1-0.2
		C52.9,160.3,52.9,160.2,52.9,160.1z"/>
	<path d="M68.5,160.4v0.6c0,0.1,0,0.2-0.1,0.2c-0.1,0.1-0.1,0.1-0.2,0.1h-4.6c-0.1,0-0.2,0-0.2-0.1c-0.1-0.1-0.1-0.1-0.1-0.2v-6.7
		c0-0.1,0-0.2,0.1-0.2c0.1-0.1,0.1-0.1,0.2-0.1h0.8c0.1,0,0.2,0,0.2,0.1c0.1,0.1,0.1,0.1,0.1,0.2v5.5c0,0.1,0,0.2,0.1,0.2
		c0.1,0.1,0.1,0.1,0.2,0.1h3.2c0.1,0,0.2,0,0.2,0.1C68.5,160.2,68.5,160.3,68.5,160.4z"/>
	<path d="M68.8,161.1l3.5-6.9c0-0.1,0.1-0.1,0.2-0.1c0.1,0,0.2,0,0.2,0.1l3.5,6.9c0,0.1,0,0.1,0,0.2c0,0.1-0.1,0.1-0.2,0.1h-0.9
		c-0.1,0-0.2,0-0.3-0.1c-0.1-0.1-0.1-0.1-0.2-0.2l-0.3-0.6c0-0.1-0.1-0.1-0.2-0.2c-0.1-0.1-0.2-0.1-0.3-0.1h-2.8
		c-0.1,0-0.2,0-0.3,0.1c-0.1,0.1-0.1,0.1-0.2,0.2l-0.3,0.6c0,0.1-0.1,0.1-0.2,0.2c-0.1,0.1-0.2,0.1-0.3,0.1H69c-0.1,0-0.1,0-0.2-0.1
		C68.8,161.2,68.8,161.1,68.8,161.1z M71.8,159h1.5c0.1,0,0.1,0,0.2-0.1s0-0.1,0-0.2l-0.8-1.6c0-0.1-0.1-0.1-0.1-0.1
		c-0.1,0-0.1,0-0.1,0.1l-0.8,1.6c0,0.1,0,0.1,0,0.2C71.6,158.9,71.7,159,71.8,159z"/>
	<path d="M77.9,161.3h-0.8c-0.1,0-0.2,0-0.2-0.1c-0.1-0.1-0.1-0.1-0.1-0.2v-6.7c0-0.1,0-0.2,0.1-0.2c0.1-0.1,0.1-0.1,0.2-0.1h3
		c0.4,0,0.7,0.1,1,0.2c0.3,0.1,0.6,0.3,0.8,0.5c0.1,0.1,0.2,0.2,0.3,0.4c0.1,0.1,0.2,0.3,0.2,0.4c0.1,0.3,0.2,0.7,0.2,1
		c0,0.6-0.1,1-0.4,1.5c-0.2,0.3-0.5,0.6-0.8,0.8c-0.1,0-0.1,0.1-0.1,0.2c0,0.1,0,0.1,0.1,0.2c0.2,0.3,0.5,0.6,0.7,0.9
		c0.2,0.3,0.5,0.6,0.7,0.9c0.1,0.1,0.1,0.1,0,0.2c0,0.1-0.1,0.1-0.2,0.1h-1c-0.1,0-0.2,0-0.3-0.1c-0.1,0-0.2-0.1-0.2-0.2
		c-0.1-0.2-0.2-0.3-0.3-0.5c-0.1-0.1-0.2-0.3-0.3-0.5l-0.7-0.9c-0.1-0.1-0.1-0.1-0.2-0.2c-0.1,0-0.2-0.1-0.3-0.1h-0.8
		c-0.1,0-0.2,0-0.2,0.1c-0.1,0.1-0.1,0.1-0.1,0.2v1.7c0,0.1,0,0.2-0.1,0.2C78,161.3,78,161.3,77.9,161.3z M78.5,157.8h1.6
		c0.1,0,0.2,0,0.4-0.1c0.1-0.1,0.3-0.1,0.4-0.2c0.1-0.1,0.2-0.2,0.3-0.4c0.1-0.1,0.1-0.3,0.1-0.5c0-0.1,0-0.2,0-0.4
		c0-0.1,0-0.1-0.1-0.2c0-0.1-0.1-0.1-0.1-0.2c-0.1-0.1-0.2-0.2-0.3-0.3c-0.2-0.1-0.3-0.1-0.6-0.1h-1.6c-0.1,0-0.2,0-0.2,0.1
		c-0.1,0.1-0.1,0.1-0.1,0.2v1.9c0,0.1,0,0.2,0.1,0.2C78.3,157.7,78.4,157.8,78.5,157.8z"/>
	<path d="M91.1,157.6c0,0.1,0,0.3,0,0.4c0,0.1,0,0.2,0,0.2c0,0.5-0.2,0.9-0.4,1.3c-0.2,0.4-0.5,0.7-0.8,1c-0.3,0.3-0.7,0.5-1.1,0.7
		c-0.4,0.2-0.9,0.2-1.4,0.2c-0.5,0-1-0.1-1.5-0.3c-0.5-0.2-0.9-0.5-1.2-0.8c-0.4-0.4-0.6-0.8-0.8-1.2c-0.2-0.5-0.3-1-0.3-1.5
		c0-0.5,0.1-1,0.3-1.5c0.1-0.2,0.2-0.5,0.4-0.7s0.3-0.4,0.5-0.6c0.4-0.3,0.8-0.6,1.2-0.8c0.5-0.2,0.9-0.3,1.5-0.3
		c0.7,0,1.3,0.2,1.8,0.5c0.5,0.3,0.8,0.6,1.2,1c0.1,0.1,0.1,0.1,0.1,0.2s-0.1,0.1-0.1,0.2l-0.7,0.4c-0.1,0-0.2,0.1-0.2,0
		c-0.1,0-0.2-0.1-0.2-0.1c-0.1-0.1-0.2-0.2-0.3-0.3c-0.1-0.1-0.2-0.2-0.3-0.2c-0.4-0.2-0.7-0.3-1.1-0.3c-0.3,0-0.6,0.1-0.9,0.2
		c-0.3,0.1-0.6,0.3-0.8,0.6c-0.2,0.2-0.4,0.5-0.5,0.8c-0.1,0.3-0.2,0.6-0.2,0.9c0,0.3,0.1,0.7,0.2,1c0.1,0.3,0.3,0.6,0.5,0.8
		c0.2,0.2,0.5,0.4,0.8,0.5c0.3,0.1,0.6,0.2,0.9,0.2c0.3,0,0.5,0,0.7-0.1c0.2-0.1,0.4-0.2,0.6-0.3c0.2-0.1,0.4-0.3,0.5-0.5
		c0.1-0.1,0.2-0.2,0.2-0.4c0-0.1,0-0.1,0-0.2c0-0.1-0.1-0.1-0.2-0.1h-2.1c-0.1,0-0.2,0-0.2-0.1c-0.1-0.1-0.1-0.1-0.1-0.2v-0.6
		c0-0.1,0-0.2,0.1-0.2c0.1-0.1,0.1-0.1,0.2-0.1h3.6c0.1,0,0.2,0,0.2,0.1C91.1,157.5,91.1,157.5,91.1,157.6z"/>
	<path d="M93.7,155.6v1.2c0,0.1,0,0.2,0.1,0.2c0.1,0.1,0.1,0.1,0.2,0.1h2.9c0.1,0,0.2,0,0.2,0.1c0.1,0.1,0.1,0.1,0.1,0.2v0.7
		c0,0.1,0,0.2-0.1,0.2c-0.1,0.1-0.1,0.1-0.2,0.1H94c-0.1,0-0.2,0-0.2,0.1c-0.1,0.1-0.1,0.1-0.1,0.2v1.1c0,0.1,0,0.2,0.1,0.2
		c0.1,0.1,0.1,0.1,0.2,0.1h3.4c0.1,0,0.2,0,0.2,0.1c0.1,0.1,0.1,0.1,0.1,0.2v0.6c0,0.1,0,0.2-0.1,0.2c-0.1,0.1-0.1,0.1-0.2,0.1h-4.8
		c-0.1,0-0.2,0-0.2-0.1c-0.1-0.1-0.1-0.1-0.1-0.2v-6.7c0-0.1,0-0.2,0.1-0.2c0.1-0.1,0.1-0.1,0.2-0.1h4.8c0.1,0,0.2,0,0.2,0.1
		c0.1,0.1,0.1,0.1,0.1,0.2v0.6c0,0.1,0,0.2-0.1,0.2c-0.1,0.1-0.1,0.1-0.2,0.1H94c-0.1,0-0.2,0-0.2,0.1
		C93.7,155.4,93.7,155.5,93.7,155.6z"/>
	<path d="M99,160.1l0.4-0.6c0-0.1,0.1-0.1,0.2-0.1s0.2,0,0.2,0c0.3,0.2,0.6,0.3,0.9,0.5c0.4,0.2,0.8,0.3,1.2,0.3
		c0.2,0,0.4,0,0.6-0.1c0.2,0,0.3-0.1,0.4-0.2c0.1-0.1,0.2-0.2,0.3-0.3c0.1-0.1,0.1-0.2,0.1-0.3c0-0.1,0-0.3-0.1-0.4
		c-0.1-0.1-0.2-0.2-0.4-0.2c-0.1,0-0.2-0.1-0.2-0.1s-0.2-0.1-0.3-0.1c-0.1,0-0.2,0-0.3-0.1c-0.1,0-0.2,0-0.3-0.1c-0.1,0-0.2,0-0.2,0
		s-0.2,0-0.3-0.1c-0.2,0-0.4-0.1-0.6-0.2c-0.2-0.1-0.4-0.1-0.6-0.2c-0.2-0.1-0.4-0.2-0.5-0.4c-0.2-0.1-0.3-0.3-0.4-0.6
		c-0.1-0.2-0.1-0.5-0.1-0.8c0-0.4,0.1-0.8,0.3-1.1c0.2-0.3,0.4-0.5,0.7-0.7c0.3-0.2,0.6-0.3,0.9-0.3c0.3-0.1,0.6-0.1,1-0.1
		c0.3,0,0.6,0,0.8,0.1c0.1,0,0.2,0,0.3,0.1c0.1,0,0.2,0.1,0.3,0.1c0.1,0,0.2,0.1,0.3,0.1c0.1,0.1,0.2,0.1,0.3,0.2
		c0.1,0,0.1,0.1,0.2,0.1c0.1,0,0.1,0.1,0.2,0.1c0.1,0.1,0.1,0.1,0.1,0.2c0,0.1,0,0.2-0.1,0.2l-0.4,0.6c-0.1,0.1-0.1,0.1-0.2,0.1
		c-0.1,0-0.2,0-0.2,0c-0.3-0.2-0.5-0.3-0.7-0.4c-0.3-0.1-0.6-0.2-1-0.2c-0.1,0-0.1,0-0.2,0c-0.1,0-0.1,0-0.2,0
		c-0.2,0-0.3,0.1-0.4,0.1c-0.1,0-0.1,0.1-0.2,0.1s-0.1,0.1-0.2,0.1c-0.1,0.1-0.1,0.2-0.1,0.4c0,0.1,0.1,0.3,0.2,0.4
		c0.1,0.1,0.2,0.2,0.4,0.2c0.1,0,0.2,0.1,0.3,0.1c0.1,0,0.2,0.1,0.3,0.1c0.1,0,0.2,0,0.3,0.1c0.1,0,0.2,0,0.3,0.1c0.1,0,0.2,0,0.2,0
		c0.1,0,0.2,0,0.3,0c0.1,0,0.2,0,0.3,0.1s0.2,0.1,0.3,0.1c0.1,0,0.1,0,0.2,0c0.1,0,0.1,0,0.2,0.1c0.1,0,0.2,0.1,0.3,0.1
		c0.1,0.1,0.2,0.1,0.3,0.2c0.1,0,0.1,0.1,0.1,0.1c0,0,0.1,0.1,0.1,0.1c0.2,0.2,0.3,0.4,0.4,0.6c0.1,0.2,0.1,0.5,0.1,0.8
		c0,0.4-0.1,0.7-0.2,1c-0.1,0.3-0.3,0.5-0.6,0.7c-0.3,0.2-0.5,0.3-0.9,0.4c-0.4,0.1-0.7,0.1-1.1,0.1c-0.4,0-0.7,0-1-0.1
		c-0.3,0-0.5-0.1-0.8-0.2c-0.1,0-0.2-0.1-0.3-0.2s-0.2-0.1-0.3-0.2c-0.1,0-0.1-0.1-0.2-0.1c-0.1,0-0.1-0.1-0.2-0.1
		c-0.1,0-0.1-0.1-0.1-0.2C98.9,160.3,98.9,160.2,99,160.1z"/>
	<path d="M110.2,155.2h-1.5c-0.1,0-0.2,0-0.2,0.1c-0.1,0.1-0.1,0.1-0.1,0.2v5.5c0,0.1,0,0.2-0.1,0.2c-0.1,0.1-0.1,0.1-0.2,0.1h-0.8
		c-0.1,0-0.2,0-0.2-0.1c-0.1-0.1-0.1-0.1-0.1-0.2v-5.5c0-0.1,0-0.2-0.1-0.2c-0.1-0.1-0.1-0.1-0.2-0.1h-1.5c-0.1,0-0.2,0-0.2-0.1
		c-0.1-0.1-0.1-0.1-0.1-0.2v-0.6c0-0.1,0-0.2,0.1-0.2c0.1-0.1,0.1-0.1,0.2-0.1h5c0.1,0,0.2,0,0.2,0.1c0.1,0.1,0.1,0.1,0.1,0.2v0.6
		c0,0.1,0,0.2-0.1,0.2C110.4,155.2,110.3,155.2,110.2,155.2z"/>
	<path d="M9.8,173.3H9c-0.1,0-0.2,0-0.2-0.1c-0.1-0.1-0.1-0.1-0.1-0.2v-6.7c0-0.1,0-0.2,0.1-0.2C8.8,166,8.9,166,9,166h0.8
		c0.1,0,0.2,0,0.2,0.1c0.1,0.1,0.1,0.1,0.1,0.2v6.7c0,0.1,0,0.2-0.1,0.2C9.9,173.3,9.9,173.3,9.8,173.3z"/>
	<path d="M13.3,169.3v3.7c0,0.1,0,0.2-0.1,0.2c-0.1,0.1-0.1,0.1-0.2,0.1h-0.8c-0.1,0-0.1,0-0.2-0.1c-0.1-0.1-0.1-0.1-0.1-0.2v-6.8
		c0-0.1,0-0.1,0.1-0.2c0.1,0,0.2,0,0.2,0.1l4.4,4.2c0.1,0.1,0.1,0.1,0.2,0.1c0,0,0.1-0.1,0.1-0.2v-3.8c0-0.1,0-0.2,0.1-0.2
		c0.1-0.1,0.1-0.1,0.2-0.1h0.8c0.1,0,0.2,0,0.2,0.1c0.1,0.1,0.1,0.1,0.1,0.2v6.8c0,0.1,0,0.1-0.1,0.2c-0.1,0-0.2,0-0.2-0.1l-4.4-4.1
		c-0.1-0.1-0.1-0.1-0.2,0C13.3,169.1,13.3,169.2,13.3,169.3z"/>
	<path d="M19.7,172.1l0.4-0.6c0-0.1,0.1-0.1,0.2-0.1s0.2,0,0.2,0c0.3,0.2,0.6,0.3,0.9,0.5c0.4,0.2,0.8,0.3,1.2,0.3
		c0.2,0,0.4,0,0.6-0.1c0.2,0,0.3-0.1,0.4-0.2c0.1-0.1,0.2-0.2,0.3-0.3c0.1-0.1,0.1-0.2,0.1-0.3c0-0.1,0-0.3-0.1-0.4
		c-0.1-0.1-0.2-0.2-0.4-0.2c-0.1,0-0.2-0.1-0.2-0.1c-0.1,0-0.2-0.1-0.3-0.1c-0.1,0-0.2,0-0.3-0.1c-0.1,0-0.2,0-0.3-0.1
		c-0.1,0-0.2,0-0.2,0c-0.1,0-0.2,0-0.3-0.1c-0.2,0-0.4-0.1-0.6-0.2c-0.2-0.1-0.4-0.1-0.6-0.2c-0.2-0.1-0.4-0.2-0.5-0.4
		c-0.2-0.1-0.3-0.3-0.4-0.6c-0.1-0.2-0.1-0.5-0.1-0.8c0-0.4,0.1-0.8,0.3-1.1c0.2-0.3,0.4-0.5,0.7-0.7c0.3-0.2,0.6-0.3,0.9-0.3
		c0.3-0.1,0.6-0.1,1-0.1c0.3,0,0.6,0,0.8,0.1c0.1,0,0.2,0,0.3,0.1s0.2,0.1,0.3,0.1c0.1,0,0.2,0.1,0.3,0.1c0.1,0.1,0.2,0.1,0.3,0.2
		c0.1,0,0.1,0.1,0.2,0.1s0.1,0.1,0.2,0.1c0.1,0.1,0.1,0.1,0.1,0.2c0,0.1,0,0.2-0.1,0.2l-0.4,0.6c-0.1,0.1-0.1,0.1-0.2,0.1
		c-0.1,0-0.2,0-0.2,0c-0.3-0.2-0.5-0.3-0.7-0.4c-0.3-0.1-0.6-0.2-1-0.2c-0.1,0-0.1,0-0.2,0s-0.1,0-0.2,0c-0.2,0-0.3,0.1-0.4,0.1
		c-0.1,0-0.1,0.1-0.2,0.1s-0.1,0.1-0.2,0.1c-0.1,0.1-0.1,0.2-0.1,0.4c0,0.1,0.1,0.3,0.2,0.4c0.1,0.1,0.2,0.2,0.4,0.2
		c0.1,0,0.2,0.1,0.3,0.1c0.1,0,0.2,0.1,0.3,0.1c0.1,0,0.2,0,0.3,0.1c0.1,0,0.2,0,0.3,0.1c0.1,0,0.1,0,0.2,0c0.1,0,0.2,0,0.3,0
		c0.1,0,0.2,0,0.3,0.1s0.2,0.1,0.3,0.1c0.1,0,0.1,0,0.2,0c0.1,0,0.1,0,0.2,0.1c0.1,0,0.2,0.1,0.3,0.1c0.1,0.1,0.2,0.1,0.3,0.2
		c0.1,0,0.1,0.1,0.1,0.1c0,0,0.1,0.1,0.1,0.1c0.2,0.2,0.3,0.4,0.4,0.6c0.1,0.2,0.2,0.5,0.2,0.8c0,0.4-0.1,0.7-0.2,1
		c-0.1,0.3-0.3,0.5-0.6,0.7c-0.3,0.2-0.5,0.3-0.9,0.4c-0.4,0.1-0.7,0.1-1.1,0.1c-0.4,0-0.7,0-1-0.1c-0.3,0-0.5-0.1-0.8-0.2
		c-0.1,0-0.2-0.1-0.4-0.2s-0.2-0.1-0.3-0.2c-0.1,0-0.1-0.1-0.2-0.1c-0.1,0-0.1-0.1-0.2-0.1c-0.1,0-0.1-0.1-0.1-0.2
		C19.7,172.3,19.7,172.2,19.7,172.1z"/>
	<path d="M28.5,173.2c-0.4-0.2-0.7-0.4-1-0.6c-0.3-0.3-0.5-0.6-0.6-1c-0.1-0.4-0.2-0.8-0.2-1.3v-4c0-0.1,0-0.2,0.1-0.2
		c0.1-0.1,0.1-0.1,0.2-0.1h0.8c0.1,0,0.2,0,0.2,0.1c0.1,0.1,0.1,0.1,0.1,0.2v4c0,0.4,0.1,0.7,0.2,0.9c0.1,0.2,0.3,0.4,0.4,0.6
		c0.2,0.1,0.4,0.2,0.6,0.3c0.1,0,0.2,0,0.3,0.1s0.2,0,0.3,0c0.1,0,0.3,0,0.5-0.1c0.2,0,0.4-0.1,0.6-0.3c0.2-0.1,0.3-0.3,0.5-0.6
		s0.2-0.5,0.2-0.9v-4c0-0.1,0-0.2,0.1-0.2c0.1-0.1,0.1-0.1,0.2-0.1h0.8c0.1,0,0.2,0,0.2,0.1c0.1,0.1,0.1,0.1,0.1,0.2v4
		c0,0.2,0,0.5-0.1,0.7s-0.1,0.4-0.2,0.6c-0.1,0.4-0.4,0.7-0.6,1c-0.3,0.3-0.6,0.5-1,0.6c-0.4,0.1-0.8,0.2-1.3,0.2
		S28.9,173.4,28.5,173.2z"/>
	<path d="M35.6,173.3h-0.8c-0.1,0-0.2,0-0.2-0.1c-0.1-0.1-0.1-0.1-0.1-0.2v-6.7c0-0.1,0-0.2,0.1-0.2c0.1-0.1,0.1-0.1,0.2-0.1h3
		c0.4,0,0.7,0.1,1,0.2c0.3,0.1,0.6,0.3,0.8,0.5c0.1,0.1,0.2,0.2,0.3,0.4c0.1,0.1,0.2,0.3,0.2,0.4c0.1,0.3,0.2,0.7,0.2,1
		c0,0.6-0.1,1-0.4,1.5c-0.2,0.3-0.5,0.6-0.8,0.8c-0.1,0-0.1,0.1-0.1,0.2c0,0.1,0,0.1,0,0.2c0.2,0.3,0.5,0.6,0.7,0.9
		c0.2,0.3,0.5,0.6,0.7,0.9c0.1,0.1,0.1,0.1,0,0.2c0,0.1-0.1,0.1-0.2,0.1h-1c-0.1,0-0.2,0-0.3-0.1c-0.1,0-0.2-0.1-0.2-0.2
		c-0.1-0.2-0.2-0.3-0.3-0.5c-0.1-0.1-0.2-0.3-0.3-0.5l-0.7-0.9c-0.1-0.1-0.1-0.1-0.2-0.2S37.1,171,37,171h-0.8c-0.1,0-0.2,0-0.2,0.1
		c-0.1,0.1-0.1,0.1-0.1,0.2v1.7c0,0.1,0,0.2-0.1,0.2C35.8,173.3,35.7,173.3,35.6,173.3z M36.2,169.8h1.6c0.1,0,0.2,0,0.4-0.1
		c0.1-0.1,0.3-0.1,0.4-0.2c0.1-0.1,0.2-0.2,0.3-0.4c0.1-0.1,0.1-0.3,0.1-0.5c0-0.1,0-0.2,0-0.4c0-0.1,0-0.1-0.1-0.2
		c0-0.1-0.1-0.1-0.1-0.2c-0.1-0.1-0.2-0.2-0.3-0.3c-0.2-0.1-0.4-0.1-0.6-0.1h-1.6c-0.1,0-0.2,0-0.2,0.1c-0.1,0.1-0.1,0.1-0.1,0.2
		v1.9c0,0.1,0,0.2,0.1,0.2C36.1,169.7,36.2,169.8,36.2,169.8z"/>
	<path d="M41,173.1l3.5-6.9c0-0.1,0.1-0.1,0.2-0.1c0.1,0,0.2,0,0.2,0.1l3.5,6.9c0,0.1,0,0.1,0,0.2c0,0.1-0.1,0.1-0.2,0.1h-0.9
		c-0.1,0-0.2,0-0.3-0.1c-0.1-0.1-0.1-0.1-0.2-0.2l-0.3-0.6c0-0.1-0.1-0.1-0.2-0.2c-0.1-0.1-0.2-0.1-0.3-0.1h-2.8
		c-0.1,0-0.2,0-0.3,0.1c-0.1,0.1-0.1,0.1-0.2,0.2l-0.3,0.6c0,0.1-0.1,0.1-0.2,0.2c-0.1,0.1-0.2,0.1-0.3,0.1h-0.9
		c-0.1,0-0.1,0-0.2-0.1C41,173.2,41,173.1,41,173.1z M44,171h1.5c0.1,0,0.1,0,0.2-0.1c0-0.1,0-0.1,0-0.2l-0.8-1.6
		c0-0.1-0.1-0.1-0.1-0.1c-0.1,0-0.1,0-0.1,0.1l-0.8,1.6c0,0.1,0,0.1,0,0.2C43.8,170.9,43.9,171,44,171z"/>
	<path d="M50.8,169.3v3.7c0,0.1,0,0.2-0.1,0.2c-0.1,0.1-0.1,0.1-0.2,0.1h-0.8c-0.1,0-0.1,0-0.2-0.1c-0.1-0.1-0.1-0.1-0.1-0.2v-6.8
		c0-0.1,0-0.1,0.1-0.2c0.1,0,0.2,0,0.2,0.1l4.4,4.2c0.1,0.1,0.1,0.1,0.2,0.1c0,0,0.1-0.1,0.1-0.2v-3.8c0-0.1,0-0.2,0.1-0.2
		c0.1-0.1,0.1-0.1,0.2-0.1h0.8c0.1,0,0.2,0,0.2,0.1c0.1,0.1,0.1,0.1,0.1,0.2v6.8c0,0.1,0,0.1-0.1,0.2c-0.1,0-0.2,0-0.2-0.1l-4.4-4.1
		c-0.1-0.1-0.1-0.1-0.2,0C50.8,169.1,50.8,169.2,50.8,169.3z"/>
	<path d="M63.9,171.8c-0.1,0.1-0.1,0.2-0.2,0.3c-0.1,0.1-0.1,0.2-0.2,0.3c-0.2,0.2-0.5,0.4-0.8,0.6c-0.1,0.1-0.3,0.2-0.4,0.2
		s-0.3,0.1-0.5,0.2c-0.3,0.1-0.7,0.1-1,0.1c-0.5,0-1-0.1-1.5-0.3c-0.5-0.2-0.9-0.5-1.2-0.8c-0.3-0.3-0.6-0.7-0.8-1.2
		c-0.2-0.5-0.3-1-0.3-1.5c0-0.5,0.1-1,0.3-1.5c0.2-0.5,0.5-0.9,0.8-1.2c0.4-0.3,0.8-0.6,1.2-0.8c0.5-0.2,0.9-0.3,1.5-0.3
		c0.3,0,0.7,0,1,0.1c0.3,0.1,0.6,0.2,0.9,0.4c0.1,0.1,0.3,0.2,0.4,0.3s0.3,0.2,0.4,0.3c0.2,0.2,0.3,0.3,0.4,0.5c0,0.1,0.1,0.1,0,0.2
		c0,0.1-0.1,0.1-0.2,0.2l-0.7,0.3c-0.1,0-0.2,0-0.2,0c-0.1,0-0.2-0.1-0.2-0.1c0,0-0.1-0.1-0.1-0.1c0,0-0.1-0.1-0.1-0.1
		c-0.1-0.1-0.1-0.1-0.2-0.2c-0.1-0.1-0.2-0.1-0.2-0.2c-0.1-0.1-0.2-0.1-0.3-0.1s-0.2-0.1-0.3-0.1c-0.2-0.1-0.4-0.1-0.6-0.1
		c-0.3,0-0.6,0.1-0.9,0.2c-0.3,0.1-0.5,0.3-0.8,0.6c-0.2,0.2-0.4,0.5-0.5,0.8c-0.1,0.3-0.2,0.6-0.2,0.9c0,0.3,0.1,0.7,0.2,1
		c0.1,0.3,0.3,0.6,0.5,0.8c0.2,0.2,0.5,0.4,0.8,0.5c0.3,0.1,0.6,0.2,0.9,0.2c0.2,0,0.4,0,0.6-0.1c0.1,0,0.2-0.1,0.3-0.1
		s0.2-0.1,0.3-0.1c0.1-0.1,0.2-0.1,0.2-0.2s0.2-0.1,0.2-0.2c0,0,0.1-0.1,0.1-0.1c0,0,0.1-0.1,0.1-0.1c0.1-0.1,0.1-0.1,0.2-0.1
		c0.1,0,0.2,0,0.2,0l0.7,0.3c0.1,0,0.1,0.1,0.2,0.2C63.9,171.6,63.9,171.7,63.9,171.8z"/>
	<path d="M66.5,167.6v1.2c0,0.1,0,0.2,0.1,0.2c0.1,0.1,0.1,0.1,0.2,0.1h2.9c0.1,0,0.2,0,0.2,0.1c0.1,0.1,0.1,0.1,0.1,0.2v0.7
		c0,0.1,0,0.2-0.1,0.2c-0.1,0.1-0.1,0.1-0.2,0.1h-2.9c-0.1,0-0.2,0-0.2,0.1c-0.1,0.1-0.1,0.1-0.1,0.2v1.1c0,0.1,0,0.2,0.1,0.2
		c0.1,0.1,0.1,0.1,0.2,0.1h3.4c0.1,0,0.2,0,0.2,0.1c0.1,0.1,0.1,0.1,0.1,0.2v0.6c0,0.1,0,0.2-0.1,0.2c-0.1,0.1-0.1,0.1-0.2,0.1h-4.8
		c-0.1,0-0.2,0-0.2-0.1c-0.1-0.1-0.1-0.1-0.1-0.2v-6.7c0-0.1,0-0.2,0.1-0.2c0.1-0.1,0.1-0.1,0.2-0.1h4.8c0.1,0,0.2,0,0.2,0.1
		c0.1,0.1,0.1,0.1,0.1,0.2v0.6c0,0.1,0,0.2-0.1,0.2c-0.1,0.1-0.1,0.1-0.2,0.1h-3.4c-0.1,0-0.2,0-0.2,0.1
		C66.5,167.4,66.5,167.5,66.5,167.6z"/>
	<path d="M81.9,171.8c-0.1,0.1-0.1,0.2-0.2,0.3c-0.1,0.1-0.1,0.2-0.2,0.3c-0.2,0.2-0.5,0.4-0.8,0.6c-0.1,0.1-0.3,0.2-0.4,0.2
		c-0.2,0.1-0.3,0.1-0.5,0.2c-0.3,0.1-0.7,0.1-1,0.1c-0.5,0-1-0.1-1.5-0.3s-0.9-0.5-1.2-0.8c-0.3-0.3-0.6-0.7-0.8-1.2s-0.3-1-0.3-1.5
		c0-0.5,0.1-1,0.3-1.5c0.2-0.5,0.5-0.9,0.8-1.2c0.4-0.3,0.8-0.6,1.2-0.8c0.5-0.2,1-0.3,1.5-0.3c0.3,0,0.7,0,1,0.1
		c0.3,0.1,0.6,0.2,0.9,0.4c0.1,0.1,0.3,0.2,0.4,0.3s0.3,0.2,0.4,0.3c0.2,0.2,0.3,0.3,0.4,0.5c0,0.1,0.1,0.1,0,0.2
		c0,0.1-0.1,0.1-0.2,0.2l-0.7,0.3c-0.1,0-0.2,0-0.2,0c-0.1,0-0.2-0.1-0.2-0.1c0,0-0.1-0.1-0.1-0.1c0,0-0.1-0.1-0.1-0.1
		c-0.1-0.1-0.1-0.1-0.2-0.2c-0.1-0.1-0.2-0.1-0.2-0.2s-0.2-0.1-0.3-0.1c-0.1,0-0.2-0.1-0.3-0.1c-0.2-0.1-0.4-0.1-0.6-0.1
		c-0.3,0-0.6,0.1-0.9,0.2c-0.3,0.1-0.5,0.3-0.8,0.6c-0.2,0.2-0.4,0.5-0.5,0.8c-0.1,0.3-0.2,0.6-0.2,0.9c0,0.3,0.1,0.7,0.2,1
		c0.1,0.3,0.3,0.6,0.5,0.8c0.2,0.2,0.5,0.4,0.8,0.5c0.3,0.1,0.6,0.2,0.9,0.2c0.2,0,0.4,0,0.6-0.1c0.1,0,0.2-0.1,0.3-0.1
		c0.1,0,0.2-0.1,0.3-0.1s0.2-0.1,0.2-0.2c0.1-0.1,0.2-0.1,0.2-0.2c0,0,0.1-0.1,0.1-0.1c0,0,0.1-0.1,0.1-0.1c0.1-0.1,0.1-0.1,0.2-0.1
		c0.1,0,0.2,0,0.2,0l0.7,0.3c0.1,0,0.1,0.1,0.2,0.2S81.9,171.7,81.9,171.8z"/>
	<path d="M86.6,173.5c-0.5,0-1-0.1-1.5-0.3s-0.9-0.5-1.2-0.8c-0.3-0.3-0.6-0.7-0.8-1.2c-0.2-0.5-0.3-1-0.3-1.5c0-0.5,0.1-1,0.3-1.5
		c0.2-0.5,0.5-0.9,0.8-1.2c0.3-0.3,0.7-0.6,1.2-0.8s1-0.3,1.5-0.3c0.5,0,1,0.1,1.5,0.3s0.9,0.5,1.2,0.8c0.3,0.3,0.6,0.7,0.8,1.2
		c0.2,0.5,0.3,1,0.3,1.5c0,0.5-0.1,1-0.3,1.5s-0.5,0.9-0.8,1.2c-0.3,0.3-0.7,0.6-1.2,0.8S87.1,173.5,86.6,173.5z M86.6,167.2
		c-0.3,0-0.6,0.1-0.9,0.2s-0.5,0.3-0.8,0.5c-0.2,0.2-0.4,0.5-0.5,0.8c-0.1,0.3-0.2,0.6-0.2,0.9c0,0.3,0.1,0.7,0.2,1s0.3,0.6,0.5,0.8
		c0.2,0.2,0.5,0.4,0.8,0.5s0.6,0.2,0.9,0.2c0.3,0,0.6-0.1,0.9-0.2c0.3-0.1,0.5-0.3,0.8-0.5c0.2-0.2,0.4-0.5,0.5-0.8
		c0.1-0.3,0.2-0.6,0.2-1c0-0.3-0.1-0.6-0.2-0.9c-0.1-0.3-0.3-0.6-0.5-0.8c-0.2-0.2-0.5-0.4-0.8-0.5
		C87.2,167.2,86.9,167.2,86.6,167.2z"/>
	<path d="M99,166.2v6.8c0,0.1,0,0.2-0.1,0.2c-0.1,0.1-0.1,0.1-0.2,0.1h-0.8c-0.1,0-0.2,0-0.2-0.1c-0.1-0.1-0.1-0.1-0.1-0.2v-3.1
		c0-0.1,0-0.1-0.1-0.2c0,0-0.1,0-0.1,0.1l-1.9,2.3c-0.1,0.1-0.1,0.1-0.2,0.1c-0.1,0-0.1,0-0.2-0.1l-1.9-2.3
		c-0.1-0.1-0.1-0.1-0.1-0.1s-0.1,0.1-0.1,0.2v3.1c0,0.1,0,0.2-0.1,0.2c-0.1,0.1-0.1,0.1-0.2,0.1h-0.8c-0.1,0-0.2,0-0.2-0.1
		c-0.1-0.1-0.1-0.1-0.1-0.2v-6.8c0-0.1,0-0.1,0.1-0.1s0.1,0,0.2,0.1l3.2,3.9c0.1,0.1,0.1,0.1,0.2,0.1c0.1,0,0.1,0,0.2-0.1l3.2-3.9
		c0.1-0.1,0.1-0.1,0.2-0.1S99,166.1,99,166.2z"/>
	<path d="M104.9,166.2c0.3,0.1,0.6,0.3,0.8,0.6c0.1,0.1,0.2,0.2,0.3,0.4c0.1,0.1,0.2,0.3,0.2,0.4c0.1,0.3,0.2,0.7,0.2,1
		c0,0.4-0.1,0.7-0.2,1c-0.1,0.3-0.3,0.6-0.5,0.8c-0.2,0.2-0.5,0.4-0.9,0.5c-0.4,0.1-0.8,0.2-1.2,0.2h-1.3c-0.1,0-0.2,0-0.2,0.1
		c-0.1,0.1-0.1,0.1-0.1,0.2v1.6c0,0.1,0,0.2-0.1,0.2c-0.1,0.1-0.1,0.1-0.2,0.1h-0.8c-0.1,0-0.2,0-0.2-0.1c-0.1-0.1-0.1-0.1-0.1-0.2
		v-6.7c0-0.1,0-0.2,0.1-0.2c0.1-0.1,0.1-0.1,0.2-0.1h2.9C104.2,166,104.5,166.1,104.9,166.2z M104.4,169.8c0.2-0.1,0.3-0.2,0.4-0.3
		c0-0.1,0.1-0.1,0.1-0.2c0-0.1,0.1-0.1,0.1-0.2c0-0.1,0.1-0.3,0.1-0.5c0-0.2,0-0.3-0.1-0.5c-0.1-0.2-0.1-0.3-0.3-0.4
		c-0.1-0.1-0.2-0.2-0.4-0.3c-0.2-0.1-0.4-0.1-0.6-0.1h-1.4c-0.1,0-0.2,0-0.2,0.1c-0.1,0.1-0.1,0.1-0.1,0.2v2c0,0.1,0,0.2,0.1,0.2
		c0.1,0.1,0.1,0.1,0.2,0.1h1.5C104,169.9,104.2,169.8,104.4,169.8z"/>
	<path d="M105.7,173.1l3.5-6.9c0-0.1,0.1-0.1,0.2-0.1c0.1,0,0.2,0,0.2,0.1l3.5,6.9c0,0.1,0,0.1,0,0.2c0,0.1-0.1,0.1-0.2,0.1H112
		c-0.1,0-0.2,0-0.3-0.1c-0.1-0.1-0.1-0.1-0.2-0.2l-0.3-0.6c0-0.1-0.1-0.1-0.2-0.2c-0.1-0.1-0.2-0.1-0.3-0.1H108
		c-0.1,0-0.2,0-0.3,0.1c-0.1,0.1-0.1,0.1-0.2,0.2l-0.3,0.6c0,0.1-0.1,0.1-0.2,0.2c-0.1,0.1-0.2,0.1-0.3,0.1h-0.9
		c-0.1,0-0.1,0-0.2-0.1C105.7,173.2,105.7,173.1,105.7,173.1z M108.6,171h1.5c0.1,0,0.1,0,0.2-0.1s0-0.1,0-0.2l-0.8-1.6
		c0-0.1-0.1-0.1-0.1-0.1c-0.1,0-0.1,0-0.1,0.1l-0.8,1.6c0,0.1,0,0.1,0,0.2C108.5,170.9,108.6,171,108.6,171z"/>
	<path d="M115.5,169.3v3.7c0,0.1,0,0.2-0.1,0.2c-0.1,0.1-0.1,0.1-0.2,0.1h-0.8c-0.1,0-0.1,0-0.2-0.1c-0.1-0.1-0.1-0.1-0.1-0.2v-6.8
		c0-0.1,0-0.1,0.1-0.2s0.2,0,0.2,0.1l4.4,4.2c0.1,0.1,0.1,0.1,0.2,0.1c0,0,0.1-0.1,0.1-0.2v-3.8c0-0.1,0-0.2,0.1-0.2
		c0.1-0.1,0.1-0.1,0.2-0.1h0.8c0.1,0,0.2,0,0.2,0.1c0.1,0.1,0.1,0.1,0.1,0.2v6.8c0,0.1,0,0.1-0.1,0.2c-0.1,0-0.2,0-0.2-0.1l-4.4-4.1
		c-0.1-0.1-0.1-0.1-0.2,0C115.5,169.1,115.5,169.2,115.5,169.3z"/>
	<path d="M128.1,166.3c-0.1,0.1-0.1,0.2-0.2,0.4s-0.2,0.3-0.3,0.4c-0.1,0.2-0.2,0.4-0.4,0.6c-0.1,0.2-0.2,0.4-0.4,0.6
		c-0.1,0.2-0.3,0.4-0.4,0.6c-0.1,0.2-0.2,0.4-0.4,0.6c-0.1,0.1-0.2,0.3-0.3,0.4c-0.1,0.1-0.2,0.3-0.2,0.4c0,0.1-0.1,0.2-0.1,0.3
		s0,0.2,0,0.3v2.2c0,0.1,0,0.2-0.1,0.2c-0.1,0.1-0.1,0.1-0.2,0.1h-0.8c-0.1,0-0.2,0-0.2-0.1c-0.1-0.1-0.1-0.1-0.1-0.2v-2.2
		c0-0.1,0-0.2,0-0.3c0-0.1-0.1-0.2-0.1-0.3c-0.2-0.3-0.4-0.7-0.6-1s-0.4-0.7-0.6-1c-0.2-0.3-0.4-0.7-0.6-1c-0.2-0.3-0.4-0.7-0.6-1
		c0-0.1-0.1-0.1,0-0.2c0,0,0.1-0.1,0.2-0.1h1c0.1,0,0.2,0,0.3,0.1c0.1,0.1,0.2,0.1,0.2,0.2c0.1,0.2,0.3,0.4,0.4,0.6
		c0.1,0.2,0.3,0.4,0.4,0.7c0.1,0.2,0.3,0.4,0.4,0.6c0.1,0.2,0.3,0.4,0.4,0.6c0,0.1,0.1,0.1,0.2,0.1s0.1,0,0.2-0.1
		c0-0.1,0.1-0.2,0.1-0.2c0-0.1,0.1-0.2,0.2-0.2l0.5-0.8c0.1-0.1,0.2-0.3,0.2-0.4c0.1-0.1,0.2-0.3,0.2-0.4c0.1-0.1,0.1-0.2,0.2-0.2
		c0-0.1,0.1-0.2,0.1-0.2c0-0.1,0.1-0.1,0.2-0.2c0.1,0,0.2-0.1,0.3-0.1h1c0.1,0,0.1,0,0.2,0.1C128.1,166.1,128.1,166.2,128.1,166.3z"
		/>
</g>
</svg>
