<svg xmlns="http://www.w3.org/2000/svg" viewBox="0 0 185.01 35.62"><g id="Layer_2" data-name="Layer 2"><g id="Layer_1-2" data-name="Layer 1"><g id="Cbi99B"><path d="M28.57,9.21A4.77,4.77,0,0,1,31.76,6.6a4,4,0,0,1,5.07,3.51,11.63,11.63,0,0,1,.11,1.44c0,3.52,0,7.05,0,10.57,0,.75-.18,1.1-1,1.12-3,0-3,.07-3-2.89,0-2.28,0-4.55,0-6.83a15.07,15.07,0,0,0-.11-1.65,1.57,1.57,0,0,0-1.45-1.61,1.93,1.93,0,0,0-2.22,1.29,11.21,11.21,0,0,0-.36,2.65q-.06,3.87,0,7.76c0,.91-.21,1.29-1.2,1.28-2.77,0-2.77,0-2.77-2.8,0-2.27,0-4.55,0-6.83a10.66,10.66,0,0,0-.2-1.95,1.6,1.6,0,0,0-1.54-1.43,1.69,1.69,0,0,0-2,1.15,10.55,10.55,0,0,0-.4,2.74c-.06,2.66-.05,5.32,0,8,0,.85-.26,1.13-1.12,1.13-2.87,0-2.87,0-2.87-2.79V8.32c0-1.5,0-1.51,1.44-1.49.71,0,1.64-.16,2.08.21s.26,1.3.36,2C22.53,5.52,26.8,5.61,28.57,9.21Z"/><path d="M108.56,8.37c4.7-2.85,8.6-2.57,10.25.23a11.2,11.2,0,0,1,6.43-2.22,4.19,4.19,0,0,1,4.58,4.36c0,3.8,0,7.6,0,11.4,0,.83-.28,1.09-1.08,1.07-2.29-.06-2,.22-2-2,0-3,0-6.07,0-9.11a3.73,3.73,0,0,0-.44-2,2.9,2.9,0,0,0-1.73-1.22,7.2,7.2,0,0,0-4.75,1.1,1.6,1.6,0,0,0-.56,1.16c0,3.59-.06,7.19,0,10.78,0,1-.33,1.31-1.31,1.27-1.94-.07-1.81.2-1.81-1.77,0-3,0-6,0-9a7.24,7.24,0,0,0-.18-1.74,2.09,2.09,0,0,0-2.39-1.82,30.53,30.53,0,0,0-4.08,1c-.66.17-.84.66-.83,1.34,0,3.59,0,7.19,0,10.78,0,1-.32,1.32-1.31,1.27-1.84-.09-1.83.33-1.83-1.87,0-4.39,0-8.77,0-13.16,0-.51-.29-1.23.67-1.34,1.49-.16,1.8,0,2.11,1.07A3.13,3.13,0,0,0,108.56,8.37Z"/><path d="M9.44,21.3a6.37,6.37,0,0,1-5.09,2.14C.67,23.34-.34,20.21.1,17.89c.5-2.68,2.25-4.12,5.5-4.61,1.05-.15,2.11-.27,3.15-.4.6-2.27-.41-3.73-2.41-3.39a2.49,2.49,0,0,0-1.75,1.19c-.42,1.15-1.07,1.18-2,1a2,2,0,0,0-.41-.06C.4,11.39.17,11,1.07,9.42A5.15,5.15,0,0,1,2.76,7.53a8.09,8.09,0,0,1,8.09-.31A3.64,3.64,0,0,1,13,10.62c.06,2.11.06,4.21.06,6.32a4.84,4.84,0,0,0,1,3.38c.39.45.3.78-.12,1.12s-.69.58-1,.87C11.36,23.68,11.32,23.68,10,22Zm-.39-6L8.72,15a22.66,22.66,0,0,0-3.18.89,2.59,2.59,0,0,0-1.17,3A1.8,1.8,0,0,0,6,20.52a2.38,2.38,0,0,0,2.48-1.91A27.5,27.5,0,0,0,9.05,15.34Z"/><path d="M49.1,21.31a6.32,6.32,0,0,1-5.75,2.07,3.89,3.89,0,0,1-3.42-2.87c-1-3.27.79-6.21,4.27-7A25.33,25.33,0,0,1,47.68,13c.83-.07,1-.47,1-1.22C48.55,10.5,48,9.66,47,9.46a2.39,2.39,0,0,0-3,1.6,1,1,0,0,1-1.2.67c-.44-.07-.89-.15-1.33-.18-1.41-.11-1.56-.33-1-1.66a4.94,4.94,0,0,1,2.36-2.65,8.64,8.64,0,0,1,5.94-.71c2.76.59,3.89,2.11,3.95,5,0,1.94-.09,3.88.05,5.8a7.61,7.61,0,0,0,.92,2.87c.32.6.29.9-.2,1.29A18.45,18.45,0,0,0,51.85,23a.82.82,0,0,1-1.39-.06Zm-.31-5c-.19-.33-.48-1.08-.63-1.05a11.32,11.32,0,0,0-3.28.91c-.91.48-1.13,2-.74,3.09a1.72,1.72,0,0,0,1.71,1.23A2.44,2.44,0,0,0,48.2,18.7C48.45,18,48.57,17.25,48.79,16.34Z"/><path d="M89.37,9.39c.83-1.85,2-3,4-3a3.82,3.82,0,0,1,4.06,3.69c.17,2.61.16,5.23.21,7.85,0,1.38,0,2.76,0,4.14,0,.88-.32,1.13-1.15,1.14-2.92.06-2.92.08-2.92-2.84,0-2.41,0-4.83,0-7.24a7.2,7.2,0,0,0-.19-1.53,1.63,1.63,0,0,0-1.54-1.44A1.74,1.74,0,0,0,90,11.31a8.41,8.41,0,0,0-.56,2.6c-.07,2.76,0,5.52,0,8.27,0,.78-.26,1-1,1-3,0-3,.06-3-3,0-4.11,0-8.21,0-12.31,0-.87.28-1.22,1.12-1.17s1.88-.18,2.39.24S89.2,8.43,89.37,9.39Z"/><path d="M69.39,14.91A10.35,10.35,0,0,1,70.9,9.3,6.3,6.3,0,0,1,81.2,9a11,11,0,0,1,0,12.07,6.25,6.25,0,0,1-10.45-.57A10.87,10.87,0,0,1,69.39,14.91Zm4.13,0c.25,1.31.46,2.81.83,4.26a1.75,1.75,0,0,0,1.78,1.33A2,2,0,0,0,78,19.25a3.81,3.81,0,0,0,.3-.88,16.38,16.38,0,0,0,0-7,2.09,2.09,0,0,0-4.14-.17C73.84,12.35,73.74,13.52,73.52,14.9Z"/><path d="M40.25,35.62c-10.18-.13-18.39-3.11-25.49-9.09a6.69,6.69,0,0,1-.92-1.23,5.57,5.57,0,0,1,1.43.37,51.59,51.59,0,0,0,28.38,6.2,50.16,50.16,0,0,0,15.44-3.56c.49-.19,1.48-.27,1.63,0,.48.81-.42,1.1-.91,1.43a34.9,34.9,0,0,1-14.59,5.43C43.28,35.43,41.31,35.52,40.25,35.62Z"/><path d="M145.07,21.54,144,22.2a9.29,9.29,0,0,1-6.42,1.41,4.12,4.12,0,0,1-3.48-4.16c-.05-3.9,0-7.8,0-11.69,0-.66.24-.94.91-.92,2.52,0,2.15-.3,2.17,2.12,0,2.89,0,5.79,0,8.69s1.29,4,4.16,3.52a6.17,6.17,0,0,0,.62-.1c2.65-.63,2.95-1,3-3.71,0-3.1.07-6.21,0-9.31,0-.94.29-1.36,1.25-1.21a3.29,3.29,0,0,0,.83,0c.83-.09,1.07.3,1.07,1.09,0,4.69,0,9.38,0,14.07,0,.54.15,1.13-.72,1.2-1.53.13-1.85,0-2.08-1C145.19,22,145.14,21.83,145.07,21.54Z"/><path d="M61.7,17.68c1.67.39,3.2.73,4.72,1.1,1,.26,1.38.92,1.34,2-.07,2.14,0,2.12-2,1.43a11.33,11.33,0,0,0-8.56.27c-1.15.49-1.21.39-1.31-.88a6.13,6.13,0,0,1,1.39-4.49c1.52-2,2.88-4.05,4.3-6.09.19-.28.36-.56.7-1.09-1.51,0-2.8,0-4.09,0-.53,0-1.47-.06-1.51-.24a9.44,9.44,0,0,1-.08-2.55c0-.12.43-.3.67-.3,3.14,0,6.28,0,9.42,0a1.05,1.05,0,0,1,.72.7,4.24,4.24,0,0,1-.85,3.28C64.88,13.06,63.31,15.41,61.7,17.68Z"/><path d="M162.42,9.39c-1.47-.26-2.54-.53-3.61-.61a11.5,11.5,0,0,0-2.87.12,1.84,1.84,0,0,0-1.57,1.7,1.77,1.77,0,0,0,1,2c1.5.69,3,1.27,4.56,1.92,2.52,1.09,3.5,2.81,3,5.31a4.12,4.12,0,0,1-2.22,3c-2.95,1.59-5.93,1.1-8.89,0a1.59,1.59,0,0,1-.55-2c.16-.2.66-.2,1-.16,1.59.21,3.18.53,4.78.67a4.55,4.55,0,0,0,1.89-.42A2,2,0,0,0,160.23,19a1.78,1.78,0,0,0-1.06-1.85c-1.22-.55-2.52-1-3.72-1.53a10.39,10.39,0,0,1-2.86-1.76,4.22,4.22,0,0,1,.66-6.36c2.71-1.82,5.59-1.42,8.4-.31C162.06,7.38,162.11,8.45,162.42,9.39Z"/><path d="M176,15.1c0,.51,0,1,0,1.55a4.55,4.55,0,0,0,5.07,4.41c.86,0,1.7-.27,2.56-.33.4,0,1.05,0,1.19.21.4.66,0,1.78-.62,1.91a17.71,17.71,0,0,1-4.76.6c-4.17-.36-6.56-3.06-6.67-7.26a16.82,16.82,0,0,1,.3-4.2c.9-3.93,4.57-6.16,8.8-5.49a10.26,10.26,0,0,1,2,.49,1.37,1.37,0,0,1,.8.78c.33,1.47.06,1.63-1.42,1.42a13,13,0,0,0-3.58-.08c-2.18.29-3.45,1.85-3.66,4.23,0,.58,0,1.17,0,1.76Z"/><path d="M166.11,15c0-2.34,0-4.69,0-7,0-.82.19-1.18,1.09-1.15,2.2.08,2-.22,2,2,0,4.37,0,8.75,0,13.13,0,1-.25,1.27-1.21,1.24-2.16-.05-1.87.12-1.88-1.9S166.11,17.1,166.11,15Z"/><path d="M55.78,26A8.56,8.56,0,0,1,57,25.14a11.4,11.4,0,0,1,7.25-.84c.69.14,1.22.43,1.19,1.28a10.81,10.81,0,0,1-3.15,7.52,5.66,5.66,0,0,1-.9.58c.17-.64.25-1,.37-1.38.42-1.34.92-2.66,1.27-4,.41-1.63,0-2.2-1.69-2.25S57.82,26,55.78,26Z"/><path d="M167.61,3.72a1.74,1.74,0,0,1-1.89-1.95,1.76,1.76,0,0,1,2-1.77,1.82,1.82,0,0,1,1.91,2A1.78,1.78,0,0,1,167.61,3.72Z"/></g></g></g></svg>