<svg xmlns="http://www.w3.org/2000/svg" viewBox="0 0 196.823 62.154">
  <path d="M163.625 18.181c2.923 0 6.25 2.537 6.25 6.041 0 1.975-.63 3.5-1.556 4.893-.594.888-1.046 1.91-1.233 2.65-.201.835-.642 2.857 1.83 2.89 1.61.041 5.568-1.359 8.766-5.215a18.104 18.104 0 003.922-11.309c0-10.012-8.04-18.13-17.98-18.13-9.941 0-17.996 8.118-17.996 18.13 0 4.284 1.46 8.212 3.923 11.31 3.203 3.855 7.16 5.255 8.765 5.215 2.473-.034 2.025-2.056 1.834-2.892-.182-.74-.637-1.762-1.235-2.65-.924-1.392-1.556-2.917-1.556-4.892.007-3.504 3.33-6.04 6.266-6.04m31.804 18.323c-.737-.61-2.03-1.5-4.684-1.91-3.683-.55-6.97.314-8.949 1.098-2.602 1.03-5.807 3.37-8.02 6.42-2.337 3.222-3.546 8.085-2.387 13.155.328 1.426.682 2.23 1.212 3.23.691 1.36 2.515 3.258 4.112 3.6 1.26.261 2.247-.464 2.73-1.012 3.217-3.727 15.407-18.157 16.728-20 1.298-1.83.45-3.59-.742-4.58m-49.983-.812c-1.98-.785-5.263-1.65-8.947-1.098-2.654.409-3.959 1.3-4.686 1.91-1.192.99-2.047 2.75-.742 4.58 1.314 1.844 13.501 16.274 16.718 20 .484.549 1.47 1.274 2.734 1.013 1.606-.342 3.422-2.24 4.112-3.6.536-1 .883-1.804 1.22-3.23 1.157-5.07-.071-9.934-2.385-13.155-2.217-3.05-5.427-5.39-8.024-6.42M123.998 48.892h-15.024l6.166-8.118H98.448L92.5 48.59c-2.223 3.107-2.439 6.242-2.439 8.418v1.23c0 1.422.88 2.195 2.188 2.195h31.75c1.28 0 2.144-.706 2.144-2.151v-7.23c0-1.457-.864-2.16-2.145-2.16M38.472 20.21c-.24-1.36-1.161-2.03-2.36-2.03h-4.246c-4.418 0-8.317 2.344-10.503 5.883 0 0-4.052 6.48-8.592 13.772h28.827l-3.126-17.625zm47.482.123c0-1.447-.862-2.152-2.152-2.152H75.16c-1.28 0-2.145.706-2.145 2.152v16.38l-8.193-14.727c-1.637-2.714-4.394-3.745-7.61-3.805h-6.39c-1.268 0-2.134.706-2.134 2.152v17.512h10.737l1.652 2.928h-12.39v17.508c0 1.445.867 2.164 2.136 2.164h8.664c1.288 0 2.14-.719 2.14-2.164l-.005-16.484 8.27 14.847c1.62 2.7 4.387 3.732 7.582 3.8h6.328c1.29 0 2.152-.718 2.152-2.163V40.774h-10.66l-1.647-2.928h12.307V20.334zM42.11 40.774H27.873c.364 1.99 2.99 16.797 3.146 17.658.242 1.334 1.072 2.013 2.29 2.013h9.794c.897 0 1.35-.282 1.771-.794.288-.357.407-.898.273-1.69L42.11 40.773zM.313 57.795c-.388.663-.388 1.36-.15 1.812.272.529.88.837 1.536.837H11.87c1.283 0 2.43-.691 3.069-1.725l11.225-17.947H10.938C5.71 49.153.445 57.603.313 57.796m92.22-28.088h14.313l-6.172 8.128h16.687l6.086-8.006c1.88-2.475 2.315-4.691 2.315-6.652V20.39c0-1.429-.864-2.21-2.18-2.21H92.533c-1.28 0-2.137.707-2.137 2.153v7.23c0 1.442.857 2.145 2.137 2.145"/>
</svg>
