<svg xmlns="http://www.w3.org/2000/svg" viewBox="0 0 76.77 91.15"><title>apple</title><g id="Layer_2" data-name="Layer 2"><g id="Layer_1-2" data-name="Layer 1"><path id="path4" d="M75.16,71a49,49,0,0,1-4.9,8.81A44.35,44.35,0,0,1,64,87.47,12.24,12.24,0,0,1,55.84,91a20.25,20.25,0,0,1-7.49-1.79,21.61,21.61,0,0,0-8.07-1.78A22.3,22.3,0,0,0,32,89.25a22.22,22.22,0,0,1-7.17,1.89q-4.15.18-8.29-3.67a47.27,47.27,0,0,1-6.61-7.9,54.77,54.77,0,0,1-7-13.87A50.84,50.84,0,0,1,0,49.17,30.25,30.25,0,0,1,4,33.38,23.34,23.34,0,0,1,12.26,25a22.31,22.31,0,0,1,11.23-3.17,26.41,26.41,0,0,1,8.68,2c3.58,1.34,5.88,2,6.88,2q1.14,0,7.64-2.38a25.28,25.28,0,0,1,10.38-1.84q11.49.93,17.26,9.08Q64,37,64.14,48.17a19.25,19.25,0,0,0,6.32,14.49,20.53,20.53,0,0,0,6.31,4.14c-.5,1.47-1,2.88-1.61,4.23ZM57.58,1.82a19.46,19.46,0,0,1-5,12.76c-4,4.68-8.85,7.39-14.1,7a13.6,13.6,0,0,1-.11-1.73A20,20,0,0,1,43.67,6.92a20.44,20.44,0,0,1,6.44-4.83A19.17,19.17,0,0,1,57.48,0a16,16,0,0,1,.1,1.82Z"/></g></g></svg>