<svg xmlns="http://www.w3.org/2000/svg" viewBox="0 0 296 190.96"><title>citi</title><g id="Layer_2" data-name="Layer 2"><g id="Layer_1-2" data-name="Layer 1"><path d="M90.13,154.05l-.53.51c-8.53,8.7-18.41,13.3-28.59,13.3-21.24,0-36.67-15.93-36.67-37.93S39.77,92,61,92c10.18,0,20.06,4.63,28.59,13.35l.53.53,13.66-16.53-.36-.44c-11.36-13.43-25-20-41.76-20S29.48,74.62,18.4,84.83C6.36,95.89,0,111.47,0,129.93S6.36,164,18.4,175.07C29.48,185.33,44.85,191,61.67,191s30.4-6.54,41.76-20l.36-.42Z"/><path d="M117.6,188.71h24.14V70.88H117.6Z"/><path d="M236.28,163.09C229.85,167,223.85,169,218.47,169c-7.8,0-11.32-4.12-11.32-13.29V93.17h24.58V71H207.15V34.32L183.49,47V71H163.08V93.17h20.41v66.51c0,18.12,10.73,30.5,26.76,30.82,10.88.22,17.43-3,21.42-5.39l.23-.18,5.81-22.72-1.43.88Z"/><path d="M256.28,188.71h24.15V70.88H256.28Z"/><path d="M294.89,50a117.39,117.39,0,0,0-192.2,0l-1.13,1.61h27.82l.3-.33c18.94-19.55,43.66-29.88,69.08-29.88s50.15,10.33,69.12,29.88l.31.33H296L294.89,50Z"/></g></g></svg>