<svg xmlns="http://www.w3.org/2000/svg" viewBox="0 0 292.84 91.55"><title>cox</title><g id="Layer_2" data-name="Layer 2"><g id="Layer_1-2" data-name="Layer 1"><path d="M239.47.58c1.51.21,3,.43,4.52.62a105.22,105.22,0,0,1,19.14,4.16c7.09,2.3,13.84,5.32,19.55,10.26,6.8,5.88,10.8,13.1,10.08,22.35-.43,5.58-2.58,10.62-5.44,15.38a72.12,72.12,0,0,1-12.55,15,18,18,0,0,1-2.2,1.78c-.29.2-.77.12-1.16.16,0-.43-.12-1,.1-1.27,1-1.29,2.11-2.49,3.15-3.75,4.37-5.31,7.85-11.1,9.5-17.83a24.38,24.38,0,0,0-3-19.28c-3.57-5.81-8.72-9.86-14.6-13.09a78.52,78.52,0,0,0-20.74-7.45,143.16,143.16,0,0,0-28.22-3.13A198.09,198.09,0,0,0,191.85,5.7a178.11,178.11,0,0,0-23.73,4c-6.61,1.64-13.19,3.47-19.75,5.33-2.79.79-5.48,1.89-8.25,2.78a7,7,0,0,1-1.9.08c0-1,.89-1,1.44-1.22,5.64-2.12,11.24-4.38,17-6.2,6-1.9,12.1-3.64,18.27-5,7.66-1.65,15.43-2.82,23.16-4.12C200.43,1,215.53-.95,239.47.58Z"/><path d="M.18,40.94A30.89,30.89,0,0,1,2.36,34.6a21.43,21.43,0,0,1,21.8-11.88,21.72,21.72,0,0,1,11.7,5.16,1.08,1.08,0,0,1,.22,1.66q-1.61,2.52-3,5.16c-.44.83-.81.79-1.37.19a14.22,14.22,0,0,0-5.63-3.82A12.46,12.46,0,0,0,12.51,34,13.39,13.39,0,0,0,8.23,45.41a13.87,13.87,0,0,0,7.65,11.35c4.35,2.3,8.71,1.88,12.87-.63a25.41,25.41,0,0,0,2.93-2.26c.84-.7,1-.66,1.51.25.88,1.59,1.76,3.17,2.75,4.69.49.76.52,1.26-.22,1.84C28.79,66.13,21.15,67.48,13,63.94A21.08,21.08,0,0,1,1.1,50.62,24.61,24.61,0,0,1,.18,40.94Z"/><path d="M137.06,54.08c.66-1.76,1.34-3.5,2-5.27,1.51-4.32,3-8.65,4.48-13,1.26-3.63,2.56-7.25,3.79-10.89a1.4,1.4,0,0,1,1.6-1.09c2.8,0,5.6.05,8.4,0,1.05,0,1.32.39,1.32,1.33,0,4.84,0,9.68,0,14.51V63.35c0,1.84,0,1.84-1.8,1.82-1.56,0-3.13,0-4.69,0-1,0-1.41-.3-1.4-1.37,0-7.81,0-15.63,0-23.45V35.6l-.28-.08a5.2,5.2,0,0,0-.41.77q-3.63,10.55-7.24,21.11-1.17,3.39-2.3,6.81a1.24,1.24,0,0,1-1.37,1c-1.38,0-2.77-.09-4.14,0-1.21.1-1.7-.5-2-1.5q-1-3-2-6-3.6-10.5-7.21-21a6.89,6.89,0,0,0-.51-.94,6.59,6.59,0,0,0-.14.84l0,27.16c0,1.39,0,1.42-1.39,1.42-1.75,0-3.49,0-5.24,0-.92,0-1.31-.34-1.31-1.28,0-10.11,0-20.22.06-30.33a2.36,2.36,0,0,1,.89-1.68c3-2.08,6.12-4,9.2-6,1-.67,1.31-.53,1.71.61,1.7,4.87,3.43,9.73,5.13,14.59,1.34,3.81,2.65,7.62,4,11.42.2.56.43,1.11.64,1.66Z"/><path d="M57.07,65.83a21.66,21.66,0,0,1-22-21.39C34.91,32.38,44.63,22.7,57,22.6a21.62,21.62,0,1,1,.09,43.23Zm-.36-35.6c-7.48,0-13.46,6.28-13.54,13.94a13.86,13.86,0,0,0,13.9,14c7.33-.06,13.49-6.5,13.45-14.08A13.86,13.86,0,0,0,56.71,30.23Z"/><path d="M195.82,44.53q0-9.6,0-19.2c0-.79,0-1.52,1.08-1.49,5.23.17,10.47.19,15.68.57a17.34,17.34,0,0,1,8.67,3.29,17.64,17.64,0,0,1,5.57,6.75,22.69,22.69,0,0,1,2.4,9.22c.25,7.43-3.26,15.38-10.38,19.06A22.63,22.63,0,0,1,209.24,65c-4,.17-8.06.12-12.1.21-1,0-1.33-.34-1.32-1.34,0-6.43,0-12.87,0-19.31Zm7.89-.17h0c0,4,0,8.07,0,12.1,0,.92.26,1.36,1.23,1.29,2.06-.17,4.15-.15,6.18-.49a11.54,11.54,0,0,0,6-2.9,12.7,12.7,0,0,0,4.13-9.19,12.83,12.83,0,0,0-6.36-12c-2.81-1.73-6-1.91-9.14-2-2-.06-2-.51-2,2C203.72,36.94,203.71,40.65,203.71,44.36Z"/><path d="M164,44.51c0-6.44,0-12.88,0-19.31,0-1.1.42-1.38,1.42-1.37q12.1,0,24.22,0c.78,0,1.14.26,1.12,1.07,0,1.67-.05,3.35,0,5,0,1-.42,1.22-1.31,1.22-5.13,0-10.25,0-15.38,0-.4,0-.8,0-1.2,0-.71,0-1,.28-1,1,0,2.36,0,4.73-.05,7.09,0,.84.35,1.16,1.19,1.15,5.16,0,10.33,0,15.49,0,1.55,0,1.57,0,1.57,1.57s0,3.05,0,4.58c0,.91-.32,1.19-1.21,1.18-5,0-10,0-15.06,0-1.93,0-1.93,0-1.95,2,0,2.32,0,4.65,0,7,0,.85.28,1.14,1.14,1.13,5.42,0,10.84,0,16.25,0,1.5,0,1.5,0,1.49,1.53s0,3.13,0,4.69c0,.86-.3,1.22-1.22,1.22-8,0-16.08,0-24.11,0-1.32,0-1.44-.13-1.44-1.44Z"/><path d="M244.33,65.18c-1.05,0-2.11,0-3.16,0s-1.2-.24-.81-1.15Q246,50.4,251.72,36.8c1.61-3.86,3.24-7.7,4.8-11.57a1.92,1.92,0,0,1,2.21-1.42,33.06,33.06,0,0,0,3.59,0,1.32,1.32,0,0,1,1.43.9q4.88,11.67,9.77,23.31c1,2.42,2,4.83,3.06,7.22a2.16,2.16,0,0,1-.29,2.5c-1.36,1.7-2.62,3.48-3.93,5.22-.69.9-1,.84-1.44-.21-1-2.45-2.06-4.89-3-7.35a1.27,1.27,0,0,0-1.4-.91q-6.15,0-12.32,0a1.41,1.41,0,0,0-1.54,1c-1.13,2.87-2.37,5.7-3.52,8.56a1.53,1.53,0,0,1-1.74,1.1c-1-.08-2,0-3,0Zm16-29.92a6.27,6.27,0,0,0-.49.76c-1.25,3.37-2.48,6.75-3.73,10.12-.27.74.09.9.73.9,2.26,0,4.51,0,6.76,0,1,0,1-.38.7-1.14-.78-2-1.5-4.09-2.26-6.13C261.48,38.34,260.93,36.93,260.29,35.26Z"/><path d="M72.83,64.74c1.1-1.61,2-3,3-4.39Q81.15,52.69,86.46,45a1.25,1.25,0,0,0-.09-1.66Q80,34.1,73.58,24.79a4.42,4.42,0,0,1-.37-1.06,4.34,4.34,0,0,1,1.1-.28c2.43,0,4.87.05,7.3,0a2.43,2.43,0,0,1,2.33,1.25c2.66,4.06,5.38,8.1,8.08,12.15a6.32,6.32,0,0,0,.49.55c.5-.64,1-1.21,1.39-1.81q3.91-5.62,7.8-11.28a1.82,1.82,0,0,1,1.73-.87c2.47,0,4.94,0,7.41,0a4.4,4.4,0,0,1,1.09.33,4.33,4.33,0,0,1-.37,1c-3.91,5.64-7.77,11.31-11.79,16.88a31.12,31.12,0,0,1-4,4.08c-5.46,5.16-10.17,10.87-13.16,17.84A2,2,0,0,1,80.45,65c-2-.09-4.07,0-6.11,0A14.24,14.24,0,0,1,72.83,64.74Z"/><path d="M232,44.44c0-6.47,0-12.95,0-19.42,0-.87.32-1.18,1.14-1.17,1.86,0,3.71,0,5.57,0,.88,0,1.22.37,1.22,1.26,0,9.71,0,19.42-.09,29.12,0,1.48-.88,3-1.45,4.41-.73,1.86-1.59,3.66-2.32,5.52a1.44,1.44,0,0,1-1.54,1c-2.94.1-2.51-.06-2.51-2.41Q232,53.61,232,44.44Z"/><path d="M107.67,65.29c-1.2,0-2.4,0-3.6,0a2,2,0,0,1-1.82-.94c-2-2.81-4-5.59-6-8.42a3.13,3.13,0,0,1-.59-1.59,14.2,14.2,0,0,1,2.06-7.9c.64-1.05.89-1.07,1.63-.06L109.26,60c.94,1.29,1.92,2.55,2.83,3.86a4.17,4.17,0,0,1,.37,1.08,4.43,4.43,0,0,1-1.08.32c-1.24,0-2.47,0-3.71,0Z"/><path d="M171.29,73.38a6.48,6.48,0,0,1,3.26,5h-2.43a4.45,4.45,0,0,0-1.81-2.9,6.15,6.15,0,0,0-3.45-.91,5.38,5.38,0,0,0-4.16,1.89Q161,78.33,161,82.08a9.11,9.11,0,0,0,1.39,5.27,5.1,5.1,0,0,0,4.54,2,5.72,5.72,0,0,0,4-1.43q1.59-1.42,1.62-4.62h-5.68v-2h8V91h-1.58l-.6-2.34a9,9,0,0,1-2.17,1.9,8.09,8.09,0,0,1-4.05.92A7.82,7.82,0,0,1,161,89.41a10,10,0,0,1-2.5-7.19A10.45,10.45,0,0,1,160.93,75a7.7,7.7,0,0,1,6-2.57A9.1,9.1,0,0,1,171.29,73.38Z"/><path d="M179.19,72.86h8.25a8,8,0,0,1,3.36.61,4.28,4.28,0,0,1,2.51,4.28,4.47,4.47,0,0,1-2.55,4.34,3.79,3.79,0,0,1,1.6,1.14,4.14,4.14,0,0,1,.6,2.29L193,88a7.92,7.92,0,0,0,.18,1.55,1.51,1.51,0,0,0,.79,1.11V91h-3a2.42,2.42,0,0,1-.2-.61,11.1,11.1,0,0,1-.12-1.43l-.15-3a2.56,2.56,0,0,0-1.28-2.39,5.27,5.27,0,0,0-2.15-.33h-5.44V91h-2.46Zm8,8.32a4.56,4.56,0,0,0,2.66-.69,2.88,2.88,0,0,0,1-2.5,2.71,2.71,0,0,0-1.37-2.65,4.47,4.47,0,0,0-2-.37h-5.84v6.21Z"/><path d="M212.13,75.46a10,10,0,0,1,1.8,6.16,10.81,10.81,0,0,1-2.06,6.76,9.17,9.17,0,0,1-13.5.4A10.43,10.43,0,0,1,196.23,82a10.72,10.72,0,0,1,1.83-6.3A7.94,7.94,0,0,1,205,72.36C208.21,72.36,210.59,73.4,212.13,75.46ZM210,87a9.92,9.92,0,0,0,1.45-5.36,7.68,7.68,0,0,0-1.67-5.16,5.71,5.71,0,0,0-4.58-2,6,6,0,0,0-4.6,1.94,8.14,8.14,0,0,0-1.78,5.71,8.39,8.39,0,0,0,1.52,5.09q1.53,2.07,5,2.07A5.13,5.13,0,0,0,210,87Z"/><path d="M219.52,72.86V84.08a6.54,6.54,0,0,0,.75,3.29,3.93,3.93,0,0,0,3.73,2c2.11,0,3.53-.71,4.29-2.14a6.72,6.72,0,0,0,.61-3.13V72.86h2.49v10.2a11.79,11.79,0,0,1-.91,5.15q-1.66,3.29-6.28,3.29t-6.26-3.29a11.79,11.79,0,0,1-.91-5.15V72.86Z"/><path d="M235.38,72.86h8.12a5.45,5.45,0,0,1,3.89,1.37,5,5,0,0,1,1.49,3.83,5.58,5.58,0,0,1-1.33,3.71,5,5,0,0,1-4,1.57h-5.67V91h-2.46Zm9.54,2.5A5.2,5.2,0,0,0,242.7,75h-4.86v6.29h4.86a4.65,4.65,0,0,0,2.67-.7,2.81,2.81,0,0,0,1-2.48A2.73,2.73,0,0,0,244.92,75.36Z"/></g></g></svg>