<svg xmlns="http://www.w3.org/2000/svg" viewBox="0 0 283.37 55.72"><title>cvent</title><g id="Layer_2" data-name="Layer 2"><g id="Layer_1-2" data-name="Layer 1"><path d="M104.15,13.11h13.56l-28,41.63H85.27L56.58,13.11h13.7L87.53,39.27Z"/><path d="M176,35,130.1,35c0,3.68,3.06,7.25,7.05,8.95,5.64,2.41,9,2.62,15.46,2.62A47.51,47.51,0,0,0,175,41.5v8.58c-4.51,3-13.08,5.51-24.45,5.51-7.64,0-14.32-.81-19-3s-7-3.83-9.4-7.41a20.8,20.8,0,0,1-3.77-11.64c0-6.45,2.63-11.34,7.44-15.62,5.38-4.79,13.35-6.16,22.9-6.16,9.2,0,16.1,2.65,21.06,7.2s6.21,10.13,6.21,15Zm-44.82-7.6,32.68,0a10.14,10.14,0,0,0-5.18-6.06,20.23,20.23,0,0,0-10.36-2.54,23.38,23.38,0,0,0-11,2.34A12.58,12.58,0,0,0,131.13,27.38Z"/><path d="M197.59,13.11v5.23a35.22,35.22,0,0,1,20.19-6.15,30.46,30.46,0,0,1,11.11,2,14.45,14.45,0,0,1,7.22,5.52c1.76,2.6,2.68,6,2.68,11.1V54.59h-11.9V32.78a12.06,12.06,0,0,0-3.63-9.12c-2-1.82-5.3-3-10-3a23.16,23.16,0,0,0-15.69,6.14V54.59H185.45V13.11Z"/><path d="M243.74,19.75,264.41,0h.72V11.91h16.19v9.35H265.13V38.11c0,5.23,3.17,7.84,8.24,7.84a16.54,16.54,0,0,0,10-3.21v9.64a25,25,0,0,1-12.69,2.92c-4.89,0-7.35-.8-11-3.22a12.87,12.87,0,0,1-2.83-2.71,12.54,12.54,0,0,1-2-3.73q-.74-2.2-.74-8.42v-16H243.74Z"/><path d="M52.48,43.45v9.93A85.84,85.84,0,0,1,32.9,55.72c-10.52,0-18.3-2-24.24-5.87S0,40.7,0,34.13A18.73,18.73,0,0,1,8.33,17.9C14.12,13.84,21.6,12,31.55,12a63.88,63.88,0,0,1,9.33.62,87,87,0,0,1,10.2,2.31V25.06a47.31,47.31,0,0,0-18.76-3.74c-5.57,0-11.53,1.37-14.94,3.54a10.37,10.37,0,0,0-5.09,9c0,3.65,2.13,6.78,5.63,9,3.73,2.34,10.74,3.43,16.92,3.43A66.32,66.32,0,0,0,52.48,43.45Z"/></g></g></svg>