<svg xmlns="http://www.w3.org/2000/svg" viewBox="0 0 145.97 60.4"><title>disney</title><g id="Layer_2" data-name="Layer 2"><g id="Layer_1-2" data-name="Layer 1"><path d="M126.16,26.26a80.4,80.4,0,0,1-9,.89l-.8,2.57a38,38,0,0,1,5.59,0,.81.81,0,0,1,.84.84,15.06,15.06,0,0,1-.06,1.9.92.92,0,0,1-.84.72c-.91.15-7,.42-7,.42l-1,3.33s-.36.76.47.55,7.17-1.43,8-1.26a2.3,2.3,0,0,1,1.6,2.53c-.34,1.33-6.75,5.42-10.63,5.14,0,0-2,.13-3.75-2.63s.57-7.6.57-7.6-1-2.32-.25-3.16a3.14,3.14,0,0,1,1.68-.46l1.58-3.25a3.65,3.65,0,0,1-2.84-1.2c-1-1.27-1.06-1.82-.3-2.15s8.23-1.75,13.33-1.59c0,0,1.79-.21,3.37,2.89,0,0,.72,1.27-.54,1.56M106.92,38.75c-.63,1.54-2.38,3.16-4.49,2.17S96.88,33,96.88,33s-1.26-2.57-1.52-2.49c0,0-.27-.5-.42,2.32s0,8.27-1.11,9.14a2.05,2.05,0,0,1-3-.51c-.59-1-.85-3.38-.51-7.53s1.33-8.58,2.53-10a1.61,1.61,0,0,1,2.66,0,30.8,30.8,0,0,1,4.37,5.84l.46.8s2.49,4.15,2.74,4.13c0,0,.21.21.38,0s.17-1.41.17-1.41a70.81,70.81,0,0,0-2.78-12.08,3.78,3.78,0,0,1-.11-1.9c.21-.84,1.12-.42,1.12-.42s3.5,1.68,5.21,7.38a21,21,0,0,1-.09,12.4M89.75,24.13c-.33.6-.48,1.42-1.94,1.65,0,0-14.13,1-14.82,2,0,0-.47.59.29.74s4,.59,5.53.67,7.17,0,9.19,2.54a5.52,5.52,0,0,1,1.12,3.86c0,2.74-.53,3.71-1.6,4.7S76.83,45.5,70.65,38.92a3.49,3.49,0,0,1,1-5.57s2.74-1.69,9.76.27c0,0,2.11.76,2,1.54s-1.75,1.69-4.11,1.65a8.06,8.06,0,0,1-3.63-1c.31.1-2.47-1.35-3.33-.36s-.64,1.48.21,2.05c2.11,1.22,10.39.78,12.86-2,0,0,1-1.11-.5-2s-5.78-1.37-7.45-1.43-7.51,0-8.39-1.54c0,0-.85-1.1.08-4.1,1-3.16,7.87-4.38,10.86-4.64,0,0,8.23-.33,9.77,1.35a1.1,1.1,0,0,1,0,.95M66.43,42.67a3.18,3.18,0,0,1-3.71-.42c-.59-.74-.8-3.65-.7-8.22s.21-10.42,1.27-11.35,1.68-.11,2.11.51a4.8,4.8,0,0,1,1,2.78c.13,1.48.49,9.07.49,9.07s.46,6.92-.49,7.63M68.54,18A8.47,8.47,0,0,1,62,17.93c-.74,1.33-1.18,1.73-1.73,1.82-.84.08-1.58-1.27-1.69-1.69a2.18,2.18,0,0,1-.08-2.17A4.92,4.92,0,0,1,57,11.1c.38-1.56,3.17-7.42,11.6-8.12,0,0,4.13-.29,4.85,1.9h.13s4,0,3.92,3.59-4.43,8-8.94,9.59M72.29,7.79c-2.65.42-6.75,4-8.71,6.9,3,.54,8.29.33,10.65-4.43,0,0,1.12-3-1.94-2.47M60.63,10.11c-.84,1.37-.89,2.19-.48,2.74a21.13,21.13,0,0,1,5.37-5.61,6.24,6.24,0,0,0-4.89,2.87m71.85,32.41A63.25,63.25,0,0,0,128,59.35s-.21,1.42-1.37.95a6.69,6.69,0,0,1-3.48-5c-.42-3.5,1.14-9.4,4.32-16.19a9.34,9.34,0,0,1-1-6.75,20.12,20.12,0,0,1,6.53-10.84s.68-.57,1.06-.38.27,2-.11,2.95S131,29.36,131,29.36s-1.58,3-1.13,5.34c3-4.6,9.8-13.92,14-11,2.68,1.9,2.68,8,.68,11.56-1.59,2.81-6.06,8.61-12,7.26M141.3,28.2a41,41,0,0,0-6.54,9.24A10.77,10.77,0,0,0,140,35.25c1.12-1,3.69-3.67,3.29-7.21,0,0-.25-1.86-2,.16M46.82,45a34.32,34.32,0,0,1-18.35.21c-.11,1.56-.28,2.22-.53,2.47s-2.74,1.73-4.09-.25a11.19,11.19,0,0,1-1.05-4.22C14.15,39.3,10.14,33.52,10,33.31a3.48,3.48,0,0,1-.22-4.79c1.84-2.28,7.91-4.58,13.35-5.48.22-4.64.72-8.23,1.38-9.81.78-1.9,1.77-.21,2.65,1.06.72.94,1.16,5,1.2,8.26A35.11,35.11,0,0,1,38,23.4c5.19.88,8.65,3.54,8.38,6.53a4.81,4.81,0,0,1-4,4.26,7.22,7.22,0,0,1-2.74-.69c-1.18-.55-.11-1.06,1.26-1.65,1.52-.73,1.18-1.47,1.18-1.47-.55-1.69-7.27-2.81-14-2.81,0,3.69.15,9.81.25,13.37a37.67,37.67,0,0,0,8.19.7s17.08-.49,17.56-11.39S37.05,8.87,24.08,5.58,3.79,4.58,3.16,4.9s-.06.47-.06.47a12.93,12.93,0,0,1,2,.52C6.33,6.31,5.31,7,5.31,7,3.1,7.71.63,7.26.15,6.25S.46,4.35,1.41,3,3.31,1.7,3.31,1.7c16-5.59,35.6,4.42,35.6,4.42C57.21,15.36,60.34,26.22,60,30.44S58.1,41.62,46.82,45M11.6,29.93a1.29,1.29,0,0,0-.55,2.2,29.25,29.25,0,0,0,11.6,7.38c.46-6.33.42-8.58.42-11.77-6.2.42-9.79,1.43-11.47,2.19"/></g></g></svg>