<svg xmlns="http://www.w3.org/2000/svg" viewBox="0 0 173.19 56.53"><title>em</title><g id="Layer_2" data-name="Layer 2"><g id="Layer_1-2" data-name="Layer 1"><path d="M141.37,45.06a3.8,3.8,0,0,0-1.94-.47,4.36,4.36,0,0,0-2.06.43,2.37,2.37,0,0,0-1.14,1.18h6.1A1.88,1.88,0,0,0,141.37,45.06Z"/><path d="M104.11,37.44V56.53H173V37.44Zm17.41,13.62a16,16,0,0,1-3.66.44,8,8,0,0,1-4.53-1.1,3.32,3.32,0,0,1-1.62-2.94,3.5,3.5,0,0,1,1.56-3,7.31,7.31,0,0,1,4.34-1.11,11.32,11.32,0,0,1,1.74.12,16.6,16.6,0,0,1,1.91.43v1.9a8.76,8.76,0,0,0-3.51-.7,5.75,5.75,0,0,0-2.79.66,1.94,1.94,0,0,0-.95,1.68,2,2,0,0,0,1,1.68,6.73,6.73,0,0,0,3.17.64,12.35,12.35,0,0,0,3.29-.53Zm7,.26h-.83l-5.36-7.79h2.56l3.23,4.89,3.1-4.89h2.54Zm16.12-3.7H136a2,2,0,0,0,1.32,1.67,6.2,6.2,0,0,0,2.89.49,8.84,8.84,0,0,0,4.18-.95v1.61a11.07,11.07,0,0,1-8.12.46,3.61,3.61,0,0,1-1.76-1.38,3.87,3.87,0,0,1-.7-2.18,3.73,3.73,0,0,1,1.39-2.92,6.3,6.3,0,0,1,4.28-1.15,5.57,5.57,0,0,1,3.93,1.35,3.55,3.55,0,0,1,1.16,2.79Zm11.75,3.67h-2.23V47.21a2.25,2.25,0,0,0-.67-1.7,2.74,2.74,0,0,0-1.87-.56,4.33,4.33,0,0,0-2.93,1.14v5.2h-2.27V43.53h2.27v1a6.62,6.62,0,0,1,3.77-1.15,5.66,5.66,0,0,1,2.08.38,2.68,2.68,0,0,1,1.35,1,3.55,3.55,0,0,1,.5,2.07Zm8.33-.42a4.64,4.64,0,0,1-2.37.55,3.15,3.15,0,0,1-2.05-.6,2.58,2.58,0,0,1-.53-.51,2.41,2.41,0,0,1-.36-.7,5.47,5.47,0,0,1-.14-1.57v-3h-1.95v-.29l3.86-3.69h.13v2.23h3v1.75h-3v3.15a1.36,1.36,0,0,0,1.54,1.46,3.08,3.08,0,0,0,1.87-.6Z"/><path d="M6.41,5.67v8.38h16.2v5.81H6.41v7.87H24.67V33.5H0V0H24.67V5.67Z"/><path d="M61.29.05V33.5h-6.4V16.57L44.41,29.15,34,16.57V33.5h-6.4V.05H28L44.41,19.36,60.88.05Z"/><path d="M75.85,2.56H67.69V6.31h7.23V8.58H67.69v3.88H76v2.26H65.15V.3h10.7Z"/><path d="M79,.3H81.5V12.41h7.58v2.31H79Z"/><path d="M94.4.3V14.72H91.86V.3Z"/><path d="M104.35,14.72H101.8V2.65H97.22V.3h11.71V2.65h-4.58Z"/><path d="M122.31,2.56h-8.17V6.31h7.24V8.58h-7.24v3.88h8.27v2.26h-10.8V.3h10.7Z"/><path d="M72.24,29.52h-.08l-4.51-6.76v10.3h-2.5V18.64h2.7l4.39,6.82,4.39-6.82h2.7V33.06H76.8V22.72Z"/><path d="M93.74,20.9H85.58v3.75h7.23v2.27H85.58v3.87h8.26v2.27H83V18.64h10.7Z"/><path d="M107.55,20.9H99.39v3.75h7.23v2.27H99.39v3.87h8.26v2.27H96.85V18.64h10.7Z"/><path d="M116.76,33.06h-2.55V21h-4.58V18.64h11.71V21h-4.58Z"/><path d="M126.7,18.64V33.06h-2.54V18.64Z"/><path d="M140.63,18.64h2.49V33.06H141L133,22.8V33.06h-2.49V18.64h2.35l7.73,10Z"/><path d="M153.68,33.31a7.16,7.16,0,0,1-7.48-7.44,7.35,7.35,0,0,1,7.43-7.48,7.79,7.79,0,0,1,5.55,2l-1.61,1.91a5.63,5.63,0,0,0-4-1.54,4.87,4.87,0,0,0-4.68,5.11A4.82,4.82,0,0,0,153.76,31a5.86,5.86,0,0,0,3.48-1.09v-2.7h-3.69V25h6.14v6.06A9.16,9.16,0,0,1,153.68,33.31Z"/><path d="M168.56,24.69c3.05.75,4.63,1.84,4.63,4.25,0,2.72-2.12,4.33-5.15,4.33A8.9,8.9,0,0,1,162,31l1.53-1.81A6.65,6.65,0,0,0,168.1,31c1.57,0,2.56-.72,2.56-1.83s-.58-1.61-3.26-2.23c-3.07-.74-4.8-1.65-4.8-4.33,0-2.51,2.06-4.2,4.93-4.2a8,8,0,0,1,5.23,1.81l-1.36,1.92a6.55,6.55,0,0,0-3.91-1.48c-1.49,0-2.35.76-2.35,1.73C165.14,23.54,165.8,24,168.56,24.69Z"/></g></g></svg>