<svg xmlns="http://www.w3.org/2000/svg" viewBox="0 0 91.18 109.61"><title>grammy</title><g id="Layer_2" data-name="Layer 2"><g id="Layer_1-2" data-name="Layer 1"><path d="M42.2,0A42.22,42.22,0,1,1,0,41.36,42.2,42.2,0,0,1,42.2,0Zm-.06,81.71A39.48,39.48,0,1,0,2.77,42.4,39.48,39.48,0,0,0,42.14,81.71Z"/><path d="M59.93,97.19H58.21V90l-.25-.1-4.23,7.71L49.65,90l-.18,0v7.14H47.72V85.7a1.75,1.75,0,0,1,2.28,1c1.14,2.35,2.44,4.62,3.76,7.07l2.19-4a28.35,28.35,0,0,0,1.52-2.88,1.74,1.74,0,0,1,2.46-1.17Z"/><path d="M70.31,93.8c1.32-2.44,2.61-4.64,3.71-6.94a1.82,1.82,0,0,1,2.47-1.14V97.16H74.74V90l-.23-.06c-1.38,2.51-2.75,5-4.23,7.7l-4.27-8v7.52H64.28V85.7a1.75,1.75,0,0,1,2.27,1C67.69,89.06,69,91.33,70.31,93.8Z"/><path d="M18,87.2l-1.3,1.26a4.18,4.18,0,0,0-3.42-1.2,4,4,0,0,0-3.5,2.85,4,4,0,0,0,1.13,4.48,3.94,3.94,0,0,0,4.46.75c1.37-.56,1.53-1,1.29-2.94H13.81c.63-1.53.87-1.7,2.31-1.7h2.46c0,1.36,0,2.61,0,3.85a1.87,1.87,0,0,1-.49,1,6.06,6.06,0,0,1-6.93,1.33,5.92,5.92,0,0,1-3.39-6.18,5.84,5.84,0,0,1,4.89-5A5.7,5.7,0,0,1,18,87.2Z"/><path d="M24.71,97.14H22.94V85.71a42.9,42.9,0,0,1,4.68,0,3.2,3.2,0,0,1,3,3c.23,1.93-.39,3-2.36,3.93l3.39,4.39c-1.37.22-2.42.25-3.25-1.06-1-1.57-2.23-3-3.45-4.6.84-.09,1.57-.11,2.27-.24a1.87,1.87,0,0,0,1.73-2A1.94,1.94,0,0,0,27,87.28H24.71Z"/><path d="M33.84,97.2l3.36-8.29c.37-.91.71-1.84,1.15-2.72a1.14,1.14,0,0,1,.84-.5,1.06,1.06,0,0,1,.88.4c1.46,3.61,2.87,7.25,4.3,10.89-1.57.46-1.72.39-2.25-1-.59-1.54-.59-1.54-2.29-1.54-.1,0-.21,0-.3,0-1.88-.32-3.3,0-3.68,2.25C35.75,97.32,35.6,97.3,33.84,97.2Zm5.46-8.62-.24,0-1.67,4.33H41Z"/><path d="M83.52,109.51l-1.7-.43.05-.41a3.68,3.68,0,0,1-3.64.72A5,5,0,0,1,76.16,108a4.22,4.22,0,0,1,0-5.2c1.36-1.71,3-1.94,5.86-.73V99h1.54v10.54Zm-4-1.38a2.72,2.72,0,0,0,2.59-2.63,2.79,2.79,0,0,0-2.69-2.79,2.71,2.71,0,0,0,.1,5.42Z"/><path d="M51.33,109.25c-1.2.35-1.81.08-2.15-1.07-.55-1.81-.63-1.79-2.6-1.79s-2.13,0-2.75,1.89c-.35,1.07-.95,1.26-2,1,.11-.34.2-.68.32-1,1.06-2.72,2.18-5.42,3.16-8.16.36-1,.84-1.48,2-1.1C48.63,102.33,50,105.75,51.33,109.25ZM46.54,101l-1.42,3.75h2.8Z"/><path d="M68.33,102.27c0-1.26.84-.65,1.45-.86v7.94c-.59-.06-1.34.43-1.51-.7a3.77,3.77,0,0,1-3.65.76,5.59,5.59,0,0,1-2.27-1.58,4.22,4.22,0,0,1,.44-5.41C64.23,101,66.29,100.9,68.33,102.27Zm-2.56,5.87a2.7,2.7,0,0,0,2.65-2.68,2.75,2.75,0,0,0-2.61-2.74,2.71,2.71,0,0,0,0,5.42Z"/><path d="M54.05,106.2c.43-1.36.83-2.72,1.29-4.07.09-.26.4-.45.61-.67.24.23.59.42.69.7a40.2,40.2,0,0,0,1.46,4c.37-1.17.83-2.33,1.09-3.53s.75-1.44,1.9-1.09c-.32,1-.65,2-1,2.93-.5,1.44-1,2.89-1.52,4.33a.87.87,0,0,1-.61.49.9.9,0,0,1-.58-.52c-.47-1.4-.89-2.82-1.53-4.25-.44,1.41-.86,2.82-1.33,4.22a1,1,0,0,1-.56.57.74.74,0,0,1-.6-.36c-.87-2.46-1.7-4.93-2.55-7.41,1.06-.31,1.66-.11,1.91,1s.72,2.38,1.1,3.58Z"/><path d="M85,97.2H83.16c0-1.18.08-2.33,0-3.47a6.18,6.18,0,0,0-.61-2.28c-1-1.92-2.1-3.78-3.19-5.69,1.87-.34,1.87-.34,2.66,1.09l2.09,3.72c.7-1.26,1.36-2.41,2-3.57.85-1.52.85-1.52,2.78-1.28C88,87.37,87.11,89,86.12,90.6A6.62,6.62,0,0,0,85,95C85,95.71,85,96.42,85,97.2Z"/><path d="M84.63,106.85c.74-.17,1.28-.19,1.55.69.09.3.75.61,1.13.59a1.2,1.2,0,0,0,.86-.8,1.67,1.67,0,0,0-.61-1.14,5.23,5.23,0,0,0-1.29-.58,2.22,2.22,0,0,1-1.25-2.8,2.45,2.45,0,0,1,2.45-1.62,2.09,2.09,0,0,1,2,2.23c-.62.14-1.15.31-1.59-.47a.71.71,0,0,0-1.27,0,1.32,1.32,0,0,0,.17,1.19,2.92,2.92,0,0,0,1.17.58,2.42,2.42,0,0,1,1.62,3.09,2.5,2.5,0,0,1-2.94,1.77C85.41,109.4,84.65,108.4,84.63,106.85Z"/><path d="M74.65,101.22c.13,1,.27,1.65-.81,1.91-.8.2-.9,1-.91,1.77,0,1.45,0,2.9,0,4.41H71.51V101.4l1.52.33-.06.18Z"/><path d="M91.18,86.45c-.6.4-1,.82-1.21.76a1.27,1.27,0,0,1-.73-.86c0-.2.47-.67.75-.68S90.59,86,91.18,86.45Z"/><path d="M57.94,59.45V55.27c1.2,0,2.34,0,3.48,0a3.41,3.41,0,0,0,3.68-2.12A3.64,3.64,0,0,0,63.84,49a9.77,9.77,0,0,0-2.6-1.36Q49.62,43.79,38,40.05c-3.23-1-6.47-2.11-9.78-2.86C23.24,36.06,18.72,37,15,40.64a2,2,0,0,1-.42.27,2.65,2.65,0,0,1-.5,0l22.84-36,.3.05c0,.33,0,.66,0,1,.08,1.74.11,3.47.26,5.2.26,3.2,2.2,5.42,4.34,7.61Q55.21,32.49,68.54,46.38a8,8,0,0,1,.39,11.25,5.61,5.61,0,0,1-4.26,1.87c-1.8,0-3.61,0-5.41.06C58.83,59.56,58.39,59.49,57.94,59.45Z"/><path d="M65.8,71.69h-48c.45-.52.78-.92,1.13-1.31,1.74-2,3.47-3.93,5.25-5.85a2,2,0,0,1,1.28-.59q16.35,0,32.69,0a1.63,1.63,0,0,1,1.08.35C61.41,66.68,63.53,69.11,65.8,71.69Z"/><path d="M56.12,51.31V61.45H27.48V51.31Z"/></g></g></svg>