<svg xmlns="http://www.w3.org/2000/svg" viewBox="0 0 389.69 158.61"><title>iasb</title><g id="Layer_2" data-name="Layer 2"><g id="Layer_1-2" data-name="Layer 1"><g id="_47Pu3v" data-name="47Pu3v"><path d="M.09,15.56c0-4.88,0-9.76,0-14.63C.07.22.19.05.93.05Q31.1.1,61.25.07q32.6,0,65.19,0c.74,0,.94.12.94.91q0,48.13,0,96.26c-.25-.26-.5-.49-.72-.76-2.87-3.54-5.72-7.09-8.6-10.61a49.09,49.09,0,0,0-3.66-4.36c-.09-.1-.15-.48-.44-.21s-.12.28-.06.47a14,14,0,0,1,.54,1.92,35.2,35.2,0,0,1-.79,14.48c-2,8.44-5.8,16.1-10.29,23.46-1.17,1.92-2.37,3.82-3.56,5.73H80.06c.15-.4.54-.54.85-.75A50.22,50.22,0,0,0,85.6,123c20-17.85,27.88-40,22.89-66.36C105.11,38.75,95.43,24.65,80.61,14.2a68.44,68.44,0,0,0-79.7,1C.66,15.33.47,15.62.09,15.56Z"/><path d="M.09,67.73V61.37c.45-.14.63-.55.89-.87q6.36-7.94,13.49-15.19c.67-.69,1-.61,1.63,0,3.48,3.56,7,7.07,10.52,10.6L41.78,71.17c.31.32.88.58.46,1.2l-.77.73-.59.59-.74.76-.25.25c-.14.11-.28.21-.41.33C33.79,80.69,28,86.25,22.17,91.77l-.3.32-.35.31-.16.15-.67.61a4.92,4.92,0,0,1-.58-.44A133.73,133.73,0,0,1,4.57,74.41C3,72.22,1.58,70,.09,67.73Z"/><path d="M.09,28.71V26c.44.06.59-.34.83-.56,2.29-2.16,4.65-4.23,7-6.28a2.86,2.86,0,0,1,2.4-.71c8.49.85,16.19,4,23.64,8,.86.45.43.73,0,1.08A191.32,191.32,0,0,0,15.88,43.26c-.53.52-.81.41-1.26,0Q11.55,40.09,8.43,37C5.66,34.22,2.87,31.47.09,28.71Z"/><path d="M6.22,106.29l-.4.41H5.75l0,.07L5.4,107l-.18.16,0,0-.2.18-.42.37-.29.23-.2.17c-.5.36-.79,0-1.14-.28a27.39,27.39,0,0,0-2.86-2.84V68.79c.41.15.52.57.71.88A126.62,126.62,0,0,0,8.51,80.51a159.15,159.15,0,0,0,11.7,13.06c-4.58,4.35-9.26,8.58-14,12.74Z"/><path d="M33,127.34a10.39,10.39,0,0,1-2.08-.9,4.73,4.73,0,0,1,1.34-.85,163.13,163.13,0,0,0,15.6-10,1.43,1.43,0,0,1,1.78-.12A64.24,64.24,0,0,0,71.86,123c-1.71,1.73-3.7,2.86-5.38,4.36Z"/><path d="M4.75,110.68c.42-.05.64.26.89.5a80,80,0,0,0,23,15l.47.22c.06,0,.08.12.12.18-.25.42-.78.47-1.09.8H8.15c-1-.68-2.06-1.34-3.07-2-1.67-1.15-3.32-2.32-5-3.48v-7.21L4.39,111l0,0Z"/><path d="M.09,60.52v-31c.42,0,.59.34.83.58C5.33,34.56,9.72,39,14.14,43.39c.61.61.65.94,0,1.58A195.93,195.93,0,0,0,.78,60C.6,60.18.49,60.53.09,60.52Z"/><path d="M67.33,127.34l5.11-4.07a1.13,1.13,0,0,1,.8-.19,27.41,27.41,0,0,0,7.77-.56c.2,0,.42-.1.55.16h0l-.24.18-6.56,4.47Z"/><path d="M2.42,18.73a35.69,35.69,0,0,1,5-.43c.13,0,.26,0,.38.06.12.26-.07.35-.19.45-2.34,2-4.64,4-6.86,6.13-.17.17-.32.4-.61.37V19.37Z"/><path d="M3.19,108.87a25.39,25.39,0,0,1-3.1,2.56V105.7A44.18,44.18,0,0,1,3.19,108.87Z"/><path d="M.09,125.43a7.87,7.87,0,0,1,2.76,1.91H2c-.64,0-1.52.24-1.84-.07S.09,126.06.09,125.43Z"/><path d="M29.15,127.34c.78-.84,1.56-.38,2.33,0Z"/><path d="M43.16,71.42c-.48.1-.7-.27-1-.54Q29.3,58,16.4,45c-.67-.67-.64-1,0-1.66A219.45,219.45,0,0,1,34.54,27.57c.74-.58,1.2-.24,1.78.1A127.92,127.92,0,0,1,60.65,46.14c1,1,2,1.92,3,2.89.29.29.67.55.48,1.07l-.76.78a.71.71,0,0,0-.47.51l-.21.2h0l-.46.41,0,0L51.65,62.91l-.15.16-.28.3-.14.13L50,64.61a1.3,1.3,0,0,0-.58.6l-1.11,1.11-.58.58L46.56,68,46,68.6l-.7.73c-.08,0-.11,0-.11.11l-.3.28-.58.58a.2.2,0,0,0-.11.13l-.29.3Z"/><path d="M44.2,73.77a5.65,5.65,0,0,1,1.57,1.39Q56.58,86,67.4,96.83c.72.71.72,1.06,0,1.78a184.83,184.83,0,0,1-17.71,15.11,1.64,1.64,0,0,1-2.13.13A129,129,0,0,1,23.44,96c-.35-.33-.81-.58-1-1.08l.16-.32.24-.24h0l.27-.22C28.67,89,34,83.7,39.44,78.43Z"/><path d="M65.63,51.82c.45-.27.7,0,1,.33A128.53,128.53,0,0,1,84.92,77a1.25,1.25,0,0,1-.14,1.59,181.51,181.51,0,0,1-15.42,18c-.63.65-1,.61-1.58,0q-11-11.11-22.06-22.16c-.27-.28-.57-.51-.87-.77l-.17-.24.17-.39C51,67,57,60.93,62.91,54.65l.24-.25,1-1,.23-.23.18-.21.21-.23h0a1.24,1.24,0,0,0,.67-.68Z"/><path d="M64.79,49.31a19.27,19.27,0,0,1-3.31-3.07,130,130,0,0,0-24.77-18.9c-1-.6-1-.6-.1-1.3,5.1-3.85,10.41-7.39,15.87-10.73a1.53,1.53,0,0,1,1.57-.1A80.75,80.75,0,0,1,79,32.09c.28.28.73.5.59,1a.2.2,0,0,0-.14.13c-.08,0-.12,0-.11.12Q72.21,41.49,64.79,49.31Z"/><path d="M21.72,95.42c.7-.11,1,.51,1.36.87a129.29,129.29,0,0,0,22.63,17,16,16,0,0,0,1.66.94c.87.39.62.66,0,1.09a174.94,174.94,0,0,1-16.58,10.45,1.53,1.53,0,0,1-1.48.1A79.49,79.49,0,0,1,5.88,110.74c-.18-.16-.4-.31-.38-.6q6.91-6.23,13.82-12.46c.39-.35.76-.73,1.13-1.1l.27-.24.17-.16a.76.76,0,0,0,.45-.43Z"/><path d="M81.11,34.85c.44-.22.64.12.87.37A80,80,0,0,1,96.89,58.48a1.46,1.46,0,0,1,0,1.39A174.67,174.67,0,0,1,86.37,76.42c-.46.65-.74.92-1.26,0a125.88,125.88,0,0,0-18.06-24.5c-.25-.27-.63-.49-.6-.95C71.18,46,75.82,41,80.25,35.85l.15-.17,0,0,.27-.34h0A.27.27,0,0,0,81,35Z"/><path d="M80.06,32.39c-2.8-2.58-5.57-5.19-8.6-7.51a80.71,80.71,0,0,0-16.34-9.71l-1.35-.63c2.08-1.16,4-2.24,5.87-3.28,1.24-.67,2.52-1.27,3.77-1.93.73-.39,1.44-.84,2.21-.12a.11.11,0,0,0,.11,0,.29.29,0,0,0,.35.15l.59.22a.82.82,0,0,0,.63.27l.27.13.17.07A68.45,68.45,0,0,1,86.46,22.47c.78.72.81,1.19.16,2-1.82,2.2-3.57,4.46-5.35,6.7l-.24.29Z"/><path d="M103,47.59c-1.48,3.08-2.85,6.22-4.48,9.23-.28.53-.57,1-.92,1.69A12,12,0,0,1,96.32,56,80.51,80.51,0,0,0,82.7,35.28c-.33-.38-.89-.64-.82-1.28,2.29-2.6,4.48-5.27,6.53-8,.5-.69.79-.75,1.41-.08a66.6,66.6,0,0,1,12.54,19.72c.14.34,0,.86.76,1C103.51,46.62,103,47.21,103,47.59Z"/><path d="M63.43,8.4c.13.53-.35.55-.63.68-3,1.48-5.93,3.12-8.82,4.82a1.7,1.7,0,0,1-1.66.12A65.37,65.37,0,0,0,31.14,9.37c-.18,0-.35,0-.53,0a35.45,35.45,0,0,0-4.61,0,.43.43,0,0,0-.46,0h0a39.1,39.1,0,0,0-4,.21C23,8.44,24.63,7.89,26,6.94a63.32,63.32,0,0,1,6.77-2.85c0,.54-.58.66-.68,1.19,1.27-.13,2.5-.27,3.74-.37A65.8,65.8,0,0,1,62.21,8a4.29,4.29,0,0,0,.62.14.45.45,0,0,0,.47.18A.16.16,0,0,0,63.43,8.4Z"/><path d="M105.82,82.87q-1.57,2.79-3.14,5.58l-.25-.23a69.82,69.82,0,0,0-.24-11.2A67.62,67.62,0,0,0,98.1,60.31a2.08,2.08,0,0,1,.11-2c1.68-3.06,3.24-6.19,4.63-9.4.12-.27.14-.64.55-.71a68.83,68.83,0,0,1,3.7,18.17,66.71,66.71,0,0,1-.38,12.24c-.1.79-.1.79.66.59l-.4,1.2a2.91,2.91,0,0,0-.6,1.31.2.2,0,0,0-.06.14,1.75,1.75,0,0,0-.43.92A.08.08,0,0,0,105.82,82.87Z"/><path d="M88.32,116.71a.56.56,0,0,1-.59-.11c-1.12-1.12-2.24-2.25-3.37-3.37-.27-.27-.33-.49,0-.8,3.09-3.14,6-6.4,9-10a25.54,25.54,0,0,1-.78,9c-.6,1.65-2,2.66-3.07,4C89.14,115.85,88.72,116.27,88.32,116.71Z"/><path d="M81.33,122a26.85,26.85,0,0,1-7.65.53c.1-.56.52-.74.83-1q4.39-3.73,8.47-7.81c.5-.5.8-.52,1.25,0,1.08,1.25,2.45,2.21,3.36,3.61-1,1-2.09,1.89-3.1,2.87A6.55,6.55,0,0,1,81.33,122Z"/><path d="M93.43,110.84c-.26-.2-.12-.44-.08-.67a29,29,0,0,0,.55-7.43,1.88,1.88,0,0,1,.38-1.47A101.13,101.13,0,0,0,101.06,92c.08-.12.14-.25.39-.23A53.25,53.25,0,0,1,100,98.91a.2.2,0,0,0,0,.15l-.11.28-.06.23a.11.11,0,0,0-.05.17l-.2.62-.15.46C98.15,104.61,95.71,107.68,93.43,110.84Z"/><path d="M12,12.14a.36.36,0,0,0,.45-.11l.4-.1c1.82-.39,3.59-1,5.46-1.24,0,.41-.33.45-.54.58-2.86,1.89-5.63,3.89-8.29,6a2.23,2.23,0,0,1-1.53.53A17,17,0,0,0,2,18.51c-.31-.05-1,0-.25-.49,2.86-2,5.58-4.29,9-5.35C11.17,12.53,11.45,12.06,12,12.14Z"/><path d="M101,98.47c-.24.14-.7.45-.49-.17a45.82,45.82,0,0,0,1.61-7.77,2.55,2.55,0,0,1,.36-.87l2.63-4.59c.14-.24.21-.54.57-.57-.48,2.09-1,4.15-1.67,6.19C103.22,93.35,102.11,95.9,101,98.47Z"/><path d="M24.9,6.75c.17.46-.28.41-.47.53-1.33.78-2.68,1.53-4,2.32a5.09,5.09,0,0,1-1.6.48c-2,.39-4,.81-6,1.23a48.05,48.05,0,0,1,8.93-3.63C22.8,7.34,23.86,7.06,24.9,6.75Z"/><path d="M72.12,122.49a51.4,51.4,0,0,1-12.7-3.1A86.28,86.28,0,0,1,50,115.15c-.67-.34-.72-.56-.07-1A160.45,160.45,0,0,0,68,98.64c.46-.45.72-.48,1.19,0q6.75,6.81,13.54,13.58c.41.41.57.66,0,1.16-3,2.94-6.14,5.84-9.39,8.55C73,122.24,72.6,122.61,72.12,122.49Z"/><path d="M93.34,101.28c.07.35-.19.64-.44.94-2.74,3.34-5.66,6.5-8.65,9.61-.54.56-.84.46-1.34,0Q76.25,105,69.53,98.34c-.5-.49-.49-.78,0-1.26A164.86,164.86,0,0,0,85.05,79c.32-.42.54-.77.93,0,3.56,6.92,6.4,14.08,7.31,21.88C93.3,101,93.32,101.08,93.34,101.28Z"/><path d="M97.44,60a45.09,45.09,0,0,1,2.07,6,62.56,62.56,0,0,1,2.37,22.64,5.12,5.12,0,0,1-.83,2.47c-2.07,3.16-4.27,6.23-6.63,9.18a.84.84,0,0,1-.58.44c-.1-.56-.23-1.12-.31-1.69a64.82,64.82,0,0,0-7.1-20.19,1.56,1.56,0,0,1,.08-1.9,161.34,161.34,0,0,0,10.6-16.59A3.08,3.08,0,0,1,97.44,60Z"/><path d="M102.68,88.45c-.07.06-.18.18-.21.17s-.1-.26,0-.4Z"/><path d="M30.84,9.77A68.85,68.85,0,0,1,49,13.3c.86.29,1.73.6,2.58.94.27.1.7.11.74.47s-.37.38-.6.52c-3.16,1.94-6.28,3.93-9.31,6.06-2.08,1.47-4.16,2.94-6.17,4.48a1.61,1.61,0,0,1-2.06.16,71.19,71.19,0,0,0-18-7.08,51,51,0,0,0-6.23-1c-.1-.45.24-.56.43-.71,2.6-2,5.28-3.9,8-5.75a7.54,7.54,0,0,1,4-1.36c1.06-.05,2.11-.19,3.16-.29L29,9.69l.4,0Z"/></g><path d="M155.82,1.43h19.62V126.3H155.82Z"/><path d="M253.22,126.3h-19.8L230,103.64H206l-3.39,22.66h-18l20-124.87h28.72ZM208.44,86.7h18.91L217.9,23.55Z"/><path d="M288.72,0c19.09,0,28.9,11.42,28.9,31.4v3.92H299.07V30.15c0-8.92-3.57-12.31-9.81-12.31s-9.82,3.39-9.82,12.31c0,25.69,38.36,30.5,38.36,66.18,0,20-10,31.39-29.26,31.39s-29.25-11.41-29.25-31.39V88.66h18.55v8.92c0,8.92,3.92,12.13,10.17,12.13s10.16-3.21,10.16-12.13c0-25.69-38.35-30.51-38.35-66.18C259.82,11.42,269.63,0,288.72,0Z"/><path d="M387.72,30.15v4.46c0,12.84-3.92,21-12.66,25.15,10.52,4.1,14.63,13.56,14.63,26.76V96.69c0,19.26-10.17,29.61-29.79,29.61H329V1.43h29.62C379,1.43,387.72,10.88,387.72,30.15ZM348.66,19.27v33h7.67c7.31,0,11.77-3.21,11.77-13.2v-7c0-8.92-3-12.84-10-12.84Zm0,50.84v38.35H359.9c6.6,0,10.16-3,10.16-12.31V85.27c0-11.6-3.74-15.16-12.66-15.16Z"/><path d="M1,141.16H3.69v17.22H1Z"/><path d="M8.07,145.91v12.47H5.63V141.16H9l2.78,10.31V141.16h2.41v17.22H11.44Z"/><path d="M15.37,141.16h8.37v2.46H20.91v14.76H18.2V143.62H15.37Z"/><path d="M27.63,148.42h3.71v2.46H27.63v5H32.3v2.46H24.92V141.16H32.3v2.46H27.63Z"/><path d="M39.63,158.38a5.26,5.26,0,0,1-.24-2.11v-2.71c0-1.6-.55-2.19-1.78-2.19h-.93v7H34V141.16h4.09c2.8,0,4,1.31,4,4v1.35c0,1.77-.57,2.93-1.77,3.49,1.35.57,1.79,1.87,1.79,3.67v2.65a5.07,5.07,0,0,0,.3,2.09Zm-3-14.76v5.29h1.06c1,0,1.62-.44,1.62-1.82V145.4c0-1.23-.42-1.78-1.38-1.78Z"/><path d="M46.27,145.91v12.47H43.84V141.16h3.39L50,151.47V141.16h2.41v17.22H49.64Z"/><path d="M63.13,158.38H60.39l-.46-3.12H56.61l-.47,3.12H53.65l2.76-17.22h4ZM57,152.92h2.61l-1.31-8.71Z"/><path d="M62.66,141.16H71v2.46H68.19v14.76h-2.7V143.62H62.66Z"/><path d="M72.2,141.16h2.71v17.22H72.2Z"/><path d="M76.66,145.3c0-2.76,1.45-4.33,4.1-4.33s4.11,1.57,4.11,4.33v8.95c0,2.76-1.45,4.33-4.11,4.33s-4.1-1.57-4.1-4.33Zm2.7,9.12c0,1.23.54,1.7,1.4,1.7s1.41-.47,1.41-1.7v-9.29c0-1.24-.54-1.7-1.41-1.7s-1.4.46-1.4,1.7Z"/><path d="M89,145.91v12.47H86.6V141.16H90l2.78,10.31V141.16h2.41v17.22H92.4Z"/><path d="M105.88,158.38h-2.73l-.47-3.12H99.36l-.46,3.12H96.41l2.76-17.22h4Zm-6.17-5.46h2.61L101,144.21Z"/><path d="M107.14,141.16h2.7v14.76h4.46v2.46h-7.16Z"/><path d="M128.05,158.38h-2.73l-.47-3.12h-3.32l-.47,3.12h-2.48l2.75-17.22h4Zm-6.18-5.46h2.61l-1.3-8.71Z"/><path d="M132.94,141c2.64,0,4,1.57,4,4.33v.54h-2.56v-.71c0-1.24-.49-1.7-1.35-1.7s-1.36.46-1.36,1.7c0,3.54,5.29,4.2,5.29,9.12,0,2.76-1.37,4.33-4,4.33s-4-1.57-4-4.33v-1.06h2.56v1.23c0,1.23.54,1.68,1.4,1.68s1.41-.45,1.41-1.68c0-3.54-5.29-4.2-5.29-9.12C129,142.54,130.31,141,132.94,141Z"/><path d="M142.14,141c2.64,0,4,1.57,4,4.33v.54h-2.56v-.71c0-1.24-.49-1.7-1.35-1.7s-1.36.46-1.36,1.7c0,3.54,5.29,4.2,5.29,9.12,0,2.76-1.37,4.33-4,4.33s-4-1.57-4-4.33v-1.06h2.55v1.23c0,1.23.54,1.68,1.41,1.68s1.4-.45,1.4-1.68c0-3.54-5.29-4.2-5.29-9.12C138.16,142.54,139.51,141,142.14,141Z"/><path d="M147.48,145.3c0-2.76,1.45-4.33,4.11-4.33s4.11,1.57,4.11,4.33v8.95c0,2.76-1.45,4.33-4.11,4.33s-4.11-1.57-4.11-4.33Zm2.71,9.12c0,1.23.54,1.7,1.4,1.7s1.4-.47,1.4-1.7v-9.29c0-1.24-.54-1.7-1.4-1.7s-1.4.46-1.4,1.7Z"/><path d="M165.29,152v2.29c0,2.76-1.37,4.33-4,4.33s-4-1.57-4-4.33V145.3c0-2.76,1.37-4.33,4-4.33s4,1.57,4,4.33V147h-2.55v-1.84c0-1.24-.55-1.7-1.41-1.7s-1.4.46-1.4,1.7v9.29c0,1.23.54,1.68,1.4,1.68s1.41-.45,1.41-1.68V152Z"/><path d="M166.94,141.16h2.71v17.22h-2.71Z"/><path d="M180.37,158.38h-2.73l-.46-3.12h-3.32l-.47,3.12H170.9l2.76-17.22h4Zm-6.17-5.46h2.61l-1.31-8.71Z"/><path d="M179.91,141.16h8.36v2.46h-2.83v14.76h-2.7V143.62h-2.83Z"/><path d="M189.45,141.16h2.71v17.22h-2.71Z"/><path d="M193.91,145.3c0-2.76,1.45-4.33,4.1-4.33s4.11,1.57,4.11,4.33v8.95c0,2.76-1.45,4.33-4.11,4.33s-4.1-1.57-4.1-4.33Zm2.7,9.12c0,1.23.54,1.7,1.4,1.7s1.41-.47,1.41-1.7v-9.29c0-1.24-.55-1.7-1.41-1.7s-1.4.46-1.4,1.7Z"/><path d="M206.28,145.91v12.47h-2.44V141.16h3.4L210,151.47V141.16h2.41v17.22h-2.78Z"/><path d="M218,145.3c0-2.76,1.46-4.33,4.11-4.33s4.11,1.57,4.11,4.33v8.95c0,2.76-1.45,4.33-4.11,4.33S218,157,218,154.25Zm2.71,9.12c0,1.23.54,1.7,1.4,1.7s1.41-.47,1.41-1.7v-9.29c0-1.24-.55-1.7-1.41-1.7s-1.4.46-1.4,1.7Z"/><path d="M230.63,148.81h3.5v2.46h-3.5v7.11h-2.7V141.16h7.16v2.46h-4.46Z"/><path d="M243.84,141c2.64,0,4,1.57,4,4.33v.54h-2.56v-.71c0-1.24-.49-1.7-1.35-1.7s-1.35.46-1.35,1.7c0,3.54,5.28,4.2,5.28,9.12,0,2.76-1.37,4.33-4,4.33s-4-1.57-4-4.33v-1.06h2.55v1.23c0,1.23.55,1.68,1.41,1.68s1.4-.45,1.4-1.68c0-3.54-5.29-4.2-5.29-9.12C239.86,142.54,241.21,141,243.84,141Z"/><path d="M257.42,145.42v2.24c0,2.75-1.32,4.25-4,4.25h-1.28v6.47H249.4V141.16h4C256.1,141.16,257.42,142.67,257.42,145.42Zm-5.31-1.8v5.83h1.28c.86,0,1.33-.39,1.33-1.62v-2.58c0-1.23-.47-1.63-1.33-1.63Z"/><path d="M261.39,148.42h3.71v2.46h-3.71v5h4.67v2.46h-7.38V141.16h7.38v2.46h-4.67Z"/><path d="M276.49,158.38h-2.73l-.47-3.12H270l-.47,3.12H267l2.76-17.22h4Zm-6.17-5.46h2.6l-1.3-8.71Z"/><path d="M281.29,151.52l-.84,1.58v5.28h-2.7V141.16h2.7v7.51l3.54-7.51h2.71l-3.76,7.68,3.76,9.54h-2.78Z"/><path d="M290.64,148.42h3.71v2.46h-3.71v5h4.67v2.46h-7.38V141.16h7.38v2.46h-4.67Z"/><path d="M302.64,158.38a5.26,5.26,0,0,1-.24-2.11v-2.71c0-1.6-.55-2.19-1.78-2.19h-.93v7H297V141.16h4.09c2.8,0,4,1.31,4,4v1.35c0,1.77-.57,2.93-1.77,3.49,1.35.57,1.79,1.87,1.79,3.67v2.65a5.07,5.07,0,0,0,.3,2.09Zm-2.95-14.76v5.29h1.06c1,0,1.62-.44,1.62-1.82V145.4c0-1.23-.42-1.78-1.38-1.78Z"/><path d="M310.51,141c2.64,0,4,1.57,4,4.33v.54h-2.56v-.71c0-1.24-.49-1.7-1.35-1.7s-1.36.46-1.36,1.7c0,3.54,5.29,4.2,5.29,9.12,0,2.76-1.37,4.33-4,4.33s-4-1.57-4-4.33v-1.06H309v1.23c0,1.23.54,1.68,1.41,1.68s1.4-.45,1.4-1.68c0-3.54-5.29-4.2-5.29-9.12C306.53,142.54,307.88,141,310.51,141Z"/><path d="M328,145.13v.61c0,1.77-.54,2.9-1.75,3.47,1.46.56,2,1.87,2,3.69v1.4c0,2.66-1.4,4.08-4.11,4.08h-4.25V141.16H324C326.78,141.16,328,142.47,328,145.13Zm-5.39-1.51v4.56h1.06c1,0,1.62-.45,1.62-1.83v-.95c0-1.23-.41-1.78-1.37-1.78Zm0,7v5.28h1.55c.91,0,1.41-.41,1.41-1.69v-1.5c0-1.6-.52-2.09-1.75-2.09Z"/><path d="M332.46,141.16v13.29c0,1.23.54,1.67,1.4,1.67s1.4-.44,1.4-1.67V141.16h2.56v13.12c0,2.75-1.38,4.33-4,4.33s-4-1.58-4-4.33V141.16Z"/><path d="M345.33,158.38a5.18,5.18,0,0,1-.25-2.11v-2.71c0-1.6-.54-2.19-1.77-2.19h-.94v7h-2.7V141.16h4.08c2.8,0,4,1.31,4,4v1.35c0,1.77-.57,2.93-1.77,3.49,1.35.57,1.79,1.87,1.79,3.67v2.65a5.07,5.07,0,0,0,.3,2.09Zm-3-14.76v5.29h1.06c1,0,1.62-.44,1.62-1.82V145.4c0-1.23-.41-1.78-1.37-1.78Z"/><path d="M352.26,148.42H356v2.46h-3.72v5h4.68v2.46h-7.38V141.16h7.38v2.46h-4.68Z"/><path d="M367.37,158.38h-2.73l-.47-3.12h-3.32l-.47,3.12H357.9l2.75-17.22h4Zm-6.18-5.46h2.61l-1.3-8.71Z"/><path d="M371.21,141.16v13.29c0,1.23.54,1.67,1.4,1.67s1.4-.44,1.4-1.67V141.16h2.56v13.12c0,2.75-1.38,4.33-4,4.33s-4-1.58-4-4.33V141.16Z"/><path d="M382.05,141c2.64,0,4,1.57,4,4.33v.54h-2.56v-.71c0-1.24-.49-1.7-1.35-1.7s-1.35.46-1.35,1.7c0,3.54,5.28,4.2,5.28,9.12,0,2.76-1.37,4.33-4,4.33s-4-1.57-4-4.33v-1.06h2.55v1.23c0,1.23.54,1.68,1.41,1.68s1.4-.45,1.4-1.68c0-3.54-5.29-4.2-5.29-9.12C378.07,142.54,379.42,141,382.05,141Z"/></g></g></svg>