<svg xmlns="http://www.w3.org/2000/svg" viewBox="0 0 106.84 43.14"><title>ibm</title><g id="Layer_2" data-name="Layer 2"><g id="Layer_1-2" data-name="Layer 1"><polygon points="106.84 3.07 89.06 3.07 90.15 0 106.84 0 106.84 3.07"/><path d="M59.43,0H75.94L77,3.07s-17.59,0-17.59,0Z"/><path d="M46.32,0a11.84,11.84,0,0,1,7.1,3.07H23.49V0Z"/><rect width="20.79" height="3.07"/><path d="M106.84,8.82H87s1.08-3.05,1.07-3.05h18.75Z"/><polygon points="79.07 8.83 59.43 8.83 59.43 5.77 77.99 5.77 79.07 8.83"/><path d="M55.75,5.77a7.84,7.84,0,0,1,.86,3.05H23.5V5.77Z"/><rect y="5.77" width="20.79" height="3.05"/><polygon points="84.99 14.59 86.08 11.52 100.97 11.53 100.97 14.58 84.99 14.59"/><polygon points="80.02 11.52 81.11 14.59 65.29 14.59 65.29 11.52 80.02 11.52"/><path d="M56.88,11.52a10.22,10.22,0,0,1-.44,3.07H47.37V11.52Z"/><rect x="5.8" y="11.54" width="8.94" height="3.05"/><rect x="29.51" y="11.52" width="8.92" height="3.07"/><path d="M74.07,17.9s0,2.32,0,2.33H65.29V17.17H82l1,2.85s1-2.85,1-2.85H101v3.06H92.21V17.9l-.81,2.33H74.88Z"/><path d="M29.51,17.17H55.12a11.49,11.49,0,0,1-2.54,3.06H29.51Z"/><rect x="5.8" y="17.17" width="8.94" height="3.05"/><rect x="92.21" y="22.93" width="8.75" height="3.05"/><path d="M74.07,22.93H65.29V26h8.79S74.09,22.93,74.07,22.93Z"/><path d="M90.45,22.93S89.42,26,89.38,26H76.92s-1.09-3.06-1.09-3.05Z"/><path d="M29.51,22.93h23A14.65,14.65,0,0,1,55.28,26H29.51Z"/><path d="M14.73,26V22.93H5.81V26Z"/><rect x="92.21" y="28.68" width="8.74" height="3.05"/><rect x="65.29" y="28.68" width="8.79" height="3.05"/><path d="M87.34,31.75s1.07-3.07,1.09-3.07H77.84s1.09,3.05,1.09,3.05S87.33,31.76,87.34,31.75Z"/><path d="M29.51,31.73V28.68h9.06v3.05Z"/><path d="M56.55,28.68a8.63,8.63,0,0,1,.57,3.07H47.53V28.68Z"/><rect x="5.81" y="28.68" width="8.92" height="3.05"/><rect x="92.21" y="34.32" width="14.63" height="3.05"/><rect x="59.43" y="34.32" width="14.64" height="3.05"/><polygon points="85.37 37.37 80.9 37.37 79.83 34.32 86.4 34.32 85.37 37.37"/><path d="M0,34.32v3H20.78s0-3,0-3Z"/><path d="M56.74,34.32a6.65,6.65,0,0,1-1.15,3H23.49v-3Z"/><polygon points="83.34 43.13 82.93 43.13 81.89 40.07 84.42 40.07 83.34 43.13"/><rect x="92.21" y="40.07" width="14.63" height="3.07"/><path d="M23.49,43.13V40.07H53.6a11.43,11.43,0,0,1-7.76,3.06H23.49"/><rect x="59.43" y="40.07" width="14.64" height="3.07"/><path d="M20.78,40.08s0,3.05,0,3.05H0s0-3.06,0-3.06S20.77,40.09,20.78,40.08Z"/></g></g></svg>