<svg xmlns="http://www.w3.org/2000/svg" viewBox="0 0 188.27 188.27"><title>jdpower</title><g id="Layer_2" data-name="Layer 2"><g id="Layer_1-2" data-name="Layer 1"><path d="M70.2,18.8a.74.74,0,0,0,.19-.05,3.74,3.74,0,0,0,2.17-1.35,2.27,2.27,0,0,0,.3-2,2.29,2.29,0,0,0-3-1.63,6.86,6.86,0,0,0-1.22.51l1.3,4.56Z"/><path d="M94.13,28.52a65.64,65.64,0,0,0-62.44,45.4l-.35,1.13,125.54-.16A65.63,65.63,0,0,0,94.13,28.52ZM41.23,61.68c.58-.93,1.21-1.88,1.89-2.86H144.86c.68,1,1.31,1.93,1.89,2.86Zm106.28,1.25c.5.83,1,1.64,1.38,2.4H39.09c.42-.76.88-1.57,1.38-2.4ZM44,57.57c.68-.94,1.41-1.9,2.19-2.86h95.6c.78,1,1.51,1.92,2.19,2.86Zm80.21-18.08c1.33.76,2.61,1.57,3.84,2.41H59.93c1.22-.84,2.5-1.65,3.84-2.41ZM66.05,38.24q2.55-1.31,5.34-2.4h45.2q2.79,1.09,5.34,2.4Zm63.76,4.9c1.06.78,2.08,1.59,3.05,2.41H55.11c1-.82,2-1.63,3.06-2.41Zm-16.74-8.55H74.9a65.11,65.11,0,0,1,38.17,0ZM53.68,46.79H134.3q1.66,1.49,3.15,3H50.53Q52,48.28,53.68,46.79Zm-4.34,4.27h89.3q1.11,1.2,2.13,2.4H47.21Q48.23,52.26,49.34,51.06ZM35.47,73.13s.34-1,1.08-2.67H151.4c-.16-.37-.35-.79-.56-1.24H37.11c.37-.79.81-1.68,1.31-2.64H149.55c-.15-.3-.32-.62-.49-.93a54.28,54.28,0,0,1,3.44,7.48Z"/><path d="M31.09,112.38a65.63,65.63,0,0,0,126.39-1.11l-126.67.09S31,112,31.09,112.38Zm121.41,1.89S138.34,155.66,94,155.66c-33.49,0-49.77-23.6-55.73-35.16l.48.92H148.89c.24-.43.46-.85.66-1.25H38.09c-.5-1-.92-1.87-1.27-2.64h114c.21-.45.4-.87.56-1.25h-115v.29c-.62-1.45-.92-2.3-.92-2.3Z"/><path d="M38.34,43.87a3,3,0,0,0,2.5-.94,3.31,3.31,0,0,0,.94-2.78,6.15,6.15,0,0,0-2.11-3.5,7,7,0,0,0-3.94-2.2,3.14,3.14,0,0,0-2.6,1,3,3,0,0,0-.88,2.55,6.4,6.4,0,0,0,2.17,3.7A6.74,6.74,0,0,0,38.34,43.87Z"/><polygon points="146.13 29.83 141.73 32.24 144.81 34.65 146.13 29.83"/><path d="M94.13,3.38a90,90,0,1,0,90,90A90,90,0,0,0,94.13,3.38Zm74.13,48.73-2.14,1.6-.18-.26a3.51,3.51,0,0,0,.69-.77,1.76,1.76,0,0,0,.21-1,2.29,2.29,0,0,0-.45-1.07l-.89-1.33-7.22,4.86c-.58.39-.9.7-1,.92a1.3,1.3,0,0,0,.26,1l.22.32-.26.18-2.7-4,.26-.17.22.33a1.19,1.19,0,0,0,.94.61,2.64,2.64,0,0,0,1.12-.53L164.6,48l-.77-1.14a3.83,3.83,0,0,0-.73-.87,1.63,1.63,0,0,0-.93-.28,2.59,2.59,0,0,0-1.22.38l-.18-.26,2.29-1.38Zm-17.91-14.3a6.48,6.48,0,0,1,2.87-1.48,5.53,5.53,0,0,1,3.05.13,5.66,5.66,0,0,1,2.51,1.7,5.32,5.32,0,0,1,1.14,2.23,1.3,1.3,0,0,0,.2.5.53.53,0,0,0,.38.2,1.3,1.3,0,0,0,.67-.18l.2.22-2.75,2.74-.18-.2a4.83,4.83,0,0,0,.92-2.76,3.59,3.59,0,0,0-1-2.25,3.78,3.78,0,0,0-1.77-1.17,3.88,3.88,0,0,0-2.34.11,8.2,8.2,0,0,0-2.7,1.66,6.6,6.6,0,0,0-1.7,2.14,3.66,3.66,0,0,0-.34,2.26,4.24,4.24,0,0,0,1,2.11,3.9,3.9,0,0,0,1.64,1.17,6.55,6.55,0,0,0,2.65.17l0,.31a6.09,6.09,0,0,1-3-.05,5.62,5.62,0,0,1-3.6-6.27A5.94,5.94,0,0,1,150.35,37.81Zm-2.14-9.66-2.71,9.9a4.42,4.42,0,0,0-.23,1.71,1.81,1.81,0,0,0,.63,1l-.2.24-3.54-2.76.19-.25a1.76,1.76,0,0,0,.87.39.61.61,0,0,0,.48-.22,3.57,3.57,0,0,0,.45-1.13l.47-1.72-3.48-2.71-1.72.94a2.62,2.62,0,0,0-.83.61.55.55,0,0,0-.09.51,2.22,2.22,0,0,0,.69.86l-.19.25-2.83-2.21.19-.25a1.91,1.91,0,0,0,.93.31,5.09,5.09,0,0,0,1.76-.7L148,28Zm-13.88-8.5,7.42,4.11L140.63,26l-.26-.14a3.4,3.4,0,0,0,.12-1.27,1.53,1.53,0,0,0-.36-.82,3.71,3.71,0,0,0-1.07-.79l-2.19-1.21-2.17,3.91,1.81,1a1.47,1.47,0,0,0,1.07.23,2.15,2.15,0,0,0,1-.88l.27.15L137,29.57l-.27-.15a2.2,2.2,0,0,0,.32-.94,1.07,1.07,0,0,0-.17-.63,1.83,1.83,0,0,0-.68-.55l-1.81-1-1.74,3.13a4,4,0,0,0-.46,1.06.79.79,0,0,0,.14.48,1.53,1.53,0,0,0,.58.55l.36.2-.15.27-4.28-2.37.15-.27.35.2a1.2,1.2,0,0,0,1.1.13,2.54,2.54,0,0,0,.8-1l3.57-6.44a3.81,3.81,0,0,0,.46-1.05.7.7,0,0,0-.13-.48,1.53,1.53,0,0,0-.58-.55l-.35-.2Zm-10,7.08a2.41,2.41,0,0,0,1.74.17,1.71,1.71,0,0,0,1.09-.95,1.78,1.78,0,0,0,.14-.87,2.64,2.64,0,0,0-.33-1,19.27,19.27,0,0,0-1.2-1.71,15.89,15.89,0,0,1-1.37-2A3.68,3.68,0,0,1,124,19a2.62,2.62,0,0,1,.24-1.31A2.77,2.77,0,0,1,126,16.09a3.35,3.35,0,0,1,2.55.16,4.91,4.91,0,0,1,1.58,1.19,1.81,1.81,0,0,0,.52.46.51.51,0,0,0,.38,0,1,1,0,0,0,.42-.39l.28.13-1.6,3.6-.29-.13a4.72,4.72,0,0,0,.24-1.87,2.8,2.8,0,0,0-.58-1.43,3.14,3.14,0,0,0-1.21-1,2,2,0,0,0-1.53-.1,1.64,1.64,0,0,0-1,.88,1.4,1.4,0,0,0,0,1,9,9,0,0,0,1.58,2.55,16.94,16.94,0,0,1,1.45,2.08,3.36,3.36,0,0,1,.39,1.36,2.79,2.79,0,0,1-.25,1.31A3,3,0,0,1,127,27.59a3.61,3.61,0,0,1-2.74-.19,6.29,6.29,0,0,1-.82-.45,10.65,10.65,0,0,1-.87-.72,4.89,4.89,0,0,0-.83-.66.42.42,0,0,0-.36,0,1,1,0,0,0-.38.4l-.28-.13,1.59-3.57.28.13a5.54,5.54,0,0,0-.21,1.92,2.84,2.84,0,0,0,.62,1.38A3.64,3.64,0,0,0,124.38,26.73ZM116,23.68a2.51,2.51,0,0,0,.61-1.16l2.4-7a3.61,3.61,0,0,0,.27-1.11.83.83,0,0,0-.21-.46,1.7,1.7,0,0,0-.66-.44l-.38-.13.1-.29,4.61,1.59-.1.29-.39-.13a1.2,1.2,0,0,0-1.09,0,2.4,2.4,0,0,0-.62,1.16l-2.4,7a3.67,3.67,0,0,0-.27,1.11.76.76,0,0,0,.22.46,1.51,1.51,0,0,0,.65.44l.39.13-.1.3-4.61-1.59.1-.3.38.14A1.22,1.22,0,0,0,116,23.68Zm-9.68-13.3,9.19,1.45-.3,2.66-.31-.05a3.5,3.5,0,0,0-.09-1,1.68,1.68,0,0,0-.58-.81,2.33,2.33,0,0,0-1.08-.41l-1.59-.25-1.36,8.6a2.35,2.35,0,0,0,0,1.33,1.28,1.28,0,0,0,.91.5l.39.06,0,.31L106.71,22l0-.31.4.07a1.18,1.18,0,0,0,1.08-.27,2.59,2.59,0,0,0,.38-1.19L110,11.68l-1.35-.22a4,4,0,0,0-1.14-.06,1.56,1.56,0,0,0-.84.49,2.52,2.52,0,0,0-.55,1.15l-.32,0Zm-12.92,10a1.93,1.93,0,0,0,.94-.26,5.13,5.13,0,0,0,1.07-1.57l4.65-9.07.29,0,3.29,9.73a4.26,4.26,0,0,0,.77,1.54,1.8,1.8,0,0,0,1.06.46l0,.31L101,21.2l0-.31a1.68,1.68,0,0,0,.94-.16.58.58,0,0,0,.27-.45,3.38,3.38,0,0,0-.26-1.19l-.57-1.68L97,17.1l-.89,1.74a3,3,0,0,0-.36,1,.57.57,0,0,0,.22.47,2,2,0,0,0,1,.33l0,.31-3.58-.25Zm-8.56-9.73a3.28,3.28,0,0,1,2.32-1.05,4.62,4.62,0,0,1,2,.31,2.18,2.18,0,0,0,.68.16.48.48,0,0,0,.35-.16,1,1,0,0,0,.18-.54l.31,0,.28,3.93-.31,0a5.1,5.1,0,0,0-.67-1.76,2.8,2.8,0,0,0-1.18-1,3.15,3.15,0,0,0-1.52-.29,2.11,2.11,0,0,0-1.41.64,1.64,1.64,0,0,0-.48,1.25,1.42,1.42,0,0,0,.42.92,9.32,9.32,0,0,0,2.59,1.5,18.2,18.2,0,0,1,2.27,1.16,3.25,3.25,0,0,1,1,1A2.8,2.8,0,0,1,92,18a2.94,2.94,0,0,1-.85,2.3,3.6,3.6,0,0,1-2.51,1.11,4.89,4.89,0,0,1-.94,0,7.89,7.89,0,0,1-1.09-.23A4.69,4.69,0,0,0,85.55,21a.44.44,0,0,0-.32.15,1.06,1.06,0,0,0-.14.53l-.31,0-.28-3.89.31,0a5.43,5.43,0,0,0,.72,1.79,2.83,2.83,0,0,0,1.2.94,3.53,3.53,0,0,0,1.69.28A2.33,2.33,0,0,0,90,20.1a1.68,1.68,0,0,0,.52-1.35,1.84,1.84,0,0,0-.29-.83,2.49,2.49,0,0,0-.77-.74,19,19,0,0,0-1.86-.95,16.48,16.48,0,0,1-2.17-1.16,3.56,3.56,0,0,1-1-1,2.64,2.64,0,0,1-.4-1.27A2.76,2.76,0,0,1,84.84,10.63ZM69.28,13.3a10,10,0,0,1,2.65-.48,3,3,0,0,1,1.67.54,2.53,2.53,0,0,1,1,1.46,2.66,2.66,0,0,1-.15,1.94,3.91,3.91,0,0,1-1.74,1.63l3.16,2.5a6,6,0,0,0,1.75,1.05,3.57,3.57,0,0,0,1.58,0l.09.3-2.93.83-5.17-4.05-.67.2-.23.07-.25.06L71,22.57a2.36,2.36,0,0,0,.6,1.22,1.25,1.25,0,0,0,1,.09l.43-.13.08.3L68.43,25.4l-.08-.3.41-.12a1.14,1.14,0,0,0,.86-.74A2.55,2.55,0,0,0,69.45,23l-2-7.08c-.2-.68-.39-1.09-.59-1.21a1.22,1.22,0,0,0-1-.09l-.41.12-.09-.3Zm-7.1,2.52,1.13,2.23-.3.13a4,4,0,0,0-.86-1,1.43,1.43,0,0,0-.79-.21,3.93,3.93,0,0,0-1.13.37l-2.86,1.27,1.83,4.11,2.29-1a2.08,2.08,0,0,0,1.07-.8,1.87,1.87,0,0,0-.11-1.44l.29-.13L64.35,23l-.28.13a4.46,4.46,0,0,0-.65-.88,1.05,1.05,0,0,0-.64-.22,2.45,2.45,0,0,0-1,.28l-2.29,1L61,26.75a3.37,3.37,0,0,0,.44.81.5.5,0,0,0,.32.14,1.43,1.43,0,0,0,.62-.17l1.77-.79a5.3,5.3,0,0,0,1.22-.69,2,2,0,0,0,.55-.83,6.31,6.31,0,0,0,.34-1.86l.31-.14.26,3-8,3.57-.13-.29.37-.16a1.49,1.49,0,0,0,.62-.49.65.65,0,0,0,.17-.51,3.71,3.71,0,0,0-.36-1.05l-3-6.76c-.29-.66-.54-1-.74-1.13a1.32,1.32,0,0,0-1.06.1l-.37.17-.12-.29Zm-20,11.54,8.41,5.08L49,22.77,51.64,21l.17.26-.33.22a1.17,1.17,0,0,0-.61.94,2.64,2.64,0,0,0,.53,1.12l4.16,6.17c.4.58.7.9.93.95a1.23,1.23,0,0,0,1-.25l.33-.22.18.25-4,2.71-.17-.26.33-.22a1.16,1.16,0,0,0,.61-.94,2.64,2.64,0,0,0-.53-1.12L50,24.27l1.72,10.41-.23.15-9-5.48,4.26,6.31c.39.58.69.9.92,1a1.23,1.23,0,0,0,1-.25l.33-.23.18.26-3.29,2.22-.17-.26.33-.23a1.17,1.17,0,0,0,.61-.93,2.57,2.57,0,0,0-.54-1.12L41.93,29.9a2.49,2.49,0,0,0-.75-.81.93.93,0,0,0-.59-.1,2.42,2.42,0,0,0-.93.43l-.17-.26ZM32.8,35a5.17,5.17,0,0,1,3.89-1.6,5.84,5.84,0,0,1,4.15,1.75,6,6,0,0,1,2,4.18A5.47,5.47,0,0,1,37.33,45a6,6,0,0,1-4.22-1.85,5.76,5.76,0,0,1-1.9-4.41A5.45,5.45,0,0,1,32.8,35Zm-5.51,6.71,2.24,1.47-.19.26a3.16,3.16,0,0,0-1-.39,1.71,1.71,0,0,0-1,.14,2.37,2.37,0,0,0-.86.78l-.94,1.3,7,5.12a2.32,2.32,0,0,0,1.19.58,1.26,1.26,0,0,0,.87-.58l.23-.32.25.18-2.84,3.91-.25-.19.24-.32a1.16,1.16,0,0,0,.24-1.09,2.55,2.55,0,0,0-.88-.87l-7-5.11-.8,1.1a3.71,3.71,0,0,0-.58,1,1.64,1.64,0,0,0,.06,1,2.49,2.49,0,0,0,.78,1l-.19.25L21.83,49.2ZM18,55.4a5,5,0,0,1,1.3-1.49,2.08,2.08,0,0,0,.5-.48.57.57,0,0,0,.05-.38,1,1,0,0,0-.36-.44l.15-.28,3.48,1.85-.15.28a4.84,4.84,0,0,0-1.85-.37,2.79,2.79,0,0,0-1.46.48,3.18,3.18,0,0,0-1.06,1.13,2,2,0,0,0-.2,1.53,1.6,1.6,0,0,0,.8,1.07,1.4,1.4,0,0,0,1,.13A9.18,9.18,0,0,0,22.89,57a18.6,18.6,0,0,1,2.18-1.31,3.18,3.18,0,0,1,1.37-.28,2.88,2.88,0,0,1,1.3.33,3,3,0,0,1,1.5,1.93,3.62,3.62,0,0,1-.39,2.73,5,5,0,0,1-.5.78,11,11,0,0,1-.78.81,5.52,5.52,0,0,0-.72.79.47.47,0,0,0,0,.36,1,1,0,0,0,.37.4l-.14.27L23.59,62l.14-.27a5.59,5.59,0,0,0,1.9.34,2.84,2.84,0,0,0,1.42-.52,3.4,3.4,0,0,0,1.14-1.29,2.33,2.33,0,0,0,.29-1.72,1.71,1.71,0,0,0-.87-1.16,1.82,1.82,0,0,0-.86-.19,2.53,2.53,0,0,0-1,.26,18.85,18.85,0,0,0-1.78,1.08,17.71,17.71,0,0,1-2.13,1.22,3.5,3.5,0,0,1-1.39.32,2.57,2.57,0,0,1-1.29-.32,2.8,2.8,0,0,1-1.43-1.83A3.36,3.36,0,0,1,18,55.4Zm3.36,26.74a5.15,5.15,0,0,1-2.83,4,6,6,0,0,1-3.83.5,6.53,6.53,0,0,1-3-1.3A5.46,5.46,0,0,1,10,82.85a5.73,5.73,0,0,1-.27-3,5.32,5.32,0,0,1,1-2.3,1.39,1.39,0,0,0,.27-.46.53.53,0,0,0-.09-.42,1.28,1.28,0,0,0-.57-.41l.05-.29,3.86.41,0,.26a4.89,4.89,0,0,0-2.73,1,3.66,3.66,0,0,0-1.15,2.15,3.59,3.59,0,0,0,1.77,3.86,8.17,8.17,0,0,0,3,1.06,6.73,6.73,0,0,0,2.73,0,3.77,3.77,0,0,0,2-1.17,4.34,4.34,0,0,0,1-2.13,3.85,3.85,0,0,0-.13-2,6.3,6.3,0,0,0-1.53-2.17l.21-.23a6,6,0,0,1,1.84,2.36A5,5,0,0,1,21.39,82.14Zm3.24-11.22a5.11,5.11,0,0,1-1.58,2.44,3.48,3.48,0,0,1-2.1.69,9.6,9.6,0,0,1-2.73-.71L14,71.82a2.19,2.19,0,0,0-1.39-.2,1.2,1.2,0,0,0-.63.77l-.14.4-.3-.1,1.69-4.63.29.11-.15.41a1.13,1.13,0,0,0,.07,1.1,2.51,2.51,0,0,0,1.12.62L19.25,72a11.64,11.64,0,0,0,1.47.41,3.25,3.25,0,0,0,1.41,0,2.42,2.42,0,0,0,1.05-.59,3.19,3.19,0,0,0,.8-1.28,4.07,4.07,0,0,0,.23-2A2.68,2.68,0,0,0,23.45,67a7.34,7.34,0,0,0-2.31-1.18L16.8,64.21A2.43,2.43,0,0,0,15.47,64a1.27,1.27,0,0,0-.68.79l-.15.41-.29-.11,1.38-3.79.29.11-.15.4a1.16,1.16,0,0,0,.18,1.16,2.46,2.46,0,0,0,1.08.58l4.34,1.58a8.09,8.09,0,0,1,2.38,1.23,3.39,3.39,0,0,1,1.07,1.81A4.83,4.83,0,0,1,24.63,70.92Zm69.5,90.76a67.55,67.55,0,1,1,67.55-67.55A67.54,67.54,0,0,1,94.13,161.68Zm67.52-98.51.2.37-.27.15-2.36-4.27.27-.15.19.35a1.26,1.26,0,0,0,.86.7,2.59,2.59,0,0,0,1.23-.45l6.44-3.57a3.75,3.75,0,0,0,.94-.65.73.73,0,0,0,.15-.48,1.55,1.55,0,0,0-.2-.77l-.19-.35.27-.16,2.36,4.27-.27.15-.2-.36a1.23,1.23,0,0,0-.85-.69,2.56,2.56,0,0,0-1.23.45l-6.44,3.57a3.5,3.5,0,0,0-.94.65.69.69,0,0,0-.15.48A1.53,1.53,0,0,0,161.65,63.17Zm2.12,6.67a5.26,5.26,0,0,1,.37-4.27,6,6,0,0,1,3.62-2.86,5.75,5.75,0,0,1,4.78.39,5.41,5.41,0,0,1,2.6,3.19,5.15,5.15,0,0,1-.41,4.17,5.81,5.81,0,0,1-3.5,2.85,6,6,0,0,1-4.6-.23A5.25,5.25,0,0,1,163.77,69.84ZM179,85.49a1.15,1.15,0,0,0-.6-.94,2.48,2.48,0,0,0-1.24,0l-9.46,1.66,0-.3,7.73-9-6.91,1.21a2.46,2.46,0,0,0-1.25.45,1.24,1.24,0,0,0-.18,1l.07.4-.3.06-.69-3.91.3,0,.07.39a1.2,1.2,0,0,0,.61.94,2.56,2.56,0,0,0,1.24,0l7.8-1.38a5.35,5.35,0,0,0,.63-.87,2.65,2.65,0,0,0,.2-.8,2.58,2.58,0,0,0-.05-.74l.31-.06.53,3L170.59,85l6.47-1.14a2.31,2.31,0,0,0,1.25-.46,1.27,1.27,0,0,0,.17-1l-.06-.39.3,0,.69,3.9-.31,0Z"/><path d="M94.13,0a94.14,94.14,0,1,0,94.14,94.13A94.14,94.14,0,0,0,94.13,0Zm0,184.84a91.51,91.51,0,1,1,91.51-91.51A91.51,91.51,0,0,1,94.13,184.84Z"/><path d="M170.42,71.55a6.87,6.87,0,0,0,3.79-2.44,3.07,3.07,0,0,0,.3-2.78,3,3,0,0,0-1.84-2,6.4,6.4,0,0,0-4.28.19A6.74,6.74,0,0,0,164.67,67a3,3,0,0,0-.34,2.65,3.32,3.32,0,0,0,2,2.14A6.12,6.12,0,0,0,170.42,71.55Z"/><polygon points="99.56 12.04 97.27 16.5 101.17 16.77 99.56 12.04"/><path d="M45.07,105.06c-.5.67-1.61,1.75-2.46,1.75-.58,0-.81.36-.81.62s.27.45,1.12.45c2.91,0,5.45-3.17,5.45-9V80.34c0-1.92,1.66-1.34,1.66-2.1,0-.49-.54-.4-.89-.4-.77,0-.41.09-1.84.09s-1.74-.09-2.32-.09-1.08-.09-1.08.26c0,1.57,2.33.54,2.33,3.4V99.79C46.23,102.92,45.69,104.21,45.07,105.06Z"/><path d="M142.26,81.32a4.07,4.07,0,0,0-4.33-4c-1.43,0-3.36.36-4.7.36s-1.47-.14-2.46-.14a.38.38,0,0,0-.4.41c0,1,2.24,0,2.24,3.08v13.1c0,3-1.75,1.92-1.75,2.77,0,.58.49.49.72.49,1,0,.94-.09,2-.09.85,0,2.19.09,2.5.09.54,0,.72-.18.72-.44,0-.94-2.15.18-2.15-2.78V80c0-1,1.12-1.47,2.15-1.47a3.2,3.2,0,0,1,3.31,3.35c0,2.68-1.57,3.89-3.62,3.89-.32,0-.5,0-.76,0a.55.55,0,0,0-.59.53c0,.63.81.76,1.53.85s1.43,1.07,1.83,1.92c1.29,2.55,2,5,2.55,6.22s.94,2.14,2.54,2.14c1.26,0,2.06-.49,2.06-1.11a.88.88,0,0,0-.62-.63c-.18,0-.67.4-.85.4-.41,0-.67-.4-.85-.85-.9-2.1-1.52-4.47-2.46-6.17a6.17,6.17,0,0,0-2.19-2.32C140.74,85.71,142.26,84.72,142.26,81.32Z"/><path d="M92.9,77.52C88,77.52,84.72,81.9,84.72,88c0,5.91,3.8,9.57,8,9.57,6,0,8.09-6.3,8.09-10.19C100.77,81.41,97.11,77.52,92.9,77.52Zm.41,18.74c-3.89,0-6.49-4.43-6.49-9.44,0-4,2-8,5.73-8,2.59,0,6.08,2.82,6.08,8.81C98.63,92.23,96.88,96.26,93.31,96.26Z"/><path d="M103.41,78.1c0-.31-.27-.35-.45-.35a9,9,0,0,1-2,.13c-1.25,0-1.84-.13-2.19-.13a.47.47,0,0,0-.45.44c0,.76,1.43.23,1.79,1.57l5.68,16.94c.22.58.35.85.62.85s.31-.18.49-.58l2.69-7.42c0-.09,0-.22.18-.22s0,.09.08.22l2.37,7.15c.23.58.36.85.67.85s.41-.53.59-.89l6-16.5c.22-.58.35-1.16.94-1.16s.58.49.58,1.92v13c0,3.35-1.39,1.83-1.39,3.09,0,.17.27.35.54.35,1.16,0,1.7-.09,2.32-.09h3.67c1.34,0,1.56.18,2.5.18a1.23,1.23,0,0,0,1.3-.71l1-2.28a1.86,1.86,0,0,0,.18-.9c0-.31-.36-.35-.41-.35-.4,0-.67.62-1.07,1.16-.67.85-1.74,1.74-4.38,1.74-1.57,0-2.15-.45-2.15-1.56V87.85c0-.89.32-1.16,1.25-1.16H126c2.28,0,2,2.64,2.68,2.64.44,0,.62-.45.62-.85,0-.72-.35-1.88-.49-3.13a9.39,9.39,0,0,1-.13-1.39c0-.58-.23-.67-.58-.67-.72,0,.18,2.1-2,2.1h-1.66c-.84,0-1.25.23-1.25-.94V80.56c0-1.29.49-1.52,3-1.52,3,0,2.64,3,3.62,3,.49,0,.72-.49.54-1.16l-.81-2.86c-.22-.72-.49-.8-.71-.8-.67,0-.76.49-2.28.49-1.21,0-2.19.13-3.54.13-1.52,0-1-.09-3.8-.09-.71,0-2,0-2.28,0-.44,0-.49.18-.49.53,0,.76,1.61.14,1.61,1.21a6,6,0,0,1-.49,1.88L113.74,92c-.36.89-.45,1-.54,1s-.22-.18-.4-.67l-3.62-11.53a5.3,5.3,0,0,1-.31-1.34c0-1,1-.45,1-1.35,0-.31-.31-.35-.49-.35a8.71,8.71,0,0,1-2,.13c-1.34,0-2.1-.13-2.46-.13a.47.47,0,0,0-.45.44c0,.76,1.52.27,2,1.57l2.19,6.35a4.1,4.1,0,0,1,.36,1.25,5,5,0,0,1-.4,1.16L107,92.81q-.08.27-.27.27c-.09,0-.13-.36-.27-.76l-3.4-10.91a9.66,9.66,0,0,1-.35-2C102.7,78.42,103.41,78.6,103.41,78.1Z"/><path d="M80.16,77.52c-1.47,0-3,.14-3.26.14a21.77,21.77,0,0,1-2.55-.14.51.51,0,0,0-.58.54c0,1,1.83-.13,1.83,2.37V94.51c0,1.92-1.61,1.61-1.61,2.33,0,.44.67.53.81.53s1.34-.09,2.19-.09h2.28c.31,0,.62-.09.62-.49,0-.94-2.14-.27-2.14-1.79V79.85c0-1.25.76-1.25,1.65-1.25,2.95,0,3.4,3.3,3.4,4.42,0,2.19-.85,4.16-3.44,4.16-.9,0-1.43.09-1.43.45s.71.8,1.16.8c4.2,0,5.77-2.72,5.77-5.9A4.67,4.67,0,0,0,80.16,77.52Z"/><path d="M67.73,95.63c0,.4.23.58.67,1.16s.59.85.94.85.45-.27.94-1c.54-.58.67-.67.67-.85s-.22-.49-.8-1-.54-.85-.76-.85-.32.26-.94.94S67.73,95.45,67.73,95.63Z"/><path d="M54,96.84c0,.27.45.44.81.44.58,0,1.56-.17,2.23-.17s1.48.17,3.13.17c4.3,0,8.94-2.19,8.94-10.19,0-5.59-2.95-9.34-8.85-9.34-1,0-2.32.13-3.44.13s-1.39-.13-2.37-.13a.45.45,0,0,0-.45.44c0,1,1.79.14,1.79,3V93.8C55.75,97,54,95.81,54,96.84Zm4-15.43c0-2.1.54-2.59,2-2.59,5.5,0,6.89,5.72,6.89,8.58,0,5.68-1.79,8.63-6.53,8.63-.8,0-2.37.09-2.37-1.74Z"/><path d="M52.13,94.74c-.67-.67-.58-.85-.8-.85s-.32.26-.94.94-.72.62-.72.8c0,.4.27.58.72,1.16s.53.85.89.85.45-.27,1-1c.54-.58.68-.67.68-.85S52.67,95.27,52.13,94.74Z"/><path d="M114.37,105.91c-.05,0-.18,0-.18.14s.13.09.22.09.45,0,.72,0,.44,0,.58,0,.35,0,.35-.09,0-.14-.13-.14-.31-.13-.31-.53v-2.73a1,1,0,0,1,.09-.49c0-.09.22-.09.22-.18s-.09-.09-.18-.09-.45,0-.62,0-.5,0-.72,0-.36,0-.36.09,0,.13.14.18.44.09.44.49v2.73C114.63,105.6,114.59,105.82,114.37,105.91Z"/><path d="M129.79,102.38c.54,0,.72.05.8.49,0,0,0,.09.14.09s.18,0,.18-.09v-.13l0-.63c0-.18,0-.22-.13-.22-.63,0-1.25,0-1.88,0s-1.12,0-1.7,0c-.13,0-.18,0-.18.13l0,.63v.22s.18.09.27.09a.1.1,0,0,0,.09-.09c.09-.49.17-.53.71-.49.31,0,.45,0,.45.22v2.73c0,.49-.18.49-.36.58s-.18,0-.18.14.09.09.14.09c.35,0,.49,0,.8,0s.49,0,.85,0c.05,0,.13,0,.13-.09s-.08-.09-.17-.14-.32-.09-.32-.58V102.6C129.34,102.43,129.48,102.34,129.79,102.38Z"/><path d="M141.91,105.78c-.54,0-.76-.31-1-.81,0-.09-.09-.22-.18-.22s-.26,0-.26.09V105l.17.89c0,.09.14.09.23.09a3.4,3.4,0,0,0,1,.23,1.27,1.27,0,0,0,1.29-1.39c0-1.65-1.92-1-1.92-2.06a.47.47,0,0,1,.54-.53,1,1,0,0,1,.94.71c0,.18.09.23.17.23s.14-.09.14-.18,0-.49,0-.85a.19.19,0,0,0-.17-.18l-.18,0c-.18,0-.36-.22-.85-.22a1.36,1.36,0,0,0-1.3,1.21c0,1.7,2,1.16,2,2.1C142.49,105.6,142.26,105.78,141.91,105.78Z"/><path d="M122.37,106c-.09,0-.14,0-.14.13s0,0,.09,0c.32,0,.58,0,.85,0s.45,0,.76,0c.09,0,.14,0,.14-.09s0-.18-.23-.27a1,1,0,0,1-.4-.58L122,102a.57.57,0,0,0-.18-.18s-.13,0-.18.22l-1.52,3.58c0,.13-.18.18-.27.27a.19.19,0,0,0-.13.18s0,.09.13.09.41,0,.59,0,.31,0,.49,0,.13,0,.13-.09a.27.27,0,0,0-.18-.27c-.13,0-.13-.18-.13-.27l.22-.63s.09-.13.23-.13h.62c.31,0,.4,0,.49.09a1.94,1.94,0,0,1,.32.76A.4.4,0,0,1,122.37,106Zm-.54-1.52h-.36c-.17,0-.22-.09-.22-.14a.77.77,0,0,1,.09-.13l.18-.63a1.51,1.51,0,0,0,.13-.22s0,.09.14.18l.22.62a.62.62,0,0,1,.09.23C122.1,104.44,122.06,104.44,121.83,104.44Z"/><path d="M109,102.25c.54,0,.67.27,1,.94a.47.47,0,0,0,.27.22s.09-.13.09-.18,0-.22,0-.31l0-.67s0-.27-.14-.27-.09.18-.27.18-.35-.36-1-.36a2.1,2.1,0,0,0-2.1,2.37,2,2,0,0,0,2,2.06c1.21,0,1.61-.72,1.61-.9s-.09-.22-.13-.22-.18.18-.23.22c-.31.31-.49.31-1,.31-.76,0-1.3-.8-1.3-1.74S108.28,102.25,109,102.25Z"/><path d="M134.26,105.87c-.13,0-.18.09-.18.18s0,.09.23.09c.4,0,.8,0,1.16,0s.76,0,1.16,0a.66.66,0,0,0,.58-.54,1,1,0,0,0,.09-.49s-.09-.09-.13-.09c-.27,0-.23.18-.45.36s-.31.35-.89.35c-.32,0-.41,0-.41-.44v-1c0-.14.05-.22.32-.22s.44,0,.62.26,0,.27.09.27.14-.09.14-.13v-1.12s0-.13-.09-.13-.09,0-.09.13a.7.7,0,0,1-.67.4c-.18,0-.32,0-.32-.13v-1c0-.22.05-.31.18-.31h.32c.71,0,.67.09.84.45.05,0,.09.22.14.22s.22-.09.22-.13,0-.27,0-.4,0-.27,0-.45-.22-.09-.31-.09c-.45,0-.89,0-1.34,0s-.9,0-1.34,0c-.09,0-.23,0-.23.09s.18.18.32.18.31.49.31.8v2.33C134.53,105.6,134.44,105.78,134.26,105.87Z"/><path d="M88.93,105.78c-.59,0-.81-.31-1-.81-.09-.09-.09-.22-.18-.22s-.26,0-.26.09V105l.17.89c0,.09.09.09.18.09a4.15,4.15,0,0,0,1.08.23,1.27,1.27,0,0,0,1.29-1.39c0-1.65-1.92-1-1.92-2.06a.47.47,0,0,1,.54-.53,1,1,0,0,1,.94.71c0,.18.09.23.13.23a.17.17,0,0,0,.18-.18c0-.05,0-.49,0-.85,0-.09-.13-.18-.17-.18a1.09,1.09,0,0,1-.23,0,2.24,2.24,0,0,0-.85-.22A1.35,1.35,0,0,0,87.54,103c0,1.7,2,1.16,2,2.1C89.51,105.6,89.24,105.78,88.93,105.78Z"/><path d="M99.75,104.17a2,2,0,0,0,2.14,2.06A2,2,0,0,0,104,104a2.23,2.23,0,0,0-2.1-2.19A2.17,2.17,0,0,0,99.75,104.17Zm3.3.13c0,.85-.44,1.52-1.16,1.52s-1.16-1.25-1.16-2,.49-1.48.94-1.48C102.61,102.29,103.05,103.45,103.05,104.3Z"/><path d="M55.93,106c-.09,0-.13,0-.13.13a.17.17,0,0,0,.13,0c.27,0,.54,0,.81,0s.49,0,.8,0c.09,0,.13,0,.13-.09s0-.18-.22-.27-.27-.31-.4-.58L55.62,102c0-.09-.14-.18-.18-.18a.43.43,0,0,0-.22.22L53.7,105.6c0,.13-.18.18-.27.27s-.14.09-.14.18.09.09.14.09.44,0,.58,0,.31,0,.53,0,.18,0,.18-.09a.32.32,0,0,0-.26-.27.15.15,0,0,1-.05-.27l.18-.63s.13-.13.18-.13h.71c.27,0,.36,0,.45.09a1.9,1.9,0,0,1,.27.76A.4.4,0,0,1,55.93,106Zm-.49-1.52H55c-.14,0-.14-.09-.14-.14a.19.19,0,0,1,.05-.13l.22-.63s0-.22.09-.22,0,.09.13.18l.23.62a.88.88,0,0,1,.09.23C55.71,104.44,55.66,104.44,55.44,104.44Z"/><path d="M64.74,102.2a.2.2,0,0,0,.13-.22s0,0-.13,0h-.49c-.18,0-.41,0-.58,0s-.23,0-.23.09.23.18.31.27a1.29,1.29,0,0,1,.18.76v1.43s0,.13-.09.13a.83.83,0,0,0-.17-.13L61.52,102a.25.25,0,0,0-.22-.09c-.18,0-.23,0-.36,0s-.4,0-.54,0-.09,0-.09.09.09.09.27.22.31.45.31.67v2.33a.67.67,0,0,1-.27.67c-.13,0-.17.09-.17.18s0,0,.13,0h.49c.18,0,.4,0,.63,0s.22,0,.22-.09,0-.09-.13-.18a.54.54,0,0,1-.36-.58v-1.88c0-.18,0-.22,0-.22a.77.77,0,0,1,.23.26l2.1,2.42a.82.82,0,0,0,.45.27s.22,0,.22-.36v-3C64.47,102.52,64.43,102.34,64.74,102.2Z"/><path d="M67.91,106c-.09,0-.22,0-.22.13s.09,0,.18,0,.36,0,.49,0,.63,0,1.25,0a2.19,2.19,0,0,0,2.28-2.24c0-1.43-.94-2-2.41-2-.27,0-.58,0-.85,0s-.58,0-.85,0-.23,0-.23.13.09.09.32.14.27.13.27.76v2.37C68.14,105.51,68.09,105.87,67.91,106ZM69,102.69c0-.31.09-.53.45-.53,1,0,1.47,1,1.47,2,0,.71-.44,1.65-1.29,1.65-.45,0-.63-.09-.63-.62Z"/><path d="M95.05,105.78c-.58,0-.8-.31-1-.81,0-.09-.09-.22-.18-.22s-.22,0-.22.09V105l.18.89c0,.09.09.09.18.09a3.4,3.4,0,0,0,1.07.23,1.27,1.27,0,0,0,1.3-1.39c0-1.65-2-1-2-2.06a.49.49,0,0,1,.54-.53,1,1,0,0,1,1,.71c0,.18,0,.23.18.23s.13-.09.13-.18,0-.49,0-.85A.19.19,0,0,0,96,102s-.13,0-.18,0c-.22,0-.4-.22-.89-.22a1.39,1.39,0,0,0-1.3,1.21c0,1.7,2,1.16,2,2.1C95.59,105.6,95.36,105.78,95.05,105.78Z"/><path d="M82.4,106c-.09,0-.14,0-.14.13s0,0,.09,0c.32,0,.58,0,.85,0s.49,0,.76,0,.18,0,.18-.09,0-.18-.27-.27-.26-.31-.35-.58L82.08,102a.58.58,0,0,0-.17-.18s-.14,0-.23.22l-1.52,3.58c0,.13-.18.18-.27.27a.19.19,0,0,0-.13.18s0,.09.13.09.41,0,.59,0,.31,0,.49,0,.18,0,.18-.09a.32.32,0,0,0-.23-.27.19.19,0,0,1-.09-.27l.23-.63a.2.2,0,0,1,.18-.13h.67c.26,0,.35,0,.44.09a1.94,1.94,0,0,1,.32.76A.4.4,0,0,1,82.4,106Zm-.49-1.52H81.5a.15.15,0,0,1-.17-.14.5.5,0,0,0,0-.13l.22-.63a.59.59,0,0,0,.09-.22c.09,0,.09.09.14.18l.26.62a.45.45,0,0,1,0,.23C82.13,104.44,82.08,104.44,81.91,104.44Z"/><path d="M147.85,103.72c0-.4-.22-.58-.71-.58h-.76v2h.31v-.89h.36l.53.89h.36l-.58-.89A.51.51,0,0,0,147.85,103.72Zm-1.16.32v-.68h.4c.23,0,.45,0,.45.32s-.22.36-.49.36Z"/><path d="M147.05,102.38a1.77,1.77,0,1,0,1.79,1.74A1.76,1.76,0,0,0,147.05,102.38Zm0,3.22a1.42,1.42,0,0,1-1.43-1.48,1.43,1.43,0,1,1,2.86,0A1.43,1.43,0,0,1,147.05,105.6Z"/><rect x="50.79" y="99.12" width="97.78" height="0.36"/><rect x="39.43" y="99.12" width="4.47" height="0.36"/><path d="M40.86,125.07H146.78c.26-.42.51-.84.75-1.25H40.11C40.35,124.23,40.6,124.65,40.86,125.07Z"/><path d="M43.6,129.18H144c.3-.42.59-.84.87-1.25H42.72Z"/><path d="M45.77,132.05c.32.41.66.82,1,1.24h94.1c.34-.42.68-.83,1-1.25H45.77Z"/><path d="M50.05,136.94h87.54c.4-.42.79-.83,1.17-1.25H48.87C49.25,136.11,49.65,136.52,50.05,136.94Z"/><path d="M54.56,141.2h78.51c.49-.41,1-.83,1.41-1.24H53.15C53.61,140.37,54.08,140.79,54.56,141.2Z"/><path d="M59.29,144.85h69.06c.59-.4,1.16-.82,1.72-1.24H57.57C58.13,144,58.7,144.45,59.29,144.85Z"/><path d="M65.27,148.51h57.1c.76-.41,1.5-.82,2.23-1.25H63C63.77,147.69,64.51,148.1,65.27,148.51Z"/><path d="M73.74,152.16h40.15c1.15-.39,2.26-.8,3.35-1.25H70.4C71.48,151.36,72.6,151.77,73.74,152.16Z"/></g></g></svg>