<svg xmlns="http://www.w3.org/2000/svg" viewBox="0 0 309.06 65.5"><title>livenation</title><g id="Layer_2" data-name="Layer 2"><g id="Layer_1-2" data-name="Layer 1"><path d="M21.67,18h9.75V38.89H45.14v8.33H21.67Z"/><path d="M58.39,18H69.32L75,34.43,80.65,18H91.41L79.57,47.43H70.23Z"/><path d="M91.7,18h24.88v8H101.29v3h14.25v7H101.29v3.17h15.5v8H91.7Z"/><path d="M128.34,18h9.13l10.38,12.88V18h9.67V47.22h-8.67L138,33.76V47.22h-9.67Z"/><path d="M169.79,17.84h9.67l12.29,29.38H181.17l-1.55-3.91H169.41l-1.5,3.91H157.49Zm7.42,18.55-2.67-7.09-2.67,7.09Z"/><path d="M193.77,26.3h-8.59V18h26.93V26.3h-8.59V47.22h-9.75Z"/><path d="M213.57,18h9.75V47.22h-9.75Z"/><path d="M225.27,32.72v-.09c0-8.46,7-15.21,16-15.21s15.88,6.67,15.88,15.13v.08c0,8.47-7,15.22-16,15.22S225.27,41.18,225.27,32.72Zm22,0v-.09c0-3.46-2.38-6.58-6.13-6.58s-6.05,3.08-6.05,6.5v.08c0,3.46,2.38,6.59,6.13,6.59S247.28,36.14,247.28,32.72Z"/><path d="M258.17,18h9.13l10.38,12.88V18h9.67V47.22h-8.67L267.84,33.76V47.22h-9.67Z"/><path d="M309.06,65.5H0V0H309.06ZM6.47,59H302.59V6.47H6.47Z"/><path d="M61.91,12.12l-.75-1.32c-.12-.22-.33-.05-.33-.05s-.64.48-1,.71a.64.64,0,0,0-.32.64c0,.14-.11,1-.11,1a.89.89,0,0,1-.2.46L53.61,17.9l-.69.16-1.73.84.1-1.18a1.92,1.92,0,0,0,.45.27,1.19,1.19,0,0,0,.42,0,1.37,1.37,0,0,1-.09-.36,2.86,2.86,0,0,1,0-.34,1.12,1.12,0,0,0,.46.16.66.66,0,0,0,.41-.12,1.85,1.85,0,0,0,.19-.18,3.59,3.59,0,0,1-.43-.31c-.08-.09-.19-.21-.11-.21s.4-.23.4-.23a2.28,2.28,0,0,1-.31-.21.89.89,0,0,1-.27-.39,2,2,0,0,1-.09-.29.42.42,0,0,0,.33.13.79.79,0,0,0,.37-.13,1.07,1.07,0,0,1-.25-.19,1,1,0,0,1-.24-.4c-.07-.23-.1-.34-.16-.52s0-.21-.11-.43a1.35,1.35,0,0,0-.29-.72,3.87,3.87,0,0,0-2.17-1.12c-.77-.16-1.54.85-1.85,1.85a9.65,9.65,0,0,0-.36,3.3.72.72,0,0,0,.3.49,4.83,4.83,0,0,0,.81.25l-.07,1.36-1.6.14-2.2-1.32-4.45-3.3a.57.57,0,0,1-.21-.46s-.11-.86-.11-1a.64.64,0,0,0-.32-.64l-1-.71s-.21-.17-.33.05l-.75,1.32L38,14.67a4.21,4.21,0,0,0,.33.49l.29.28,1.65,1.48h0L43,19.35l.78.75a.53.53,0,0,1,0,.24c0,.15,0,.61,0,.61a.3.3,0,0,0,.08.22c.09.09,1.54,1.27,1.54,1.27a.41.41,0,0,1,.1.3l.26,8.7a.14.14,0,0,0,.14.14l.46.17,1.06,9.51,2,6.29L46.3,49.12a.34.34,0,0,0-.17.2,2.33,2.33,0,0,0-.2.44.15.15,0,0,0,.1.15h4.83l-.46,1.25-.12.34s-.17.64.11.74a7.18,7.18,0,0,0,1.51.1,4.54,4.54,0,0,0,1.47-.23c.13-.13.19-.71-.5-4.57L52.45,32.7l1.24-9.31c.11-1,.25-1.15.25-1.15s1.31-1,1.44-1.09a.38.38,0,0,0,.1-.31v-1a.74.74,0,0,1,.08-.34l1.07-1,.32-.32,3.41-3.28.6-.68.29-.29a2.53,2.53,0,0,0,.32-.47l.34-.83a.72.72,0,0,0,0-.44"/></g></g></svg>