<svg xmlns="http://www.w3.org/2000/svg" viewBox="0 0 350.64 74.9"><title>microsoft</title><g id="Layer_2" data-name="Layer 2"><g id="Layer_1-2" data-name="Layer 1"><path d="M123.79,43.14l-2.09,5.92h-.18a40.1,40.1,0,0,0-2-5.8L108.29,15.1h-11V60h7.26V32.28c0-1.74,0-3.71-.06-6.15-.06-1.22-.17-2.15-.23-2.85h.17a27.17,27.17,0,0,0,1,3.83L119,59.86h5.11l13.35-33a34.65,34.65,0,0,0,.87-3.54h.18c-.18,3.31-.29,6.27-.35,8.07V59.8h7.72V15H135.28Zm29.38-15.5h7.55V59.8h-7.55ZM157,14.05a4.52,4.52,0,0,0-3.19,1.28,4.27,4.27,0,0,0,0,6.21A4.47,4.47,0,0,0,157,22.76a4.59,4.59,0,0,0,3.19-1.22,4.09,4.09,0,0,0,1.34-3.08,4.3,4.3,0,0,0-1.34-3.13A4.23,4.23,0,0,0,157,14.05m30.48,13.3a21,21,0,0,0-4.24-.47,18.21,18.21,0,0,0-9.17,2.27,15.23,15.23,0,0,0-6,6.21,19.79,19.79,0,0,0-2.09,9.29,17.25,17.25,0,0,0,2,8.3,14,14,0,0,0,5.69,5.75,16.71,16.71,0,0,0,8.31,2,18.16,18.16,0,0,0,9.11-2.15l.06,0v-7l-.29.23a13.09,13.09,0,0,1-3.66,1.92,11.24,11.24,0,0,1-3.6.69c-3,0-5.4-.87-7.08-2.78A10.73,10.73,0,0,1,173.9,44c0-3.31.87-5.92,2.67-7.84a9.34,9.34,0,0,1,7.08-2.9,12.32,12.32,0,0,1,7.2,2.44l.29.23V28.57l-.06-.06a17.13,17.13,0,0,0-3.6-1.16m24.91-.24a8,8,0,0,0-5.11,1.8,10.81,10.81,0,0,0-2.9,4.36h-.06V27.64h-7.55V59.8h7.55V43.37a11.06,11.06,0,0,1,1.86-6.79A5.82,5.82,0,0,1,211.06,34a18,18,0,0,1,2.26.29,6,6,0,0,1,1.8.75l.29.23V27.7l-.17-.06a5.74,5.74,0,0,0-2.85-.53m20.55-.17c-5.28,0-9.52,1.57-12.48,4.65S216,38.9,216,44.24c0,5,1.51,9.06,4.41,12s6.85,4.41,11.79,4.41c5.17,0,9.29-1.56,12.25-4.7s4.47-7.31,4.47-12.48-1.39-9.18-4.24-12.14-6.73-4.41-11.73-4.41m6,24.74c-1.39,1.8-3.6,2.67-6.33,2.67a7.93,7.93,0,0,1-6.5-2.79c-1.57-1.8-2.32-4.41-2.32-7.72s.81-6,2.32-7.9a8,8,0,0,1,6.45-2.79,7.72,7.72,0,0,1,6.27,2.67c1.51,1.8,2.32,4.42,2.32,7.84s-.76,6.22-2.21,8M265.75,41a18.25,18.25,0,0,1-4.59-2.38,3.29,3.29,0,0,1-.87-2.44,2.7,2.7,0,0,1,1.22-2.32,5.6,5.6,0,0,1,3.31-.87,15,15,0,0,1,3.89.58,10,10,0,0,1,3.37,1.57l.29.23V28.28l-.18-.06a20.72,20.72,0,0,0-3.42-1,23.52,23.52,0,0,0-3.72-.35,13.42,13.42,0,0,0-8.88,2.79,8.59,8.59,0,0,0-3.43,7.08,9.25,9.25,0,0,0,.76,4,8.85,8.85,0,0,0,2.32,3,20.48,20.48,0,0,0,4.65,2.61c1.74.76,3.07,1.34,3.89,1.8a8.08,8.08,0,0,1,1.74,1.4,3.28,3.28,0,0,1,.46,1.8c0,2.15-1.62,3.19-4.93,3.19a13,13,0,0,1-4.18-.75,16.4,16.4,0,0,1-4.24-2.15l-.29-.24v7.38l.17.06a22.39,22.39,0,0,0,4.07,1.27,25.88,25.88,0,0,0,4.35.53c3.89,0,7.08-.87,9.35-2.79a8.9,8.9,0,0,0,3.54-7.32A8.13,8.13,0,0,0,272.54,45a23.29,23.29,0,0,0-6.79-4m28.57-14c-5.29,0-9.53,1.57-12.49,4.65s-4.47,7.31-4.47,12.65c0,5,1.51,9.06,4.41,12s6.86,4.41,11.79,4.41c5.17,0,9.29-1.56,12.25-4.7s4.47-7.31,4.47-12.48-1.39-9.18-4.24-12.14-6.73-4.41-11.72-4.41m6,24.74A7.62,7.62,0,0,1,294,54.35a7.86,7.86,0,0,1-6.51-2.79c-1.56-1.8-2.32-4.41-2.32-7.72s.82-6,2.32-7.9a8,8,0,0,1,6.45-2.79,7.8,7.8,0,0,1,6.27,2.67c1.51,1.8,2.32,4.42,2.32,7.84s-.75,6.22-2.2,8m50.34-17.83V27.64H343V18.12l-.23.05-7.2,2.15-.18.06v7.26H324V23.57a6.4,6.4,0,0,1,1.28-4.24,4.53,4.53,0,0,1,3.54-1.39,8.35,8.35,0,0,1,3.37.76l.29.17V12.31l-.17-.06a14.55,14.55,0,0,0-10.28.81A10.06,10.06,0,0,0,318,17.19a11.83,11.83,0,0,0-1.51,6v4.47h-5.29v6.15h5.29v26H324V33.85h11.38V50.4c0,6.79,3.2,10.22,9.58,10.22a20.47,20.47,0,0,0,3.2-.35,10.05,10.05,0,0,0,2.38-.76l.06,0V53.24l-.29.24a4.86,4.86,0,0,1-1.57.69,5.09,5.09,0,0,1-1.51.23A4,4,0,0,1,344,53.18c-.7-.81-1-2.14-1-4.12V33.85Z"/><path d="M0,0H35.59V35.59H0Z"/><path d="M39.31,0H74.9V35.59H39.31Z"/><path d="M0,39.31H35.59V74.9H0Z"/><path d="M39.31,39.31H74.9V74.9H39.31Z"/></g></g></svg>