<svg xmlns="http://www.w3.org/2000/svg" viewBox="0 0 315 46.54"><title>morgan</title><g id="Layer_2" data-name="Layer 2"><g id="Layer_1-2" data-name="Layer 1"><g id="layer1"><path id="path813" d="M258.45,0V32.32a3.6,3.6,0,0,0,1.7,3.12,7.36,7.36,0,0,0,4.1.93,13.33,13.33,0,0,0,2.68-.39V33.09c-.46,0-.86,0-1.31,0-2.72,0-3.12-1.06-3.12-2.24V0ZM173,.33A11.67,11.67,0,0,0,165.21,3a8.6,8.6,0,0,0-3,6.51,7.73,7.73,0,0,0,3.44,6.61,29.09,29.09,0,0,0,7.39,3.39c4.54,1.62,8.8,3.1,8.8,7.22a5.91,5.91,0,0,1-1.8,4.49A8.09,8.09,0,0,1,174.45,33c-4.32,0-7.47-2.4-9.24-7.06l-3.88,1a19.16,19.16,0,0,0,4.32,6.45,12.23,12.23,0,0,0,8.58,3c4.17,0,7.34-1.07,9.41-3.22a10.19,10.19,0,0,0,2.63-7.11,8,8,0,0,0-3.67-6.84A30.14,30.14,0,0,0,175,15.8c-4.39-1.5-8.58-2.92-8.53-6.61a5.07,5.07,0,0,1,1.69-4,7,7,0,0,1,4.71-1.43,8.69,8.69,0,0,1,5.47,1.75,8.16,8.16,0,0,1,2.73,4.38l3.77-.49C183.19,3.76,179.14.33,173,.33ZM0,.82V35.93H4.05V3.83l.11.11,9.62,32H16.9l9.68-32,.05-.11v32.1h4.05V.82H24L15.37,29v.11L15.31,29,6.73.82Zm192.66.71V10h-3.88v3.23h3.88V32.32a3.53,3.53,0,0,0,1.59,3.12,7.34,7.34,0,0,0,4.1.93,14.14,14.14,0,0,0,2.74-.39V33.09c-.45,0-.92,0-1.37,0-2.72,0-3-1.06-3-2.24V13.18h4.38V10h-4.38V1.53ZM47.09,9.46a10.23,10.23,0,0,0-8.32,3.94,15.46,15.46,0,0,0-2.89,9.51,15.49,15.49,0,0,0,2.89,9.52,10.23,10.23,0,0,0,8.32,3.94,10.18,10.18,0,0,0,8.31-3.94,15.49,15.49,0,0,0,2.9-9.52,15.46,15.46,0,0,0-2.9-9.51A10.18,10.18,0,0,0,47.09,9.46Zm233.46.06a11.44,11.44,0,0,0-4.71.93,9.14,9.14,0,0,0-3.44,2.67c-1.84,2.3-2.9,5.72-2.9,9.85,0,4.6,1.32,8.11,3.72,10.44a11.23,11.23,0,0,0,8,3c5.81,0,8.66-3.14,9.85-6l-3.23-1.58a7,7,0,0,1-6.62,4.43,6.72,6.72,0,0,1-5.52-2.68,11,11,0,0,1-2-6.79h17.72V21.27c0-4.25-1.14-7.42-3.23-9.35C286.37,10.28,283.86,9.52,280.55,9.52Zm-192,.05C84,9.57,77.49,12.64,77.49,23c0,10,6.46,13.4,10.83,13.4a8.33,8.33,0,0,0,6.45-3.45l.22-.11v4.92c0,3.46-3,5.58-6.18,5.58a19.09,19.09,0,0,1-8.09-1.64v3.5a21.52,21.52,0,0,0,7.6,1.31c7.18,0,10.61-3.95,10.61-9.68V10.06h-3l-.87,2.74A7.64,7.64,0,0,0,88.54,9.57Zm26.14,0a10.4,10.4,0,0,0-9.63,5.58l3.23,1.69c.45-1.22,2.08-4,6.45-4,3.45,0,5.2,1.52,5.2,4.54v.93s0,.28-.05.38-.5.29-1.37.38c-4.83.54-8,1.33-10.39,2.85A8.15,8.15,0,0,0,104,29a7.64,7.64,0,0,0,7.66,7.5c4.26.13,7.06-1.64,8.42-3.72a3.06,3.06,0,0,0,1.75,2.84,6,6,0,0,0,3.55.28V33.14a1.38,1.38,0,0,1-1.47-1.59V17.39a7.11,7.11,0,0,0-3-6.07A10.89,10.89,0,0,0,114.68,9.57Zm27.84,0c-2.64,0-5.33,1.36-7.61,3.94V10.06h-4V36h4V16.73c1.38-1.47,4.47-3.93,7.28-3.93s4,1.38,4,4.48V36h4.05V17.17C150.28,11.57,146.3,9.57,142.52,9.57Zm73.22,0a10.39,10.39,0,0,0-9.62,5.58l3.22,1.69c.46-1.22,2.09-4,6.46-4,3.44,0,5.19,1.52,5.19,4.54v.93a1,1,0,0,1-.11.38c-.12.16-.43.29-1.31.38-4.82.54-8,1.33-10.39,2.85A8.15,8.15,0,0,0,205,29a7.64,7.64,0,0,0,7.66,7.5c4.26.13,7.06-1.64,8.42-3.72a3.08,3.08,0,0,0,1.75,2.84,6,6,0,0,0,3.56.28V33.14a1.39,1.39,0,0,1-1.48-1.59V17.39a7.15,7.15,0,0,0-3-6.07A10.75,10.75,0,0,0,215.74,9.57Zm27.84,0c-2.64,0-5.33,1.36-7.6,3.94V10.06h-4V36h4V16.73c1.38-1.47,4.46-3.93,7.27-3.93s4.05,1.38,4.05,4.48V36h4V17.17C251.34,11.57,247.36,9.57,243.58,9.57ZM76,9.68c-4.1,0-6.54,1.59-8.64,5.36v-5h-4V35.93h4V21.27c1-5.32,3.82-7.82,8.64-7.82ZM294.11,10l9,25.7v.22c-.54,2.46-2.1,5.5-3.5,6.45a6.15,6.15,0,0,1-3.61.93,12.63,12.63,0,0,1-2-.27v3.12a14.75,14.75,0,0,0,2.68.38,8.09,8.09,0,0,0,4.93-1.48c1.63-1.19,3.45-4.29,4.32-6.94L315,10h-3.94l-5.9,19.9-.06.44-.11-.44L298.05,10Zm-247,2.68c4.35,0,6.94,3.82,6.94,10.22s-2.59,10.23-6.94,10.23-7-3.82-7-10.23S42.74,12.69,47.09,12.69Zm41.72.05c2.29,0,4.29,1,6.18,3.34V28.44a7.15,7.15,0,0,1-6.18,4.7c-4.17,0-7-2.6-7-10.39C81.76,16.2,84.34,12.74,88.81,12.74Zm191.85,0c4.63,0,6.71,2.45,6.72,7.77H273.77C274.12,15.2,276.34,12.74,280.66,12.74ZM120,21.88v6.56c-.19,2.26-4.42,5-7.88,4.81a4.29,4.29,0,0,1-3.93-4.16c-.32-4.2,2.84-5.95,9.89-6.72A6,6,0,0,0,120,21.88Zm101.06,0v6.56c-.19,2.26-4.42,5-7.87,4.81a4.3,4.3,0,0,1-3.94-4.16c-.32-4.2,2.84-5.95,9.9-6.72A6.05,6.05,0,0,0,221.1,21.88Z"/></g></g></g></svg>