<svg xmlns="http://www.w3.org/2000/svg" viewBox="0 0 137.81 115.77"><title>nasa</title><g id="Layer_2" data-name="Layer 2"><g id="Layer_1-2" data-name="Layer 1"><path d="M60.3,115.77c-2.86-.45-5.75-.76-8.57-1.37a57,57,0,0,1-26-13.18c-.24-.21-.49-.4-.86-.71l-9.15,8.15a2.34,2.34,0,0,1,.72-2.52c2.38-2.23,4.7-4.51,7.14-6.88A58.77,58.77,0,0,1,7.75,71.89c-1.91,1-3.74,1.94-5.5,3A1.71,1.71,0,0,1,0,74.69c2.14-1.24,4.18-2.5,6.3-3.62a1.43,1.43,0,0,0,.88-1.86A58,58,0,0,1,54.33.8c1.9-.33,3.82-.53,5.72-.8h7.74c2.5.38,5,.64,7.5,1.16,15.91,3.38,28.28,12,37.29,25.46l.7,1C122.6,22,131.06,15.47,137.81,6.79c-.4,1.06-.77,2.15-1.22,3.2-3.5,8.22-9,15-15.3,21.21-1.06,1.05-2.13,2.1-3.27,3.05a1.4,1.4,0,0,0-.46,1.93,54.53,54.53,0,0,1,4.16,25.16c-1.47,19.4-10.52,34.44-26.65,45.19a55.33,55.33,0,0,1-26.34,9,11.65,11.65,0,0,0-1.18.21ZM116,36.29c-4.53,3.48-8.93,7-13.48,10.31S93.35,53,88.66,56.27L87.29,54c2.6-1.76,5.11-3.44,7.58-5.16.33-.23.47-.73.61-1a13.65,13.65,0,0,0,2.37-1.11c3.6-2.58,7.16-5.21,10.71-7.85,1.26-.94,2.46-2,3.68-2.93l-.16-.25A116.16,116.16,0,0,1,88.4,48a4.17,4.17,0,0,0-.14-.81c-.27-.66-.42-1.66-.9-1.87s-1.35.28-2,.52c-.41.14-.79.53-1.17.52a4.41,4.41,0,0,1-4.23-3c5.45-2.29,10.92-4.45,16.26-6.89s10.59-5.21,15.9-7.85C98.3,5.5,67.14-6.72,39,7.28,11.29,21.09,3.75,50.68,8.86,69.63l8-3.74c-1.94,3-4.71,4.43-7.84,5.41A57,57,0,0,0,24.69,98.37,302.56,302.56,0,0,1,56.35,74.22L48.43,63.87c-1.22,1.71-.82,3.14.84,4.5H42.51a9.11,9.11,0,0,1,.83-.91,6.06,6.06,0,0,0,2-3.45c1.06-3.88,2.14-7.76,3.37-11.59.57-1.78.87-3.3-1-4.48,0,0,0-.14-.06-.3.35,0,.7-.06,1-.06,2.58,0,5.15,0,7.73,0a1.41,1.41,0,0,1,1.56,1.1c2.12,5.44,4.26,10.87,6.47,16.27a16.51,16.51,0,0,0,1.77,2.71L84.28,56c.54,1.1,1,2.08,1.5,3.08a25.5,25.5,0,0,1,1.63,3.86c.68,2.47-.14,4-2.47,5.06a13,13,0,0,1-8.16.84C74.87,68.39,73,67.67,71.46,70l-.36-2.4L59.39,75.2c.49.43.83.76,1.2,1,1.57,1.25,3.18,2.47,4.73,3.76.62.51,1.2,1.21.57,2.08a1.58,1.58,0,0,1-2.37.26,18.64,18.64,0,0,1-2.82-2.43c-1-1.1-1.94-2.35-3-3.6A356.06,356.06,0,0,0,26.12,99.54c16.38,15.66,45.42,21.36,69.34,5.09C120.14,87.84,125.64,57.94,116,36.29ZM50,63.78l7.63,9.56,6.89-4.6-.07-.3H54.41l-.2-.41L56,66.48c.81-.7.08-1.34-.15-1.94a1.4,1.4,0,0,0-1-.73C53.41,63.73,51.92,63.78,50,63.78Zm1.49-10.32-.3,0-2,6.91h5Zm23,11.9c2.47.56,4.54,1.17,6.63.16.77-.38,1.36-.94,1-1.92s-2.05-1.78-2.68-1.41C77.93,63.13,76.4,64.16,74.55,65.36Z"/><path d="M114.88,68.4H102.06a16,16,0,0,1,1.66-1.65c.91-.7.38-1.39.17-2.14s-.69-.85-1.36-.84c-1.73,0-3.47,0-5.2,0-.42,0-1.13.17-1.2.41a6.92,6.92,0,0,0-.26,2.59c.07.5.69.93,1.23,1.61H93c.16.6.26,1,.38,1.4a35.56,35.56,0,0,1,1.89,11.51,18.56,18.56,0,0,1-.91,5,6.28,6.28,0,0,1-5.12,4.28,12.75,12.75,0,0,1-6.64-.6c1,.11,2,.25,3,.32,4.93.37,8.22-2.34,8.79-7.25s-.67-9.43-2.27-13.94c-.14-.39-.88-.58-1.39-.89,1.2-.88.36-1.93-.09-3a77.55,77.55,0,0,0-8.05-14.15c-1-1.41-4.53-1.08-5.23.49a1.29,1.29,0,0,0,.82,1.85c1.42.63,2.86,1.24,4.51,2-2.49,1.62-4.8,3.12-7.13,4.6a.87.87,0,0,1-.67,0,5.88,5.88,0,0,1-2.8-9.13,8.87,8.87,0,0,1,5.76-3.45c.51-.09,1-.16,1.57-.24,0-.16,0-.3-.08-.38C72.91,38.82,65.92,31.5,57.22,26a28.11,28.11,0,0,0-10.67-4.35c-5.78-.89-9.45,2-10,7.81A26.06,26.06,0,0,0,38.25,41c1.55,4.22,3.45,8.32,5.2,12.46.14.33.31.64.47,1l-.17.34c-.38-.14-1-.16-1.1-.42-4-7-7-14.32-7.33-22.51a18.79,18.79,0,0,1,.31-4c1-5.68,4.83-8.38,10.52-7.45,4.8.78,9,3,13,5.61,8.23,5.36,14.93,12.34,20.9,20.07a2.65,2.65,0,0,0,2.16,1.27,2.94,2.94,0,0,1,1.06.21,2.24,2.24,0,0,0,2.64-.49,6.66,6.66,0,0,1,.93-.56v6l-2.91-1.62L92.46,66.2a8.23,8.23,0,0,0,.47-1.08c1.13-3.86,2.22-7.74,3.4-11.59A3.36,3.36,0,0,1,97.46,52c1.77-1.33,3.61-2.57,5.42-3.84,1.54-1.08,2.53-.8,3.21.9,1.58,4,3.13,8,4.78,12,1.06,2.56,1.53,5.48,4.26,7.12Zm-12.67-7.94c-1-2.49-1.89-4.78-2.93-7.41-.77,2.66-1.44,5-2.15,7.41Z"/><path d="M21.43,55.46c0,3.33,0,6.67,0,10,0,.52.49,1.05.81,1.53s.65.81,1.1,1.36h-7a3.67,3.67,0,0,1,.56-.72c1.4-1,1.66-2.34,1.62-4-.12-4-.09-8.06,0-12.09a3.37,3.37,0,0,0-1.28-3.15,7.72,7.72,0,0,1-.75-.84c1.79,0,3.33,0,4.87,0s3.07-.42,4.15.19,1.59,2.24,2.32,3.45c1.78,3,3.55,5.93,5.47,9.14.06-.53.12-.81.13-1.09,0-2.62-.06-5.24,0-7.86a3.13,3.13,0,0,0-1.22-2.93,6.6,6.6,0,0,1-.73-.82h6.49c0,.09,0,.21,0,.23-1.72,1.18-1.79,2.9-1.75,4.78.1,3.86.09,7.73,0,11.6a3.31,3.31,0,0,0,1.28,3,11,11,0,0,1,1.09,1.16,51.76,51.76,0,0,0-6,.05c-2.4.29-3.77-.57-4.86-2.74-1.63-3.23-3.63-6.27-5.48-9.39-.2-.34-.42-.67-.63-1Z"/><path d="M76.76,45.86a46.44,46.44,0,0,0-4.28,2.54,7.55,7.55,0,0,0-3,5.08,1.27,1.27,0,0,1-.56.88c-2.19.66-4.4,1.25-6.74,1.89l-2.34-5.89c.49-.19.92-.37,1.36-.52,4.44-1.55,8.9-3.06,13.32-4.68C75.66,44.75,76.35,44.83,76.76,45.86Z"/><path d="M46.89,54.82c-.54,1.83-1,3.52-1.53,5.18a1.11,1.11,0,0,1-.68.57c-2.36.6-4.73,1.17-7.3,1.8,0-1.39,0-2.66,0-3.92,0-.26.46-.62.77-.72,1.82-.58,3.66-1.06,5.47-1.64C44.67,55.77,45.64,55.31,46.89,54.82Z"/><path d="M26.33,65.3c-1,.31-1.86.6-2.72.8-.25.06-.78-.08-.8-.2-.13-.73-.44-1.66-.13-2.17s1.28-.7,2-.9c.13,0,.46.48.65.77C25.64,64.1,25.93,64.63,26.33,65.3Z"/><path d="M108.22,76l-1,.94-.9-1.11.84-1Z"/><path d="M49.2,27.93l.9,1.16L49.05,30.2l-1-1.15Z"/><path d="M102.59,87.39l.93,1.08-1.19.92-.86-.94Z"/><path d="M43.29,98.74l1.16,1.09-1.19.94-1-1Z"/><path d="M76.67,11.84l-1.24,1-1-1,1.11-1.17Z"/></g></g></svg>