<svg xmlns="http://www.w3.org/2000/svg" viewBox="0 0 142.01 142.77"><title>nbc</title><g id="Layer_2" data-name="Layer 2"><g id="Layer_1-2" data-name="Layer 1"><g id="g4"><path id="path3127" d="M69,119.83h9A6.21,6.21,0,0,1,83.7,126a6.49,6.49,0,0,1-5.85,6.45H69V119.83M68.88,100h7.38a5.61,5.61,0,0,1,5.5,5.46,5.86,5.86,0,0,1-5.17,6.06H68.88V100M58.8,91.74v49H82.57c5.64,0,12.34-5.66,12.34-13a14,14,0,0,0-8.23-13.05,12.26,12.26,0,0,0,5.58-10.71C92,94.07,82.9,91.74,79.78,91.74h-21"/><polygon id="polygon3129" points="22.34 140.72 22.34 112.51 53.15 142.58 53.15 91.73 42.8 91.73 42.8 119.23 11.98 89.74 11.98 140.72 22.34 140.72"/><path id="path3131" d="M96.58,115.7c.26,15.49,11.39,27.07,25.7,27.07a29.37,29.37,0,0,0,10.61-2.05v-10a17.74,17.74,0,0,1-9.27,2.62c-8.66,0-16.83-6.41-16.49-18.06a16.86,16.86,0,0,1,16.67-16,16.38,16.38,0,0,1,9.09,2.8V92.41a26.31,26.31,0,0,0-10-2c-14.27,0-26.05,12-26.32,25.28"/></g><path d="M.71,61.31C-2.46,72.54,5.45,81.77,15.52,81.77H63.83L24,54C14.79,48,4.44,51.5.71,61.31Z"/><path d="M53.17.2C46.28.34,35.93,8.55,40.53,21.09L61.81,71.25l7.47-52.76C71,5.37,61.09-.68,53.17.2Z"/><path d="M19.25,47.62l42.42,29.1L41.1,29.6C36.79,18.48,25,16.05,16.66,23.11,10.76,28.45,8.61,40.54,19.25,47.62Z"/><path d="M80.8,76.58l42.41-29.26c9.77-6.93,8.2-18,2.72-23.49a15.16,15.16,0,0,0-11-4.57c-5.28,0-10.92,2.79-14.19,10.77Z"/><path d="M101.63,21C106,9.72,96.88.34,88.84.05c-.38,0-.76,0-1.15,0C80.47,0,72.2,5.25,72.6,16.47h4s2.15,0,2.44,1c-1.58,1.29-5.89,1.45-5.32,8.36l6.77,45.4Z"/><path d="M127.09,51.19A15.56,15.56,0,0,0,118.46,54L78.63,81.77h49c10.06,0,16.52-10.38,13.65-19.9A15.31,15.31,0,0,0,127.09,51.19Z"/></g></g></svg>