<svg xmlns="http://www.w3.org/2000/svg" viewBox="0 0 139.02 40.8"><g id="Layer_2" data-name="Layer 2"><g id="Layer_1-2" data-name="Layer 1"><path d="M24.12,9.81l2.94-5.13A3.16,3.16,0,0,0,25.92.41a3.16,3.16,0,0,0-4.27,1.14L18.7,6.68A14.43,14.43,0,0,0,.8,25.2l5.46-9.45h0A9.26,9.26,0,0,1,12,11.38a9.17,9.17,0,0,1,7.12.95,9.38,9.38,0,0,1-9.4,16.24l3.14-5.46a3.13,3.13,0,1,0-1.14-4.28L1.7,36.12a3.13,3.13,0,0,0,5.42,3.13l2.94-5.13A14.39,14.39,0,0,0,24.12,9.81Z"/><path d="M37.36,13.52h4.85c2.8,0,5.12,1.37,5.12,4.6S45,22.78,42.21,22.78h-2v4.51H37.36Zm4.75,6.74c1.38,0,2.28-.62,2.28-2.14S43.44,16,42.11,16h-2v4.27Z"/><path d="M51.46,13.52h9.12V16H54.31v3.18h5.51v2.43H54.31v3.18h6.56v2.47H51.46Z"/><path d="M65.61,13.52h2.85v11.3h6.22v2.47H65.61Z"/><path d="M77.86,20.4A7.13,7.13,0,1,1,85,27.48,7,7,0,0,1,77.86,20.4Zm11.35,0a4.24,4.24,0,1,0-8.45,0,4.24,4.24,0,1,0,8.45,0Z"/><path d="M99.09,16H95.15V13.47h10.73V16h-3.94v11.3H99.09Z"/><path d="M108.92,20.4A7.12,7.12,0,1,1,116,27.48,7,7,0,0,1,108.92,20.4Zm11.3,0a4.24,4.24,0,1,0-8.45,0,4.24,4.24,0,1,0,8.45,0Z"/><path d="M131.8,20.88c-.66-.67-1.66-1.9-1.66-1.9s.19,1.52.19,2.51v5.8h-2.61V13.37H128l6.94,6.56a17.59,17.59,0,0,1,1.61,1.9s-.19-1.57-.19-2.52V13.52H139V27.43h-.28Z"/></g></g></svg>