<svg xmlns="http://www.w3.org/2000/svg" viewBox="0 0 377.11 58.1"><g id="Layer_2" data-name="Layer 2"><g id="Layer_1-2" data-name="Layer 1"><path d="M0,29C-.53,13.24,13.25-.19,29.15,0a29.05,29.05,0,1,1-.43,58.1C13.34,58.06-.5,45.06,0,29ZM50.39,35l-.15-.41a28.82,28.82,0,0,1-2.89.35c-4.84.06-9.67.07-14.51.11-2.67,0-5.35.13-8,.1a8.22,8.22,0,0,1-2.92-.49c-.79-.31-1.18-.2-1.55.47-1.26,2.27-2.66,4.47-3.73,6.82a27.4,27.4,0,0,0-1.94,6,3.57,3.57,0,0,0,4.19,4.38,9.88,9.88,0,0,0,3.52-1.07c8.77-5,17.5-10.06,26.24-15.11C49.23,35.75,49.8,35.34,50.39,35ZM23.27,7.58l-.19.24c.19.27.36.56.55.83.74,1,1.59,2,2.23,3.1Q31.2,20.83,36.43,30a4.87,4.87,0,0,1,.86,2.18c0,1.2.6,1.43,1.54,1.41,2.52,0,5,0,7.54-.21a14.9,14.9,0,0,0,6.56-1.63,3.24,3.24,0,0,0,1.93-3.39,5.76,5.76,0,0,0-2.68-4.07c-1.86-1.3-3.83-2.45-5.8-3.58Q35.36,14.3,24.3,8A7.57,7.57,0,0,0,23.27,7.58ZM13.15,44.68l.28,0c.19-.37.4-.74.58-1.12.61-1.3,1.13-2.65,1.83-3.89q4.65-8.23,9.41-16.42C26,22,26.48,20.56,28,19.9c.14-.06.2-.73.06-1-1.62-2.75-3.19-5.54-5-8.18a15.9,15.9,0,0,0-3.42-3.48C17.31,5.47,15.14,6,13.93,8.74a9.92,9.92,0,0,0-1,3.9c-.07,10.24,0,20.48,0,30.72A7.58,7.58,0,0,0,13.15,44.68Z"/><path d="M214.89,51V15.56c0-2.9-1-4.2-3.84-4.94A41.38,41.38,0,0,0,207,9.74c-.79-.13-1-.51-1-1.22s.54-.76,1.08-.76c7.43,0,14.87-.06,22.3,0a25.23,25.23,0,0,1,9.52,1.57c3.56,1.48,5.84,3.92,6.14,7.94.32,4.4-1.31,7.7-5.26,9.77-.53.28-1.06.54-1.88.95.69.25,1.13.44,1.58.56a11.09,11.09,0,0,1,6.4,16.87A11.28,11.28,0,0,1,238.64,50a51.59,51.59,0,0,1-8.77,1c-4.51.17-9,.05-13.54,0C215.9,51.05,215.47,51,214.89,51ZM222,38.25h0c0,2.39,0,4.79,0,7.19,0,1.13.41,2.16,1.66,2.3,3.83.4,7.67.47,11.34-1a7.2,7.2,0,0,0,4.39-4.46,8.72,8.72,0,0,0-5.86-11.47c-3.55-1.11-7.18-.93-10.81-.95-.79,0-.75.53-.75,1.07Zm0-18.73v6.11c0,.56,0,1,.79,1.05,3.23,0,6.46.13,9.6-.95a6.68,6.68,0,0,0,4.89-6.13c.21-3.88-1-6.25-4.18-7.56a16.67,16.67,0,0,0-8.71-.92c-1.88.24-2.36.84-2.38,2.77S222,17.65,222,19.52Z"/><path d="M122.09,15.14V49.4c0,1.66,0,1.66-1.71,1.66h-3.17V15.61c0-.48,0-1,0-1.43-.17-2.41-1-3.38-3.3-3.9-1.16-.27-2.35-.41-3.54-.57-.68-.08-1.09-.27-1.07-1.09s.5-.86,1.1-.86c4.8,0,9.6,0,14.4,0a2.42,2.42,0,0,1,1.58,1q7.93,11,15.81,22,3.5,4.88,7,9.74a2.2,2.2,0,0,0,1,.76V39.92c0-10.23,0-20.47,0-30.71,0-1.16.33-1.49,1.48-1.47,3.42,0,3.42,0,3.42,3.36,0,12.83,0,25.67,0,38.5,0,1.14-.27,1.57-1.45,1.48-1.39-.1-2.8.05-4.2-.06a2.3,2.3,0,0,1-1.54-.8q-11.58-16-23.07-32c-.76-1.06-1.53-2.12-2.29-3.19Z"/><path d="M332.86,51c-2.14,0-4.1,0-6.05,0-.4,0-.87-.48-1.15-.87q-9.23-12.78-18.4-25.59c-2.07-2.88-4.14-5.78-6.22-8.66a2.41,2.41,0,0,0-1-.87c0,.48-.09.95-.09,1.43,0,11,0,22.07,0,33.11,0,1.23-.32,1.66-1.54,1.52a17.65,17.65,0,0,0-2.52,0c-.61,0-.87-.22-.85-.84,0-.88,0-1.76,0-2.64V15.26c0-.52,0-1,0-1.56-.12-1.91-.81-2.9-2.64-3.39a27.93,27.93,0,0,0-4.35-.78c-.86-.1-.91-.52-.92-1.19s.42-.83,1-.82c4.83,0,9.67,0,14.51,0a2.4,2.4,0,0,1,1.59,1C308.18,14,312.08,19.43,316,24.89L326.86,40.1c.28.38.58.74,1.12,1.42.07-.82.14-1.29.14-1.77q0-15.34,0-30.71c0-1.19.27-1.59,1.52-1.55,3.24.08,3.24,0,3.24,3.28V51Z"/><path d="M376.89,8.07,354.3,27.76c7.62,7.76,15.15,15.44,22.81,23.26-2.31,0-4.53,0-6.75,0-.32,0-.67-.37-.94-.64q-9.19-9.19-18.36-18.42c-.33-.33-.7-.64-1.33-1.21V51c-2.33,0-4.44,0-6.54,0-.2,0-.49-.35-.56-.59a3.8,3.8,0,0,1,0-1.07q0-17,0-34.06c0-.68,0-1.36,0-2a2.71,2.71,0,0,0-2.22-2.88c-1.31-.37-2.67-.49-4-.83a1.33,1.33,0,0,1-.78-.88c-.17-.66.35-.76.88-.76,4.08,0,8.16,0,12.24,0,.87,0,.94.44.94,1.12,0,4.72,0,9.44,0,14.16v1.75c.71-.53,1.19-.84,1.61-1.21,5.84-5,11.66-10.1,17.53-15.1A4.06,4.06,0,0,1,371,7.8c1.9-.11,3.81,0,5.72,0Z"/><path d="M76.94,51.06V15c0-3.29-.6-4.06-3.78-4.8a28.9,28.9,0,0,0-3.07-.51C69.41,9.63,69,9.45,69,8.63s.49-.88,1.11-.87c8.27.07,16.55,0,24.82.25,3.91.11,7.8.82,11.17,3.11s4.64,5.8,4.41,9.78c-.26,4.28-2.54,7.22-6.39,9S95.88,32,91.6,32.16c-2.27.07-4.53,0-7,0v1.64c0,5.31,0,10.63,0,15.95,0,1-.23,1.36-1.26,1.32C81.31,51,79.24,51.06,76.94,51.06Zm7.73-22h3A25.17,25.17,0,0,0,97,27.79a7.4,7.4,0,0,0,5.11-6.87c.23-3.7-.83-6.84-4.4-8.57s-7.5-1.68-11.38-1a1.78,1.78,0,0,0-1.61,1.82C84.66,18.37,84.67,23.61,84.67,29.06Z"/><path d="M291.22,51.07c-2.63,0-5,0-7.4,0-.27,0-.61-.55-.77-.91q-2.67-6.07-5.29-12.19a1.35,1.35,0,0,0-1.44-1q-7.92,0-15.84,0a1.33,1.33,0,0,0-1.42,1c-1.53,3.86-3.16,7.68-4.65,11.55-.46,1.17-1,1.77-2.33,1.62-1.14-.12-2.3,0-3.69,0,.88-2.07,1.66-3.93,2.46-5.79q6.61-15.47,13.25-30.93a9.77,9.77,0,0,0,.46-1.24,1.67,1.67,0,0,0-1.1-2.39,21.51,21.51,0,0,0-3.44-1c-.76-.15-1-.48-1-1.21s.52-.78,1.06-.78c3.72,0,7.44,0,11.16,0a1.66,1.66,0,0,1,1.24.8c3.65,8.16,7.24,16.35,10.85,24.54l7.24,16.44C290.78,50,290.94,50.38,291.22,51.07Zm-22.5-34.9-.37,0c-2.49,5.81-5,11.62-7.54,17.56h15.41C273.67,27.77,271.19,22,268.72,16.17Z"/><path d="M199.82,17.11h-8.35a3.27,3.27,0,0,1-.25-.6c-.87-3.89-4-5.47-7.48-5.78-7.8-.71-12.45,3.82-13.69,10.61a30.1,30.1,0,0,0,1.52,17c2.44,6.07,7.25,9,13.55,9.75a35.54,35.54,0,0,0,12.95-1c.34-.09.7-.16,1.05-.22a3.54,3.54,0,0,1,.58,0,19.13,19.13,0,0,1,0,2.52,1.22,1.22,0,0,1-.81.78,85.88,85.88,0,0,1-9,1.5,38,38,0,0,1-11.69-.51A20.3,20.3,0,0,1,163.41,39a27.17,27.17,0,0,1-.4-21.34,15,15,0,0,1,10.13-9.16,31.54,31.54,0,0,1,18.65,0c3.38,1,6.1,3,7.43,6.43C199.47,15.55,199.59,16.26,199.82,17.11Z"/></g></g></svg>