<svg xmlns="http://www.w3.org/2000/svg" viewBox="0 0 250.29 192.46"><defs><style>.cls-1{fill-rule:evenodd;}</style></defs><title>prudential</title><g id="Layer_2" data-name="Layer 2"><g id="Layer_1-2" data-name="Layer 1"><path class="cls-1" d="M190.9,48.25c-13.22-4.64-24.62-4.33-36-9-5.21-2.14-10.5-6-15.74-9-7.61-4.36-13.64-10.12-25.5-10.49-4,8.45,4.44,11,6.75,15.74a34.57,34.57,0,0,0-9.75-.75c2.91,3.43,5,9.19,9.75,11.25,2.55,1.1,7.8.82,12,1.5,3.67.6,7.11,1.71,10.5,2.25,12.1,2,23.16,1.92,30,7.5-4.2,3-13.68.81-19.49,2.25-3,10-6.27,19.74-8.25,30.75-4.32,3.86-9.49,6-15,9.75-8.55,5.72-13.4,12.55-31.5,9.75-.07-5.07,3.34-6.66,3.75-11.25-5.89,1.11-10.55,9.94-18.75,11.25,2.38-12.06,21.94-21.26,15-42C95,70.32,95.83,75.33,94.91,79c-1.07,4.32-2.08,10.11-3.75,13.5s-5.81,6.16-8.25,9c-2.74,3.18-4.1,7.36-8.24,8.25-.62-4.74,4.57-7.11,6.74-11.25,5.43-10.32,6.74-24.62,11.25-36-4.84,1.91-5,8.52-6.75,13.5a55.09,55.09,0,0,0-5.25,4.5c-3.12,9.87-7.2,18.79-11.24,27.75C61.91,101.59,56.33,88,55.17,74.5,51.45,31.42,86.9-3.35,130.91.26A73,73,0,0,1,176.65,22,58.68,58.68,0,0,1,190.9,48.25ZM133.16,4.76C97.47,1.23,63.24,24.1,59.67,61c-1.68,17.38,2.57,29.12,9,39C75,85.31,80.1,69.44,85.91,54.25c1.08-1.92,5.14-.86,5.25-3.75,3.47-5,5.53-11.47,7.5-18,7.82-2.18,8.21-11.78,13.5-16.49,8.49,1.51,13.89,2.91,19.5,6,6.83,3.76,13.74,9.44,20.25,12,4.7,1.85,10.62,2.42,15.74,3.75s10,3.15,15.75,3.75C173.54,20.87,157.11,7.12,133.16,4.76Z"/><path class="cls-1" d="M158.65,61.75a55.27,55.27,0,0,1,11.25,4.5c-3.25,6.24-4.23,14.76-12,16.5C158.26,74.47,156.47,68.44,158.65,61.75Z"/><path class="cls-1" d="M172.9,67.75c3.77.23,5.93,2.08,9,3-1.06,6.19-4.56,9.93-6,15.75-8.73,5-12.3,15.2-18,23.25h-7.49C153.65,102,157.85,95.2,164.65,91,167,82.89,169.54,74.89,172.9,67.75Z"/><path class="cls-1" d="M194.65,75.25c-1.52,14.47-6.22,25.78-13.5,34.5H166.9c1.45-8.77,10.44-14.82,14.25-24,1.73-4.18,1.49-9.28,3.75-13.5C189.05,72.35,191.7,74,194.65,75.25Z"/><path class="cls-1" d="M154.9,88.75c.69,7.75-6.28,14.16-9,21h-9c4-8.21,11.48-13,15.75-21Z"/><path class="cls-1" d="M73.17,112.74c34.62-.19,73.38.3,103.48,0,.74,4-4,6.74-6.75,9-8.35,6.94-21.66,14.23-35.24,15.75-25.87,2.89-50.47-8.7-60.74-22.5C73.48,114.41,71.59,114.36,73.17,112.74Z"/><path d="M4.3,185.89v-29.3a3.12,3.12,0,0,0-.87-2.41,3.81,3.81,0,0,0-2.64-.79l-.4,0-.39,0v-2.58H19.18q6.16,0,9.71,3a10.27,10.27,0,0,1,3.54,8.26q0,5.43-3.47,8.17t-10.33,2.75c-.75,0-1.47,0-2.17-.05s-1.4-.09-2.08-.17v13a3.1,3.1,0,0,0,.87,2.41,3.81,3.81,0,0,0,2.64.79,3.27,3.27,0,0,0,.4,0l.39,0v2.57H0V189l.38,0a3.42,3.42,0,0,0,.41,0,3.81,3.81,0,0,0,2.64-.79A3.1,3.1,0,0,0,4.3,185.89Zm10.08-28.67v13.49l.55,0,.52,0c2.37,0,4.09-.67,5.14-2s1.57-3.52,1.57-6.55a13.67,13.67,0,0,0-1.22-6.47,3.83,3.83,0,0,0-3.53-2.23,2.75,2.75,0,0,0-2.28.92A4.36,4.36,0,0,0,14.38,157.22Z"/><path d="M33.33,163c.2,0,.5,0,.92,0s.76,0,1,0a22.68,22.68,0,0,0,3.71-.32,25.21,25.21,0,0,0,3.81-.94v6.29l.5.22a12.91,12.91,0,0,1,3-4.83,5.64,5.64,0,0,1,3.94-1.68,4.1,4.1,0,0,1,3.3,1.41,5.92,5.92,0,0,1,1.19,3.92,4.71,4.71,0,0,1-.94,3,2.89,2.89,0,0,1-2.38,1.21,3.36,3.36,0,0,1-2.38-.8,2.83,2.83,0,0,1-.84-2.18,4.8,4.8,0,0,1,.19-1.24,5.48,5.48,0,0,0,.19-.9,1.25,1.25,0,0,0-.12-.63.41.41,0,0,0-.38-.19c-.86,0-1.73.88-2.62,2.63a12.56,12.56,0,0,0-1.32,5.72v12.47a2.9,2.9,0,0,0,.68,2.2,3.71,3.71,0,0,0,2.37.73l0,2.46h-14v-2.46h.53a3,3,0,0,0,2.23-.71,3.07,3.07,0,0,0,.71-2.22v-17c0-1.52-.22-2.5-.66-3a3.92,3.92,0,0,0-2.62-.77Z"/><path d="M74.07,168a3.54,3.54,0,0,0-.52-2.26,3.2,3.2,0,0,0-2.1-.72v-2.41c.31,0,.64,0,1,0l1.14,0a36.06,36.06,0,0,0,3.64-.21c1.36-.14,2.82-.35,4.38-.64v23.15c0,1.55.21,2.54.64,3a3.89,3.89,0,0,0,2.59.78v2.52H82.74a28.52,28.52,0,0,0-4.19.29,24.84,24.84,0,0,0-3.93.88v-6.23h-.55a9.68,9.68,0,0,1-2.95,4.61,7,7,0,0,1-4.57,1.62,6.25,6.25,0,0,1-5.43-2.58c-1.24-1.72-1.85-4.25-1.85-7.57V168a3.55,3.55,0,0,0-.58-2.28,2.28,2.28,0,0,0-1.88-.7h-.34v-2.41l.89,0c.3,0,.67,0,1.12,0,1.06,0,2.31-.08,3.72-.22s2.93-.36,4.54-.63v21.75a5,5,0,0,0,.77,3,2.51,2.51,0,0,0,2.17,1.07c1.15,0,2.16-.79,3.06-2.37a11.05,11.05,0,0,0,1.33-5.54Z"/><path d="M104.69,187.34l-.53-.32a10.77,10.77,0,0,1-2.84,4.1,6,6,0,0,1-3.87,1.28c-2.69,0-4.9-1.41-6.62-4.25s-2.57-6.53-2.57-11.09a20,20,0,0,1,2.86-11c1.91-3,4.21-4.45,6.88-4.45a5.41,5.41,0,0,1,3.27,1.07,9.46,9.46,0,0,1,2.63,3.25V155.3a2.81,2.81,0,0,0-.8-2.21,3.66,3.66,0,0,0-2.47-.71h-.58V150H101c1.72,0,3.43-.07,5.15-.2s3.46-.35,5.21-.62v36.74a3.18,3.18,0,0,0,.66,2.22,2.69,2.69,0,0,0,2.06.71h.5v2.79c-2.19,0-4.1.07-5.72.19a28.91,28.91,0,0,0-4.16.6Zm-.53-9.79a29.39,29.39,0,0,0-1.14-9.39Q101.87,165,99.65,165c-1.29,0-2.2.92-2.73,2.75s-.78,5.1-.78,9.81c0,4.5.26,7.57.8,9.21s1.47,2.45,2.8,2.45,2.47-1,3.25-3.08A25,25,0,0,0,104.16,177.55Z"/><path d="M124.55,176.84c0,.31,0,.65,0,1s0,1,0,1.69q0,5.34,1.28,7.68a4.38,4.38,0,0,0,4.15,2.34,5.81,5.81,0,0,0,4-1.63,13.82,13.82,0,0,0,3.14-4.91l1.86.76a15.94,15.94,0,0,1-4.36,6.53,9.58,9.58,0,0,1-6.24,2.06,10.16,10.16,0,0,1-8.47-4.22q-3.24-4.23-3.24-11.07a18,18,0,0,1,3.25-11,9.94,9.94,0,0,1,16.3-.3q3.09,4.08,3.19,11Zm7-2.55V174c.06-1.37.09-2.35.09-3a13.17,13.17,0,0,0-.77-5.42,2.73,2.73,0,0,0-2.64-1.53,2.9,2.9,0,0,0-2.86,2.16q-.83,2.16-.82,8Z"/><path d="M153.23,186.22a3.59,3.59,0,0,0,.51,2.2,2.4,2.4,0,0,0,1.78.73v2.46H142.46v-2.46h.38a3,3,0,0,0,2.21-.7,3.11,3.11,0,0,0,.68-2.23v-17a4.64,4.64,0,0,0-.63-3,4.1,4.1,0,0,0-2.64-.78V163h2.1a29.21,29.21,0,0,0,4.13-.29,24,24,0,0,0,3.9-.89V168h.64a11,11,0,0,1,3.2-4.31,7,7,0,0,1,4.37-1.41,6.29,6.29,0,0,1,5.34,2.53,11.66,11.66,0,0,1,1.9,7.1v14.28a3.07,3.07,0,0,0,.69,2.23,3,3,0,0,0,2.2.7h.38v2.46h-13v-2.46a2.39,2.39,0,0,0,1.78-.73,3.59,3.59,0,0,0,.51-2.2V170.6a5,5,0,0,0-.76-3,2.53,2.53,0,0,0-2.18-1c-1.14,0-2.16.79-3.05,2.36a11.17,11.17,0,0,0-1.34,5.57Z"/><path d="M183.39,184a6.6,6.6,0,0,0,.37,2.65,1.26,1.26,0,0,0,1.21.77,1.89,1.89,0,0,0,1.78-1.4,23.2,23.2,0,0,0,.87-5.71h1.88q-.21,6.09-2,9.11a5.65,5.65,0,0,1-5.16,3,5.91,5.91,0,0,1-4.79-2,8.69,8.69,0,0,1-1.66-5.7V164.88h-2.62v-1.72a15.93,15.93,0,0,0,4.94-4.63,22.84,22.84,0,0,0,3-7.22h2.15v11.22h5.73v2.35h-5.73Z"/><path d="M203,186.22a2.89,2.89,0,0,0,.7,2.19,3.84,3.84,0,0,0,2.43.74v2.46H192v-2.46h.55a3.13,3.13,0,0,0,2.25-.71,3,3,0,0,0,.73-2.22v-17c0-1.52-.21-2.5-.64-3a4.14,4.14,0,0,0-2.63-.78V163c.22,0,.57,0,1,0s.84,0,1.1,0a26.28,26.28,0,0,0,3.87-.32c1.4-.21,3-.52,4.68-.94Zm-8.36-32.88a4,4,0,0,1,1.21-3,4.14,4.14,0,0,1,3-1.18,4.44,4.44,0,0,1,3.18,1.16,4,4,0,0,1,1.22,3,4.07,4.07,0,0,1-1.14,3,5.08,5.08,0,0,1-6.34,0A4,4,0,0,1,194.61,153.34Z"/><path d="M230.43,171.67v15a4.72,4.72,0,0,0,.2,1.58.7.7,0,0,0,.66.5,2.44,2.44,0,0,0,.87-.23,2.21,2.21,0,0,1,.8-.23.75.75,0,0,1,.53.17.81.81,0,0,1,.16.56c0,.66-.58,1.37-1.75,2.13a6.74,6.74,0,0,1-3.69,1.13,4.14,4.14,0,0,1-3-1,8.15,8.15,0,0,1-1.79-3.61,21.14,21.14,0,0,1-4.43,3.73,7.54,7.54,0,0,1-3.83,1.14,5.31,5.31,0,0,1-4.32-2,7.75,7.75,0,0,1-1.65-5.11,8.29,8.29,0,0,1,3.44-7q3.44-2.58,10.29-3.3v-6.46a4.33,4.33,0,0,0-1.24-3.29,4.75,4.75,0,0,0-3.44-1.19,3.65,3.65,0,0,0-1.67.33c-.43.21-.65.48-.65.79a3.94,3.94,0,0,0,.67,1.49,4,4,0,0,1,.67,2,3.7,3.7,0,0,1-1,2.67,3.34,3.34,0,0,1-2.53,1,3.16,3.16,0,0,1-2.5-1,3.94,3.94,0,0,1-.91-2.76,6,6,0,0,1,2.6-5,10.89,10.89,0,0,1,6.74-2q5.25,0,8,2.56T230.43,171.67Zm-7.5,5.71a8,8,0,0,0-4.8,1.91,5.69,5.69,0,0,0-1.6,4.31,5.33,5.33,0,0,0,.7,3,2.38,2.38,0,0,0,2.09,1,2.85,2.85,0,0,0,2.79-1.87q.82-1.87.82-6.72Z"/><path d="M246.9,186.22a2.75,2.75,0,0,0,.78,2.2,4.16,4.16,0,0,0,2.59.73l0,2.46H235.8v-2.46h.55a3.37,3.37,0,0,0,2.37-.71,3,3,0,0,0,.76-2.22V156.48a4.54,4.54,0,0,0-.65-2.94,3.91,3.91,0,0,0-2.63-.75v-2.52l1.05,0,1.1,0a27.27,27.27,0,0,0,3.86-.3c1.39-.21,3-.52,4.69-.94Z"/></g></g></svg>