<svg xmlns="http://www.w3.org/2000/svg" viewBox="0 0 117.65 43.32"><title>reuters</title><g id="Layer_2" data-name="Layer 2"><g id="Layer_1-2" data-name="Layer 1"><path d="M62.92,26.47H61.26c-.14,0-.2-.14-.27-.27l-2-3.29h-.3c-.35,0-1.45,0-1.76-.05V26.2a.26.26,0,0,1-.26.27H55.37a.27.27,0,0,1-.27-.27V17.32c0-.27.16-.37.43-.41a27.54,27.54,0,0,1,3.21-.17c2.09,0,4,.74,4,3.06v.12a2.6,2.6,0,0,1-1.83,2.65l2.12,3.63a.17.17,0,0,1,0,.11A.15.15,0,0,1,62.92,26.47Zm-2-6.67c0-1-.79-1.45-2.15-1.45-.28,0-1.52,0-1.76,0v2.94l1.76,0c1.4,0,2.15-.27,2.15-1.46Zm5.8,4c0,1.14,0,1.17,1.07,1.17h3.43a.27.27,0,0,1,.27.27v.86c0,.19-.07.26-.27.29a17.81,17.81,0,0,1-2.93.19c-2.25,0-3.44,0-3.44-2.78V19.51c0-2.79,1.19-2.77,3.44-2.77a17.81,17.81,0,0,1,2.93.19c.2,0,.27.09.27.28v.87a.27.27,0,0,1-.27.27H67.76c-1,0-1.07,0-1.07,1.16v1.24H71a.28.28,0,0,1,.27.28v1a.27.27,0,0,1-.27.27H66.69Zm10.86,2.78c-2.18,0-4.06-.95-4.06-3.84V17.1a.26.26,0,0,1,.27-.26H75.1a.26.26,0,0,1,.27.26v5.64c0,1.55.72,2.28,2.18,2.28s2.17-.73,2.17-2.28V17.1a.27.27,0,0,1,.28-.26h1.34a.26.26,0,0,1,.27.26v5.64C81.61,25.63,79.73,26.58,77.55,26.58Zm13-8.16h-2.7V26.2a.28.28,0,0,1-.28.27H86.2a.27.27,0,0,1-.27-.27V18.42H83.22a.25.25,0,0,1-.26-.25V17.1a.26.26,0,0,1,.26-.26h7.3a.26.26,0,0,1,.27.26v1.07A.25.25,0,0,1,90.52,18.42Zm18.4,8h-1.66c-.14,0-.2-.14-.26-.27l-2-3.29h-.3c-.35,0-1.45,0-1.76-.05V26.2a.26.26,0,0,1-.26.27h-1.35a.27.27,0,0,1-.27-.27V17.32c0-.27.16-.37.43-.41a27.54,27.54,0,0,1,3.21-.17c2.09,0,4,.74,4,3.06v.12a2.59,2.59,0,0,1-1.83,2.65l2.13,3.63a.17.17,0,0,1,0,.11A.15.15,0,0,1,108.92,26.47Zm-2-6.67c0-1-.79-1.45-2.15-1.45-.28,0-1.52,0-1.76,0v2.94l1.76,0c1.4,0,2.15-.27,2.15-1.46Zm7.2,6.79a14.64,14.64,0,0,1-3.06-.36.29.29,0,0,1-.26-.27V25a.26.26,0,0,1,.26-.26h0a24.3,24.3,0,0,0,3.07.25c1.2,0,1.57-.43,1.57-1.22,0-1-2.42-1.58-3.61-2.06a2.43,2.43,0,0,1-1.59-2.37c0-1.49,1.2-2.58,3.72-2.58a13.26,13.26,0,0,1,2.93.36.26.26,0,0,1,.24.25v1a.23.23,0,0,1-.23.24h0a29.7,29.7,0,0,0-3-.24c-1,0-1.76.35-1.76,1,0,.44.51.85,1.11,1.09l2.29.91a2.48,2.48,0,0,1,1.88,2.43C117.65,25.12,116.8,26.59,114.09,26.59Zm-20-2.79c0,1.14,0,1.17,1.07,1.17h3.43a.27.27,0,0,1,.27.27v.86c0,.19-.07.26-.27.29a17.81,17.81,0,0,1-2.93.19c-2.25,0-3.44,0-3.44-2.78V19.51c0-2.79,1.19-2.77,3.44-2.77a17.81,17.81,0,0,1,2.93.19c.2,0,.27.09.27.28v.87a.27.27,0,0,1-.27.27H95.12c-1,0-1.07,0-1.07,1.16v1.24h4.34a.28.28,0,0,1,.27.28v1a.27.27,0,0,1-.27.27H94.05Z"/><path d="M32.56,13.75a1.49,1.49,0,1,1-.06-2.12,1.49,1.49,0,0,1,.06,2.12m-14.9-3.4a.74.74,0,1,0-1,1.07.74.74,0,1,0,1-1.07Zm3.73-1.42a.91.91,0,1,0,0,1.29A.91.91,0,0,0,21.39,8.93Zm4-.29a1.15,1.15,0,1,0,.05,1.63A1.14,1.14,0,0,0,25.4,8.64Zm3.79,1a1.3,1.3,0,1,0,.06,1.84A1.3,1.3,0,0,0,29.19,9.61Zm-14.7,3.23a.55.55,0,1,0,0,.78A.55.55,0,0,0,14.49,12.84ZM33.62,26.4a.74.74,0,1,0,1.05,0A.74.74,0,0,0,33.62,26.4Zm1-3.81a.92.92,0,0,0,0,1.29.91.91,0,1,0,0-1.29Zm-.29-4a1.16,1.16,0,1,0,1.63,0A1.16,1.16,0,0,0,34.28,18.58Zm-1.4-3.71a1.3,1.3,0,1,0,1.83-.06A1.31,1.31,0,0,0,32.88,14.87ZM31.59,29.7a.56.56,0,0,0,0,.78.53.53,0,0,0,.77,0,.54.54,0,0,0,0-.77A.55.55,0,0,0,31.59,29.7ZM15.72,31.62a1.49,1.49,0,1,0-2.11.07A1.49,1.49,0,0,0,15.72,31.62Zm-3.24-14.7a.74.74,0,0,0-1.07-1,.74.74,0,0,0,0,1A.75.75,0,0,0,12.48,16.92Zm-.94,3.81a.92.92,0,0,0,0-1.29.91.91,0,1,0-1.25,1.32A.91.91,0,0,0,11.54,20.73Zm.29,4a1.16,1.16,0,1,0-1.64,0A1.16,1.16,0,0,0,11.83,24.74Zm1.4,3.71a1.3,1.3,0,1,0-1.89-1.78,1.29,1.29,0,0,0,.05,1.84A1.31,1.31,0,0,0,13.23,28.45ZM28.45,33a.74.74,0,0,0,1,0,.74.74,0,1,0-1,0Zm-3.74,1.42a.91.91,0,1,0,0-1.29A.92.92,0,0,0,24.71,34.39Zm-4,.29a1.16,1.16,0,1,0-.05-1.63A1.16,1.16,0,0,0,20.7,34.68Zm-3.78-1a1.3,1.3,0,1,0-.06-1.83A1.29,1.29,0,0,0,16.92,33.71Zm9.85-20.55A1.17,1.17,0,1,1,26,11.7,1.17,1.17,0,0,1,26.77,13.16ZM15.61,15.9a.59.59,0,0,0-.72.4.58.58,0,0,0,1.11.32A.59.59,0,0,0,15.61,15.9Zm2-2.22a.71.71,0,1,0,.48.89A.73.73,0,0,0,17.63,13.68Zm2.58-1.56a.9.9,0,1,0,.62,1.12A.91.91,0,0,0,20.21,12.12Zm2.87-.64a1,1,0,1,0,.68,1.26A1,1,0,0,0,23.08,11.48Zm-8.75,7.17a.43.43,0,0,0-.24.83.43.43,0,0,0,.53-.29A.43.43,0,0,0,14.33,18.65Zm17.38,2.59a.58.58,0,0,0,1.11.32.59.59,0,0,0-.39-.71A.58.58,0,0,0,31.71,21.24Zm-.66-2.88a.71.71,0,1,0,.88-.47A.71.71,0,0,0,31.05,18.36Zm-1.57-2.58a.9.9,0,1,0,1.73.51.89.89,0,0,0-.61-1.12A.92.92,0,0,0,29.48,15.78Zm-2.2-2a1,1,0,1,0,1.26-.69A1,1,0,0,0,27.28,13.77Zm4.2,10.37a.44.44,0,0,0,.29.53.42.42,0,0,0,.53-.29.43.43,0,0,0-.29-.54A.44.44,0,0,0,31.48,24.14Zm-9.91,6.69a1.16,1.16,0,1,0-2.23-.66,1.16,1.16,0,1,0,2.23.66Zm-7.18-8.75a.57.57,0,0,0-.39-.71.57.57,0,1,0-.32,1.1A.57.57,0,0,0,14.39,22.08ZM15.06,25a.71.71,0,0,0-.48-.88.69.69,0,0,0-.88.48.71.71,0,0,0,.48.88A.72.72,0,0,0,15.06,25Zm1.56,2.58a.9.9,0,1,0-1.12.61A.9.9,0,0,0,16.62,27.54Zm2.21,2A1,1,0,0,0,16.88,29a1,1,0,0,0,.69,1.26A1,1,0,0,0,18.83,29.55ZM30.5,27.41a.57.57,0,1,0,.32-1.1.58.58,0,0,0-.71.39A.57.57,0,0,0,30.5,27.41Zm-2,2.23a.72.72,0,0,0,.88-.48.7.7,0,0,0-.48-.88.7.7,0,0,0-.88.48A.72.72,0,0,0,28.48,29.64ZM25.89,31.2A.9.9,0,0,0,27,30.59a.9.9,0,1,0-1.12.61ZM23,31.84a1,1,0,1,0-.69-1.25A1,1,0,0,0,23,31.84ZM20.66,15.32a.9.9,0,1,1-1.59.85A.9.9,0,0,1,19.43,15,.91.91,0,0,1,20.66,15.32ZM16.19,22.4a.53.53,0,1,0,.51.93.52.52,0,0,0,.21-.72A.53.53,0,0,0,16.19,22.4Zm-.09-2.18a.62.62,0,1,0,.85.25A.62.62,0,0,0,16.1,20.22Zm.56-2.09a.7.7,0,1,0,1,.28A.72.72,0,0,0,16.66,18.13Zm1.16-1.81a.79.79,0,1,0,.75,1.4.8.8,0,0,0,.33-1.08A.8.8,0,0,0,17.82,16.32Zm-.89,8.14a.45.45,0,0,0-.18.6.45.45,0,0,0,.79-.42A.45.45,0,0,0,16.93,24.46Zm10.29-7.41a.56.56,0,0,0,.73.22.55.55,0,0,0,.21-.73.53.53,0,0,0-.72-.22A.54.54,0,0,0,27.22,17.05ZM25.41,15.9a.63.63,0,0,0,1.1-.6.62.62,0,0,0-.84-.25A.64.64,0,0,0,25.41,15.9Zm-2.09-.56a.71.71,0,1,0,.29-1A.71.71,0,0,0,23.32,15.34Zm-2.17.08a.79.79,0,0,0,1.08.33.8.8,0,1,0-1.08-.33Zm7.43,3.25a.44.44,0,1,0,.77-.41.44.44,0,1,0-.77.41ZM27,27.14a.9.9,0,1,0-1.59.86.92.92,0,0,0,1.23.36A.9.9,0,0,0,27,27.14Zm-8.15-.88a.54.54,0,0,0-.72-.21.53.53,0,1,0,.5.93A.54.54,0,0,0,18.89,26.26Zm1.8,1.15a.62.62,0,1,0-.25.85A.62.62,0,0,0,20.69,27.41Zm2.1.56a.72.72,0,0,0-1-.28.72.72,0,0,0-.29,1,.73.73,0,0,0,1,.29A.71.71,0,0,0,22.79,28ZM25,27.88a.8.8,0,0,0-1.08-.32.79.79,0,0,0-.31,1.08.77.77,0,0,0,1.07.32A.79.79,0,0,0,25,27.88Zm4.95-7a.56.56,0,0,0,.23-.73.53.53,0,0,0-.72-.21.51.51,0,0,0-.22.72A.53.53,0,0,0,29.91,20.92Zm.1,2.17A.62.62,0,1,0,29.42,22a.63.63,0,0,0-.25.85A.63.63,0,0,0,30,23.09Zm-.57,2.1a.71.71,0,1,0-1-.29A.72.72,0,0,0,29.44,25.19ZM28.3,27a.8.8,0,1,0-1.08-.32A.79.79,0,0,0,28.3,27Zm15.48-3a2.32,2.32,0,1,1,2.32-2.32A2.32,2.32,0,0,1,43.78,24ZM34.67,4a1.28,1.28,0,1,0-1.52,1A1.27,1.27,0,0,0,34.67,4Zm4.57,3.27a1.55,1.55,0,1,0-1.77,1.29A1.54,1.54,0,0,0,39.24,7.24Zm3.69,4.26a1.94,1.94,0,1,0-2.13,1.72A1.93,1.93,0,0,0,42.93,11.5Zm2.28,4.9a2.13,2.13,0,1,0-2.24,2A2.13,2.13,0,0,0,45.21,16.4ZM24,.93a.93.93,0,1,0-1.86,0A.93.93,0,0,0,24,.93Zm9.17,37.43a1.28,1.28,0,1,0,1.52,1A1.29,1.29,0,0,0,33.15,38.36Zm4.32-3.57a1.55,1.55,0,1,0,1.77,1.29A1.54,1.54,0,0,0,37.47,34.79ZM40.8,30.1a1.94,1.94,0,1,0,2.13,1.72A1.94,1.94,0,0,0,40.8,30.1ZM43,24.9a2.13,2.13,0,1,0,2.24,2A2.13,2.13,0,0,0,43,24.9ZM23.05,41.46a.93.93,0,0,0,0,1.86.93.93,0,0,0,0-1.86ZM2.32,24A2.32,2.32,0,1,0,0,21.66,2.32,2.32,0,0,0,2.32,24ZM13,5a1.28,1.28,0,1,0-1.52-1A1.28,1.28,0,0,0,13,5ZM8.64,8.53A1.55,1.55,0,1,0,6.86,7.24,1.56,1.56,0,0,0,8.64,8.53ZM5.3,13.22a1.94,1.94,0,0,0-.4-3.85,1.94,1.94,0,0,0,.4,3.85Zm-2.16,5.2a2.13,2.13,0,1,0-2.25-2A2.13,2.13,0,0,0,3.14,18.42Zm8.29,20.93a1.28,1.28,0,1,0,1.52-1A1.28,1.28,0,0,0,11.43,39.35ZM6.86,36.08a1.55,1.55,0,1,0,1.78-1.29A1.55,1.55,0,0,0,6.86,36.08ZM3.18,31.82A1.93,1.93,0,1,0,5.3,30.1,1.93,1.93,0,0,0,3.18,31.82ZM.89,26.91a2.13,2.13,0,1,0,2.25-2A2.13,2.13,0,0,0,.89,26.91ZM28.16,40.72a1,1,0,1,0,1.22.7A1,1,0,0,0,28.16,40.72Zm-10.22,0a1,1,0,1,0,.71,1.22A1,1,0,0,0,17.94,40.72ZM29.39,1.9A1,1,0,0,0,28.67.67a1,1,0,1,0,.72,1.23ZM18.65,1.38a1,1,0,1,0-.71,1.22A1,1,0,0,0,18.65,1.38Zm20,15.54a1.81,1.81,0,1,1,.95-2.39A1.82,1.82,0,0,1,38.63,16.92ZM25.91,5.39a1,1,0,1,0-2,.39,1,1,0,0,0,1.18.78A1,1,0,0,0,25.91,5.39Zm4.29.93a1.21,1.21,0,1,0-.87,1.47A1.2,1.2,0,0,0,30.2,6.32Zm4,1.91a1.51,1.51,0,1,0-1,1.89A1.51,1.51,0,0,0,34.16,8.23ZM37.31,11a1.66,1.66,0,1,0-1,2.14A1.65,1.65,0,0,0,37.31,11Zm-20-4.53a.73.73,0,1,0-.38,1A.72.72,0,0,0,17.31,6.51Zm18.15,24a1,1,0,1,0,1.39.24A1,1,0,0,0,35.46,30.51Zm2-3.9a1.21,1.21,0,1,0,1.67.38A1.22,1.22,0,0,0,37.45,26.61Zm.94-4.38a1.5,1.5,0,0,0-.58,2.05,1.51,1.51,0,1,0,2.63-1.48A1.5,1.5,0,0,0,38.39,22.23Zm-.06-4.41a1.67,1.67,0,1,0,2.23.76A1.67,1.67,0,0,0,38.33,17.82Zm-9.16,18a.72.72,0,0,0-.38,1,.73.73,0,1,0,.38-1ZM8.91,29.73a1.81,1.81,0,1,0-2.39-.94A1.81,1.81,0,0,0,8.91,29.73Zm1.73-16.92a1,1,0,0,0,.24-1.4,1,1,0,1,0-.24,1.4Zm-2,3.9A1.22,1.22,0,0,0,9,15a1.21,1.21,0,0,0-2,1.3A1.22,1.22,0,0,0,8.66,16.71Zm-1,4.39a1.51,1.51,0,1,0-2-.58A1.51,1.51,0,0,0,7.71,21.1Zm.06,4.4a1.67,1.67,0,1,0-2.23-.76A1.66,1.66,0,0,0,7.77,25.5ZM20.19,37.94A1,1,0,1,0,21,36.76,1,1,0,0,0,20.19,37.94ZM15.9,37a1.21,1.21,0,1,0,.87-1.47A1.23,1.23,0,0,0,15.9,37Zm-4-1.91a1.51,1.51,0,1,0,1-1.89A1.52,1.52,0,0,0,11.94,35.09ZM8.79,32.28a1.66,1.66,0,1,0,1-2.14A1.66,1.66,0,0,0,8.79,32.28ZM32.6,33.75a.78.78,0,1,0,1.1.12A.78.78,0,0,0,32.6,33.75ZM25.28,36.9a.78.78,0,1,0,.89.66A.79.79,0,0,0,25.28,36.9ZM21.48,5.53a.78.78,0,1,0-.66.89A.79.79,0,0,0,21.48,5.53Zm-7.85,3a.79.79,0,0,0-1.1-.13.78.78,0,0,0-.13,1.1.79.79,0,0,0,1.1.13A.78.78,0,0,0,13.63,8.48Z"/></g></g></svg>