<svg xmlns="http://www.w3.org/2000/svg" viewBox="0 0 194.21 29.29"><title>roland</title><g id="Layer_2" data-name="Layer 2"><g id="Layer_1-2" data-name="Layer 1"><g id="zl01Dx"><path d="M47.86,0c.65.18,1.32.31,2,.54a9,9,0,0,1,5.79,9.6,8.81,8.81,0,0,1-7,7.87,8.92,8.92,0,0,1-1.79.19q-14.43,0-28.86,0h-.77v2.7H55.67V23H14.84V16.09h.79q15.44,0,30.86,0a6.89,6.89,0,0,0,7-7.07,7,7,0,0,0-6.77-6.9q-22,0-44.05,0l-.37,0V28.45H0V0Z"/><path d="M181.07,29.29c-.75-.12-1.5-.2-2.24-.36a10.84,10.84,0,0,1-8.69-10.39,9.73,9.73,0,0,1,4.08-8.13,11.88,11.88,0,0,1,13.57-1c.26.16.5.33.74.51.41.3.59.12.65-.29a4.86,4.86,0,0,0,0-.66V1.62c0-1.21.31-1.52,1.54-1.52.7,0,1.4,0,2.1,0a1.25,1.25,0,0,1,1.36.75V27.73a1.33,1.33,0,0,1-1.42.75c-.76,0-1.53,0-2.29,0s-1.15-.32-1.24-1.14-.3-.89-.92-.42A11.47,11.47,0,0,1,183.73,29c-.64.12-1.29.2-1.94.3Zm1.08-3.95a6.78,6.78,0,0,0,7-7,6.94,6.94,0,0,0-13.87-.08A6.78,6.78,0,0,0,182.15,25.34Z"/><path d="M128.63,29.29a23.37,23.37,0,0,1-2.36-.62,6.79,6.79,0,0,1-4.68-5.06,6.33,6.33,0,0,1,5.06-7.35,87.08,87.08,0,0,1,10.19-.92,1.2,1.2,0,0,0,1.1-.68,1.13,1.13,0,0,0-.13-1.24,4,4,0,0,0-2.94-1.88,12.92,12.92,0,0,0-4.43.13,3.85,3.85,0,0,0-2.5,1.75,1.81,1.81,0,0,1-1.65.91c-1,0-2,0-3-.05s-1.28-.44-.85-1.38a8.3,8.3,0,0,1,5.09-4.66,15.23,15.23,0,0,1,10.78.35,7,7,0,0,1,4.62,7V27c0,1.13-.35,1.48-1.47,1.48h-1.68a1.4,1.4,0,0,1-1.47-1c-.26-.69-.49-.74-1.06-.3a10.81,10.81,0,0,1-5.09,2c-.15,0-.3.08-.45.12Zm2.75-4a24.67,24.67,0,0,0,3.09-.69,4.72,4.72,0,0,0,3.44-4.14c.1-.94-.17-1.24-1.14-1.23-1.32,0-2.65,0-4,.13a15.15,15.15,0,0,0-4.7.92,2.09,2.09,0,0,0-1.47,2,2.21,2.21,0,0,0,1.3,2.13A9.61,9.61,0,0,0,131.38,25.25Z"/><path d="M81.48,14.53c1.7,1.15,1.75,3,2.16,4.59.48,1.9.78,3.85,1.23,5.76a26.58,26.58,0,0,0,.9,2.74c.19.53,0,.84-.53.85-1.13,0-2.25,0-3.38,0a1.57,1.57,0,0,1-1.7-1.32c-.37-1.77-.6-3.56-1-5.32a28,28,0,0,0-1-3.58c-.66-1.9-2.13-2.58-4.05-2.56-2.53,0-5.06,0-7.59,0-1.86,0-2,.16-2,2V27c0,1.11-.33,1.44-1.44,1.44H61c-1,0-1.38-.35-1.38-1.37V5.76c0-1.45,0-2.89,0-4.34C59.66.42,60,.1,61,.1H77.45a7.78,7.78,0,0,1,7.41,5,7.7,7.7,0,0,1-2.41,8.64ZM71,3.85H65.89c-1,0-1.37.37-1.37,1.39,0,1.73,0,3.45,0,5.18,0,1.13.38,1.52,1.5,1.52h9.33a7,7,0,0,0,1.44-.14,3.83,3.83,0,0,0,3.13-2.58,4,4,0,0,0-3.74-5.35C74.46,3.79,72.73,3.85,71,3.85Z"/><path d="M55.69,26.38v2.09H17a8.85,8.85,0,0,1-8.94-6.36.41.41,0,0,0-.21-.23v6.56H5.61V5.57h43v7H17.14A6.83,6.83,0,0,0,10,19.45a6.62,6.62,0,0,0,6,6.84,16.9,16.9,0,0,0,1.74.09H55.69ZM7.89,16.91A22,22,0,0,1,9.53,14a9,9,0,0,1,7.53-3.49c9.48,0,19,0,28.45,0h.76V7.7H7.89Z"/><path d="M99.23,29.2a14.28,14.28,0,0,1-8.6-2.45,10.28,10.28,0,0,1,.71-17.24,15.11,15.11,0,0,1,9.32-2A13.37,13.37,0,0,1,107.84,10,10.33,10.33,0,0,1,105.74,28,15.6,15.6,0,0,1,99.23,29.2Zm0-3.86a19.4,19.4,0,0,0,2.42-.41,6.85,6.85,0,0,0,5-5.16,6.35,6.35,0,0,0-2.09-6.37,8.16,8.16,0,0,0-10.5-.18,6.57,6.57,0,0,0-.77,9.54A7.87,7.87,0,0,0,99.27,25.34Z"/><path d="M146.09,18v-9c0-.94.38-1.3,1.32-1.3h2.35c.9,0,1.28.39,1.29,1.28a6,6,0,0,0,0,.6,5.8,5.8,0,0,0,.17.72,2.27,2.27,0,0,0,.7-.27,11.85,11.85,0,0,1,4.9-2.18c2.53-.49,5-.52,7.24,1A8.35,8.35,0,0,1,167.91,16c0,3.66,0,7.31,0,11,0,1.18-.35,1.53-1.54,1.53h-2.1c-1,0-1.34-.34-1.34-1.35,0-2.59,0-5.18,0-7.77,0-1.33,0-2.65-.05-4a3.64,3.64,0,0,0-3.26-3.73,7.18,7.18,0,0,0-6.71,2,6.61,6.61,0,0,0-1.85,4.7c0,2.91,0,5.82,0,8.73,0,1.1-.34,1.44-1.43,1.44-.75,0-1.49,0-2.23,0-.94,0-1.36-.41-1.37-1.36s0-1.89,0-2.83V18Z"/><path d="M119.37,14.35V26.94c0,1.22-.32,1.53-1.53,1.53-.91,0-1.81,0-2.71,0a1.09,1.09,0,0,1-1.2-1.14c0-.16,0-.32,0-.48V1.67c0-1.29.29-1.57,1.6-1.57h2.65a1,1,0,0,1,1.19,1.12c0,.2,0,.41,0,.61Z"/></g></g></g></svg>