<svg xmlns="http://www.w3.org/2000/svg" viewBox="0 0 180.25 116.4"><defs><style>.cls-1{fill-rule:evenodd;}</style></defs><title>sheraton</title><g id="Layer_2" data-name="Layer 2"><g id="Layer_1-2" data-name="Layer 1"><polygon class="cls-1" points="23.94 116.16 23.94 115.65 23.1 115.65 23.1 107.27 23.94 107.27 23.94 106.75 20.06 106.75 20.06 107.29 20.91 107.29 20.91 111.01 17.3 111.01 17.3 107.27 18.15 107.27 18.15 106.75 14.28 106.75 14.28 107.27 15.11 107.27 15.11 115.65 14.28 115.65 14.28 116.16 18.13 116.16 18.13 115.65 17.3 115.65 17.3 111.53 20.91 111.53 20.91 115.65 20.06 115.65 20.06 116.16 23.94 116.16 23.94 116.16 23.94 116.16"/><path class="cls-1" d="M35.14,111.53c.12-2.9-1.6-5-4.61-5-2.14,0-4.61,1.16-4.75,5a4.69,4.69,0,0,0,4.75,4.92c3.57,0,4.54-3.15,4.61-4.87Zm-2.3,0c0,2.63-.64,4.37-2.31,4.37s-2.39-2.26-2.39-4.37.46-4.78,2.39-4.78,2.31,2.7,2.31,4.78Z"/><path class="cls-1" d="M45.28,110.33v-3.58H37v3.58h.25c0-2.8,1.84-3.06,2.48-3.06h.21v8.38h-.85v.51h3.88v-.51h-.84v-8.38h.25c.52,0,2.69.26,2.69,3.06Z"/><path class="cls-1" d="M55.65,116.16v-3.31h-.3a2.71,2.71,0,0,1-2.53,2.8h-2.7v-4.08h1.11c1,.05,1.59.43,1.59,2h.29v-4.38h-.29a1.81,1.81,0,0,1-1.59,1.91H50.12v-3.86h2.07c2.21,0,2.63.55,3,2.9h.23v-3.42H47.09v.52h.84v8.38h-.84v.51Z"/><path class="cls-1" d="M65,116.16v-3.74h-.27c-.27,1.44-.74,3.23-3.18,3.23H60.48v-8.38h.86v-.52H57.46v.52h.84v8.38h-.84v.51Z"/><path class="cls-1" d="M74.88,113.15c0-1.88-1.33-3.14-3.4-3.22S68,109.86,68,108.47s1.3-1.53,2.32-1.53a3.72,3.72,0,0,1,3.54,2.89h.36v-3.08H73.9c0,.29,0,.69-.35.69s-1.34-.93-3.32-.93a3.11,3.11,0,0,0-3.31,3.1,3.06,3.06,0,0,0,3.22,3c1.83,0,3.48.13,3.48,1.61,0,1.33-1.44,1.69-2.75,1.71-2.28,0-3.29-1.5-3.72-3.13H66.8v3.39h.35s.08-.68.49-.68c.77,0,1.09.92,3.28.92,2.59,0,4-1.51,4-3.25Z"/><path class="cls-1" d="M89.19,113.62h-.33c0,.45,0,1.23-.63,1.23s-1.25-.94-1.25-.94a5.76,5.76,0,0,0,.64-2.9,4.17,4.17,0,0,0-.1-.8l-.52.1a5.63,5.63,0,0,1-.4,3.29l-3-3.06c.45-.28,1.65-.87,1.65-2.11a1.87,1.87,0,0,0-2.09-1.92A2.64,2.64,0,0,0,80.37,109c0,.91.38,1.36,1.08,2.25-.51.24-2.25,1.09-2.25,2.78,0,1,.72,2.4,3.12,2.4s3.16-.75,3.3-.85a1.91,1.91,0,0,0,1.47.56c1.82,0,2-1.24,2.08-1.66a5,5,0,0,0,0-.83Zm-4.89-5.19a2,2,0,0,1-1.06,1.76S82,109.06,82,108.07a1.21,1.21,0,0,1,1.2-1.22c.73,0,1.15.8,1.15,1.58Zm1,6.79a3.78,3.78,0,0,1-1.81.59,2.37,2.37,0,0,1-2.24-2.51,2.06,2.06,0,0,1,.66-1.6l3.39,3.52Z"/><path class="cls-1" d="M103.37,113.92h-.31c0,.62-.19,1.58-.66,1.58s-.47-.59-.57-1.9a2,2,0,0,0-1.88-2.14,2.26,2.26,0,0,0,2.14-2.28c0-1.34-.56-2.43-2.94-2.43H93.54v.52h.83v8.38h-.83v.51h3.87v-.51h-.85v-4H98c1.45,0,1.45.64,1.45,2.4s1,2.33,2,2.33c1.49,0,1.91-1,1.91-2.48Zm-3.47-4.6A1.64,1.64,0,0,1,98,111.16H96.56v-3.89h1.61c1.27,0,1.73.92,1.73,2Z"/><path class="cls-1" d="M113.74,116.16v-3.31h-.3a2.71,2.71,0,0,1-2.52,2.8h-2.71v-4.08h1.12c1,.05,1.59.43,1.59,2h.28v-4.38h-.28a1.81,1.81,0,0,1-1.59,1.91h-1.12v-3.86h2.08c2.2,0,2.63.55,3,2.9h.24v-3.42h-8.34v.52H106v8.38h-.83v.51Z"/><path class="cls-1" d="M123.62,113.15a3.18,3.18,0,0,0-3.39-3.22c-2-.07-3.44-.07-3.44-1.46s1.3-1.53,2.32-1.53a3.72,3.72,0,0,1,3.54,2.89H123v-3.08h-.36c0,.29,0,.69-.35.69s-1.34-.93-3.32-.93a3.1,3.1,0,0,0-3.31,3.1,3.06,3.06,0,0,0,3.22,3c1.83,0,3.48.13,3.48,1.61,0,1.33-1.44,1.69-2.75,1.71-2.28,0-3.29-1.5-3.72-3.13h-.35v3.39h.35s.08-.68.49-.68c.77,0,1.09.92,3.28.92,2.59,0,4-1.51,4-3.25Z"/><path class="cls-1" d="M134.78,111.53c.12-2.9-1.6-5-4.62-5-2.13,0-4.6,1.16-4.74,5a4.69,4.69,0,0,0,4.74,4.92c3.58,0,4.55-3.15,4.62-4.87Zm-2.3,0c0,2.63-.64,4.37-2.32,4.37s-2.39-2.26-2.39-4.37.47-4.78,2.39-4.78,2.32,2.7,2.32,4.78Z"/><path class="cls-1" d="M146.43,113.92h-.31c0,.62-.19,1.58-.66,1.58s-.47-.59-.57-1.9a2,2,0,0,0-1.87-2.14,2.26,2.26,0,0,0,2.14-2.28c0-1.34-.57-2.43-2.94-2.43H136.6v.52h.84v8.38h-.84v.51h3.88v-.51h-.85v-4h1.46c1.45,0,1.45.64,1.45,2.4s1,2.33,2,2.33c1.49,0,1.91-1,1.91-2.48Zm-3.46-4.6a1.64,1.64,0,0,1-1.88,1.84h-1.46v-3.89h1.6c1.27,0,1.74.92,1.74,2Z"/><path class="cls-1" d="M156.57,110.33v-3.58h-8.32v3.58h.25c0-2.8,1.84-3.06,2.47-3.06h.22v8.38h-.85v.51h3.88v-.51h-.84v-8.38h.25c.52,0,2.69.26,2.69,3.06Z"/><path class="cls-1" d="M166.45,113.15a3.18,3.18,0,0,0-3.39-3.22c-2-.07-3.44-.07-3.44-1.46s1.3-1.53,2.31-1.53a3.72,3.72,0,0,1,3.54,2.89h.37v-3.08h-.37c0,.29,0,.69-.35.69s-1.34-.93-3.31-.93a3.11,3.11,0,0,0-3.32,3.1,3.07,3.07,0,0,0,3.23,3c1.83,0,3.48.13,3.48,1.61,0,1.33-1.44,1.69-2.76,1.71-2.27,0-3.29-1.5-3.71-3.13h-.35v3.39h.35s.07-.68.49-.68c.76,0,1.08.92,3.27.92,2.59,0,4-1.51,4-3.25Z"/><path class="cls-1" d="M83.8,59.78a14.66,14.66,0,0,0-4.27,1,5.25,5.25,0,0,1-3.39,0c-.24-.1-1-.15-.09.88a4.28,4.28,0,0,0,1.32.88c3.14,1.52,5.94.89,9.32-.63.84-.4,2.21-.35,2.21-.79s-.74-.74-1.23-1.42a15.42,15.42,0,0,0-7-5.89c-1.48-.59-2.16-.15-1.72.25,1.08,1,1.62,2.94,3,4.56a4,4,0,0,0,1.77,1.18Z"/><path class="cls-1" d="M88.61,58.35c0-1,1.57-2.6,1.86-3.53.34.93,1.86,2.5,1.86,3.53a1.86,1.86,0,1,1-3.72,0Z"/><path class="cls-1" d="M88.61,63.46c0,1,1.57,2.65,1.86,3.58.34-.93,1.86-2.55,1.86-3.58a1.86,1.86,0,1,0-3.72,0Z"/><path class="cls-1" d="M74.52,55.9a15,15,0,0,0-4.26-.54,5.45,5.45,0,0,1-3-1.08c-.2-.19-.89-.54-.4.79a4.44,4.44,0,0,0,.89,1.17c2.4,2.46,5.15,2.8,8.68,2.51.93,0,2.45.29,2.55-.15s-.64-.79-.88-1.52a15,15,0,0,0-4.37-7.7c-1.13-1-2-.79-1.67-.3.64,1.28.49,3.19,1.28,5.15a4.48,4.48,0,0,0,1.22,1.67Z"/><path class="cls-1" d="M66.92,49a12.41,12.41,0,0,0-3.73-1.67,5,5,0,0,1-2.5-1.86c-.15-.24-.69-.74-.64.59a7.4,7.4,0,0,0,.54,1.42c1.47,2.85,3.93,4,7.26,4.66.84.25,2.16.93,2.36.59s-.39-.88-.35-1.67A14.48,14.48,0,0,0,68,42.8c-.69-1.27-1.52-1.32-1.37-.74.19,1.33-.44,3-.3,5.06A4.26,4.26,0,0,0,66.92,49Z"/><path class="cls-1" d="M62.31,40.64A13.5,13.5,0,0,0,59.41,38a4.21,4.21,0,0,1-1.71-2.45c-.1-.25-.44-.83-.79.39a8.56,8.56,0,0,0,.1,1.42c.49,3.1,2.4,4.81,5.2,6.43.74.49,1.72,1.47,2,1.28s-.1-.93.15-1.62a13.94,13.94,0,0,0,.74-8.15c-.3-1.37-1-1.61-1-1.07-.25,1.27-1.33,2.64-1.77,4.56a3.9,3.9,0,0,0,0,1.86Z"/><path class="cls-1" d="M60.74,31.17a13.38,13.38,0,0,0-1.67-3.28,4.47,4.47,0,0,1-.64-2.75c0-.2-.09-.88-.78.1a5.48,5.48,0,0,0-.44,1.27c-.59,2.85.54,5,2.4,7.41.49.64,1,1.91,1.28,1.77s.29-.84.73-1.33a13.12,13.12,0,0,0,3.29-6.92c.2-1.27-.34-1.81-.49-1.32-.64,1.08-2.11,1.91-3,3.43a2.75,2.75,0,0,0-.64,1.62Z"/><path class="cls-1" d="M62,22.29a12.29,12.29,0,0,0-.74-3.43,4.13,4.13,0,0,1,.1-2.65c.05-.25.1-.88-.79-.15-.14.2-.39.59-.68,1.08-1.23,2.46-.74,4.76.39,7.41.29.69.44,2,.73,1.91s.49-.68,1-1.08a12.63,12.63,0,0,0,4.75-5.49c.5-1.13.1-1.77-.14-1.37-.84.83-2.36,1.22-3.63,2.45a2.38,2.38,0,0,0-1,1.32Z"/><path class="cls-1" d="M65.5,14.39a12,12,0,0,0,.29-3.53,4,4,0,0,1,.79-2.55c.14-.15.34-.74-.64-.29a3,3,0,0,0-1,.83c-1.92,2-2.06,4.37-1.72,7.21.1.79-.1,2,.2,2.06s.64-.54,1.27-.78a12.4,12.4,0,0,0,6-3.93c.78-1,.63-1.66.24-1.37-1,.54-2.6.54-4.17,1.32a2.72,2.72,0,0,0-1.32,1Z"/><path class="cls-1" d="M70.94,8.11a9.42,9.42,0,0,0,1.33-2.84A3.59,3.59,0,0,1,73.74,3.5c.2-.14.54-.59-.44-.49a3.58,3.58,0,0,0-1.08.35c-2.16,1.08-3,2.94-3.68,5.39-.15.64-.69,1.62-.44,1.77s.68-.25,1.22-.25A10.77,10.77,0,0,0,75.56,8.9c.93-.54,1-1.13.63-1-1,.15-2.3-.34-3.82-.25a2.57,2.57,0,0,0-1.43.49Z"/><path class="cls-1" d="M77.13,3.94a9.31,9.31,0,0,0,1.66-2.15A3.13,3.13,0,0,1,80.36.51c.2,0,.54-.39-.29-.49a2.52,2.52,0,0,0-1,.1c-2.06.49-3.19,2-4.17,4-.25.49-.93,1.28-.69,1.42s.64-.14,1.13,0a9,9,0,0,0,5.59,0c.89-.29,1.08-.78.74-.73-.93-.1-1.92-.74-3.29-.93a2.27,2.27,0,0,0-1.27.09Z"/><path class="cls-1" d="M86.74.66a4.23,4.23,0,0,1-2.75,2,3.93,3.93,0,0,1-3.28-.25,4.23,4.23,0,0,1,2.7-2,4.25,4.25,0,0,1,3.33.25Z"/><path class="cls-1" d="M100.58,14.64a1.83,1.83,0,0,0,2.4-1,2,2,0,0,0,.3-1h1.42V24.16h-1c-1.77-4.81-6.18-9.47-11.34-10.6-5.1-.78-11-.69-14,3.78A3.58,3.58,0,0,0,79.53,22c5.25,3.19,11,1.72,18,2.7,3.53.49,7.4,2.5,9,6.43,1.52,3.77,1.23,7.65-.29,10.2C102.59,47.41,95.92,48,91.65,48c-4.47,0-8.93-2.06-12.46-3.33a1.82,1.82,0,0,0-2.41,1,2.24,2.24,0,0,0-.29,1H75.07V34.51c.39,0,.83,0,1.42.05a15.45,15.45,0,0,0,10.2,11c5.1,1.52,10.21,1.27,14.18-1.52a5.08,5.08,0,0,0,1.57-5.5c-.88-3.09-5.64-3.92-9.08-4-7.36-.2-16.28-.1-18.93-8.19-1-3.88-.4-8.15,2.4-11,4.61-4.52,12.36-4.66,18.25-2.85,2.11.44,3.53,1.57,5.5,2.16Z"/><path class="cls-1" d="M97.14,59.78a15.48,15.48,0,0,1,4.32,1,5.1,5.1,0,0,0,3.34,0c.24-.1,1-.15.09.88a4.28,4.28,0,0,1-1.32.88c-3.14,1.52-5.94.89-9.27-.63-.89-.4-2.26-.35-2.21-.79s.69-.74,1.18-1.42a15.42,15.42,0,0,1,7-5.89c1.48-.59,2.16-.15,1.72.25-1.08,1-1.57,2.94-3,4.56a4,4,0,0,1-1.77,1.18Z"/><path class="cls-1" d="M106.42,55.9a15,15,0,0,1,4.26-.54,5.38,5.38,0,0,0,3-1.08c.19-.19.88-.54.39.79a4.44,4.44,0,0,1-.89,1.17c-2.4,2.46-5.15,2.8-8.68,2.51-.93,0-2.4.29-2.55-.15s.64-.79.88-1.52a15,15,0,0,1,4.37-7.7c1.13-1,2-.79,1.67-.3-.64,1.28-.49,3.19-1.28,5.15a4.48,4.48,0,0,1-1.22,1.67Z"/><path class="cls-1" d="M114,49a12.52,12.52,0,0,1,3.73-1.67,4.77,4.77,0,0,0,2.5-1.86c.15-.24.69-.74.64.59a7.4,7.4,0,0,1-.54,1.42c-1.47,2.85-3.93,4-7.26,4.66-.84.25-2.16.93-2.36.59s.4-.88.35-1.67A14.48,14.48,0,0,1,113,42.8c.74-1.27,1.52-1.32,1.37-.74-.19,1.33.44,3,.3,5.06A4.26,4.26,0,0,1,114,49Z"/><path class="cls-1" d="M118.63,40.64A12.68,12.68,0,0,1,121.57,38a4.66,4.66,0,0,0,1.72-2.45c0-.25.39-.83.74.39a7.4,7.4,0,0,1,0,1.42c-.49,3.1-2.45,4.81-5.25,6.43-.74.49-1.72,1.47-2,1.28s0-.93-.2-1.62a14.36,14.36,0,0,1-.74-8.15c.35-1.37,1-1.61,1-1.07.24,1.27,1.37,2.64,1.76,4.56a3,3,0,0,1,0,1.86Z"/><path class="cls-1" d="M120.2,31.17a15.4,15.4,0,0,1,1.67-3.28,4.47,4.47,0,0,0,.64-2.75c0-.2.14-.88.83.1a5.89,5.89,0,0,1,.39,1.27c.59,2.85-.54,5-2.35,7.41-.54.64-1,1.91-1.33,1.77s-.24-.84-.68-1.33A13.21,13.21,0,0,1,116,27.44c-.2-1.27.34-1.81.49-1.32.64,1.08,2.11,1.91,3,3.43a2.47,2.47,0,0,1,.64,1.62Z"/><path class="cls-1" d="M119,22.29a10.89,10.89,0,0,1,.69-3.43,4.06,4.06,0,0,0,0-2.65c-.1-.25-.15-.88.74-.15a7.54,7.54,0,0,1,.68,1.08c1.28,2.46.74,4.76-.34,7.41-.29.69-.49,2-.78,1.91s-.45-.68-1-1.08a13,13,0,0,1-4.75-5.49c-.45-1.13-.1-1.77.19-1.37.79.83,2.36,1.22,3.63,2.45a2.64,2.64,0,0,1,1,1.32Z"/><path class="cls-1" d="M115.44,14.39a10.29,10.29,0,0,1-.24-3.53,4.41,4.41,0,0,0-.84-2.55c-.1-.15-.34-.74.69-.29a3.68,3.68,0,0,1,.93.83c1.92,2,2.06,4.37,1.72,7.21-.1.79.1,2-.2,2.06s-.63-.54-1.22-.78a12.32,12.32,0,0,1-6.09-3.93c-.78-1-.59-1.66-.24-1.37,1,.54,2.6.54,4.17,1.32a2.72,2.72,0,0,1,1.32,1Z"/><path class="cls-1" d="M110.09,8.07a10.4,10.4,0,0,1-1.27-2.85,4,4,0,0,0-1.47-1.77c-.2-.14-.54-.59.44-.49a4.18,4.18,0,0,1,1.08.35c2.16,1.08,3,2.94,3.63,5.39.15.69.73,1.62.49,1.77s-.69-.25-1.28-.25a10.66,10.66,0,0,1-6.18-1.32c-1-.59-1-1.18-.69-1.08,1.08.15,2.36-.34,3.88-.25a2.3,2.3,0,0,1,1.37.5Z"/><path class="cls-1" d="M103.86,3.94a8.51,8.51,0,0,1-1.66-2.2A3.4,3.4,0,0,0,100.63.46c-.2-.05-.54-.34.29-.44a2.45,2.45,0,0,1,1,.1c2.06.49,3.19,2,4.17,4,.25.54.93,1.28.69,1.42s-.64-.09-1.13,0a9.23,9.23,0,0,1-5.54,0c-.94-.29-1.13-.83-.79-.78.93-.1,1.91-.74,3.29-.93a2.28,2.28,0,0,1,1.27.14Z"/><path class="cls-1" d="M94.2.66a4.23,4.23,0,0,0,2.75,2,3.93,3.93,0,0,0,3.28-.25,4.23,4.23,0,0,0-2.7-2A4.25,4.25,0,0,0,94.2.66Z"/><path class="cls-1" d="M23.92,89.73c0-5.56-3.93-9.31-10.05-9.53C8.09,80,3.67,80,3.67,75.86c0-3.82,3.86-4.52,6.86-4.52,7.87,0,10.17,7.27,10.5,8.56H22.1V70.78H21c0,.85,0,2-1,2-1.37,0-4-2.75-9.83-2.75S.33,73.93.33,79.24C.33,84,4.23,88,9.9,88.06c5.42.08,10.31.37,10.31,4.75,0,4-4.26,5-8.16,5.08C5.3,98,2.3,93.44,1,88.62H0v10H1s.22-2,1.44-2c2.27,0,3.23,2.74,9.72,2.74,7.68,0,11.72-4.48,11.72-9.64Z"/><path class="cls-1" d="M50.92,98.67V97.34H48.55V85.28c0-3.56-2.86-7-7.79-7a9.16,9.16,0,0,0-7.19,3.08V70.78H24.78v1.33H27V97.34H24.59v1.33H35.87V97.34h-2.3V85.91c0-2.78,1.55-5.71,4.74-5.71A3.69,3.69,0,0,1,41.73,84V97.34H39.28v1.33Z"/><path class="cls-1" d="M71.74,88.62V87.17c0-4.52-3.22-9.2-10-9.2C55.5,78,50.9,81.72,50.9,88.84S56,99.37,62.1,99.37c3.93,0,8.86-1.74,9.49-7.82H70.7a6.92,6.92,0,0,1-6.78,6.08c-5.79,0-6.53-4.34-6.53-9Zm-6.08-1.3H57.39s-.22-8.16,4.23-8.16c4.82,0,4,8.16,4,8.16Z"/><path class="cls-1" d="M91.79,82.76c0-2.08-1.33-4.53-4-4.53a7.82,7.82,0,0,0-6,3.34V78.68H73V80h2V97.34H72.54v1.33H83.89V97.34H81.52V88.62c0-4.45,2.52-9.12,6.08-9.12a1.65,1.65,0,0,1,1.45.7c-1.3-.41-3.42.89-3.42,3.08a3.17,3.17,0,0,0,3.16,3c1.67,0,3-1.75,3-3.49Z"/><path class="cls-1" d="M116.6,93.77V92.25h-1c0,1,0,4.75-1.59,4.75a1.45,1.45,0,0,1-1.56-1.59V88.92c0-3.71.93-11-9.53-11-6.16,0-9.27,2.45-9.27,5.31a2.93,2.93,0,0,0,3.11,3.11,3.26,3.26,0,0,0,2.93-3.07,3.52,3.52,0,0,0-2-3,6.74,6.74,0,0,1,3.26-.85c2.53,0,4.82,1.49,4.82,4,0,6.83-13.31,1.41-13.31,10.28,0,2.33,1.34,5.63,6.53,5.63s6.08-2,7-3.48c1.19,2,2.12,3.41,4.9,3.41,4.19,0,5.71-2,5.71-5.53Zm-11.09-.4A4.67,4.67,0,0,1,102,97.48c-1.82,0-3-2-3-3.89,0-4.6,3.93-4.27,6.56-6.49v6.27Z"/><path class="cls-1" d="M130.49,93.59V92.4h-1c0,1.45,0,4.53-2.41,4.53a2.34,2.34,0,0,1-2.27-2.64V80h3.71v-1.3h-3.71V71.74h-1c-.63,3.23-2.78,6.94-7.31,6.94V80H119V94.29c0,2.64,2.08,5.08,5.71,5.08,4.79,0,5.79-3.89,5.79-5.78Z"/><path class="cls-1" d="M153.63,88.84c0-5.56-3-10.87-11.39-10.87-7.12,0-10.79,4.75-10.79,10.87,0,6.83,4.38,10.53,11.16,10.53,5.83,0,11-3.3,11-10.53Zm-6.31-.33c0,3.89-.74,9.46-4.93,9.46-4.41,0-4.82-6.9-4.82-9,0-3.38.7-9.75,5.16-9.75,3.78,0,4.59,5.08,4.59,9.27Z"/><path class="cls-1" d="M180.25,98.67V97.34H178V85.21c0-3.75-2.63-7.12-7.86-7.12a8.65,8.65,0,0,0-7.27,3.37V78.68H154.1V80h2.26V97.34h-2.45v1.33h11.35V97.34h-2.37v-11c0-2.78,1.67-6,4.67-6a3.34,3.34,0,0,1,3.56,3.34V97.34h-2.44v1.33Z"/></g></g></svg>