<svg xmlns="http://www.w3.org/2000/svg" viewBox="0 0 186.84 53.01"><g id="Layer_2" data-name="Layer 2"><g id="Layer_1-2" data-name="Layer 1"><g id="v9w5iv"><path d="M19,19.71v9a22.74,22.74,0,0,0-3.19,0,7.58,7.58,0,0,0-6.69,7.82,7.77,7.77,0,0,0,7.19,7.41,7.67,7.67,0,0,0,8-6.19A9.82,9.82,0,0,0,24.41,36q0-17.59,0-35.2c0-.81,0-.81.83-.81h8.25A13.06,13.06,0,0,0,46.18,12.8c0,.17,0,.34,0,.51,0,2.62,0,5.24,0,7.86,0,.51-.15.64-.64.62a21.49,21.49,0,0,1-11.15-3.51l-.84-.55c0,.34,0,.56,0,.79,0,5.84,0,11.67,0,17.51A16.58,16.58,0,0,1,27.5,49.15,16.77,16.77,0,0,1,5.05,48.2,16.46,16.46,0,0,1,0,36.49a16.86,16.86,0,0,1,10.2-15.66A16,16,0,0,1,19,19.71Z"/><path d="M148.21,43.34a11.69,11.69,0,0,1-9.66-3.75,11.54,11.54,0,0,1-2.34-12.87,11.19,11.19,0,0,1,10.37-7.32,16.55,16.55,0,0,1,6.87.73,11.93,11.93,0,0,1,7.65,12.15,11.79,11.79,0,0,1-10.16,10.89A24.85,24.85,0,0,1,148.21,43.34Zm-6.74-12.05a5.83,5.83,0,1,0,5.94-5.78A5.82,5.82,0,0,0,141.47,31.29Z"/><path d="M89.19,13.86h6.87V27.53c.28-.25.44-.38.58-.52,2-2,4-3.93,6.06-5.9a1.3,1.3,0,0,1,1-.4c2.53,0,5.07,0,7.78,0l-8.79,8.54,9.82,14.06c-.26,0-.45,0-.63,0-2.1,0-4.21,0-6.31,0a1.23,1.23,0,0,1-1.2-.62c-1.92-2.92-3.88-5.81-5.83-8.7-.09-.14-.18-.26-.32-.45-.66.64-1.33,1.26-2,1.91a1,1,0,0,0-.12.61c0,2.38,0,4.76,0,7.2h-7Z"/><path d="M172.56,33.6c-.66.63-1.31,1.24-1.93,1.88a1,1,0,0,0-.14.6c0,2.19,0,4.37,0,6.56v.68h-7V13.89h6.87V27.57c.82-.79,1.5-1.44,2.17-2.1,1.5-1.45,3-2.92,4.5-4.35a1.46,1.46,0,0,1,.91-.38c2.43,0,4.85,0,7.27,0h.57c-3,2.91-5.86,5.7-8.79,8.54l9.82,14.07-.64,0c-2.16,0-4.33,0-6.49,0a1,1,0,0,1-.91-.49c-1.93-2.91-3.89-5.8-5.83-8.7Z"/><path d="M121,20.22h-7.1V14h22.32c-.23.75-.46,1.49-.7,2.22-.38,1.19-.78,2.37-1.14,3.56a.55.55,0,0,1-.63.46c-1.67,0-3.33,0-5,0h-.69V43.33H121Z"/><path d="M70.31,43.34H63.24V20.2H56.13V14h21.8c0,.15-.06.3-.1.44-.56,1.75-1.14,3.5-1.67,5.27a.64.64,0,0,1-.76.53c-1.47,0-2.93,0-4.4,0h-.69Z"/><path d="M86.33,43.33h-7v-20h7Z"/><path d="M82.79,21a3.52,3.52,0,0,1,.08-7,3.52,3.52,0,1,1-.08,7Z"/></g></g></g></svg>