<svg xmlns="http://www.w3.org/2000/svg" viewBox="0 0 119.03 85.47"><title>toyota</title><g id="Layer_2" data-name="Layer 2"><g id="Layer_1-2" data-name="Layer 1"><g id="iK9u0D"><path d="M59.37,56.77A62.94,62.94,0,0,1,36,52.42a39.09,39.09,0,0,1-14.79-9.87,21.61,21.61,0,0,1-5.65-11.29,19.51,19.51,0,0,1,3.74-14.68A33.42,33.42,0,0,1,30.72,6.84,55.35,55.35,0,0,1,50.16.63a66.31,66.31,0,0,1,20.9.42A51.43,51.43,0,0,1,91.35,9a29.61,29.61,0,0,1,9,9.21c4.47,7.48,3.79,15.94-1.86,23a35.87,35.87,0,0,1-13.09,10,58.62,58.62,0,0,1-22.2,5.41Zm33-42.52a9.27,9.27,0,0,1-3.68,6.49,28.16,28.16,0,0,1-4.49,3A42.85,42.85,0,0,1,70.84,28c-.68.11-.82.37-.81,1a49.83,49.83,0,0,1-2.2,15.77c-1.11,3.4-2.56,6.63-5.46,8.94,0,0,0,.09,0,.17l.5,0a48.44,48.44,0,0,0,13.17-2.58A36.09,36.09,0,0,0,92.24,40.65,19.83,19.83,0,0,0,93,15C92.86,14.81,92.66,14.6,92.36,14.25ZM56.3,53.88C55.47,53,54.67,52.25,54,51.4a22.53,22.53,0,0,1-3.43-7.22,51.23,51.23,0,0,1-2-15.27c0-.62-.17-.83-.8-1-2.18-.44-4.37-.87-6.51-1.49a30.14,30.14,0,0,1-10.9-5.3,10.4,10.4,0,0,1-4-5.86c-.06-.29-.11-.59-.2-1.06-.39.52-.68.88-.95,1.26-4.72,6.84-5.4,14-1.45,21.38A27.72,27.72,0,0,0,34.16,47.31a45.52,45.52,0,0,0,18,6.16C53.52,53.65,54.87,53.74,56.3,53.88ZM49,21c.11-.16.15-.19.16-.24s.05-.24.07-.36A34,34,0,0,1,53,9a11.92,11.92,0,0,1,3.08-3.69,4.93,4.93,0,0,1,6.56.11,14.42,14.42,0,0,1,2.78,3.25A31.25,31.25,0,0,1,69.3,20.27c.1.56.26.69.81.6A40.09,40.09,0,0,0,79,18.43a13.44,13.44,0,0,0,4.61-2.94c1.84-1.92,1.89-4,0-5.9a12.38,12.38,0,0,0-2.67-2,32.26,32.26,0,0,0-11-3.44A67.78,67.78,0,0,0,49.59,4a37.5,37.5,0,0,0-11,3.07,10.24,10.24,0,0,0-4.27,3.26,3.57,3.57,0,0,0-.05,4.25,8.77,8.77,0,0,0,3.3,2.83,28.24,28.24,0,0,0,7.88,2.83C46.67,20.52,47.88,20.74,49,21ZM66,28.77H52.69c.09,1.23.14,2.49.27,3.74a25.77,25.77,0,0,0,2.39,9.08,10.34,10.34,0,0,0,1.45,2.14c1.56,1.77,3.47,1.75,5,0a9.44,9.44,0,0,0,1.22-1.77,21,21,0,0,0,2.26-7.2C65.62,32.76,65.76,30.76,66,28.77Zm-.64-7.33a3,3,0,0,0,0-.43,25,25,0,0,0-1.82-6.34,8.58,8.58,0,0,0-2.3-3.25,2.81,2.81,0,0,0-3.86,0,8.32,8.32,0,0,0-1.44,1.69,18.79,18.79,0,0,0-2.37,6.37c-.13.61-.22,1.24-.34,1.92A63.84,63.84,0,0,0,65.33,21.44Z"/><path d="M28.6,64.47A10.5,10.5,0,1,1,18,74.83,10.45,10.45,0,0,1,28.6,64.47Zm-6,9.9a7.93,7.93,0,0,0,1.3,4.77,5.46,5.46,0,0,0,8.57.77,7.3,7.3,0,0,0,.28-9.59,5.46,5.46,0,0,0-8.78.37A6.84,6.84,0,0,0,22.56,74.37Z"/><path d="M70,64.47A10.5,10.5,0,1,1,59.46,75,10.49,10.49,0,0,1,70,64.47Zm-5.9,10.59a7,7,0,0,0,1.4,4.23,5.46,5.46,0,0,0,8.49.6,7.34,7.34,0,0,0,.33-9.49,5.48,5.48,0,0,0-8.8.2A7.15,7.15,0,0,0,64.07,75.06Z"/><path d="M97.23,85c.12-.34.19-.57.28-.79,2.49-6,5-12.1,7.47-18.16a1.17,1.17,0,0,1,1.32-.86c1.24.06,2.48,0,3.72,0a1.07,1.07,0,0,1,1.2.81c2.3,5.64,4.64,11.28,7,16.92.27.63.53,1.27.85,2-.41,0-.71,0-1,0-1.15,0-2.29,0-3.43,0a.8.8,0,0,1-.92-.62c-.39-1.13-.86-2.23-1.26-3.35a.7.7,0,0,0-.77-.52q-3.49,0-7,0a.8.8,0,0,0-.87.61c-.4,1.13-.83,2.24-1.27,3.34-.08.2-.3.49-.45.49C100.48,85,98.9,85,97.23,85Zm8.08-7.84h5.6l-2.7-7.07-.2,0Z"/><path d="M51.46,85H47c0-.3,0-.56,0-.82,0-2,0-4,0-6a2.45,2.45,0,0,0-.35-1.17c-2.26-3.64-4.56-7.27-6.85-10.9-.14-.22-.27-.46-.48-.83,1.7,0,3.28,0,4.85,0,.2,0,.45.34.59.58,1.35,2.31,2.68,4.63,4,7,.12.22.26.42.45.73.19-.29.34-.51.47-.73,1.34-2.32,2.69-4.64,4-7a1,1,0,0,1,1.06-.6c1.41,0,2.82,0,4.39,0-.21.38-.35.63-.5.87-2.25,3.57-4.51,7.13-6.72,10.72a3.07,3.07,0,0,0-.43,1.51c0,1.94,0,3.87,0,5.81Z"/><path d="M0,68.79V65.25H16.71v3.51H10.64c0,.38-.07.69-.07,1,0,4.76,0,9.53,0,14.29,0,.73-.16,1-.94,1C8.54,85,7.43,85,6.23,85c0-.35,0-.64,0-.93q0-7,0-14.07c0-1.35.16-1.2-1.18-1.2Z"/><path d="M81.9,65.19h1.78c4.69,0,9.38,0,14.07,0,.7,0,1,.15.93.9s0,1.73,0,2.69H92.45V85c-1.41,0-2.72,0-4,0-.13,0-.35-.42-.36-.65,0-2.26,0-4.52,0-6.78v-8c0-.22,0-.44,0-.77H81.9Z"/></g></g></g></svg>