<svg xmlns="http://www.w3.org/2000/svg" viewBox="0 0 123.06 100.01"><title>twitter</title><g id="Layer_2" data-name="Layer 2"><g id="Layer_1-2" data-name="Layer 1"><g id="layer1"><path id="path3611" d="M38.7,100c46.44,0,71.84-38.47,71.84-71.83,0-1.1,0-2.18-.07-3.27a51.47,51.47,0,0,0,12.59-13.07,50.3,50.3,0,0,1-14.5,4,25.34,25.34,0,0,0,11.1-14,50.83,50.83,0,0,1-16,6.13A25.26,25.26,0,0,0,60,25.24,24.81,24.81,0,0,0,60.61,31a71.67,71.67,0,0,1-52-26.38,25.3,25.3,0,0,0,7.82,33.71A25.11,25.11,0,0,1,5,35.17c0,.11,0,.21,0,.32A25.25,25.25,0,0,0,25.2,60.24a25.29,25.29,0,0,1-11.4.44A25.25,25.25,0,0,0,37.38,78.21,50.62,50.62,0,0,1,6,89a52.17,52.17,0,0,1-6-.35A71.47,71.47,0,0,0,38.7,100"/></g></g></g></svg>