<svg xmlns="http://www.w3.org/2000/svg" viewBox="0 0 195.05 94.14"><title>universal</title><g id="Layer_2" data-name="Layer 2"><g id="Layer_1-2" data-name="Layer 1"><path d="M103.82,30.88a2.27,2.27,0,0,1,1.64.16s1.93-.61.32-.56-1.62-1.26-2.74-1-.92-1-1.74-1c-.6,0-1.46-.3-1.75.13-.46.7.55-.3,1.59.59,1.48,1.26,1.36.4,2.24,1.12C104,30.78,103.49,31.05,103.82,30.88Z"/><path d="M121.05,70.81c2.83-2.9,1.81-3.54,3.78-4.6s2.25.1,3-.81c1.58-2.06,1-1.92,1.69-3.23l.46-.73s1-.86.64-1.33.06-1.19.06-1.19H104.72l2.88,2.52a3.28,3.28,0,0,1,1.8,1.87c.87,2.29-.42.43-.42,3.9,0,3.19-.9,2.67-.9,2.67s-.19,3.77-2.14,6.08a1.6,1.6,0,0,0-.28,2.29s-.42.23-1,3c-.19.89,1,2.25,1.93,1.91.73-.25-1.79-.5.94-1.65,1.06-.45.2-1.29.2-1.29s1.77-.14,2.77-2.82c1.77.26,1.11-.82,4.74-1.6,1-.21,1.17-.5,1.05-1.41S117.44,74.48,121.05,70.81Z"/><path d="M112.46,32.46a1.16,1.16,0,0,0-.7-.24l.13.58C112.11,32.8,112.43,32.74,112.46,32.46Z"/><path d="M106.7,32.22H107c.29-.08.52.26.58.46.87-.69,1.84-.48,2.77-.69-.93-.37-1.7-1.12-2.77-1.15C106.24,30.87,107.51,31.56,106.7,32.22Z"/><polygon points="54.71 32.82 54.71 32.82 54.71 32.82 54.71 32.82"/><path d="M84.24,5.32a.71.71,0,0,0-.26.39c-1.28.8-.84,1.72-1.48,1.93-1.11.37-2.31,3.75-2.31,3.75s.69.46-1.46,2.86a11.51,11.51,0,0,0-2.29,5,9.09,9.09,0,0,1,1,4.62c-.17,1.88-.25.48.56,1.84.49.8,1,3.59,1.32,2.5.6-2.07-1.11-4-.82-6.05.06.26.65-.82.63.15-.06,2.55,3.13,7.45,3.13,7.45S81,31,82.27,31l-.31.75a2.54,2.54,0,0,1,1.52.43c.6.5,1.11,1.1,1.66,1.1h9.19S95,30.45,95.52,30,94.45,30,94,29.5s-.77.42-1,.89-.53,1.3-1.24,1.54a13.55,13.55,0,0,1-2.79.36c-.35,0-1.42-2-1.42-2h0c-1-1.53-.24-3.44.84-5.3a3.93,3.93,0,0,1,4.74-1.25c2.06-1.62,2.55.12,4.37-.67,2.4-1,1.06,2.76,3.38,3.72,1-2.56-2.19-4.48-.21-5.69,1.4-.86,2.47-1.39,3.05-2.54.82-1.64,1.14-2.85,1.77-3.06a1.63,1.63,0,0,0,1.15-1.89,3.07,3.07,0,0,0,2.77-.68c-.93-.5-2.27-.93-1.92-1.92.41-1.17,3.55,1.21,4.47-.71-1.86-.81-3.76-2.58-4.9-3-.78.85-1.27.51-2.27-.28-1.71-1.35-1.85-.07-2.91-1-.86,1.7.43,1.56.82,2,1.09,1.2-1.11-1.08-.9,2,.06.8-1.12.94-2-.77-.46-.9-4.08-.71-4.63-1.57.5-1,4.76-4.55,11.31-3.69l-.59-.22c17.26,2.57,31.35,14.15,36.73,29.49C136.73,14.5,120.56,0,98.55,0,74.87,0,60.7,14.31,54.71,32.82,59.41,19.82,70.4,9.58,84.24,5.32Z"/><path d="M98.58,90.9c-20.24,0-37.44-12.26-43.77-29.36C60.89,79.89,76,94.14,98.55,94.14c21.24,0,38-14.44,44-33C136.29,78.45,119,90.9,98.58,90.9Z"/><path d="M13.18,38.64v9.48c0,2.13-1.41,3-3.52,3s-3.52-.9-3.52-3V38.64l1.08-1.29H0l1.08,1.29v9.64c0,4.72,2.65,6.55,8.58,6.55s8.59-1.83,8.59-6.55V38.64l1.08-1.29H12.1Z"/><polygon points="39.38 38.64 39.38 47.27 30.65 37.35 25.17 37.35 26.25 38.64 26.25 53.21 25.17 54.49 31.26 54.49 30.18 53.21 30.18 44.42 39.46 54.49 43.31 54.49 43.31 38.64 44.39 37.35 38.3 37.35 39.38 38.64"/><polygon points="51.16 54.49 58.42 54.49 57.35 53.21 57.35 38.64 58.42 37.35 51.16 37.35 52.24 38.64 52.24 53.21 51.16 54.49"/><polygon points="62.77 37.35 70.77 54.49 74.34 54.49 82.41 37.35 76.29 37.35 77.37 38.64 73.06 48.07 68.89 38.64 69.97 37.35 62.77 37.35"/><polygon points="101.55 40.92 102.83 42 102.83 37.35 86.69 37.35 87.77 38.64 87.77 53.21 86.69 54.49 102.83 54.49 102.83 49.84 101.55 50.92 92.79 50.92 92.79 47.63 98.34 47.63 99.59 48.71 99.59 43.14 98.34 44.22 92.79 44.22 92.79 40.92 101.55 40.92"/><path d="M110.39,38.64V53.21l-1.08,1.28h7.17l-1.08-1.28V48.35h2.16l3.29,4.86-1.08,1.28h7.63l-4.65-6.75c2.29-.93,3.89-2.7,3.89-5.2,0-2.85-1.75-5.19-6.63-5.19h-10.7Zm5,2.28h3.88a2,2,0,0,1,2.22,2c0,1.23-1.19,2.24-2.83,2.24H115.4Z"/><polygon points="127.4 54.49 127.4 54.49 127.4 54.49 127.4 54.49"/><path d="M143.76,44.22c-2-.65-4.95-1.11-4.95-2.47,0-.67.8-1.14,2.18-1.14a19.69,19.69,0,0,1,7.25,1.9V36.79l-1.37,1.31a17.3,17.3,0,0,0-5.65-1.21c-5.83,0-7.7,2.57-7.7,4.91,0,3.18,2.1,4.57,5.42,5.73,2.46.84,4.75.92,4.75,2.33,0,1.21-1.42,1.37-2.13,1.37a15.72,15.72,0,0,1-7.95-2.52v6.35L135,53.57A22,22,0,0,0,141.79,55c5.06,0,7.33-2.23,7.33-5.47C149.12,46.76,146.93,45.24,143.76,44.22Z"/><polygon points="149.12 49.48 149.12 49.48 149.12 49.48 149.12 49.48"/><path d="M160.53,37.35l.62,1.29-7.63,15.85h6.29l-1.08-1.28.85-1.8h8.18l.82,1.8-1.08,1.28h7.24l-8.43-17.14Zm.29,11,2.82-6.14,2.86,6.14Z"/><polygon points="174.74 54.49 174.74 54.49 174.74 54.49 174.74 54.49"/><polygon points="193.76 50.92 185.52 50.92 185.52 38.64 186.6 37.35 179.43 37.35 180.51 38.64 180.51 53.21 179.43 54.49 195.05 54.49 195.05 54.49 195.05 49.84 193.76 50.92"/></g></g></svg>