<svg xmlns="http://www.w3.org/2000/svg" viewBox="0 0 242.62 58.59"><title>walmart</title><g id="Layer_2" data-name="Layer 2"><g id="Layer_1-2" data-name="Layer 1"><path d="M0,12.3S6,37,7,41.05c1.12,4.68,3.15,6.41,9,5.25L19.76,31A106.26,106.26,0,0,0,22,20.56h.11A102.93,102.93,0,0,0,23.91,31s1.54,7,2.32,10.62,3,6,8.71,4.71l9-34H36.67L33.6,27c-.83,4.28-1.57,7.62-2.15,11.53h-.1c-.53-3.87-1.19-7.08-2-11.25l-3.19-15H18.57L15.15,26.9c-1,4.44-1.87,8-2.44,11.8H12.6c-.59-3.56-1.37-8.06-2.22-12.36,0,0-2-10.44-2.74-14Zm69.13,0v34H76v-34h-6.9Zm97.24,0V37.38c0,3.45.65,5.88,2,7.36A7.67,7.67,0,0,0,174,46.87a16.54,16.54,0,0,0,5-.74l-.09-5.39a10.73,10.73,0,0,1-2.62.31c-2.36,0-3.14-1.51-3.14-4.61v-9.6h6v-6.5h-6v-8ZM53.7,20.18a19.8,19.8,0,0,0-9.55,2.27l1.36,4.66a14,14,0,0,1,7-2c4.24,0,4.94,2.4,4.94,3.94v.37c-9.25,0-15.08,3.18-15.08,9.7,0,4,3,7.71,8.14,7.71a9.25,9.25,0,0,0,7.43-3.3h.16s1,4.41,6.87,2.73a37,37,0,0,1-.4-6.16V31.06c0-5.79-2.48-10.88-10.83-10.88Zm41.3,0a8.05,8.05,0,0,0-7.44,4h-.1V20.75H80.87V46.3h6.94v-15a5.84,5.84,0,0,1,.33-2.09A4.69,4.69,0,0,1,92.35,26c2.8,0,4.12,2.37,4.12,5.79V46.3h6.93V31.13a7,7,0,0,1,.29-2.07A4.38,4.38,0,0,1,107.85,26c2.84,0,4.21,2.33,4.21,6.35v14H119v-15c0-7.93-4-11.07-8.57-11.07a9.23,9.23,0,0,0-5,1.38,10.89,10.89,0,0,0-3.24,3.19H102a7.28,7.28,0,0,0-7-4.57Zm38.11,0a19.83,19.83,0,0,0-9.55,2.27l1.36,4.66a14,14,0,0,1,7-2c4.23,0,4.93,2.4,4.93,3.94v.37c-9.24,0-15.08,3.18-15.08,9.7,0,4,3,7.71,8.14,7.71a9.29,9.29,0,0,0,7.44-3.3h.15s1.06,4.41,6.88,2.73a36.88,36.88,0,0,1-.41-6.16V31.06c0-5.79-2.47-10.88-10.83-10.88Zm28.83,0A7.51,7.51,0,0,0,155,25.57h-.2V20.75h-6.25V46.3h7.13V33.22a9.92,9.92,0,0,1,.15-1.89,5.38,5.38,0,0,1,5.63-4.49,13.38,13.38,0,0,1,2.06.18V20.34a6.77,6.77,0,0,0-1.57-.16ZM57.63,34v3.19a4.79,4.79,0,0,1-.17,1.38,4.85,4.85,0,0,1-4.66,3.27,3.16,3.16,0,0,1-3.43-3.38c0-3.51,3.86-4.48,8.26-4.46ZM137,34v3.19a4.79,4.79,0,0,1-.17,1.38,4.84,4.84,0,0,1-4.66,3.27,3.16,3.16,0,0,1-3.43-3.38c0-3.51,3.87-4.48,8.26-4.46Z"/><path d="M216.52,0c-2.23,0-4,1.24-4,2.76l1.35,15.33c.15.92,1.28,1.63,2.65,1.63s2.5-.71,2.65-1.63l1.36-15.33c0-1.52-1.78-2.76-4-2.76ZM194.46,12.29a4.32,4.32,0,0,0-3.31,2.36c-1.12,1.93-.92,4.09.39,4.84l14,6.5c.87.32,2-.3,2.74-1.48h0c.69-1.19.63-2.52-.09-3.11l-12.6-8.84a2,2,0,0,0-1.08-.26Zm44.12,0a2.09,2.09,0,0,0-1.08.27L224.9,21.4c-.72.59-.78,1.92-.09,3.11h0c.69,1.18,1.87,1.8,2.74,1.48l13.95-6.5c1.32-.75,1.5-2.91.39-4.84a4.28,4.28,0,0,0-3.31-2.35ZM206,32.52a1.29,1.29,0,0,0-.52.08l-14,6.49c-1.31.76-1.51,2.92-.39,4.85s3.08,2.85,4.39,2.09l12.6-8.83c.73-.6.78-1.93.09-3.12h0A2.87,2.87,0,0,0,206,32.52Zm21,0a2.85,2.85,0,0,0-2.22,1.56h0c-.68,1.19-.63,2.52.09,3.12L237.5,46c1.31.76,3.27-.16,4.39-2.09s.93-4.09-.39-4.85L227.55,32.6a1.49,1.49,0,0,0-.52-.08Zm-10.51,6.35c-1.37,0-2.5.71-2.65,1.63l-1.35,15.33c0,1.52,1.77,2.76,4,2.76s4-1.24,4-2.76L219.17,40.5c-.15-.92-1.28-1.63-2.65-1.63Z"/></g></g></svg>