<svg xmlns="http://www.w3.org/2000/svg" viewBox="0 0 81.25 103.73"><g id="Layer_2" data-name="Layer 2"><g id="Layer_1-2" data-name="Layer 1"><path d="M74,23c-1,25.79-11.85,45.52-32.53,59.92a1.32,1.32,0,0,1-1.76,0c-16.39-11.28-27-26.5-31-46.06a63.51,63.51,0,0,1-1-19.36C8,14.39,8,14.39,11,13.6a2.24,2.24,0,0,1,.34-.11c2.5-.21,4.17-1.28,4.3-4.06,0-.32.56-.78,1-.91q2.37-.76,4.82-1.34c.76-.17,1.19-.53,1.24-1.28.11-2.12,1.08-3,3.32-3.34C30.69,1.92,35.37.75,40.13.05c1.5-.22,3.13.33,4.69.61,4,.73,8,1.53,12,2.23.86.15,1.39.42,1.43,1.33.08,2.16,1.18,3.26,3.34,3.43.76.06,1.48.5,2.24.58A2.12,2.12,0,0,1,66,10.48a2.6,2.6,0,0,0,2.56,2.68c1.18.16,2.32.62,3.49.87a1.3,1.3,0,0,1,1.21,1.3C73.47,18.07,73.79,20.81,74,23ZM37.87,71.81l.41-.13V11.52c0-.27,0-.55,0-.82,0-.66-.24-.93-.91-.81-.91.18-1.83.37-2.75.48-1.22.13-1.64.68-1.63,2,.13,11.36.18,22.72.25,34.07,0,2.23,0,4.45,0,6.68-4.24-13.24-4.5-26.92-4.54-41-1.63.85-3,1.49-4.33,2.29a2.06,2.06,0,0,0-.86,1.47,134.75,134.75,0,0,0,2.36,29.8c.22,1.08,0,1.62-1.26,1.95-.57-1.55-1.23-3.11-1.74-4.72a77.77,77.77,0,0,1-3.3-22.74c0-.58-.1-1.15-.18-2.05-1.56,1.54-2.91,2.74-4.1,4.09a3.14,3.14,0,0,0-.69,2,68.21,68.21,0,0,0,2.25,15.29,59.64,59.64,0,0,0,4.83,13.32c1.09,2.09,1.51,2.2,3.48,1l2.39-1.5C29.83,59.57,32.88,66.21,37.87,71.81Zm5.2.07a4.53,4.53,0,0,0,.73-.44c6.11-5.74,11.84-11.81,16.25-19a30.65,30.65,0,0,0,4.72-12c.54-4.23-.32-8.13-4.77-9.75,0,0-.08-.12-.15-.21l.6-.84c3.74-5.3,2.69-11.63-2.6-15.36a21.11,21.11,0,0,0-3.45-1.92,32.52,32.52,0,0,0-9.91-2.39C43.05,9.76,43,9.79,43,11.26V70.4C43,70.85,43,71.29,43.07,71.88Z"/><path d="M3.51,98.84c.38-2,.79-4,1.12-6,.13-.8.45-1.26,1.27-1a1.24,1.24,0,0,1,.79.7c.46,2.08.84,4.18,1.5,6.32l1.41-7h1.81c-.25,1.22-.49,2.37-.72,3.53-.49,2.39-1,4.79-1.45,7.19a1,1,0,0,1-1.15.94c-.72,0-1-.22-1.14-1a44.77,44.77,0,0,0-1.37-6l-1.34,6.85H2.34C1.57,99.59.78,95.76,0,91.93c1.76-.36,1.84-.32,2.15,1.25.37,1.87.72,3.73,1.08,5.6Z"/><path d="M30.6,91.83h1.71v11.54c-1.11.32-1.82.13-2.26-1.13a32.5,32.5,0,0,0-2.56-5.5v6.69H25.77V92c1.63-.39,1.68-.36,2.28,1.06a42.13,42.13,0,0,0,2.55,5.36Z"/><path d="M50.23,103.4V91.76a19.54,19.54,0,0,1,3.08.18c2.56.56,3.25,2.61,1.68,5a3,3,0,0,1,1.54,3.7,3.89,3.89,0,0,1-3.48,2.7A17.6,17.6,0,0,1,50.23,103.4ZM52,101.72c1.25,0,2.23-.26,2.66-1.31.19-.44.13-1.37-.15-1.55a3.64,3.64,0,0,0-2-.39c-.19,0-.43.76-.49,1.18A17.56,17.56,0,0,0,52,101.72Zm.09-8.21v3.18c1.35-.18,2.11-.81,2-1.71C54,93.82,53.14,93.62,52.07,93.51Z"/><path d="M59.51,103.42H57.74V91.87a7.08,7.08,0,0,1,4.17.44,3.53,3.53,0,0,1,.85,5.57,1.27,1.27,0,0,0-.28,1.62c.58,1.26,1.07,2.56,1.61,3.86-1.91.29-1.91.29-2.54-1.29-.27-.68-.51-1.38-.83-2-.11-.22-.41-.35-.62-.52-.2.24-.55.47-.57.73C59.47,101.27,59.51,102.31,59.51,103.42Zm.07-5.82c1.63-.33,2.42-1.22,2.28-2.46-.12-1-.82-1.5-2.28-1.49Z"/><path d="M40.38,91.7a19,19,0,0,1,3.31.32,3.48,3.48,0,0,1,1.67,5.82,1.3,1.3,0,0,0-.28,1.7c.57,1.23,1,2.5,1.56,3.76-1.8.42-1.88.38-2.48-1.13-.26-.65-.47-1.32-.78-1.94-.15-.29-.48-.48-.72-.72a4,4,0,0,0-.51,1,7.14,7.14,0,0,0,0,1.39v1.48H40.38Zm1.81,6c1.66-.5,2.44-1.39,2.28-2.5s-.88-1.51-2.28-1.5Z"/><path d="M25,103.33c-1.45.46-2.22,0-2.55-1.29a11,11,0,0,0-.81-2.06c-.1-.21-.47-.47-.64-.42a.82.82,0,0,0-.49.63c-.06,1,0,2.09,0,3.21H18.69V91.71A18.71,18.71,0,0,1,22,92a3.48,3.48,0,0,1,1.63,5.82,1.32,1.32,0,0,0-.25,1.71C24,100.79,24.43,102.05,25,103.33ZM20.5,97.59c1.48-.29,2.37-1.2,2.29-2.32S22,93.68,20.5,93.61Z"/><path d="M64.34,97.6a37.4,37.4,0,0,1,.88-3.94,2.93,2.93,0,0,1,2.94-2.07,3,3,0,0,1,3,2,10.86,10.86,0,0,1,0,8,3.18,3.18,0,0,1-6-.06A37.6,37.6,0,0,1,64.34,97.6Zm1.9,0a23.29,23.29,0,0,0,.68,3.18,1.74,1.74,0,0,0,1.24,1,1.71,1.71,0,0,0,1.28-.93,8.84,8.84,0,0,0,0-6.48,1.75,1.75,0,0,0-1.28-.92,1.73,1.73,0,0,0-1.25,1A24.33,24.33,0,0,0,66.24,97.62Z"/><path d="M15.51,91.78c.79,3.92,1.56,7.75,2.39,11.82-.76-.16-1.54-.1-1.91-.47s-.32-1.14-.45-1.71c-2.54-.35-2.54-.35-3.13,2H10.66c.74-3.74,1.46-7.39,2.23-11a1,1,0,0,1,.7-.56A15.1,15.1,0,0,1,15.51,91.78Zm-1.15,3.28h-.28l-.84,4.42h1.95Z"/><path d="M38.38,96.47v1.82H35.71v3.41h3.58v1.71H33.88V91.85h5.24c.05,1.62,0,1.63-1.52,1.63H35.7v3Z"/><path d="M77.19,94.86l-.37-.65c-.42-.68-1-1.1-1.73-.59a1.15,1.15,0,0,0-.1,1.84,19.91,19.91,0,0,0,2.2,1.89A3.64,3.64,0,0,1,78.75,101a3.16,3.16,0,0,1-3,2.62c-1.61.06-2.74-.84-3.37-2.75l1.41-.86c.18.35.31.66.49.94a1.49,1.49,0,0,0,2.17.63,1.43,1.43,0,0,0,0-2.25c-.61-.64-1.43-1.08-2-1.73a7.36,7.36,0,0,1-1.53-2.25,2.83,2.83,0,0,1,1.22-3.25,3,3,0,0,1,3.48.17C78.94,93.38,78.85,94.07,77.19,94.86Z"/><path d="M80,103.73c-.3-.41-.87-.85-.82-1.22a1.57,1.57,0,0,1,1.06-1c.29,0,.95.58,1,1s-.47.85-.74,1.28Z"/><path d="M48.12,59v-4.4c0-4.55,0-9.1,0-13.65a2.11,2.11,0,0,1,.76-1.5,39.58,39.58,0,0,1,5.58-3.34c3-1.37,5.13.15,4.86,3.49a16.81,16.81,0,0,1-1.15,4.72C56,49.94,52.27,54.58,48.12,59Z"/><path d="M48.19,33.71V15.87a11.6,11.6,0,0,1,7.12,2.66,5.12,5.12,0,0,1,1.6,6.1,14.84,14.84,0,0,1-2.08,3.73A22,22,0,0,1,48.19,33.71Z"/></g></g></svg>