<svg xmlns="http://www.w3.org/2000/svg" viewBox="0 0 108.82 28.48" fill="#798291">
  <path d="M22.12 26.1a14.45 14.45 0 0 1-7.88 2.38 14.08 14.08 0 0 1-7.89-2.38c2.82-7.34 7.56-1.43 13-7.3.96 2.36 1.97 4.85 2.77 7.3zM0 14.24a14.16 14.16 0 0 0 3.08 8.84 103.58 103.58 0 0 1 8.48-18.71Q12.85 2.15 14.24 0A14.23 14.23 0 0 0 0 14.24zM14.24 0q1.39 2.15 2.67 4.37a103.62 103.62 0 0 1 8.49 18.71A14.24 14.24 0 0 0 14.24 0zm0 8.71a95.45 95.45 0 0 0-5.07 10.05A10.28 10.28 0 0 0 14.24 20a10.27 10.27 0 0 0 5.06-1.26 95.38 95.38 0 0 0-5.06-10.03zm31.76.7h4.14v12.82H46v-1.55a4.27 4.27 0 0 1-3.79 2 6.07 6.07 0 0 1-4.8-1.95 6.77 6.77 0 0 1-1.87-4.81 7.29 7.29 0 0 1 2-5.17A6.18 6.18 0 0 1 42 9a4.79 4.79 0 0 1 4 1.86zm-5.26 4.05a3.21 3.21 0 0 0-.95 2.33 3.32 3.32 0 0 0 .86 2.3 3.44 3.44 0 0 0 2.45 1 3 3 0 0 0 2.15-.9 3.22 3.22 0 0 0 1-2.41 3.28 3.28 0 0 0-1-2.36 3.47 3.47 0 0 0-2.3-.89 3.25 3.25 0 0 0-2.19.93zm20.46-.78A4.71 4.71 0 0 0 59 12a1.76 1.76 0 0 0-1.18.37.88.88 0 0 0-.25.57.68.68 0 0 0 .4.58 7.7 7.7 0 0 0 1.23.43l1.1.35a5.32 5.32 0 0 1 2.12 1.12 3 3 0 0 1 1 2.44 4.65 4.65 0 0 1-1.32 3.36 5.54 5.54 0 0 1-4.17 1.47 7.6 7.6 0 0 1-5.26-1.84L54.38 18a6.85 6.85 0 0 0 1.41.95 3.86 3.86 0 0 0 1.73.4 2.36 2.36 0 0 0 1.29-.28 1.11 1.11 0 0 0 .43-.84.86.86 0 0 0-.46-.75 6 6 0 0 0-1.26-.46l-1-.31a5.09 5.09 0 0 1-2.07-1.18 3.17 3.17 0 0 1-.92-2.33 4 4 0 0 1 1.24-3A5.66 5.66 0 0 1 58.61 9a8 8 0 0 1 4.25 1.09zm7-11.15A2.39 2.39 0 0 1 70.62 4a2.42 2.42 0 0 1-4.83 0 2.4 2.4 0 0 1 2.42-2.47zm2.07 7.88v12.82h-4.13V9.41zm11.35 3.27a4.74 4.74 0 0 0-2.26-.68 1.76 1.76 0 0 0-1.18.37.89.89 0 0 0-.26.57.68.68 0 0 0 .4.58 7.52 7.52 0 0 0 1.24.43l1.09.35a5.36 5.36 0 0 1 2.13 1.12 3 3 0 0 1 1 2.44 4.61 4.61 0 0 1-1.33 3.36 5.51 5.51 0 0 1-4.17 1.47A7.61 7.61 0 0 1 73 20.82L74.79 18a6.59 6.59 0 0 0 1.41 1 3.79 3.79 0 0 0 1.72.4 2.35 2.35 0 0 0 1.29-.28 1.12 1.12 0 0 0 .44-.84.86.86 0 0 0-.46-.75 6.17 6.17 0 0 0-1.27-.46l-1-.31a5 5 0 0 1-2.07-1.18 3.13 3.13 0 0 1-.92-2.33 4 4 0 0 1 1.23-3A5.66 5.66 0 0 1 79 9a8.06 8.06 0 0 1 4.26 1.09zm8.88.06v9.49h-4.13v-9.49h-1.44V9.41h1.44V5.27h4.14v4.14h2.56v3.33zm14.17-3.33h4.14v12.82h-4.14v-1.55a4.27 4.27 0 0 1-3.79 2 6.11 6.11 0 0 1-4.81-1.95 6.8 6.8 0 0 1-1.86-4.81 7.29 7.29 0 0 1 2-5.17A6.18 6.18 0 0 1 100.66 9a4.79 4.79 0 0 1 4 1.86zm-5.26 4.05a3.21 3.21 0 0 0-1 2.33 3.32 3.32 0 0 0 .86 2.3 3.44 3.44 0 0 0 2.45 1 3 3 0 0 0 2.15-.9 3.22 3.22 0 0 0 1-2.41 3.28 3.28 0 0 0-1-2.36 3.47 3.47 0 0 0-2.3-.89 3.25 3.25 0 0 0-2.15.93z" />
</svg>