<svg xmlns="http://www.w3.org/2000/svg" viewBox="0 0 78.415 78.415">
  <path fill="#fff" fill-rule="evenodd" d="M20.066 5.038a.21.21 0 01-.025-.085c.223-.127.446-.253.672-.375 6.478 11.899 6.057 10.943 6.004 11.474-.032.307.132.783.288 1.142-1.474-2.583-4.864-8.523-6.939-12.156zm1.972 15.87c-.238-.31-.512-.732-.556-1.035-.076-.539.552.292-8.635-9.668-.187.172-.374.346-.558.522.01.034.025.066.05.091l9.699 10.09zm-4.257 5.264l-11.98-7.117a.226.226 0 00-.118-.027 39.159 39.159 0 00-1.97 3.755l11.428 5.195c.234.104.321-.183.429-.422.053-.104.596-1.174.657-1.273.187-.325.697-.188.978-.078-.748-.092-.672.043-1.162.974-.112.222-.234.44-.38.778-.209.464.228 1.046.692 1.246.113.048.191.024.251-.035.395-.916.843-1.804 1.341-2.659a.349.349 0 00-.166-.337zm8.815 34.466l-7.117 11.981a.254.254 0 00-.017.207c1.2.71 2.44 1.359 3.718 1.94l5.222-11.487c.104-.235-.183-.321-.422-.429-1.052-.537-1.174-.596-1.273-.657-.325-.187-.188-.697-.078-.978-.019.158-.117.573.204.762a31.29 31.29 0 001.548.78c.608.275 1.442-.608 1.221-.929a24.728 24.728 0 01-2.68-1.355.343.343 0 00-.326.165zM14.49 42.312L.674 44.13a.249.249 0 00-.153.076c.185 1.411.447 2.798.778 4.158l12.229-2.997c.319-.087.069-.497-.041-1.171a419.61 419.61 0 01-.149-.836c-.07-.367.425-.576.714-.665-.628.38-.572.324-.123 2.331.159.665 1.412.752 1.489.37-.252-.95-.45-1.923-.589-2.914a.342.342 0 00-.339-.17zm4.569 11.449l-11.275 8.19a.254.254 0 00-.097.172 39.31 39.31 0 002.643 3.252l9.336-8.468c.223-.208-.039-.335-.955-1.469-.172-.219-.509-.474.143-1.129-.082.139-.332.477-.105.772 1.151 1.441 1.233 1.624 1.811 1.534.33-.051.848-.312.798-.565a24.924 24.924 0 01-1.924-2.302.337.337 0 00-.375.013zm-3.001-5.44l-12.941 5.17a.25.25 0 00-.133.138 39.083 39.083 0 001.772 3.813l11.12-5.925c.272-.148-.004-.432-.327-1.122l-.35-.774c-.158-.341.268-.663.527-.821-.496.502-.485.442.456 2.289.294.6 1.543.384 1.535-.005a24.778 24.778 0 01-1.291-2.682.34.34 0 00-.368-.081zM15.22 32.14L1.81 28.348a.235.235 0 00-.149.014 38.89 38.89 0 00-.926 4.125l12.395 2.075c.294.046.208-.149.616-1.916.079-.367.623-.361.921-.329-.738.113-.648.052-1.034 2.092-.12.676 1.003 1.247 1.221.926.146-.99.351-1.961.611-2.909a.345.345 0 00-.245-.286zm44.564-7.905l11.275-8.19a.184.184 0 00.044-.044 39.522 39.522 0 00-2.682-3.297l-9.244 8.385c-.114.106-.079.24.035.372.958 1.105.554.645.92 1.098.172.219.509.474-.143 1.129.351-.596.358-.535-1.004-2.107-.406-.488-1.494-.032-1.496.338a25.035 25.035 0 011.967 2.353.34.34 0 00.328-.037zm3.001 5.439l12.941-5.17a.246.246 0 00.065-.041 39.148 39.148 0 00-1.799-3.859l-11.025 5.875c-.224.122-.057.364.064.6.31.622.048.045.613 1.296.158.341-.268.663-.527.821.502-.508.397-.501-.062-1.516l-.394-.772c-.224-.457-.977-.453-1.412-.205-.082.045-.117.095-.121.159.5.891.946 1.816 1.335 2.771.09.065.211.085.322.041zm1.567 6.009l13.816-1.818a.237.237 0 00.084-.031 39.164 39.164 0 00-.791-4.182l-12.146 2.977c-.15.041-.183.173-.144.342.202.874.122.48.334 1.665.07.367-.425.576-.714.665.632-.382.57-.334.123-2.331-.153-.638-1.301-.743-1.472-.419.263.983.468 1.989.609 3.016a.338.338 0 00.301.116zM24.658 18.635L16.468 7.36a.226.226 0 00-.07-.06 39.532 39.532 0 00-3.296 2.67l8.41 9.271c.106.114.24.079.372-.035 1.105-.958.645-.555 1.098-.92.216-.17.473-.51 1.129.143-.613-.361-.556-.34-2.107 1.004-.502.418-.005 1.57.374 1.492a25.133 25.133 0 012.297-1.922.338.338 0 00-.017-.368zm5.439-3.001L24.928 2.693a.225.225 0 00-.046-.069 38.897 38.897 0 00-3.861 1.791l5.882 11.038c.122.224.364.057.6-.064.611-.305.045-.048 1.296-.613.341-.158.663.268.821.527-.508-.502-.501-.397-1.516.062l-.772.394c-.457.224-.453.977-.205 1.412.054.097.111.134.197.124a24.703 24.703 0 012.707-1.305.344.344 0 00.066-.356zm22.15 1.724l7.117-11.981a.272.272 0 00.022-.05 39.139 39.139 0 00-3.778-1.976l-5.167 11.366c-.111.25.067.246 1.462.96.277.136.638.266.311 1.105.019-.158.117-.573-.204-.762a31.29 31.29 0 00-1.548-.78c-.464-.209-1.046.228-1.246.692-.039.093-.03.162.006.216.941.404 1.853.864 2.73 1.377a.349.349 0 00.295-.167zm-16.14-3.291L34.289.25a.294.294 0 00-.016-.068 38.895 38.895 0 00-4.195.784l2.975 12.137c.041.15.173.183.342.144.872-.201.481-.123 1.665-.334.367-.07.576.425.665.714-.382-.632-.33-.57-2.331-.123-.657.157-.748 1.369-.387 1.483a24.814 24.814 0 012.955-.599.34.34 0 00.145-.321zm10.172.729l3.792-13.41a.341.341 0 00.011-.061 39.013 39.013 0 00-4.164-.932l-2.061 12.312c-.039.252.255.266.516.312.547.104-.073-.037 1.4.303.367.079.361.623.329.921-.112-.732-.043-.646-2.092-1.034-.671-.119-1.206.944-.945 1.201 1.01.148 2 .356 2.967.622a.335.335 0 00.247-.234zm14.782 37.027l11.981 7.117a.225.225 0 00.131.026 39.157 39.157 0 001.955-3.755l-11.425-5.194c-.252-.112-.293.157-.694.942-.05.099-.334.659-.392.753-.187.325-.697.188-.978.078.745.091.67-.038 1.162-.974.112-.223.234-.44.38-.778.266-.59-.557-1.394-.899-1.24-.406.945-.87 1.86-1.385 2.741a.336.336 0 00.164.284zm4.339-7.874c-.104.548.037-.075-.303 1.4-.079.367-.623.361-.921.329.717-.109.643-.027 1.034-2.092.116-.657-.903-1.185-1.186-.961a24.832 24.832 0 01-.632 3.005.338.338 0 00.231.226l13.41 3.792a.23.23 0 00.119-.003c.378-1.353.685-2.735.917-4.143l-12.357-2.069c-.251-.039-.265.255-.312.516zm-32.837 19.25l-3.792 13.41a.261.261 0 00.039.21c1.337.374 2.703.677 4.093.909l2.083-12.439c.039-.252-.255-.266-.516-.312-.547-.104.073.037-1.4-.303-.366-.079-.36-.623-.329-.921.108.706.121.615 1.24.874.242.06.49.092.853.16.248.044.488-.074.672-.269.227-.246.468-.765.282-.935a24.514 24.514 0 01-2.96-.623.34.34 0 00-.265.239zm21.621-3.839l8.19 11.275c.032.045.083.07.14.086a39.434 39.434 0 003.259-2.659l-8.443-9.308c-.207-.222-.327.033-1.469.955-.216.17-.473.51-1.129-.143.139.082.477.332.772.105 1.44-1.15 1.624-1.233 1.534-1.811-.049-.316-.289-.802-.532-.8a25.024 25.024 0 01-2.355 1.966.336.336 0 00.033.334zm-11.449 4.569l1.818 13.816a.252.252 0 00.106.167 38.991 38.991 0 004.13-.783L45.79 64.892c-.087-.319-.483-.071-1.171.041l-.836.149c-.367.07-.576-.425-.665-.714.38.629.324.572 2.331.123.518-.124.673-.846.548-1.317a.23.23 0 00-.145-.161c-.97.259-1.964.46-2.977.6a.337.337 0 00-.14.316zm6.01-1.568l5.17 12.941c.023.058.075.098.138.127a39.248 39.248 0 003.806-1.779L51.94 62.543c-.074-.137-.212-.135-.364-.057-.85.436-.515.274-1.532.734-.341.158-.663-.268-.821-.527.5.495.425.494 2.289-.456.581-.285.397-1.465.031-1.532-.883.494-1.8.935-2.745 1.32a.338.338 0 00-.053.336zm3.093-1.558c.156.359.32.834.288 1.142-.054.536-.464-.407 6.04 11.542a47.7 47.7 0 00.626-.35c.014-.064.014-.126-.016-.178l-6.938-12.156zm-37.779-15.11c-.502-.178.584-.376-12.678 3.008.059.234.122.467.185.699.06.031.122.041.181.024l13.49-3.728c-.386.062-.889.103-1.178-.003zm42.745 11.394c.238.31.512.732.556 1.035.077.544-.544-.283 8.667 9.704.179-.166.358-.333.534-.503a.242.242 0 00-.058-.145l-9.699-10.091zM3.367 23.876l12.906 5.417c-.344-.192-.761-.469-.917-.729-.278-.451.683.072-11.787-5.461-.102.228-.203.456-.3.686a.241.241 0 00.098.087zm13.108 27.826c-.184-.019-.395-.021-.592.08L4.919 57.75c.113.208.229.413.346.618.071.019.14.016.197-.017l12.155-6.938c-.359.157-.835.321-1.142.289zm16.247-36.888c-.061-.387-.102-.889.003-1.179.177-.501.374.578-2.985-12.587a37.85 37.85 0 00-.753.2.236.236 0 00.006.075l3.729 13.491zM75.475 54.12l-12.906-5.417c.344.192.761.469.917.729.278.45-.683-.072 11.782 5.459.102-.23.202-.461.3-.693a.226.226 0 00-.093-.078zm-46.488 8.943c-.455.281.062-.66-5.487 11.845.214.095.428.19.644.281a.26.26 0 00.156-.138l5.417-12.906c-.193.345-.47.762-.73.918zm17.133.119c.061.387.102.889-.003 1.179-.177.5-.374-.575 3.01 12.686.232-.059.463-.122.693-.186a.25.25 0 00.028-.189l-3.728-13.49zm3.736-48.249c.449-.277-.075.689 5.433-11.723a42 42 0 00-.718-.312.195.195 0 00-.028.046L49.126 15.85c.192-.345.469-.761.73-.917zM14.569 35.542c-.38-.095-.858-.257-1.083-.468-.397-.371.646-.116-12.808-2.245-.039.242-.075.486-.109.73a.239.239 0 00.134.075l13.866 1.908zM45.577.337a39.052 39.052 0 00-.775-.114.22.22 0 00-.017.057l-1.909 13.865c.095-.38.257-.857.468-1.083.371-.395.118.641 2.233-12.725zm-25.281 56.6c-.54.076.296-.556-9.732 8.693.159.172.318.345.48.514a.257.257 0 00.196-.064l10.091-9.699c-.309.238-.731.511-1.035.556zm42.071-30.644c.534.054-.402.462 11.46-5.996a40.68 40.68 0 00-.379-.679.234.234 0 00-.067.024L61.226 26.58c.358-.155.834-.319 1.141-.287zM33.246 77.785c.232.037.466.07.699.102a.26.26 0 00.112-.172l1.909-13.865c-.095.38-.257.858-.468 1.083-.374.398-.118-.635-2.252 12.852zm31.538-45.483c.499.177-.57.373 12.595-2.987-.064-.251-.132-.5-.201-.749a.226.226 0 00-.082.005l-13.49 3.728c.386-.061.888-.102 1.178.003zm-.511 10.151c.38.095.857.257 1.083.468.398.373-.629.119 12.77 2.239.039-.251.075-.504.109-.757a.21.21 0 00-.096-.041l-13.866-1.909zm-5.727-21.394c.183-.026.389-.073.554-.22l9.086-8.388a47.949 47.949 0 00-.535-.569.169.169 0 00-.049.035l-10.091 9.699c.309-.239.732-.513 1.035-.557zM8.861 14.382c-.176.215-.35.431-.521.649l12.978 10.71c.093-.119.51-.555.606-.672-2.597-2.122-6.662-5.463-13.063-10.687zm30.112 9.31a2.494 2.494 0 00-2.489 2.489 2.494 2.494 0 002.489 2.489 2.494 2.494 0 002.489-2.489 2.494 2.494 0 00-2.489-2.489zm17.015 1.423c-.655.468-1.191.777-2.136 1.325-.906.525-1.905 1.088-2.992 1.503-2.126.812-3.641 1.146-5.106 1.376a37.915 37.915 0 01-4.372.407l-2.41 3.071-2.41-3.071c-3.048-.121-6.028-.516-8.805-1.51a19.278 19.278 0 01-2.366-1.026 23.855 23.855 0 01-2.711-1.661c-.25.299-.494.605-.728.917 1.698 1.391 2.301 1.918 2.649 2.214 1.576 1.335 3.241 2.477 5.016 3.375a20.73 20.73 0 004.323 1.622l4.294 26.661c.293.012.587.022.883.022.3 0 .597-.01.893-.023L43.906 33.8l.097-.143a20.81 20.81 0 004.763-1.854l.001.001s1.524-.685 3.897-2.592c.09-.072.179-.146.268-.219.12-.098.241-.199.364-.303.067-.057.136-.111.202-.168l.174-.151.001-.001c1.219-1.058 1.981-1.804 2.799-2.598l-.484-.657zM39.485 14.08c.04-3.286.099-7.817.164-14.075C39.502.004 39.355 0 39.208 0c-.128 0-.255.004-.383.005.065 6.264.123 10.798.164 14.084.141-.002.28-.011.421-.011l.075.002zM14.421 69.586c.215.176.432.35.651.522 4.094-5.24 6.975-8.934 9.012-11.544-.134-.105-.271-.209-.403-.317-2.094 2.563-5.058 6.189-9.26 11.339zM63.97 8.811a39.836 39.836 0 00-.649-.519c-3.848 4.925-6.62 8.479-8.622 11.045.163.127.327.252.487.382 2.031-2.537 4.83-6.062 8.784-10.908zM38.994 63.84c-.041 3.334-.101 8.006-.17 14.571.128.001.255.005.384.005.148 0 .295-.004.443-.006-.068-6.559-.129-11.228-.169-14.561l-.071.002c-.141-.001-.278-.009-.417-.011zm39.417-24.28c.001-.118.004-.234.004-.352 0-.158-.001-.262-.003-.419-7.756.081-10.978.15-14.117.189 0 .136-.008.27-.01.405 3.101.036 6.309.095 14.126.177zm-8.775 24.371c.175-.215.349-.432.519-.651-5.077-3.966-8.697-6.79-11.287-8.811-.108.135-.214.272-.324.405 2.543 2.077 6.099 4.983 11.092 9.057zm-55.11-25.039c-3.299-.037-7.947-.089-14.52-.157-.002.157-.006.315-.006.473 0 .118.003.235.004.353 6.542-.068 11.202-.128 14.53-.169-.002-.143-.011-.284-.011-.428l.003-.072z" clip-rule="evenodd"/>
</svg>
